<?xml version="1.0" encoding="utf-8"?>
<!-- Generator: Adobe Illustrator 18.1.0, SVG Export Plug-In . SVG Version: 6.00 Build 0)  -->
<svg version="1.1" id="Layer_1" xmlns="http://www.w3.org/2000/svg" xmlns:xlink="http://www.w3.org/1999/xlink" x="0px" y="0px"
	 viewBox="0 0 16 48" enable-background="new 0 0 16 48" xml:space="preserve">
<g>
	<polygon opacity="0.2" points="8,40 10,41 12,40 10,39 	"/>
	<g>
		<polygon fill="#E5E5E5" points="8,28 6,29 6,39 8,40 10,39 10,29 		"/>
		<polygon opacity="0.29" points="8,40 10,39 10,29 8,30 		"/>
		<polygon opacity="0.11" points="8,40 6,39 6,29 8,30 		"/>
	</g>
	<polygon fill="#E5E5E5" points="10,3 8,4 8,34 10,35 12,34 12,4 	"/>
	<polygon fill="#CC291F" points="10,31 8,28 8,26 10,29 	"/>
	<polygon fill="#CC291F" points="10,29 10,31 12,30 12,28 	"/>
	<polygon fill="#CC291F" points="10,24 8,21 8,19 10,22 	"/>
	<polygon fill="#CC291F" points="10,22 10,24 12,23 12,21 	"/>
	<polygon fill="#CC291F" points="10,17 8,14 8,12 10,15 	"/>
	<polygon fill="#CC291F" points="10,15 10,17 12,16 12,14 	"/>
	<polygon fill="#CC291F" points="10,10 8,7 8,5 10,8 	"/>
	<polygon fill="#CC291F" points="10,8 10,10 12,9 12,7 	"/>
	<polygon opacity="0.29" points="10,35 12,34 12,4 10,5 	"/>
	<polygon opacity="0.11" points="10,35 8,34 8,4 10,5 	"/>
</g>
</svg>
