<?xml version="1.0" encoding="utf-8"?>
<!-- Generator: Adobe Illustrator 18.1.0, SVG Export Plug-In . SVG Version: 6.00 Build 0)  -->
<svg version="1.1" id="Layer_1" xmlns="http://www.w3.org/2000/svg" xmlns:xlink="http://www.w3.org/1999/xlink" x="0px" y="0px"
	 viewBox="0 0 40 24" enable-background="new 0 0 40 24" xml:space="preserve">
<g>
	<polygon opacity="0.2" points="0,8 30,23 32,22 2,7 	"/>
	<polygon fill="#E5E5E5" points="0,1 30,16 30,18 0,3 	"/>
	<polygon fill="#E5E5E5" points="0,1 30,16 32,15 2,0 	"/>
	<polygon fill="#CC291F" points="5,5.5 3,4.5 5,3.5 7,4.5 	"/>
	<polygon fill="#CC291F" points="10,4 8,3 5,3.5 7,4.5 	"/>
	<polygon fill="#CC291F" points="12,9 10,8 12,7 14,8 	"/>
	<polygon fill="#CC291F" points="19,12.5 17,11.5 19,10.5 21,11.5 	"/>
	<polygon fill="#CC291F" points="26,16 24,15 26,14 28,15 	"/>
	<polygon fill="#CC291F" points="17,7.5 15,6.5 12,7 14,8 	"/>
	<polygon fill="#CC291F" points="24,11 22,10 19,10.5 21,11.5 	"/>
	<polygon fill="#CC291F" points="31,14.5 29,13.5 26,14 28,15 	"/>
	<polygon opacity="0.11" points="0,1 30,16 30,18 0,3 	"/>
	<g>
		<polygon fill="#E5E5E5" points="32,12 30,13 30,23 32,24 34,23 34,13 		"/>
		<polygon opacity="0.29" points="32,24 34,23 34,13 32,14 		"/>
		<polygon opacity="0.11" points="32,24 30,23 30,13 32,14 		"/>
	</g>
</g>
</svg>
