<?xml version="1.0" encoding="utf-8"?>
<!-- Generator: Adobe Illustrator 18.1.0, SVG Export Plug-In . SVG Version: 6.00 Build 0)  -->
<svg version="1.1" id="Layer_1" xmlns="http://www.w3.org/2000/svg" xmlns:xlink="http://www.w3.org/1999/xlink" x="0px" y="0px"
	 viewBox="0 0 16 40" enable-background="new 0 0 16 40" xml:space="preserve">
<g>
	<polygon fill="#E5E5E5" points="6,1 4,2 4,32 6,33 8,32 8,2 	"/>
	<polygon opacity="0.2" points="4,38 6,39 8,38 6,37 	"/>
	<polygon fill="#CC291F" points="6,29 4,26 4,24 6,27 	"/>
	<polygon fill="#CC291F" points="6,27 6,29 8,28 8,26 	"/>
	<polygon fill="#CC291F" points="6,22 4,19 4,17 6,20 	"/>
	<polygon fill="#CC291F" points="6,20 6,22 8,21 8,19 	"/>
	<polygon fill="#CC291F" points="6,15 4,12 4,10 6,13 	"/>
	<polygon fill="#CC291F" points="6,13 6,15 8,14 8,12 	"/>
	<polygon fill="#CC291F" points="6,8 4,5 4,3 6,6 	"/>
	<polygon fill="#CC291F" points="6,6 6,8 8,7 8,5 	"/>
	<polygon opacity="0.29" points="6,33 8,32 8,2 6,3 	"/>
	<polygon opacity="0.11" points="6,33 4,32 4,2 6,3 	"/>
	<g>
		<polygon fill="#E5E5E5" points="8,28 6,29 6,39 8,40 10,39 10,29 		"/>
		<polygon opacity="0.29" points="8,40 10,39 10,29 8,30 		"/>
		<polygon opacity="0.11" points="8,40 6,39 6,29 8,30 		"/>
	</g>
</g>
</svg>
