<?xml version="1.0" encoding="utf-8"?>
<!-- Generator: Adobe Illustrator 18.1.0, SVG Export Plug-In . SVG Version: 6.00 Build 0)  -->
<svg version="1.1" id="Layer_1" xmlns="http://www.w3.org/2000/svg" xmlns:xlink="http://www.w3.org/1999/xlink" x="0px" y="0px"
	 viewBox="0 0 40 32" enable-background="new 0 0 40 32" xml:space="preserve">
<g>
	<polygon opacity="0.2" points="8,16 38,31 40,30 10,15 	"/>
	<g>
		<polygon fill="#E5E5E5" points="8,4 6,5 6,15 8,16 10,15 10,5 		"/>
		<polygon opacity="0.29" points="8,16 10,15 10,5 8,6 		"/>
		<polygon opacity="0.11" points="8,16 6,15 6,5 8,6 		"/>
	</g>
	<polygon fill="#E5E5E5" points="38,26 40,25 40,23 38,24 	"/>
	<polygon opacity="0.29" points="38,26 40,25 40,23 38,24 	"/>
	<polygon fill="#E5E5E5" points="8,9 38,24 38,26 8,11 	"/>
	<polygon fill="#E5E5E5" points="8,9 38,24 40,23 10,8 	"/>
	<polygon fill="#CC291F" points="13,13.5 11,12.5 13,11.5 15,12.5 	"/>
	<polygon fill="#CC291F" points="18,12 16,11 13,11.5 15,12.5 	"/>
	<polygon fill="#CC291F" points="20,17 18,16 20,15 22,16 	"/>
	<polygon fill="#CC291F" points="27,20.5 25,19.5 27,18.5 29,19.5 	"/>
	<polygon fill="#CC291F" points="34,24 32,23 34,22 36,23 	"/>
	<polygon fill="#CC291F" points="25,15.5 23,14.5 20,15 22,16 	"/>
	<polygon fill="#CC291F" points="32,19 30,18 27,18.5 29,19.5 	"/>
	<polygon fill="#CC291F" points="39,22.5 37,21.5 34,22 36,23 	"/>
	<polygon opacity="0.11" points="8,9 38,24 38,26 8,11 	"/>
</g>
</svg>
