<?xml version="1.0" encoding="utf-8"?>
<!-- Generator: Adobe Illustrator 18.1.0, SVG Export Plug-In . SVG Version: 6.00 Build 0)  -->
<svg version="1.1" id="Layer_1" xmlns="http://www.w3.org/2000/svg" xmlns:xlink="http://www.w3.org/1999/xlink" x="0px" y="0px"
	 viewBox="0 0 240 240" enable-background="new 0 0 240 240" xml:space="preserve">
<g>
	<path fill="#FBD7C7" d="M134,103.3c0,0-2.6,13-2.5,16.4c0.1,3.4-0.2,6.4-0.4,7c-0.2,0.6-4.5,10.7-4.8,15.9
		c-0.3,5.2-2.2,18.7-2.2,18.7l6.2,1.6c0,0,8.6-17.8,10.1-23.2c1.5-5.5,1.7-12.7,1.9-13.9c0.2-1.2,10-16.7,11.4-20.6s1.9-5.9,1.9-5.9
		L134,103.3z"/>
	<polygon fill="#FFFFFF" points="124.6,154.2 133,157.1 129.5,166 123.5,163.5 	"/>
	<g>
		<path fill="#3399CC" d="M65.7,130.8l-1.3-0.6c5.9-10.8,14.6-27.7,15-29.9c0.2-0.8-0.1-1.1-0.2-1.2c-0.5-0.6-1.7-0.8-2-0.8l0.1-2.3
			c0.2,0,2.4,0.1,3.6,1.7c0.5,0.6,0.9,1.6,0.6,3.1C81,104.1,67.2,128.1,65.7,130.8z"/>
		<path fill="#3399CC" d="M172.9,186.3c-0.2,0-0.4,0-0.5-0.1L126.9,164c-0.6-0.3-0.9-1.1-0.6-1.7c0.3-0.6,1.1-0.9,1.7-0.6l40.5,19.7
			l-34.1-42.6c-0.4-0.5-0.3-1.3,0.2-1.8c0.5-0.4,1.3-0.3,1.8,0.2l37.6,46.9c0.4,0.5,0.4,1.1,0,1.6
			C173.7,186.1,173.3,186.3,172.9,186.3z"/>
		
			<ellipse transform="matrix(0.8945 -0.4471 0.4471 0.8945 -64.031 97.6655)" fill="#656565" cx="174.9" cy="184.5" rx="4.5" ry="7.7"/>
		
			<ellipse transform="matrix(0.8945 -0.4471 0.4471 0.8945 -64.031 97.6655)" opacity="0.2" cx="174.9" cy="184.5" rx="4.5" ry="7.7"/>
		<path fill="#656565" d="M130.4,173.8c-3.8,0-8.2-3.6-10.9-9c-3.4-6.8-2.9-13.6,1.2-15.7c0.7-0.4,1.5-0.5,2.4-0.5
			c3.8,0,8.2,3.6,10.9,9c3.4,6.8,2.9,13.6-1.2,15.7C132,173.6,131.2,173.8,130.4,173.8z M123.1,149.9c-0.6,0-1.2,0.1-1.8,0.4
			c-3.3,1.7-3.6,7.9-0.6,13.9c2.4,4.9,6.4,8.3,9.7,8.3c0.6,0,1.2-0.1,1.8-0.4c3.3-1.7,3.6-7.9,0.6-13.9
			C130.4,153.3,126.4,149.9,123.1,149.9z"/>
		<path fill="#656565" d="M130,171.7c-3,0-6.7-3.2-9-7.8c-2.9-5.7-2.7-11.4,0.4-13c0.5-0.3,1.1-0.4,1.7-0.4c3,0,6.7,3.2,9,7.8
			c2.9,5.7,2.7,11.4-0.4,13C131.1,171.6,130.6,171.7,130,171.7z M123.1,151.6c-0.4,0-0.8,0.1-1.2,0.3c-2.5,1.3-2.5,6.6,0,11.6
			c2.1,4.2,5.5,7.3,8.1,7.3c0.4,0,0.8-0.1,1.2-0.3c2.5-1.3,2.5-6.6,0-11.6C129.1,154.6,125.7,151.6,123.1,151.6z"/>
		
			<ellipse transform="matrix(0.8945 -0.4471 0.4471 0.8945 -58.9475 73.5708)" fill="#656565" cx="126.4" cy="161.7" rx="2.9" ry="4.6"/>
		<path opacity="0.2" d="M130.4,173.8c-3.8,0-8.2-3.6-10.9-9c-3.4-6.8-2.9-13.6,1.2-15.7c0.7-0.4,1.5-0.5,2.4-0.5
			c3.8,0,8.2,3.6,10.9,9c3.4,6.8,2.9,13.6-1.2,15.7C132,173.6,131.2,173.8,130.4,173.8z M123.1,149.9c-0.6,0-1.2,0.1-1.8,0.4
			c-3.3,1.7-3.6,7.9-0.6,13.9c2.4,4.9,6.4,8.3,9.7,8.3c0.6,0,1.2-0.1,1.8-0.4c3.3-1.7,3.6-7.9,0.6-13.9
			C130.4,153.3,126.4,149.9,123.1,149.9z"/>
		<path opacity="0.2" d="M130,171.7c-3,0-6.7-3.2-9-7.8c-2.9-5.7-2.7-11.4,0.4-13c0.5-0.3,1.1-0.4,1.7-0.4c3,0,6.7,3.2,9,7.8
			c2.9,5.7,2.7,11.4-0.4,13C131.1,171.6,130.6,171.7,130,171.7z M123.1,151.6c-0.4,0-0.8,0.1-1.2,0.3c-2.5,1.3-2.5,6.6,0,11.6
			c2.1,4.2,5.5,7.3,8.1,7.3c0.4,0,0.8-0.1,1.2-0.3c2.5-1.3,2.5-6.6,0-11.6C129.1,154.6,125.7,151.6,123.1,151.6z"/>
		
			<ellipse transform="matrix(0.8945 -0.4471 0.4471 0.8945 -58.9475 73.5708)" opacity="0.2" cx="126.4" cy="161.7" rx="2.9" ry="4.6"/>
		<path fill="none" stroke="#2D3134" stroke-width="0.9757" stroke-miterlimit="10" d="M178.9,182.5c-1.2-2.5-3.1-4-4.8-4.9
			l-46.9-27.7c0,0,0,0-0.1,0l-1-0.5c-1-0.5-2.1-0.7-3-0.7c-0.9,0-1.6,0.2-2.4,0.5c-4.1,2-4.6,8.9-1.2,15.7c2.1,4.1,5.1,7.2,8.1,8.4
			l47.7,18c1.1,0.5,2.1,0.6,3,0.1C180.5,190.3,180.8,186.3,178.9,182.5z"/>
		<polygon opacity="0.2" points="39.6,161.6 46.3,158 187.7,229.3 181,232.9 		"/>
		<g>
			<path fill="#656565" d="M149.7,196c-9.3-18.6-8.7-38.1,0.9-45.1c-0.9,0.2-1.8,0.6-2.6,1c-11.5,5.7-12.8,26.5-2.8,46.3
				c9.9,19.8,27.2,31.2,38.7,25.5c0.7-0.3,1.3-0.7,1.9-1.2C174.4,225.6,158.9,214.4,149.7,196z"/>
			<path opacity="0.2" d="M149.7,196c-9.3-18.6-8.7-38.1,0.9-45.1c-0.9,0.2-1.8,0.6-2.6,1c-11.5,5.7-12.8,26.5-2.8,46.3
				c9.9,19.8,27.2,31.2,38.7,25.5c0.7-0.3,1.3-0.7,1.9-1.2C174.4,225.6,158.9,214.4,149.7,196z"/>
			<g>
				<polygon fill="#2D3134" points="171,221.8 170.8,221.8 174.1,184.8 176,159 176.2,159.1 174.4,184.8 				"/>
				<polygon fill="#2D3134" points="189.7,221.5 174.1,184.8 159.8,149.7 160,149.6 174.4,184.8 189.9,221.5 				"/>
				<polygon fill="#2D3134" points="157,209.9 156.8,209.7 174.2,184.7 184.5,170.4 184.7,170.5 174.3,184.9 				"/>
				<polygon fill="#2D3134" points="195.2,206.3 174.2,184.9 143.8,157.5 144,157.3 174.3,184.7 195.4,206.1 				"/>
				<polygon fill="#2D3134" points="194.6,193.6 174.2,184.9 141,171.2 141,171 174.3,184.7 194.7,193.4 				"/>
				<polygon fill="#2D3134" points="174.3,184.9 143.6,184.5 143.6,184.3 174.3,184.7 193.7,184.6 193.7,184.9 				"/>
				<polygon fill="#2D3134" points="148.9,198.5 148.8,198.3 174.2,184.7 187.8,177.2 187.9,177.4 174.3,184.9 				"/>
			</g>
			
				<ellipse transform="matrix(0.8945 -0.4471 0.4471 0.8945 -64.208 97.3407)" fill="#999999" cx="174.1" cy="184.7" rx="2.1" ry="3.6"/>
			<path fill="#999999" d="M163.8,187.1l8.5-4.3c1.2-0.6,1.8,0.3,2.4,1.5v0c0.6,1.2,0.9,2.2-0.3,2.8l-8.5,4.3L163.8,187.1z"/>
			<path opacity="0.2" d="M174.9,184.8c-0.1,0.2-0.3,0.4-0.7,0.6l-8.5,4.3l-1.4-2.9l-0.5,0.3l2.1,4.3l8.5-4.3
				C175.4,186.6,175.3,185.7,174.9,184.8z"/>
			<polygon fill="#2D3134" points="164.2,217.4 164,217.4 164.1,189.4 165.9,154.2 166.2,154.3 164.4,189.4 			"/>
			<polygon fill="#2D3134" points="176,223.2 164.2,189.5 154.9,150.4 155.1,150.3 164.4,189.4 176.2,223.2 			"/>
			<polygon fill="#2D3134" points="152.5,206 152.3,205.9 164.2,189.4 179,165.8 179.1,165.9 164.4,189.5 			"/>
			<polygon fill="#2D3134" points="186.1,222.3 164.2,189.5 145.8,154.6 146,154.5 164.4,189.4 186.3,222.2 			"/>
			<polygon fill="#2D3134" points="193,215.5 164.2,189.5 140.3,163.1 140.4,163 164.3,189.4 193.1,215.3 			"/>
			<polygon fill="#2D3134" points="194.9,203.5 164.2,189.5 139.6,176.5 139.8,176.3 164.3,189.3 195,203.3 			"/>
			<polygon fill="#2D3134" points="143.9,191.8 143.9,191.5 164.2,189.3 191.7,185.3 191.8,185.5 164.3,189.6 			"/>
			<path fill="#2D3134" d="M193.4,174.1c-11.1-22.2-31.3-34.7-45-27.8c-13.8,6.9-15.9,30.5-4.8,52.7c11.1,22.2,31.3,34.7,45,27.8
				C202.3,219.9,204.5,196.3,193.4,174.1z M183.9,223.7c-11.5,5.7-28.8-5.7-38.7-25.5c-9.9-19.8-8.6-40.5,2.8-46.3
				c11.5-5.7,28.8,5.7,38.7,25.5C196.6,197.2,195.4,218,183.9,223.7z"/>
			<path fill="#999999" d="M177.4,225.7c-5.4,0-11.6-2.7-17.4-7.5c-6-4.9-11.2-11.8-15.2-19.8c-10-20-8.6-41.1,3.1-46.9
				c2-1,4.3-1.5,6.7-1.5c5.4,0,11.6,2.7,17.4,7.5c6,4.9,11.2,11.8,15.2,19.8c10,20,8.6,41.1-3.1,46.9
				C182.1,225.1,179.8,225.7,177.4,225.7z M154.5,150.9c-2.3,0-4.4,0.5-6.3,1.4c-11.2,5.6-12.4,26.1-2.6,45.6
				c7.9,15.7,20.9,26.7,31.8,26.7c2.3,0,4.4-0.5,6.3-1.4c11.2-5.6,12.4-26.1,2.6-45.6C178.4,161.9,165.4,150.9,154.5,150.9z"/>
			
				<ellipse transform="matrix(0.8945 -0.4471 0.4471 0.8945 -67.3791 93.4795)" fill="#999999" cx="164.3" cy="189.5" rx="2.1" ry="3.6"/>
		</g>
		<g>
			<path fill="#656565" d="M41.4,141.7c-9.3-18.6-8.7-38.1,0.9-45.1c-0.9,0.2-1.8,0.6-2.6,1c-11.5,5.7-12.8,26.5-2.8,46.3
				c9.9,19.8,27.2,31.2,38.7,25.5c0.7-0.3,1.3-0.7,1.9-1.2C66.1,171.2,50.6,160.1,41.4,141.7z"/>
			<path opacity="0.2" d="M41.4,141.7c-9.3-18.6-8.7-38.1,0.9-45.1c-0.9,0.2-1.8,0.6-2.6,1c-11.5,5.7-12.8,26.5-2.8,46.3
				c9.9,19.8,27.2,31.2,38.7,25.5c0.7-0.3,1.3-0.7,1.9-1.2C66.1,171.2,50.6,160.1,41.4,141.7z"/>
			<g>
				<polygon fill="#2D3134" points="62.7,167.5 62.5,167.5 65.8,130.5 67.7,104.7 67.9,104.7 66.1,130.5 				"/>
				<polygon fill="#2D3134" points="81.4,167.2 65.8,130.5 51.5,95.4 51.7,95.3 66,130.4 81.6,167.1 				"/>
				<polygon fill="#2D3134" points="48.7,155.5 48.5,155.4 65.9,130.4 76.2,116.1 76.4,116.2 66,130.5 				"/>
				<polygon fill="#2D3134" points="86.9,152 65.9,130.6 35.5,103.2 35.7,103 66,130.4 87.1,151.8 				"/>
				<polygon fill="#2D3134" points="86.3,139.3 65.9,130.6 32.6,116.9 32.7,116.7 66,130.4 86.4,139.1 				"/>
				<polygon fill="#2D3134" points="65.9,130.6 35.3,130.2 35.3,130 65.9,130.4 85.4,130.3 85.4,130.5 				"/>
				<polygon fill="#2D3134" points="40.6,144.2 40.4,144 65.9,130.4 79.5,122.9 79.6,123.1 66,130.6 				"/>
			</g>
			
				<ellipse transform="matrix(0.8945 -0.4471 0.4471 0.8945 -51.3516 43.1815)" fill="#999999" cx="65.8" cy="130.4" rx="2.1" ry="3.6"/>
			<path fill="#999999" d="M55.5,132.8l8.5-4.3c1.2-0.6,1.8,0.3,2.4,1.5l0,0c0.6,1.2,0.9,2.2-0.3,2.8l-8.5,4.3L55.5,132.8z"/>
			<path opacity="0.2" d="M66.6,130.5c-0.1,0.2-0.3,0.4-0.7,0.6l-8.5,4.3l-1.4-2.9l-0.5,0.3l2.1,4.3l8.5-4.3
				C67.1,132.2,67,131.4,66.6,130.5z"/>
			<polygon fill="#2D3134" points="55.9,163 55.7,163 55.8,135.1 57.6,99.9 57.9,99.9 56.1,135.1 			"/>
			<polygon fill="#2D3134" points="67.7,168.9 55.8,135.2 46.6,96.1 46.8,96 56.1,135.1 67.9,168.9 			"/>
			<polygon fill="#2D3134" points="44.2,151.7 44,151.6 55.9,135.1 70.6,111.5 70.8,111.6 56.1,135.2 			"/>
			<polygon fill="#2D3134" points="77.8,168 55.9,135.2 37.5,100.3 37.7,100.2 56.1,135.1 78,167.9 			"/>
			<polygon fill="#2D3134" points="84.7,161.2 55.9,135.2 32,108.8 32.1,108.6 56,135 84.8,161 			"/>
			<polygon fill="#2D3134" points="86.6,149.2 55.9,135.2 31.3,122.2 31.4,122 56,135 86.7,148.9 			"/>
			<polygon fill="#2D3134" points="35.6,137.5 35.6,137.2 55.9,135 83.4,131 83.4,131.2 56,135.2 			"/>
			<path fill="#2D3134" d="M85.1,119.8C74,97.6,53.8,85.1,40,92s-15.9,30.5-4.8,52.7c11.1,22.2,31.3,34.7,45,27.8
				C94,165.6,96.2,142,85.1,119.8z M75.6,169.4c-11.5,5.7-28.8-5.7-38.7-25.5c-9.9-19.8-8.6-40.5,2.8-46.3
				c11.5-5.7,28.8,5.7,38.7,25.5C88.3,142.9,87.1,163.6,75.6,169.4z"/>
			<path fill="#999999" d="M69.1,171.3c-5.4,0-11.6-2.7-17.4-7.5c-6-4.9-11.2-11.8-15.2-19.8c-10-20-8.6-41.1,3.1-46.9
				c2-1,4.3-1.5,6.7-1.5c5.4,0,11.6,2.7,17.4,7.5c6,4.9,11.2,11.8,15.2,19.8c10,20,8.6,41.1-3.1,46.9
				C73.8,170.8,71.5,171.3,69.1,171.3z M46.2,96.6c-2.3,0-4.4,0.5-6.3,1.4c-11.2,5.6-12.4,26.1-2.6,45.6
				c7.9,15.7,20.9,26.7,31.8,26.7c2.3,0,4.4-0.5,6.3-1.4c11.2-5.6,12.4-26.1,2.6-45.6C70.1,107.6,57.1,96.6,46.2,96.6z"/>
			
				<ellipse transform="matrix(0.8945 -0.4471 0.4471 0.8945 -54.5227 39.3203)" fill="#999999" cx="56" cy="135.2" rx="2.1" ry="3.6"/>
		</g>
		<g>
			<path fill="#3399CC" d="M144.9,111.3c0.4-0.2,0.7-0.2,0.9-0.1l0,0l4.4,2.2l0,0c0.3,0.1,0.4,0.4,0.4,0.8c0,0.8-0.6,1.7-1.4,2
				c-0.4,0.2-0.7,0.2-1,0.1c0,0-4.4-2.2-4.5-2.3c-0.2-0.1-0.4-0.4-0.4-0.7C143.6,112.6,144.2,111.7,144.9,111.3z"/>
			<path opacity="0.11" d="M148.4,116.4c-0.1,0-4.4-2.2-4.5-2.3c-0.2-0.1-0.4-0.4-0.4-0.7c0-0.3,0.1-0.6,0.3-0.9l4.4,2.2
				c-0.2,0.3-0.3,0.6-0.3,0.9C148,116,148.2,116.2,148.4,116.4z"/>
			<path opacity="0.11" d="M148,115.6c0,0.8,0.6,1.1,1.4,0.7c0.8-0.4,1.4-1.3,1.4-2c0-0.8-0.6-1.1-1.4-0.7
				C148.6,113.9,148,114.9,148,115.6z"/>
		</g>
		<g>
			<path fill="#3399CC" d="M126.2,159.2c-0.7-0.4-1.4-0.4-1.9-0.2l0,0l-6,3.1l0,0c-0.5,0.2-0.8,0.8-0.8,1.5c0,1.5,1.2,3.3,2.7,4.1
				c0.7,0.4,1.4,0.4,1.9,0.2c0,0,6-3.1,6.2-3.2c0.4-0.3,0.7-0.8,0.7-1.5C128.9,161.8,127.7,159.9,126.2,159.2z"/>
			<path opacity="0.2" d="M122.1,167.8c0.2-0.1,6-3.1,6.1-3.1c0.4-0.3,0.7-0.8,0.7-1.5c0-0.6-0.2-1.3-0.5-1.9l-6,3.1
				c0.3,0.6,0.5,1.3,0.5,1.9C122.9,167.1,122.6,167.6,122.1,167.8z"/>
			<path opacity="0.1" d="M122.9,166.3c0,1.5-1.2,2.1-2.7,1.4c-1.5-0.7-2.7-2.6-2.7-4.1s1.2-2.1,2.7-1.4S122.9,164.9,122.9,166.3z"
				/>
		</g>
		<g>
			<path fill="#762C07" d="M98.9,65.7c-0.5-0.2-0.9-0.3-1.2-0.1l0,0l-10.2,5l0,0c-0.3,0.2-0.6,0.5-0.6,1c0,1,0.8,2.2,1.8,2.6
				c0.5,0.2,0.9,0.3,1.2,0.1c0,0,10.2-5,10.3-5c0.3-0.2,0.5-0.5,0.5-1C100.7,67.4,99.9,66.2,98.9,65.7z"/>
			<path opacity="0.2" d="M90,74.3c0.1-0.1,10.2-5,10.2-5c0.3-0.2,0.5-0.5,0.5-1c0-0.4-0.1-0.8-0.3-1.2l-10.2,5
				c0.2,0.4,0.3,0.8,0.3,1.2C90.5,73.8,90.3,74.2,90,74.3z"/>
			<path opacity="0.11" d="M90.5,73.3c0,1-0.8,1.4-1.8,0.9S87,72.6,87,71.6s0.8-1.4,1.8-0.9S90.5,72.4,90.5,73.3z"/>
		</g>
		<g>
			<path fill="#762C07" d="M89.8,69.4c-0.7-0.3-1.3-0.4-1.7-0.2l0,0l-1.9,0.9l0,0c-0.5,0.2-0.8,0.7-0.8,1.4c0,1.4,1.1,3,2.5,3.7
				c0.7,0.3,1.3,0.4,1.7,0.2c0,0,1.9-0.9,2-1c0.4-0.2,0.6-0.7,0.6-1.3C92.2,71.7,91.1,70.1,89.8,69.4z"/>
			<path opacity="0.2" d="M89.7,75.4c0.2-0.1,1.8-0.9,1.9-1c0.4-0.2,0.6-0.7,0.6-1.3c0-0.5-0.2-1.1-0.5-1.7l-1.9,0.9
				c0.3,0.6,0.5,1.2,0.5,1.7C90.4,74.7,90.1,75.2,89.7,75.4z"/>
			<path opacity="0.1" d="M90.4,74c0,1.4-1.1,1.9-2.5,1.2c-1.4-0.7-2.5-2.3-2.5-3.7s1.1-1.9,2.5-1.2C89.3,71,90.4,72.6,90.4,74z"/>
		</g>
		<path fill="#656565" d="M64.2,86.6c-0.6,0-1.2-0.3-1.5-0.9c-0.4-0.8-0.1-1.9,0.8-2.3l23.4-11.7c0.8-0.4,1.9-0.1,2.3,0.8
			c0.4,0.8,0.1,1.9-0.8,2.3L64.9,86.4C64.7,86.5,64.4,86.6,64.2,86.6z"/>
		<path opacity="0.2" d="M89.1,72.4c0,0-0.1-0.1-0.1-0.1c-0.2,0.3-0.4,0.6-0.8,0.8L64.8,84.8c-0.2,0.1-0.5,0.2-0.8,0.2
			c-0.6,0-1.1-0.3-1.4-0.8c-0.2,0.5-0.2,1,0,1.5c0.3,0.6,0.9,0.9,1.5,0.9c0.3,0,0.5-0.1,0.8-0.2l23.4-11.7
			C89.2,74.3,89.5,73.3,89.1,72.4z"/>
		<g>
			<path fill="#762C07" d="M70.9,78.8c-0.7-0.3-1.3-0.4-1.7-0.2l0,0l-1.9,0.9l0,0c-0.5,0.2-0.8,0.7-0.8,1.4c0,1.4,1.1,3,2.5,3.7
				c0.7,0.3,1.3,0.4,1.7,0.2c0,0,1.9-0.9,2-1c0.4-0.2,0.6-0.7,0.6-1.3C73.3,81.2,72.2,79.5,70.9,78.8z"/>
			<path opacity="0.2" d="M70.8,84.8c0.2-0.1,1.8-0.9,1.9-1c0.4-0.2,0.6-0.7,0.6-1.3c0-0.5-0.2-1.1-0.5-1.7L71,81.8
				c0.3,0.6,0.5,1.2,0.5,1.7C71.5,84.1,71.2,84.6,70.8,84.8z"/>
			<path opacity="0.1" d="M71.5,83.5c0,1.4-1.1,1.9-2.5,1.2c-1.4-0.7-2.5-2.3-2.5-3.7s1.1-1.9,2.5-1.2S71.5,82.1,71.5,83.5z"/>
		</g>
		<g>
			<path fill="#762C07" d="M68.8,80.6c-0.5-0.2-0.9-0.3-1.2-0.1l0,0l-10.2,5l0,0c-0.3,0.2-0.6,0.5-0.6,1c0,1,0.8,2.2,1.8,2.6
				c0.5,0.2,0.9,0.3,1.2,0.1c0,0,10.2-5,10.3-5c0.3-0.2,0.5-0.5,0.5-1C70.5,82.2,69.7,81,68.8,80.6z"/>
			<path opacity="0.2" d="M59.8,89.2c0.1-0.1,10.2-5,10.2-5c0.3-0.2,0.5-0.5,0.5-1c0-0.4-0.1-0.8-0.3-1.2L60,87
				c0.2,0.4,0.3,0.8,0.3,1.2C60.3,88.7,60.1,89,59.8,89.2z"/>
			<path opacity="0.1" d="M60.3,88.2c0,1-0.8,1.4-1.8,0.9c-1-0.5-1.8-1.7-1.8-2.6s0.8-1.4,1.8-0.9C59.5,86.1,60.3,87.2,60.3,88.2z"
				/>
		</g>
		
			<rect x="129.6" y="123.7" transform="matrix(0.938 0.3467 -0.3467 0.938 57.8576 -36.6717)" fill="#3399CC" width="3.6" height="39.3"/>
		<path fill="#3399CC" d="M56,135.3L56,135.3c-0.4-0.1-0.6-0.6-0.4-1c1.9-4.7,12-29.8,13.4-32.1c2.8-4.8,7.9-6,8.1-6l0.5,2.2
			l-0.3-1.1l0.3,1.1c0,0-4.3,1.1-6.6,5c-1.1,1.9-10.3,22.7-14,31.5C56.8,135.3,56.4,135.5,56,135.3z"/>
		<path fill="#3399CC" d="M119.9,161.4L82.2,88.1c-0.4-0.9-0.1-1.9,0.8-2.4l0,0c0.9-0.4,1.9-0.1,2.4,0.8l37.8,73.3L119.9,161.4z"/>
		<polygon fill="#3399CC" points="78.8,98.4 75.7,97.4 82.3,78.5 85.2,80.2 		"/>
		<g>
			<path fill="#3399CC" d="M79.5,76.5c0.4-0.2,0.7-0.2,0.9-0.1l0,0l4.4,2.2l0,0c0.3,0.1,0.4,0.4,0.4,0.8c0,0.7-0.6,1.7-1.3,2
				c-0.4,0.2-0.7,0.2-0.9,0.1c0,0-4.4-2.2-4.5-2.3c-0.2-0.1-0.4-0.4-0.4-0.7C78.2,77.8,78.8,76.9,79.5,76.5z"/>
		</g>
		<path fill="#3399CC" d="M132.1,137.1L81.8,87.6c-0.7-0.7-0.7-1.8,0-2.5l0,0c0.7-0.7,1.8-0.7,2.5,0l50.3,49.4L132.1,137.1z"/>
		
			<ellipse transform="matrix(0.9421 0.3353 -0.3353 0.9421 49.8651 -39.1184)" fill="#3399CC" cx="138.2" cy="124.9" rx="1.8" ry="0.7"/>
		<path fill="#656565" d="M138.2,125.3c-0.7-0.2-1.2-0.6-1-1.2l5.1-13.9c0.2-0.7,1-1,1.7-0.8c0.7,0.2,1,1,0.8,1.7l-5.1,13.9
			C139.4,125.4,138.8,125.5,138.2,125.3z"/>
		<path opacity="0.2" d="M138.2,125.3c-0.7-0.2-1.2-0.6-1-1.2l5.1-13.9c0.2-0.7,1-1,1.7-0.8c0.7,0.2,1,1,0.8,1.7l-5.1,13.9
			C139.4,125.4,138.8,125.5,138.2,125.3z"/>
		<path fill="#762C07" d="M130.8,99.7c0.6-3.8,9.8,0.6,13,2.5s11,1.9,13.7,5.1c2.4,3-3.2,11.2-10.4,10.3c-7.2-0.9-8-7.8-9.2-9.5
			C136.6,106.3,130.4,102.5,130.8,99.7z"/>
		<path opacity="0.2" d="M147.1,115.3c-7.2-0.9-8-7.8-9.2-9.5c-1-1.4-5.6-4.3-6.8-6.8c-0.1,0.2-0.2,0.4-0.3,0.7
			c-0.5,2.8,5.8,6.6,7.1,8.3c1.2,1.7,2,8.6,9.2,9.5c6.6,0.8,12-6.1,10.8-9.5C157,111.6,152.5,116,147.1,115.3z"/>
		<path fill="#2D3134" d="M124.7,169.7c-0.1,0-0.2-0.1-0.3-0.2c-0.1-0.2-0.1-0.4,0.1-0.5l0.5-0.3l-6.8-0.7c-0.1,0-0.2-0.1-0.3-0.2
			c-0.1-0.1,0-0.2,0-0.3l1.4-2.3c0.1-0.2,0.3-0.2,0.5-0.1c0.2,0.1,0.2,0.3,0.1,0.5l-1.1,1.9l7.2,0.8c0.1,0,0.3,0.1,0.3,0.3
			c0,0.1,0,0.3-0.1,0.4l-1.3,0.9C124.8,169.7,124.7,169.7,124.7,169.7z"/>
		<g>
			<polygon fill="#2D3134" points="118.2,177.2 113,174.6 113,172.6 122.1,168.1 127.3,170.7 127.3,172.6 			"/>
			<polygon opacity="0.11" points="113,172.6 113,174.6 118.2,177.2 118.2,175.2 			"/>
			<polygon fill="#3399CC" points="127.3,170.7 127.3,172.6 118.2,177.2 118.2,175.2 			"/>
			<polygon opacity="0.29" points="127.3,170.7 127.3,172.6 118.2,177.2 118.2,175.2 			"/>
		</g>
	</g>
	<path fill="#FBD7C7" d="M93.8,68.5c0,0,1.5,0.5,1.3,1.5c-0.2,1-2.1,2.9-1.9,3.4c0.1,0.6,2.1,0.6,3.6-1c1.5-1.6,4.1-7.6,4.1-7.6
		L93.8,68.5z"/>
	<path fill="#FBD7C7" d="M60.5,83.9c0,0,3.9-0.9,4.4-0.9s1.8,0.4,1.8,1.3c-0.1,0.9-0.9,2.3-0.6,2.9c0.5,0.8,2.9-1.3,3.2-2.8
		c0.2-1.4-0.1-2-0.1-2s4.7-1.5,6.8-1.9c2.2-0.3,8.2-0.9,10.3-3.1c2.1-2.2,14.9-14.1,14.9-14.1l-8.8-10c0,0-5,6.5-7.5,10.1
		c-1.6,2.4-3.5,7-3.9,7.3s-2.9,0.6-8,3.2c-5.1,2.6-4.1,3.9-6.7,4.6c-2.6,0.8-4.9,0.1-7.2,1.4c-1.4,0.8-2.1,3.5-1.3,4.4
		C58.3,85,60.5,83.9,60.5,83.9z"/>
	<path fill="#FBD7C7" d="M117,93.5c-4.4,0.6-17.6,5.5-21.1,6.8c-3.5,1.3-10.3,5.6-11.7,8.8c-1.2,2.7,0,7.1,1.2,8.8
		c1.2,1.6,2.7,3.6,3.4,4.9c0.7,1.3,5.7,9,8.5,12.6c3.3,4.3,12.8,16.3,13.7,18.6c0.8,2.3,3.7,5.8,3.4,7.5c-0.4,1.6-2.2,6.1-2.2,6.1
		l11.7-9.3c0,0-5-6.2-7.1-10c-2.1-3.9-6.3-17.1-7.8-21c-1.5-4-6.1-9.7-6.1-9.7s10.7-4.2,17.3-5.3C126.6,111,117,93.5,117,93.5z"/>
	<path fill="#FFFFFF" d="M110.6,153.6l6.9-4.1c0,0,2.3,2.8,3.9,4.6c1.5,1.8,2.9,4.9,2.9,4.9l-13.4,9.8c0,0,3.7-4.9,3-7.6
		C113.2,158.4,110.6,153.6,110.6,153.6z"/>
	<path fill="#2D3134" d="M103.2,178.3c0.5,1.5,6.2,0.3,12.8-3.5c6.6-3.8,13-6.3,12.1-8c-0.8-1.7-5.2-10.4-5.2-10.4s-3.7,4.5-6.6,6.6
		c-2.8,2.1-7.5,5.1-7.5,5.1s-2.6,1.7-4.4,4.2C103.2,173.9,102.4,176,103.2,178.3z"/>
	<path opacity="0.5" d="M116.1,174.8c6.6-3.8,13-6.3,12.1-8c-0.1-0.2-0.3-0.6-0.5-1.1c-2.8-0.5-11.4,5.3-16.3,7.1
		c-4,1.5-7.3,3.6-8.2,5.4c0,0,0,0.1,0,0.1C103.8,179.8,109.4,178.6,116.1,174.8z"/>
	<path fill="#2D3134" d="M93.8,100.7c0,0,8-4.5,15.1-6.9c6.6-2.3,13-3.3,13-3.3l-4-11.7l23.6-7.7c0,0,13.2,11.1,16.1,20.3
		s1.2,14.8-7.6,14.9c-4.1,7.8-18.4,7.7-26.9,8.3c-8.5,0.6-18.5,2.2-18.5,2.2L93.8,100.7z"/>
	<path fill="#99CC33" d="M87.8,59.1c0,0,2.2,4.5,4.7,6.6c1.7,1.4,4.4,2.5,4.4,2.5l6-3.8c0,0,5.4,7.8,7.7,11.3
		c2.8,4.2,8.1,16.3,9.7,16.2c1.6-0.1,10.9-0.2,22-3.7c6.6-2.1,10.2-6,10.2-6.6s-4.5-10.9-7.3-19.7c-2.8-8.9-5.4-16.5-5.4-16.5
		s3.7-2.9,3.7-5.5c0-2.6-6.2-12.6-12.6-13.3c-6.4-0.7-24.8,9.3-27.5,11.5c-2.6,2.3-9.5,6.7-11.3,9.4C90.2,50.3,87.8,59.1,87.8,59.1z
		"/>
	<path opacity="0.2" d="M152.4,81.7c0-0.6-4.5-10.9-7.3-19.7c-2.8-8.9-5.4-16.5-5.4-16.5s-0.5-1.8-5-9.6c-2.3-4-7.9-8.4-8.9-8.5
		c-8.1,2.3-20.3,9-22.5,10.8c-1.9,1.7-6,4.4-8.9,6.9c2,0.4,4.7,1.5,6,3.3c3.3,4.6,2.4,16.2,2.4,16.2s5.4,7.8,7.7,11.3
		c2.8,4.2,8.1,16.3,9.7,16.2s10.9-0.2,22-3.7C148.8,86.2,152.4,82.2,152.4,81.7z"/>
	<path fill="#FBD7C7" d="M95.2,12.8c-1,4,0.8,13.4,3,17.7c2.1,4.2,4.8,2.8,5.5,4c0.7,1.1-0.5,4.2-0.5,4.2s10.5-0.5,13.8-3.2
		c3.4-2.9,2.5-4.9,2.5-4.9s-2.4-1.7-3.3-4c-0.8-2.3,4.7-16.8-5.2-20.1S96.5,7.7,95.2,12.8z"/>
	<path fill="#2D3134" d="M93.4,17.3c0,0,2.6-12.3,15.6-10.5c12.7,1.8,14.7,22.1,14.7,22.1s-10.9-0.7-17.9-2.9
		C98.9,23.8,93.4,17.3,93.4,17.3z"/>
	<path fill="#3399CC" d="M93.2,15c0,0,3.4-13.3,17.6-10.7c13.7,2.6,15.2,24.8,15.2,24.8s-12.1-1.2-19.6-3.9
		C98.8,22.4,93.2,15,93.2,15z"/>
	<path fill="#2D3134" d="M103.4,34.6l-0.6-0.3c0,0,1.5-2.4,2-4.1c0.4-1.4,0-4.2-0.1-5.2l1.5,0.2c0,0.1,0.1,2.7-0.2,4.7
		c0.2-0.2,0.4-0.5,0.5-0.7c1.5-2,1.5-3.4,1.8-3.3l1.4,0.3c0,0.1-0.8,1.5-2.4,3.7C105.7,32.1,103.5,34.5,103.4,34.6z"/>
	<path opacity="0.2" d="M94.5,13.5l1.2,1.3c0,0,3.9-6,8.3-7c4.4-1,7.5-0.5,7.5-0.5s-2-2.2-7.5-1.4S94.5,13.5,94.5,13.5z"/>
	<path opacity="0.2" d="M96.9,16l1.6,1.5c0,0,1.8-3.3,5-5c3.1-1.7,5.2-1.5,5.2-1.5s-2.5-1.7-6.3,0.1C98.7,12.9,96.9,16,96.9,16z"/>
	<path opacity="0.2" d="M100.7,19.3c0,0,2,1.6,5.1,3.2c1.6,0.8,4.8,1.5,4.8,1.5s-0.2-5.1-3.6-6.7S100.7,19.3,100.7,19.3z"/>
</g>
<polygon fill="#2D3134" points="96.6,42.4 100.6,38.4 130.6,54.4 125.6,59.4 "/>
<path fill="#06547A" d="M106.5,32.5c3.8-0.8,52.6,19.2,55.1,24.9s-9.4,34.2-12.3,36.9C146.6,97,92.3,73.6,91,67.1
	C89.7,60.5,101.6,33.6,106.5,32.5z"/>
<path opacity="0.2" d="M106.5,32.5c3.8-0.8,52.6,19.2,55.1,24.9s-9.4,34.2-12.3,36.9C146.6,97,92.3,73.6,91,67.1
	C89.7,60.5,101.6,33.6,106.5,32.5z"/>
<path fill="#06547A" d="M106.5,32.5c3.8-0.8,52.6,19.2,55.1,24.9s-10.5,24.6-13.4,27.3c-2.8,2.6-49.2-15.2-50.4-21.8
	S101.6,33.6,106.5,32.5z"/>
<rect x="121.8" y="81.4" transform="matrix(0.4113 -0.9115 0.9115 0.4113 -0.1541 165.6297)" fill="#2D3134" width="12.6" height="3.2"/>
<rect x="101.8" y="72.4" transform="matrix(0.3162 -0.9487 0.9487 0.3162 3.8038 153.1458)" fill="#2D3134" width="12.6" height="3.2"/>
<path fill="#FFCC00" d="M100.1,44.8l58.2,25.1c0.5-0.9,0.9-1.8,1.3-2.7l-58.7-25.3C100.6,42.9,100.3,43.8,100.1,44.8z"/>
</svg>
