<?xml version="1.0" encoding="utf-8"?>
<!-- Generator: Adobe Illustrator 18.1.0, SVG Export Plug-In . SVG Version: 6.00 Build 0)  -->
<svg version="1.1" id="Layer_1" xmlns="http://www.w3.org/2000/svg" xmlns:xlink="http://www.w3.org/1999/xlink" x="0px" y="0px"
	 viewBox="0 0 240 240" enable-background="new 0 0 240 240" xml:space="preserve">
<g>
	<path fill="#06547A" d="M139.6,55c-1.7,3.6-51.7,33.2-58,31.6C75.3,85,62.7,53.9,63.2,50.4c0.7-5.2,48.7-31.8,54.9-28.7
		C124.3,24.9,141.8,50.2,139.6,55z"/>
	<path opacity="0.2" d="M139.6,55c-1.7,3.6-51.7,33.2-58,31.6C75.3,85,62.7,53.9,63.2,50.4c0.7-5.2,48.7-31.8,54.9-28.7
		C124.3,24.9,141.8,50.2,139.6,55z"/>
	<polygon opacity="0.2" points="38.8,160.9 45.6,157.3 187,228.6 180.2,232.2 	"/>
	
		<rect x="128.9" y="116.1" transform="matrix(0.702 0.7121 -0.7121 0.702 138.748 -51.302)" fill="#3399CC" width="3.6" height="48.2"/>
	
		<rect x="61.2" y="141.8" transform="matrix(0.8849 0.4657 -0.4657 0.8849 76.9137 -25.0641)" fill="#3399CC" width="55.9" height="2.6"/>
	<path fill="#2D3134" d="M113.7,156.3l-2.2-5.1l-8.7-8.1l-5.8-4.9c-0.1-0.1-0.2-0.3-0.2-0.5c0-0.2,0.1-0.3,0.3-0.4l1.6-0.7l0.4,0.9
		l-0.9,0.3l5.2,4.4l8.8,8.1c0,0,0.1,0.1,0.1,0.2l2.2,5.2L113.7,156.3z"/>
	<g>
		<polygon fill="#2D3134" points="101.2,139.5 96,136.9 96,135 105.1,130.4 110.3,133 110.3,135 		"/>
		<polygon opacity="0.11" points="96,135 96,136.9 101.2,139.5 101.2,137.6 		"/>
		<polygon fill="#3399CC" points="110.3,133 110.3,135 101.2,139.5 101.2,137.6 		"/>
		<polygon opacity="0.29" points="110.3,133 110.3,135 101.2,139.5 101.2,137.6 		"/>
	</g>
	<path fill="#FBD7C7" d="M110.1,73.5c0,0,13.7,10.3,17.9,16.1c4.2,5.7,11.7,18.3,12.4,21.1c1,4.5-0.5,8-6.4,10.1
		c-4.7,1.6-16.4,5.6-18.8,7.3s-4.2,2.6-4.6,4.6c-0.3,2,1.3,6.1-0.5,6.9c-1.7,0.8-10.4-8.6-10.1-10.6c0.3-2,3.2-2.9,6.4-4.6
		c3.2-1.7,8.1-7.3,11.5-9.6c3-2.1,7.3-3.2,7.3-3.2s-9.4-6.9-15.1-11.9c-5.7-5-11.5-13.3-11.5-13.3L110.1,73.5z"/>
	<path fill="#3399CC" d="M173.3,184.6c-0.5,0.1-1-0.2-1.1-0.7c-4.1-14.6-11.7-41.4-12.7-44c-1-2.5-7.8-6-9-6.4c0,0,0,0,0,0l0.7-2.8
		c0.5,0.1,9.3,4,10.9,8.2c1.2,3.2,10.1,37.9,11.9,44.5C174.3,183.9,173.9,184.5,173.3,184.6L173.3,184.6z"/>
	<g>
		<path fill="#656565" d="M149,195.4c-9.3-18.6-8.7-38.1,0.9-45.1c-0.9,0.2-1.8,0.6-2.6,1c-11.5,5.7-12.8,26.5-2.8,46.3
			c9.9,19.8,27.2,31.2,38.7,25.5c0.7-0.3,1.3-0.7,1.9-1.2C173.7,224.9,158.1,213.8,149,195.4z"/>
		<path opacity="0.2" d="M149,195.4c-9.3-18.6-8.7-38.1,0.9-45.1c-0.9,0.2-1.8,0.6-2.6,1c-11.5,5.7-12.8,26.5-2.8,46.3
			c9.9,19.8,27.2,31.2,38.7,25.5c0.7-0.3,1.3-0.7,1.9-1.2C173.7,224.9,158.1,213.8,149,195.4z"/>
		<g>
			<polygon fill="#2D3134" points="170.3,221.2 170.1,221.2 173.4,184.1 175.3,158.4 175.5,158.4 173.6,184.1 			"/>
			<polygon fill="#2D3134" points="188.9,220.9 173.4,184.2 159,149 159.2,148.9 173.6,184.1 189.2,220.8 			"/>
			<polygon fill="#2D3134" points="156.3,209.2 156.1,209.1 173.4,184.1 183.8,169.7 183.9,169.8 173.6,184.2 			"/>
			<polygon fill="#2D3134" points="194.5,205.6 173.4,184.2 143.1,156.9 143.3,156.7 173.6,184 194.7,205.5 			"/>
			<polygon fill="#2D3134" points="193.9,193 173.5,184.2 140.2,170.5 140.3,170.3 173.6,184 194,192.8 			"/>
			<polygon fill="#2D3134" points="173.5,184.2 142.9,183.9 142.9,183.6 173.5,184 193,184 193,184.2 			"/>
			<polygon fill="#2D3134" points="148.1,197.8 148,197.6 173.5,184 187,176.5 187.2,176.7 173.6,184.2 			"/>
		</g>
		
			<ellipse transform="matrix(0.8945 -0.4471 0.4471 0.8945 -63.9886 96.9429)" fill="#999999" cx="173.4" cy="184" rx="2.1" ry="3.6"/>
		<path fill="#999999" d="M163,186.4l8.5-4.3c1.2-0.6,1.8,0.3,2.4,1.5v0c0.6,1.2,0.9,2.2-0.3,2.8l-8.5,4.3L163,186.4z"/>
		<path opacity="0.2" d="M174.2,184.1c-0.1,0.2-0.3,0.4-0.7,0.6L165,189l-1.4-2.9l-0.5,0.3l2.1,4.3l8.5-4.3
			C174.7,185.9,174.6,185.1,174.2,184.1z"/>
		<polygon fill="#2D3134" points="163.5,216.7 163.2,216.7 163.4,188.8 165.2,153.6 165.4,153.6 163.6,188.8 		"/>
		<polygon fill="#2D3134" points="175.3,222.6 163.4,188.8 154.1,149.7 154.4,149.7 163.6,188.7 175.5,222.5 		"/>
		<polygon fill="#2D3134" points="151.7,205.4 151.6,205.2 163.4,188.7 178.2,165.2 178.4,165.3 163.6,188.8 		"/>
		<polygon fill="#2D3134" points="185.4,221.6 163.4,188.8 145,154 145.2,153.9 163.6,188.7 185.6,221.5 		"/>
		<polygon fill="#2D3134" points="192.2,214.8 163.5,188.9 139.5,162.4 139.7,162.3 163.6,188.7 192.4,214.7 		"/>
		<polygon fill="#2D3134" points="194.2,202.8 163.5,188.9 138.9,175.8 139,175.6 163.6,188.7 194.3,202.6 		"/>
		<polygon fill="#2D3134" points="143.2,191.1 143.2,190.9 163.5,188.7 191,184.6 191,184.9 163.5,188.9 		"/>
		<path fill="#2D3134" d="M192.6,173.5c-11.1-22.2-31.3-34.7-45-27.8c-13.8,6.9-15.9,30.5-4.8,52.7c11.1,22.2,31.3,34.7,45,27.8
			C201.6,219.3,203.8,195.7,192.6,173.5z M183.1,223c-11.5,5.7-28.8-5.7-38.7-25.5c-9.9-19.8-8.6-40.5,2.8-46.3
			c11.5-5.7,28.8,5.7,38.7,25.5C195.9,196.6,194.6,217.3,183.1,223z"/>
		<path fill="#999999" d="M176.6,225c-5.4,0-11.6-2.7-17.4-7.5c-6-4.9-11.2-11.8-15.2-19.8c-10-20-8.6-41.1,3.1-46.9
			c2-1,4.3-1.5,6.7-1.5c5.4,0,11.6,2.7,17.4,7.5c6,4.9,11.2,11.8,15.2,19.8c10,20,8.6,41.1-3.1,46.9
			C181.3,224.5,179.1,225,176.6,225z M153.8,150.3c-2.3,0-4.4,0.5-6.3,1.4c-11.2,5.6-12.4,26.1-2.6,45.6
			c7.9,15.7,20.9,26.7,31.8,26.7c2.3,0,4.4-0.5,6.3-1.4c11.2-5.6,12.4-26.1,2.6-45.6C177.7,161.3,164.6,150.3,153.8,150.3z"/>
		
			<ellipse transform="matrix(0.8945 -0.4471 0.4471 0.8945 -67.1597 93.0817)" fill="#999999" cx="163.6" cy="188.8" rx="2.1" ry="3.6"/>
	</g>
	<path fill="#FFFFFF" d="M108.9,122.4c0,0-1.5,4,0.2,6.1c1.7,2.1,2.6,2.3,2.6,2.3s-1.4,1.4-0.7,2.6s1.9,4-0.4,5.1s-10-5-10-7.3
		c0-2.3,0.9-5.5,0.9-5.5s2.4-0.3,4.1-1C107.4,123.8,108.9,122.4,108.9,122.4z"/>
	<path fill="#2D3134" d="M103.6,125.4c0,0-1.7-0.2-3.2,0.5c-1.2,0.6-2.8,1.9-2.9,4.2c-0.1,2.3,5.2,6.7,6.8,10.2s4.4,7.2,7.8,8.5
		c1.4,0.5,4.4-0.9,4.7-2.6s-1.2-6.8-2.8-9.3c-1.2-2-2.8-3.7-2.8-3.7s-0.4,2.5-2.1,3.2s-4.5-1-5.5-2.6c-1-1.6-3-5.9-2.2-7
		C102.2,125.6,103.6,125.4,103.6,125.4z"/>
	<g>
		<path fill="#656565" d="M40.6,141.1c-9.3-18.6-8.7-38.1,0.9-45.1c-0.9,0.2-1.8,0.6-2.6,1c-11.5,5.7-12.8,26.5-2.8,46.3
			c9.9,19.8,27.2,31.2,38.7,25.5c0.7-0.3,1.3-0.7,1.9-1.2C65.4,170.6,49.8,159.4,40.6,141.1z"/>
		<path opacity="0.2" d="M40.6,141.1c-9.3-18.6-8.7-38.1,0.9-45.1c-0.9,0.2-1.8,0.6-2.6,1c-11.5,5.7-12.8,26.5-2.8,46.3
			c9.9,19.8,27.2,31.2,38.7,25.5c0.7-0.3,1.3-0.7,1.9-1.2C65.4,170.6,49.8,159.4,40.6,141.1z"/>
		<g>
			<polygon fill="#2D3134" points="62,166.9 61.7,166.8 65.1,129.8 66.9,104.1 67.2,104.1 65.3,129.8 			"/>
			<polygon fill="#2D3134" points="80.6,166.6 65.1,129.9 50.7,94.7 50.9,94.6 65.3,129.8 80.8,166.5 			"/>
			<polygon fill="#2D3134" points="48,154.9 47.8,154.8 65.1,129.7 75.4,115.4 75.6,115.5 65.3,129.9 			"/>
			<polygon fill="#2D3134" points="86.2,151.3 65.1,129.9 34.8,102.5 34.9,102.4 65.3,129.7 86.3,151.2 			"/>
			<polygon fill="#2D3134" points="85.6,138.7 65.1,129.9 31.9,116.2 32,116 65.2,129.7 85.6,138.4 			"/>
			<polygon fill="#2D3134" points="65.2,129.9 34.5,129.6 34.5,129.3 65.2,129.7 84.6,129.7 84.6,129.9 			"/>
			<polygon fill="#2D3134" points="39.8,143.5 39.7,143.3 65.1,129.7 78.7,122.2 78.8,122.4 65.2,129.9 			"/>
		</g>
		
			<ellipse transform="matrix(0.8945 -0.4471 0.4471 0.8945 -54.3061 38.9102)" fill="#999999" cx="55.3" cy="134.5" rx="2.1" ry="3.6"/>
		
			<ellipse transform="matrix(0.8945 -0.4471 0.4471 0.8945 -51.135 42.7714)" fill="#999999" cx="65" cy="129.7" rx="2.1" ry="3.6"/>
		<polygon fill="#999999" points="54.7,132.1 63.8,127.5 65.9,131.8 56.8,136.4 		"/>
		<polygon fill="#2D3134" points="55.1,162.4 54.9,162.4 55.1,134.5 56.9,99.3 57.1,99.3 55.3,134.5 		"/>
		<polygon fill="#2D3134" points="67,168.3 55.1,134.5 45.8,95.4 46,95.3 55.3,134.4 67.2,168.2 		"/>
		<polygon fill="#2D3134" points="43.4,151.1 43.2,150.9 55.1,134.4 69.9,110.8 70.1,111 55.3,134.5 		"/>
		<polygon fill="#2D3134" points="77,167.3 55.1,134.5 36.7,99.7 36.9,99.5 55.3,134.4 77.2,167.2 		"/>
		<polygon fill="#2D3134" points="83.9,160.5 55.1,134.5 31.2,108.1 31.4,108 55.3,134.4 84,160.3 		"/>
		<polygon fill="#2D3134" points="85.9,148.5 55.1,134.6 30.6,121.5 30.7,121.3 55.2,134.4 86,148.3 		"/>
		<polygon fill="#2D3134" points="34.9,136.8 34.8,136.6 55.2,134.3 82.7,130.3 82.7,130.5 55.2,134.6 		"/>
		<path fill="#2D3134" d="M84.3,119.1C73.2,96.9,53,84.5,39.3,91.3c-13.8,6.9-15.9,30.5-4.8,52.7c11.1,22.2,31.3,34.7,45,27.8
			C93.3,165,95.4,141.4,84.3,119.1z M74.8,168.7c-11.5,5.7-28.8-5.7-38.7-25.5c-9.9-19.8-8.6-40.5,2.8-46.3
			c11.5-5.7,28.8,5.7,38.7,25.5C87.6,142.3,86.3,163,74.8,168.7z"/>
		<path fill="#999999" d="M68.3,170.7c-5.4,0-11.6-2.7-17.4-7.5c-6-4.9-11.2-11.8-15.2-19.8c-10-20-8.6-41.1,3.1-46.9
			c2-1,4.3-1.5,6.7-1.5c5.4,0,11.6,2.7,17.4,7.5c6,4.9,11.2,11.8,15.2,19.8c10,20,8.6,41.1-3.1,46.9C73,170.2,70.7,170.7,68.3,170.7
			z M45.4,96c-2.3,0-4.4,0.5-6.3,1.4c-11.2,5.6-12.4,26.1-2.6,45.6c7.9,15.7,20.9,26.7,31.8,26.7c2.3,0,4.4-0.5,6.3-1.4
			c11.2-5.6,12.4-26.1,2.6-45.6C69.4,106.9,56.3,96,45.4,96z"/>
		
			<ellipse transform="matrix(0.8945 -0.4471 0.4471 0.8945 -53.9864 39.3716)" fill="#656565" cx="56.4" cy="134.1" rx="4.5" ry="7.7"/>
		
			<ellipse transform="matrix(0.8945 -0.4471 0.4471 0.8945 -53.9864 39.3716)" opacity="0.2" cx="56.4" cy="134.1" rx="4.5" ry="7.7"/>
	</g>
	
		<rect x="70.3" y="126.4" transform="matrix(0.3582 0.9336 -0.9336 0.3582 183.9706 -11.3413)" fill="#3399CC" width="59.9" height="3.6"/>
	
		<rect x="70.3" y="126.4" transform="matrix(0.3582 0.9336 -0.9336 0.3582 183.9706 -11.3413)" fill="#3399CC" width="59.9" height="3.6"/>
	<path fill="#2D3134" d="M110.3,171.4c-1.5-0.7-23.7-13.4-44.5-25.3c-5.1-2.9-8.9-5.1-9-5.2c-1.5-0.8-3.5-2-4.8-4.6
		c-1-1.9-1.4-3.9-1.3-5.7c0.1-1.9,0.9-3.2,2.1-3.8c1-0.5,2.4-0.4,3.7,0.3l51.9,18.9l0,0c3.3,1.3,6.5,4.6,8.6,8.8
		c1.7,3.4,2.5,6.9,2.2,10c-0.2,3.2-1.5,5.5-3.7,6.6c-0.8,0.4-1.7,0.6-2.6,0.6l0,0c-0.5,0-1.1-0.1-1.6-0.2L110.3,171.4z M110.7,170.5
		l0.2,0.1c0.7,0.2,1.4,0.3,2.1,0.3l0,0c0.8,0,1.5-0.2,2.1-0.5c1.8-0.9,2.9-3,3.1-5.8c0.2-2.9-0.5-6.3-2.1-9.5
		c-2.1-4.1-5.2-7.3-8.3-8.4l-0.3-0.1l0,0L56,127.9l0,0c-1.1-0.6-2.1-0.7-2.8-0.3c-0.9,0.5-1.4,1.5-1.5,3c-0.1,1.6,0.3,3.4,1.2,5.2
		c1.2,2.3,2.9,3.5,4.3,4.2c0.1,0.1,3,1.7,9.1,5.2C80.3,153.3,109.6,170,110.7,170.5L110.7,170.5z"/>
	<g>
		<path fill="#3399CC" d="M107.8,160.9l-53.2-25.2c-0.5-0.2-0.7-0.7-0.7-1.2s0.3-1,0.8-1.2l39-17.4l0.9,2.5l-36.3,16.1l50.6,24
			L107.8,160.9z"/>
	</g>
	<path fill="#3399CC" d="M146.8,123.4l-49.6-4.7c-0.5,0-0.9-0.3-1.1-0.7h0c-0.5-1.1-0.1-2.3,1-2.9l0,0l50,4.8L146.8,123.4z"/>
	<polygon fill="#3399CC" points="149.9,133.9 142.9,113.2 143.2,111.9 146.3,111.8 153.3,132.8 	"/>
	<path fill="#3399CC" d="M163.7,189.7c-0.6,0.2-1.2,0-1.5-0.6c-2.9-7.2-15.8-39.5-16.1-44.5c-0.3-6.1,3.8-13.3,3.9-13.7l2.5,1.4
		c0,0.1-3.8,6.9-3.6,12c0.2,3.6,8.8,27.9,15.2,43.8C164.5,188.9,164.2,189.5,163.7,189.7L163.7,189.7z"/>
	<g>
		<path fill="#3399CC" d="M144.2,110.7c0.4-0.2,0.7-0.2,0.9-0.1l0,0l4.4,2.2l0,0c0.3,0.1,0.4,0.4,0.4,0.8c0,0.8-0.6,1.7-1.4,2
			c-0.4,0.2-0.7,0.2-1,0.1c0,0-4.4-2.2-4.5-2.3c-0.2-0.1-0.4-0.4-0.4-0.7C142.8,112,143.4,111,144.2,110.7z"/>
		<path opacity="0.1" d="M147.7,115.7c-0.1,0-4.4-2.2-4.5-2.3c-0.2-0.1-0.4-0.4-0.4-0.7c0-0.3,0.1-0.6,0.3-0.9l4.4,2.2
			c-0.2,0.3-0.3,0.6-0.3,0.9C147.3,115.3,147.4,115.6,147.7,115.7z"/>
		<path opacity="0.11" d="M147.3,114.9c0,0.8,0.6,1.1,1.4,0.7c0.8-0.4,1.4-1.3,1.4-2s-0.6-1.1-1.4-0.7
			C147.9,113.3,147.3,114.2,147.3,114.9z"/>
	</g>
	<g>
		<path fill="#3399CC" d="M114.2,153.5c-0.7-0.4-1.4-0.4-1.9-0.2l0,0l-6,3.1l0,0c-0.5,0.2-0.8,0.8-0.8,1.5c0,1.5,1.2,3.3,2.7,4.1
			c0.7,0.4,1.4,0.4,1.9,0.2c0,0,6-3.1,6.2-3.2c0.4-0.3,0.7-0.8,0.7-1.5C116.9,156.1,115.7,154.3,114.2,153.5z"/>
		<path opacity="0.2" d="M110.1,162.2c0.2-0.1,6-3.1,6.1-3.1c0.4-0.3,0.7-0.8,0.7-1.5c0-0.6-0.2-1.3-0.5-1.9l-6,3.1
			c0.3,0.6,0.5,1.3,0.5,1.9C110.8,161.4,110.5,161.9,110.1,162.2z"/>
		<path opacity="0.11" d="M110.8,160.7c0,1.5-1.2,2.1-2.7,1.4s-2.7-2.6-2.7-4.1s1.2-2.1,2.7-1.4
			C109.6,157.4,110.8,159.2,110.8,160.7z"/>
	</g>
	<path fill="#656565" d="M112.8,171.2c-3.8,0-8.2-3.6-10.9-9c-3.4-6.8-2.9-13.6,1.2-15.7c0.7-0.4,1.5-0.5,2.4-0.5
		c3.8,0,8.2,3.6,10.9,9c3.4,6.8,2.9,13.6-1.2,15.7C114.5,171,113.7,171.2,112.8,171.2z M105.5,147.3c-0.6,0-1.2,0.1-1.8,0.4
		c-3.3,1.7-3.6,7.9-0.6,13.9c2.4,4.9,6.4,8.3,9.7,8.3c0.6,0,1.2-0.1,1.8-0.4c3.3-1.7,3.6-7.9,0.6-13.9
		C112.8,150.7,108.8,147.3,105.5,147.3z"/>
	<path fill="#656565" d="M112.5,169.3c-3,0-6.7-3.2-9-7.8c-2.9-5.7-2.7-11.4,0.4-13c0.5-0.3,1.1-0.4,1.7-0.4c3,0,6.7,3.2,9,7.8
		c2.9,5.7,2.7,11.4-0.4,13C113.7,169.1,113.1,169.3,112.5,169.3z M105.6,149.1c-0.4,0-0.8,0.1-1.2,0.3c-2.5,1.3-2.5,6.6,0,11.6
		c2.1,4.2,5.5,7.3,8.1,7.3c0.4,0,0.8-0.1,1.2-0.3c2.5-1.3,2.5-6.6,0-11.6C111.6,152.1,108.2,149.1,105.6,149.1z"/>
	
		<ellipse transform="matrix(0.8945 -0.4471 0.4471 0.8945 -59.6775 65.4988)" fill="#656565" cx="108.9" cy="159.2" rx="2.9" ry="4.6"/>
	<path opacity="0.2" d="M112.8,171.2c-3.8,0-8.2-3.6-10.9-9c-3.4-6.8-2.9-13.6,1.2-15.7c0.7-0.4,1.5-0.5,2.4-0.5
		c3.8,0,8.2,3.6,10.9,9c3.4,6.8,2.9,13.6-1.2,15.7C114.5,171,113.7,171.2,112.8,171.2z M105.5,147.3c-0.6,0-1.2,0.1-1.8,0.4
		c-3.3,1.7-3.6,7.9-0.6,13.9c2.4,4.9,6.4,8.3,9.7,8.3c0.6,0,1.2-0.1,1.8-0.4c3.3-1.7,3.6-7.9,0.6-13.9
		C112.8,150.7,108.8,147.3,105.5,147.3z"/>
	<path opacity="0.2" d="M112.5,169.3c-3,0-6.7-3.2-9-7.8c-2.9-5.7-2.7-11.4,0.4-13c0.5-0.3,1.1-0.4,1.7-0.4c3,0,6.7,3.2,9,7.8
		c2.9,5.7,2.7,11.4-0.4,13C113.7,169.1,113.1,169.3,112.5,169.3z M105.6,149.1c-0.4,0-0.8,0.1-1.2,0.3c-2.5,1.3-2.5,6.6,0,11.6
		c2.1,4.2,5.5,7.3,8.1,7.3c0.4,0,0.8-0.1,1.2-0.3c2.5-1.3,2.5-6.6,0-11.6C111.6,152.1,108.2,149.1,105.6,149.1z"/>
	
		<ellipse transform="matrix(0.8945 -0.4471 0.4471 0.8945 -59.6775 65.4988)" opacity="0.2" cx="108.9" cy="159.2" rx="2.9" ry="4.6"/>
	<g>
		<path fill="#762C07" d="M168.1,102.6c-0.5-0.2-0.9-0.3-1.2-0.1l0,0l-10.2,5l0,0c-0.3,0.2-0.6,0.5-0.6,1c0,1,0.8,2.2,1.8,2.6
			c0.5,0.2,0.9,0.3,1.2,0.1c0,0,10.2-5,10.3-5c0.3-0.2,0.5-0.5,0.5-1C169.8,104.3,169,103.1,168.1,102.6z"/>
		<path opacity="0.2" d="M159.1,111.2c0.1-0.1,10.2-5,10.2-5c0.3-0.2,0.5-0.5,0.5-1c0-0.4-0.1-0.8-0.3-1.2l-10.2,5
			c0.2,0.4,0.3,0.8,0.3,1.2C159.6,110.7,159.4,111.1,159.1,111.2z"/>
		<path opacity="0.11" d="M159.6,110.2c0,1-0.8,1.4-1.8,0.9c-1-0.5-1.8-1.7-1.8-2.6s0.8-1.4,1.8-0.9
			C158.8,108.1,159.6,109.3,159.6,110.2z"/>
	</g>
	<path fill="#2D3134" d="M105.6,183.9l-0.4-0.9l2.4-1l-3.9-5c-0.1-0.1-0.1-0.2-0.1-0.3l-0.3-5.7l-5.4-6.7c-0.1-0.1-0.1-0.3-0.1-0.4
		c0-0.1,0.1-0.3,0.3-0.3l10.1-4.9l0.4,0.9l-9.5,4.6l5.1,6.4c0.1,0.1,0.1,0.2,0.1,0.3l0.3,5.7l4.1,5.4c0.1,0.1,0.1,0.3,0.1,0.4
		c0,0.1-0.1,0.3-0.3,0.3L105.6,183.9z"/>
	<g>
		<polygon fill="#2D3134" points="100.9,190.6 95.7,188 95.7,186 104.8,181.5 110,184.1 110,186 		"/>
		<polygon opacity="0.11" points="95.7,186 95.7,188 100.9,190.6 100.9,188.6 		"/>
		<polygon fill="#3399CC" points="110,184.1 110,186 100.9,190.6 100.9,188.6 		"/>
		<polygon opacity="0.29" points="110,184.1 110,186 100.9,190.6 100.9,188.6 		"/>
	</g>
	
		<ellipse transform="matrix(0.942 -0.3356 0.3356 0.942 -28.4228 35.8466)" fill="#3399CC" cx="89.5" cy="100.2" rx="1.8" ry="0.8"/>
	<path fill="#656565" d="M90.7,99.6C90.7,99.6,90.7,99.6,90.7,99.6L90.7,99.6L79.8,71.2l-2.4,0.9l10.8,28.3c0,0,0,0,0,0l0,0l0,0l0,0
		c0.1,0.3,0.8,0.4,1.4,0.1C90.3,100.4,90.8,99.9,90.7,99.6z"/>
	<path opacity="0.2" d="M90.7,99.6C90.7,99.6,90.7,99.6,90.7,99.6L90.7,99.6L79.8,71.2l-2.4,0.9l0.2,0.5l1.5-0.6l10.9,28.3l0,0
		c0,0,0,0,0,0C90.4,100.2,90.8,99.9,90.7,99.6z"/>
	<g>
		<path fill="#762C07" d="M71.8,71.3c-4.1,2.6-6.3,8.5-2.5,13c2.7,3.2,9,1.4,14.1,2.9s9.9,4.8,13,2.9c1.2-0.7,0.5-3.7-2.5-6.5
			c-3.1-2.8-7.4-8.3-7.6-8.7C85.3,73.1,78.3,67.2,71.8,71.3z"/>
		<path opacity="0.2" d="M83.9,85.4c-5.1-1.5-11.4,0.4-14.1-2.9c-1.7-2.1-2.2-4.4-1.8-6.6c-1.1,2.7-0.9,5.8,1.3,8.5
			c2.7,3.2,9,1.4,14.1,2.9s9.9,4.8,13,2.9c0.5-0.3,0.6-0.9,0.5-1.8C93.7,90.2,89,86.9,83.9,85.4z"/>
	</g>
	<path fill="#2D3134" d="M94.1,85.4c0,0,7,7.9,11,11.5s13.4,10.3,13.4,10.3l13.3-12.4c0,0-6.1-8.8-9.4-12.4
		c-3.3-3.6-12.2-12.6-12.2-12.6L106,68L93.6,85.4H94.1z"/>
	<path fill="#FBD7C7" d="M80.8,63.9c0,0-8.8,5-8.7,13.3c0.1,8.3,7.1,27.4,8.7,33.5c1.6,6.1,5.2,13.7,5,19.7
		c-0.1,6.1-1.1,14.6,0.9,21.1c2.1,6.5,8.7,18.5,8.7,20.2c0,1.7,0.1,7.6,1.8,9.2c1.7,1.6,9.2,2.1,10.1,1.8c0.9-0.2-1.4-5-3.2-8.7
		c-1.8-3.7-4.7-11-5-18.4c-0.3-7.3-2.1-18-1.8-19.7c0.2-1.7,0.3-4.4,0.5-6.9s0.3-7.9-0.5-12.8c-0.8-4.9-4.1-23.6-4.1-26.6
		c0-3,0-10.6,0-10.6L80.8,63.9z"/>
	<path fill="#FBD7C7" d="M133.1,40.1c0,0,5.9,9.2,8.7,15.5s2.8,8.9,4.1,10.6s9.2,12.9,11,18.4c1.8,5.4,4.1,9,5.2,10.3
		c1.1,1.3,3.9,4.6,5,6.4s2.9,7.6,0.5,9.2c-2.4,1.6-5.5-0.5-5.5-0.5l-1.8-3.7l-1.6,0.6c0,0-2.6-4.4-2.3-6c0.3-1.5,0.2-2.9-0.3-3.8
		c-0.5-0.9-7.5-7.8-11.8-14.5s-8.3-14.7-8.5-15.5c-0.1-0.4-4.3-5.2-7.2-9.7c-2.2-3.5-3.3-7.2-3.3-7.2L133.1,40.1z"/>
	<path fill="#2D3134" d="M107.8,69.4c0,0-14.1-4.7-17.4-6.9c-3.3-2.1-7.3-5.5-7.3-5.5s-10.6,8.4-13.2,15c-2.6,6.6,1.1,18.3,3.7,24
		c2.5,5.7,8.3,19.2,8.3,19.2l15.3-2.1c0,0,0-10.3-0.4-15.6C96.4,92.8,95,84,95,84L107.8,69.4z"/>
	<path fill="#99CC33" d="M104.2,31.3c0,0-12.2,3.1-15.8,5.8c-2.9,2.1-4.7,6.6-6.9,12.6c-3,8.3-6.7,13.6-8.4,15.7
		c-0.6,0.7-0.6,1.7,0,2.4c1.6,2,7.1,6,11.6,6.7c6.2,1,21-1.2,22.4-2.3c3.1-2.5,5.3-4.9,6.9-6.2c3.3-2.7,10.5-11.2,11.9-12.9
		c0.7,1.5,2.2,3.3,2.2,3.3s2.9-1.5,6.5-3.4c2.1-1.1,4.4-3.1,4.4-3.1s-2.7-9.4-5.5-13.2c-2.1-2.8-8.9-6.2-15.1-6
		S104.2,31.3,104.2,31.3z"/>
	<g opacity="0.2">
		<path d="M124.9,41.8c0.4-4,2.3-7.3,3.3-8.8c-2.9-1.3-6.5-2.3-9.9-2.2c-6.2,0.2-14.2,0.5-14.2,0.5S91.9,34.4,88.4,37
			c6.6-3.8,9.7,0.5,11.5,6.4c1.8,5.9,1.8,18.5,1.8,18.5l-11.4,3.2c0,0-2.9-5.3-4.6-9.7c-1.7-4.4-1.3-10.2-1.2-12.8
			c0-0.1,0-0.3,0.1-0.4c-1,2.1-2,4.6-3.1,7.5c-3,8.3-6.7,13.6-8.4,15.7c-0.6,0.7-0.6,1.7,0,2.4c1.6,2,7.1,6,11.6,6.7
			c6.2,1,21-1.2,22.4-2.3c3.1-2.5,5.3-4.9,6.9-6.2c3.3-2.7,10.5-11.2,11.9-12.9C125.8,53.2,124.4,47.4,124.9,41.8z"/>
	</g>
	<path fill="#2D3134" d="M124.5,31.4c0,0-2.9,15.8-15.7,23c-14.6,8.2-35.6,6.3-35.6,6.3l-3.6,4.3c0,0,22.8,3.2,39.7-5.7
		s18.9-26.3,18.9-26.3L124.5,31.4z"/>
	<path fill="#FFFFFF" d="M93.3,167.3c0,0,1.6,0.7,4,0.3c2.4-0.3,3.9-1.4,3.9-1.4s2.2,4.8,3,6.7c0.8,1.8,1.8,4.5,1.8,4.5
		s-1.5,3.6-4.5,3.8c-3,0.2-7.6-3.9-7.6-3.9s1.1-3.8,1-5.3C94.9,170.5,93.3,167.3,93.3,167.3z"/>
	<path fill="#FBD7C7" d="M128.6,19c1.1,2.2,0.6,17.6-2.7,20.3c-3.3,2.7-8-0.1-9.7-1.3c-0.3-0.2-0.9,0.4-0.8,1.7
		c0.4,5.2-5.6,4.5-7.7,3.8c-5.2-1.6-8.1-8-6.5-8.9c7.6-4.4,5.6-9.6,5.6-10.7c0-0.3,3.7-2.8,3.8-3.1C113,13.1,124.6,11.4,128.6,19z"
		/>
	<g>
		<path fill="#762C07" d="M158.9,106.3c-0.7-0.3-1.3-0.4-1.7-0.2l0,0l-1.9,0.9l0,0c-0.5,0.2-0.8,0.7-0.8,1.4c0,1.4,1.1,3,2.5,3.7
			c0.7,0.3,1.3,0.4,1.7,0.2c0,0,1.9-0.9,2-1c0.4-0.2,0.6-0.7,0.6-1.3C161.4,108.6,160.3,107,158.9,106.3z"/>
		<path opacity="0.2" d="M158.8,112.3c0.2-0.1,1.8-0.9,1.9-1c0.4-0.2,0.6-0.7,0.6-1.3c0-0.5-0.2-1.1-0.5-1.7l-1.9,0.9
			c0.3,0.6,0.5,1.2,0.5,1.7C159.5,111.6,159.2,112.1,158.8,112.3z"/>
		<path opacity="0.1" d="M159.5,110.9c0,1.4-1.1,1.9-2.5,1.2c-1.4-0.7-2.5-2.3-2.5-3.7c0-1.4,1.1-1.9,2.5-1.2
			S159.5,109.6,159.5,110.9z"/>
	</g>
	<path fill="#656565" d="M133.3,123.5c-0.6,0-1.2-0.3-1.5-0.9c-0.4-0.8-0.1-1.9,0.8-2.3l23.4-11.7c0.8-0.4,1.9-0.1,2.3,0.8
		c0.4,0.8,0.1,1.9-0.8,2.3L134,123.3C133.8,123.4,133.5,123.5,133.3,123.5z"/>
	<path opacity="0.2" d="M157.9,109.9l-23.4,11.7c-0.2,0.1-0.5,0.2-0.8,0.2c-0.6,0-1.2-0.3-1.5-0.9c0-0.1-0.1-0.2-0.1-0.2
		c-0.5,0.5-0.7,1.3-0.4,2c0.3,0.6,0.9,0.9,1.5,0.9c0.3,0,0.5-0.1,0.8-0.2l23.4-11.7c0.8-0.4,1.1-1.3,0.9-2
		C158.2,109.7,158.1,109.8,157.9,109.9z"/>
	<g>
		<path fill="#762C07" d="M140,115.8c-0.7-0.3-1.3-0.4-1.7-0.2l0,0l-1.9,0.9l0,0c-0.5,0.2-0.8,0.7-0.8,1.4c0,1.4,1.1,3,2.5,3.7
			c0.7,0.3,1.3,0.4,1.7,0.2c0,0,1.9-0.9,2-1c0.4-0.2,0.6-0.7,0.6-1.3C142.5,118.1,141.4,116.4,140,115.8z"/>
		<path opacity="0.2" d="M139.9,121.7c0.2-0.1,1.8-0.9,1.9-1c0.4-0.2,0.6-0.7,0.6-1.3c0-0.5-0.2-1.1-0.5-1.7l-1.9,0.9
			c0.3,0.6,0.5,1.2,0.5,1.7C140.6,121,140.3,121.5,139.9,121.7z"/>
		<path opacity="0.1" d="M140.6,120.4c0,1.4-1.1,1.9-2.5,1.2s-2.5-2.3-2.5-3.7s1.1-1.9,2.5-1.2S140.6,119,140.6,120.4z"/>
	</g>
	<g>
		<path fill="#762C07" d="M137.9,117.5c-0.5-0.2-0.9-0.3-1.2-0.1l0,0l-10.2,5l0,0c-0.3,0.2-0.6,0.5-0.6,1c0,1,0.8,2.2,1.8,2.6
			c0.5,0.2,0.9,0.3,1.2,0.1c0,0,10.2-5,10.3-5c0.3-0.2,0.5-0.5,0.5-1C139.6,119.1,138.9,118,137.9,117.5z"/>
		<path opacity="0.2" d="M128.9,126.1c0.1-0.1,10.2-5,10.2-5c0.3-0.2,0.5-0.5,0.5-1c0-0.4-0.1-0.8-0.3-1.2l-10.2,5
			c0.2,0.4,0.3,0.8,0.3,1.2C129.4,125.6,129.3,125.9,128.9,126.1z"/>
		<path opacity="0.1" d="M129.4,125.1c0,1-0.8,1.4-1.8,0.9c-1-0.5-1.8-1.7-1.8-2.6s0.8-1.4,1.8-0.9
			C128.7,123,129.4,124.1,129.4,125.1z"/>
	</g>
	<path fill="#FBD7C7" d="M90.3,65.1c0,0,4.6,14.2,7.1,19.1c2.3,4.5,3.4,6.6,7.9,11.2c4.5,4.6,18.6,17.3,20.2,19
		c1.6,1.7,2.6,4.2,2.7,4.8c0.2,2.3,1.7,4.8,3.9,5.9c2,1,4.6-0.1,5.4-1.1c0.1-0.1,0.2-0.3,0.3-0.5c0.6-1.4,0.2-3-0.9-4.1l-1-1.3
		l1.2-0.8c0,0-1.8-2.2-3-2.9c-1.2-0.7-3.8-2.9-4.1-3.7c-0.3-0.8-8.3-13.9-13.8-19.3c-2.4-2.4-7.8-6.9-7.8-6.9s-2.8-11.2-4.3-15.9
		c-0.3-0.9-2.3-6.7-2.3-6.7L90.3,65.1z"/>
	<path fill="#2D3134" d="M93.9,176.7c0,0-0.9,2.7-0.9,4.1s-0.2,2.9,2.1,3.6c0.4,0.1,2.6,0.3,4.6,1.1c2.6,1,7.1,4.3,8.8,4.6
		c5.4,1,8.3-2.9,7.3-4.4c-0.6-0.9-5.9-3.1-7-4.7s-2.7-4.2-2.7-4.2s-0.4,0.6-1.8,1.3c-1.9,1-4.3,0.9-5.9,0.5S93.9,176.7,93.9,176.7z"
		/>
	<g>
		<path fill="#2D3134" d="M129.6,25.7c0,0-8.6,3.6-18,1.9S101.4,21,101.4,21s4.5-11.6,18.8-9.9C130.8,12.4,129.6,25.7,129.6,25.7z"
			/>
		<path fill="#3399CC" d="M130.2,24.4c0,0-9.2,3.9-19.3,2.1c-10.1-1.8-10.8-7.2-10.8-7.2s4.8-12.4,20.1-10.6
			C131.6,10.1,130.2,24.4,130.2,24.4z"/>
		<path opacity="0.2" d="M128.7,22.6l-1.8,0.4c0,0-0.1-6.5-3.5-9.4c-3.3-2.9-8.3-3.6-8.3-3.6s5-1.2,9.4,2.1S128.7,22.6,128.7,22.6z"
			/>
		<path opacity="0.2" d="M125.1,23.5l-2.3,0.4c0,0,0.2-3.6-1.6-6.6c-1.8-3-3.8-3.9-3.8-3.9s3.1-0.1,5.5,3.3
			C125.3,20,125.1,23.5,125.1,23.5z"/>
		<path opacity="0.2" d="M119.9,24.3c0,0-2.7,0.3-6.3,0c-1.8-0.2-5.1-1.3-5.1-1.3s3-4.5,7-3.9S119.9,24.3,119.9,24.3z"/>
		<path fill="#2D3134" d="M116,38.4c-0.2-0.2-4.4-5.1-5.6-7.6c-0.9-2-2.2-4.6-2.2-4.7l1.9,0.4c0,0,0.6,2,1.5,3.9
			c0.2,0.4,0.5,1,0.9,1.6c-0.6-3.3,0.2-5,0.3-5.1l1.1,0.1l0.6,0c0,0-1.9,2.6-0.4,6.6c0.2,0.5,1.7,3.2,2.8,4.8L116,38.4z"/>
	</g>
	<path fill="#99CC33" d="M84.5,42.6c-0.1,2.6-0.5,8.3,1.2,12.8c1.7,4.4,4.6,9.7,4.6,9.7l11.4-3.2c0,0,0.1-12.6-1.8-18.5
		s-5-10.2-11.5-6.4c-1.5,1.1-2.7,2.8-3.8,5.1C84.5,42.3,84.5,42.4,84.5,42.6z"/>
</g>
</svg>
