<?xml version="1.0" encoding="utf-8"?>
<!-- Generator: Adobe Illustrator 18.1.0, SVG Export Plug-In . SVG Version: 6.00 Build 0)  -->
<svg version="1.1" id="Layer_1" xmlns="http://www.w3.org/2000/svg" xmlns:xlink="http://www.w3.org/1999/xlink" x="0px" y="0px"
	 viewBox="0 0 240 400" enable-background="new 0 0 240 400" xml:space="preserve">
<g>
	<polygon fill="#825012" points="0,120 0,360 80,400 240,320 240,80 160,40 	"/>
	<polygon opacity="0.11" points="80,400 0,360 0,120 80,160 	"/>
	<path opacity="0.29" d="M80,160v240l160-80V80L80,160z M230,313.8l-140,70V166l140-70V313.8z"/>
	<polygon opacity="0.29" points="90,199 230,129 230,133 90,203 	"/>
	<polygon opacity="0.29" points="90,236 230,166 230,170 90,240 	"/>
	<polygon opacity="0.29" points="90,273 230,203 230,207 90,277 	"/>
	<polygon opacity="0.29" points="90,310 230,240 230,244 90,314 	"/>
	<polygon opacity="0.29" points="90,347 230,277 230,281 90,351 	"/>
	<polygon opacity="0.11" points="197,112.5 230,129 230,96 	"/>
	<polygon opacity="0.11" points="197,149.5 230,166 230,133 	"/>
	<polygon opacity="0.11" points="197,186.5 230,203 230,170 	"/>
	<polygon opacity="0.11" points="197,223.5 230,240 230,207 	"/>
	<polygon opacity="0.11" points="197,260.5 230,277 230,244 	"/>
	<polygon opacity="0.11" points="197,297.5 230,314 230,281 	"/>
</g>
</svg>
