<?xml version="1.0" encoding="utf-8"?>
<!-- Generator: Adobe Illustrator 18.1.0, SVG Export Plug-In . SVG Version: 6.00 Build 0)  -->
<svg version="1.1" id="Layer_1" xmlns="http://www.w3.org/2000/svg" xmlns:xlink="http://www.w3.org/1999/xlink" x="0px" y="0px"
	 viewBox="0 0 32 32" enable-background="new 0 0 32 32" xml:space="preserve">
<g>
	<polygon fill="#FFCC00" points="0.6,16.5 0.6,23.9 8,27.6 15.4,23.9 15.4,16.5 8,12.8 	"/>
	<polygon opacity="0.11" points="8,27.6 0.6,23.9 0.6,16.5 8,20.2 	"/>
	<polygon opacity="0.3" points="5.2,14.2 3.4,15.1 10.8,18.8 10.8,22.4 12.6,21.5 12.6,17.9 	"/>
	<polygon opacity="0.29" points="8,27.6 15.4,23.9 15.4,16.5 8,20.2 	"/>
</g>
<g>
	<polygon fill="#FFCC00" points="16.6,16.5 16.6,23.9 24,27.6 31.4,23.9 31.4,16.5 24,12.8 	"/>
	<polygon opacity="0.11" points="24,27.6 16.6,23.9 16.6,16.5 24,20.2 	"/>
	<polygon opacity="0.3" points="21.2,14.2 19.4,15.1 26.8,18.8 26.8,22.4 28.6,21.5 28.6,17.9 	"/>
	<polygon opacity="0.29" points="24,27.6 31.4,23.9 31.4,16.5 24,20.2 	"/>
</g>
<g>
	<polygon fill="#FFCC00" points="8.6,20.5 8.6,27.9 16,31.6 23.4,27.9 23.4,20.5 16,16.8 	"/>
	<polygon opacity="0.11" points="16,31.6 8.6,27.9 8.6,20.5 16,24.2 	"/>
	<polygon opacity="0.3" points="13.2,18.2 11.4,19.1 18.8,22.8 18.8,26.4 20.6,25.5 20.6,21.9 	"/>
	<polygon opacity="0.29" points="16,31.6 23.4,27.9 23.4,20.5 16,24.2 	"/>
</g>
<g>
	<polygon fill="#FFCC00" points="8.6,4.5 8.6,11.9 16,15.6 23.4,11.9 23.4,4.5 16,0.8 	"/>
	<polygon opacity="0.11" points="16,15.6 8.6,11.9 8.6,4.5 16,8.2 	"/>
	<polygon opacity="0.3" points="13.2,2.2 11.4,3.1 18.8,6.8 18.8,10.4 20.6,9.5 20.6,5.9 	"/>
	<polygon opacity="0.29" points="16,15.6 23.4,11.9 23.4,4.5 16,8.2 	"/>
</g>
<g>
	<polygon fill="#FFCC00" points="0.6,8.5 0.6,15.9 8,19.6 15.4,15.9 15.4,8.5 8,4.8 	"/>
	<polygon opacity="0.11" points="8,19.6 0.6,15.9 0.6,8.5 8,12.2 	"/>
	<polygon opacity="0.3" points="5.2,6.2 3.4,7.1 10.8,10.8 10.8,14.4 12.6,13.5 12.6,9.9 	"/>
	<polygon opacity="0.29" points="8,19.6 15.4,15.9 15.4,8.5 8,12.2 	"/>
</g>
<g>
	<polygon fill="#FFCC00" points="16.6,8.5 16.6,15.9 24,19.6 31.4,15.9 31.4,8.5 24,4.8 	"/>
	<polygon opacity="0.11" points="24,19.6 16.6,15.9 16.6,8.5 24,12.2 	"/>
	<polygon opacity="0.3" points="21.2,6.2 19.4,7.1 26.8,10.8 26.8,14.4 28.6,13.5 28.6,9.9 	"/>
	<polygon opacity="0.29" points="24,19.6 31.4,15.9 31.4,8.5 24,12.2 	"/>
</g>
<g>
	<polygon fill="#FFCC00" points="8.6,12.5 8.6,19.9 16,23.6 23.4,19.9 23.4,12.5 16,8.8 	"/>
	<polygon opacity="0.11" points="16,23.6 8.6,19.9 8.6,12.5 16,16.2 	"/>
	<polygon opacity="0.3" points="13.2,10.2 11.4,11.1 18.8,14.8 18.8,18.4 20.6,17.5 20.6,13.9 	"/>
	<polygon opacity="0.29" points="16,23.6 23.4,19.9 23.4,12.5 16,16.2 	"/>
</g>
</svg>
