<?xml version="1.0" encoding="utf-8"?>
<!-- Generator: Adobe Illustrator 18.1.0, SVG Export Plug-In . SVG Version: 6.00 Build 0)  -->
<svg version="1.1" id="Layer_1" xmlns="http://www.w3.org/2000/svg" xmlns:xlink="http://www.w3.org/1999/xlink" x="0px" y="0px"
	 viewBox="0 0 160 240" enable-background="new 0 0 160 240" xml:space="preserve">
<g>
	<path opacity="0.2" d="M16.1,196.6l33.6,16.8c0.8,0.4,1.7,0.4,2.6,0l33.6-16.8c2.1-1.1,2.1-4,0-5.1l-33.6-16.8
		c-0.8-0.4-1.7-0.4-2.6,0l-33.6,16.8C14,192.5,14,195.5,16.1,196.6z"/>
	<path fill="#2D3134" d="M50.5,214c-0.7,0-1.4-0.2-2-0.5l-31.9-16c-1.5-0.8-2.5-2.3-2.5-4.1s1-3.3,2.5-4.1L46,174.8
		c1.6-0.8,3.3-1.2,5-1.2v-0.4l-36.9-18.4c-1-0.5-1.4-1.7-0.9-2.7c0.5-1,1.7-1.4,2.7-0.9l38,19c0.7,0.3,1.1,1,1.1,1.8v2.3
		c0.3,0.1,0.6,0.3,1,0.4l32.4,16.2c0.2,0.1,0.3,0,0.4,0c0.1-0.1,0.2-0.2,0.2-0.4v-35.3l-0.9-0.4c-1-0.5-1.4-1.7-0.9-2.7
		c0.5-1,1.7-1.4,2.7-0.9l2,1c0.7,0.3,1.1,1,1.1,1.8v36.5c0,1.6-0.8,3-2.1,3.8c-1.3,0.8-2.9,0.9-4.3,0.2L55,178.8v30.8
		c0,1.6-0.8,3-2.1,3.8C52.2,213.8,51.4,214,50.5,214z M51,177.6c-1.1,0-2.2,0.2-3.2,0.7L18.4,193c-0.2,0.1-0.3,0.3-0.3,0.5
		s0.1,0.4,0.3,0.5l31.9,16c0.2,0.1,0.3,0,0.4,0c0.1-0.1,0.2-0.2,0.2-0.4V177.6z"/>
	<path opacity="0.2" fill="#FFFFFF" d="M50,212c-0.5,0-0.9-0.1-1.3-0.3l-31.9-16c-1-0.5-1.7-1.6-1.7-2.7s0.6-2.2,1.7-2.7l29.4-14.7
		c0.2-0.1,0.5,0,0.7,0.2c0.1,0.2,0,0.5-0.2,0.7l-29.4,14.7c-0.7,0.4-1.1,1-1.1,1.8s0.4,1.5,1.1,1.8l31.9,16c0.6,0.3,1.3,0.3,1.9-0.1
		c0.6-0.4,0.9-1,0.9-1.7v-37.5c0-0.3,0.2-0.5,0.5-0.5s0.5,0.2,0.5,0.5V209c0,1-0.5,2-1.4,2.5C51.1,211.8,50.6,212,50,212z"/>
	<path opacity="0.2" fill="#FFFFFF" d="M88,193c-0.5,0-0.9-0.1-1.3-0.3l-30.5-15.2c-0.2-0.1-0.3-0.4-0.2-0.7s0.4-0.3,0.7-0.2
		l30.5,15.2c0.6,0.3,1.3,0.3,1.9-0.1c0.6-0.4,0.9-1,0.9-1.7v-36.5c0-0.3,0.2-0.5,0.5-0.5s0.5,0.2,0.5,0.5V190c0,1-0.5,2-1.4,2.5
		C89.1,192.8,88.6,193,88,193z"/>
	<g>
		<g>
			<polygon fill="#FF9900" points="13,149 13,153 53,173 93,153 93,149 53,129 			"/>
			<polygon opacity="0.11" points="53,173 13,153 13,149 53,169 			"/>
			<polygon opacity="0.29" points="53,173 93,153 93,149 53,169 			"/>
		</g>
	</g>
	<path fill="#FF9900" d="M52,79l-4-2L8,97l2.2,8.9c1.9,7.4,2.8,15,2.8,22.6V149l4,2l40-20v-20.5c0-7.6-0.9-15.2-2.8-22.6L52,79z"/>
	<path opacity="0.11" d="M12,99l-4-2l2.2,8.9c1.9,7.4,2.8,15,2.8,22.6V149l4,2v-20.5c0-7.6-0.9-15.2-2.8-22.6L12,99z"/>
	<path opacity="0.29" d="M52,79L12,99l2.2,8.9c1.9,7.4,2.8,15,2.8,22.6V151l40-20v-20.5c0-7.6-0.9-15.2-2.8-22.6L52,79z"/>
</g>
</svg>
