<?xml version="1.0" encoding="utf-8"?>
<!-- Generator: Adobe Illustrator 18.1.0, SVG Export Plug-In . SVG Version: 6.00 Build 0)  -->
<svg version="1.1" id="Layer_1" xmlns="http://www.w3.org/2000/svg" xmlns:xlink="http://www.w3.org/1999/xlink" x="0px" y="0px"
	 viewBox="0 0 112 64" enable-background="new 0 0 112 64" xml:space="preserve">
<g>
	<g>
		<polygon fill="#999999" points="74.8,27.4 74.8,31.4 76,32 77.2,31.4 77.2,27.4 76,26.8 		"/>
		<polygon opacity="0.11" points="76,32 74.8,31.4 74.8,27.4 76,28 		"/>
		<polygon opacity="0.29" points="76,32 77.2,31.4 77.2,27.4 76,28 		"/>
	</g>
	<g>
		<polygon fill="#999999" points="101.6,14 101.6,18 102.8,18.6 104,18 104,14 102.8,13.4 		"/>
		<polygon opacity="0.11" points="102.8,18.6 101.6,18 101.6,14 102.8,14.6 		"/>
		<polygon opacity="0.29" points="102.8,18.6 104,18 104,14 102.8,14.6 		"/>
	</g>
	<g>
		<polygon fill="#999999" points="42.8,43.4 42.8,47.4 44,48 45.2,47.4 45.2,43.4 44,42.8 		"/>
		<polygon opacity="0.11" points="44,48 42.8,47.4 42.8,43.4 44,44 		"/>
		<polygon opacity="0.29" points="44,48 45.2,47.4 45.2,43.4 44,44 		"/>
	</g>
	<g>
		<polygon fill="#999999" points="69.6,30 69.6,34 70.8,34.6 72,34 72,30 70.8,29.4 		"/>
		<polygon opacity="0.11" points="70.8,34.6 69.6,34 69.6,30 70.8,30.6 		"/>
		<polygon opacity="0.29" points="70.8,34.6 72,34 72,30 70.8,30.6 		"/>
	</g>
	<g>
		<polygon fill="#999999" points="10.8,59.4 10.8,63.4 12,64 13.2,63.4 13.2,59.4 12,58.8 		"/>
		<polygon opacity="0.11" points="12,64 10.8,63.4 10.8,59.4 12,60 		"/>
		<polygon opacity="0.29" points="12,64 13.2,63.4 13.2,59.4 12,60 		"/>
	</g>
	<g>
		<polygon fill="#999999" points="0,54 0,58 1.2,58.6 2.4,58 2.4,54 1.2,53.4 		"/>
		<polygon opacity="0.11" points="1.2,58.6 0,58 0,54 1.2,54.6 		"/>
		<polygon opacity="0.29" points="1.2,58.6 2.4,58 2.4,54 1.2,54.6 		"/>
	</g>
	<g>
		<polygon fill="#999999" points="37.6,46 37.6,50 38.8,50.6 40,50 40,46 38.8,45.4 		"/>
		<polygon opacity="0.11" points="38.8,50.6 37.6,50 37.6,46 38.8,46.6 		"/>
		<polygon opacity="0.29" points="38.8,50.6 40,50 40,46 38.8,46.6 		"/>
	</g>
	<polygon fill="#656565" points="96,6 0,54 0,55 12,61 108,13 108,12 	"/>
	<polygon opacity="0.29" points="12,60 12,61 108,13 108,12 	"/>
	<polygon opacity="0.11" points="0,54 12,60 12,61 0,55 	"/>
	<polygon opacity="0.3" points="78,27 79,26.5 67,20.5 66,21 	"/>
	<polygon opacity="0.3" points="82,25 83,24.5 71,18.5 70,19 	"/>
	<polygon opacity="0.3" points="86,23 87,22.5 75,16.5 74,17 	"/>
	<polygon opacity="0.3" points="90,21 91,20.5 79,14.5 78,15 	"/>
	<polygon opacity="0.3" points="94,19 95,18.5 83,12.5 82,13 	"/>
	<polygon opacity="0.3" points="98,17 99,16.5 87,10.5 86,11 	"/>
	<polygon opacity="0.3" points="102,15 103,14.5 91,8.5 90,9 	"/>
	<polygon opacity="0.3" points="106,13 107,12.5 95,6.5 94,7 	"/>
	<polygon opacity="0.3" points="46,43 47,42.5 35,36.5 34,37 	"/>
	<polygon opacity="0.3" points="50,41 51,40.5 39,34.5 38,35 	"/>
	<polygon opacity="0.3" points="54,39 55,38.5 43,32.5 42,33 	"/>
	<polygon opacity="0.3" points="58,37 59,36.5 47,30.5 46,31 	"/>
	<polygon opacity="0.3" points="62,35 63,34.5 51,28.5 50,29 	"/>
	<polygon opacity="0.3" points="66,33 67,32.5 55,26.5 54,27 	"/>
	<polygon opacity="0.3" points="70,31 71,30.5 59,24.5 58,25 	"/>
	<polygon opacity="0.3" points="74,29 75,28.5 63,22.5 62,23 	"/>
	<polygon opacity="0.3" points="14,59 15,58.5 3,52.5 2,53 	"/>
	<polygon opacity="0.3" points="18,57 19,56.5 7,50.5 6,51 	"/>
	<polygon opacity="0.3" points="22,55 23,54.5 11,48.5 10,49 	"/>
	<polygon opacity="0.3" points="26,53 27,52.5 15,46.5 14,47 	"/>
	<polygon opacity="0.3" points="30,51 31,50.5 19,44.5 18,45 	"/>
	<polygon opacity="0.3" points="34,49 35,48.5 23,42.5 22,43 	"/>
	<polygon opacity="0.3" points="38,47 39,46.5 27,40.5 26,41 	"/>
	<polygon opacity="0.3" points="42,45 43,44.5 31,38.5 30,39 	"/>
</g>
</svg>
