<?xml version="1.0" encoding="utf-8"?>
<!-- Generator: Adobe Illustrator 18.1.0, SVG Export Plug-In . SVG Version: 6.00 Build 0)  -->
<svg version="1.1" id="Layer_1" xmlns="http://www.w3.org/2000/svg" xmlns:xlink="http://www.w3.org/1999/xlink" x="0px" y="0px"
	 viewBox="0 0 32 24" enable-background="new 0 0 32 24" xml:space="preserve">
<g>
	<polygon fill="#656565" points="16,6 32,14 32,15 20,21 4,13 4,12 	"/>
	<polygon opacity="0.29" points="32,14 20,20 20,21 32,15 	"/>
	<polygon opacity="0.11" points="20,21 20,20 4,12 4,13 	"/>
	<polygon opacity="0.3" points="18,19 17,18.5 29,12.5 30,13 	"/>
	<polygon opacity="0.3" points="14,17 13,16.5 25,10.5 26,11 	"/>
	<polygon opacity="0.3" points="10,15 9,14.5 21,8.5 22,9 	"/>
	<polygon opacity="0.3" points="6,13 5,12.5 17,6.5 18,7 	"/>
</g>
</svg>
