<?xml version="1.0" encoding="utf-8"?>
<!-- Generator: Adobe Illustrator 18.1.0, SVG Export Plug-In . SVG Version: 6.00 Build 0)  -->
<svg version="1.1" id="Layer_1" xmlns="http://www.w3.org/2000/svg" xmlns:xlink="http://www.w3.org/1999/xlink" x="0px" y="0px"
	 viewBox="0 0 32 24" enable-background="new 0 0 32 24" xml:space="preserve">
<g>
	<polygon fill="#656565" points="16,6 0,14 0,15 12,21 28,13 28,12 	"/>
	<polygon opacity="0.11" points="0,14 12,20 12,21 0,15 	"/>
	<polygon opacity="0.29" points="12,21 12,20 28,12 28,13 	"/>
	<polygon opacity="0.3" points="14,19 15,18.5 3,12.5 2,13 	"/>
	<polygon opacity="0.3" points="18,17 19,16.5 7,10.5 6,11 	"/>
	<polygon opacity="0.3" points="22,15 23,14.5 11,8.5 10,9 	"/>
	<polygon opacity="0.3" points="26,13 27,12.5 15,6.5 14,7 	"/>
</g>
</svg>
