<?xml version="1.0" encoding="utf-8"?>
<!-- Generator: Adobe Illustrator 18.1.0, SVG Export Plug-In . SVG Version: 6.00 Build 0)  -->
<svg version="1.1" id="Layer_1" xmlns="http://www.w3.org/2000/svg" xmlns:xlink="http://www.w3.org/1999/xlink" x="0px" y="0px"
	 viewBox="0 0 40 40" enable-background="new 0 0 40 40" xml:space="preserve">
<g>
	<g>
		<polygon fill="#999999" points="10.8,35.4 10.8,39.4 12,40 13.2,39.4 13.2,35.4 12,34.8 		"/>
		<polygon opacity="0.11" points="12,40 10.8,39.4 10.8,35.4 12,36 		"/>
		<polygon opacity="0.29" points="12,40 13.2,39.4 13.2,35.4 12,36 		"/>
	</g>
	<g>
		<polygon fill="#999999" points="0,30 0,34 1.2,34.6 2.4,34 2.4,30 1.2,29.4 		"/>
		<polygon opacity="0.11" points="1.2,34.6 0,34 0,30 1.2,30.6 		"/>
		<polygon opacity="0.29" points="1.2,34.6 2.4,34 2.4,30 1.2,30.6 		"/>
	</g>
	<g>
		<polygon fill="#999999" points="8,14 8,18 9.2,18.6 10.4,18 10.4,14 9.2,13.4 		"/>
		<polygon opacity="0.11" points="9.2,18.6 8,18 8,14 9.2,14.6 		"/>
		<polygon opacity="0.29" points="9.2,18.6 10.4,18 10.4,14 9.2,14.6 		"/>
	</g>
	<g>
		<polygon fill="#999999" points="28.8,26.4 28.8,30.4 30,31 31.2,30.4 31.2,26.4 30,25.8 		"/>
		<polygon opacity="0.11" points="30,31 28.8,30.4 28.8,26.4 30,27 		"/>
		<polygon opacity="0.29" points="30,31 31.2,30.4 31.2,26.4 30,27 		"/>
	</g>
	<path fill="#656565" d="M32,14L16,6L4,12v1l15,7.5L0,30v1l12,6l20-10c2.6-1.3,3.9-4,3.7-6.5C35.9,18,34.6,15.3,32,14z"/>
	<polygon opacity="0.11" points="0,30 12,36 12,37 0,31 	"/>
	<polygon opacity="0.3" points="14,35 15,34.5 3,28.5 2,29 	"/>
	<polygon opacity="0.3" points="18,33 19,32.5 7,26.5 6,27 	"/>
	<polygon opacity="0.3" points="22,31 23,30.5 11,24.5 10,25 	"/>
	<polygon opacity="0.3" points="26,29 27,28.5 15,22.5 14,23 	"/>
	<polygon opacity="0.3" points="30,27 31,26.5 19,20.5 18,21 	"/>
	<polygon opacity="0.3" points="18,19 17,18.5 29,12.5 30,13 	"/>
	<polygon opacity="0.3" points="14,17 13,16.5 25,10.5 26,11 	"/>
	<polygon opacity="0.3" points="10,15 9,14.5 21,8.5 22,9 	"/>
	<polygon opacity="0.3" points="6,13 5,12.5 17,6.5 18,7 	"/>
	<path opacity="0.3" d="M34.6,23.7c0.2-0.3,0.4-0.6,0.5-1L20,20L34.6,23.7z"/>
	<path opacity="0.3" d="M20,20h15.7c0-0.3,0-0.6-0.1-0.9L20,20z"/>
	<path opacity="0.3" d="M34.6,16.3c-0.2-0.3-0.5-0.7-0.8-1L20,20L34.6,16.3z"/>
	<polygon opacity="0.11" points="20,20 4,12 4,13 19,20.5 	"/>
	<path opacity="0.29" d="M32,26L12,36v1l20-10c2.6-1.3,3.9-4,3.7-6.5C35.5,22.7,34.3,24.9,32,26z"/>
</g>
</svg>
