<?xml version="1.0" encoding="utf-8"?>
<!-- Generator: Adobe Illustrator 18.1.0, SVG Export Plug-In . SVG Version: 6.00 Build 0)  -->
<svg version="1.1" id="Layer_1" xmlns="http://www.w3.org/2000/svg" xmlns:xlink="http://www.w3.org/1999/xlink" x="0px" y="0px"
	 viewBox="0 0 40 48" enable-background="new 0 0 40 48" xml:space="preserve">
<g>
	<polygon fill="#E5E5E5" points="6,9 6,41 8,42 24,34 24,2 22,1 	"/>
	<polygon opacity="0.11" points="8,42 6,41 6,9 8,10 	"/>
	<polygon fill="#656565" points="10,41 22,35 22,3 10,9 	"/>
	<polygon fill="#E5E5E5" points="14,39 12,40 12,8 14,7 	"/>
	<polygon fill="#E5E5E5" points="20,36 18,37 18,5 20,4 	"/>
	<polygon opacity="0.29" points="8,42 24,34 24,2 8,10 	"/>
</g>
<g>
	<polygon fill="#656565" points="24,22 8,30 8,31 20,37 36,29 36,28 	"/>
	<polygon opacity="0.11" points="8,30 20,36 20,37 8,31 	"/>
	<polygon opacity="0.29" points="20,37 20,36 36,28 36,29 	"/>
	<polygon opacity="0.3" points="22,35 23,34.5 11,28.5 10,29 	"/>
	<polygon opacity="0.3" points="26,33 27,32.5 15,26.5 14,27 	"/>
	<polygon opacity="0.3" points="30,31 31,30.5 19,24.5 18,25 	"/>
	<polygon opacity="0.3" points="34,29 35,28.5 23,22.5 22,23 	"/>
</g>
</svg>
