<?xml version="1.0" encoding="utf-8"?>
<!-- Generator: Adobe Illustrator 18.1.0, SVG Export Plug-In . SVG Version: 6.00 Build 0)  -->
<svg version="1.1" id="Layer_1" xmlns="http://www.w3.org/2000/svg" xmlns:xlink="http://www.w3.org/1999/xlink" x="0px" y="0px"
	 viewBox="0 0 112 96" enable-background="new 0 0 112 96" xml:space="preserve">
<g>
	<polygon fill="#656565" points="4,84 88,10 96,6 108,12 108,13 100,17 16,91 12,93 0,87 0,86 	"/>
	<polygon opacity="0.11" points="0,86 12,92 12,93 0,87 	"/>
	<polygon opacity="0.29" points="12,93 12,92 16,90 16,91 	"/>
	<polygon opacity="0.3" points="14,91 15,90.5 3,84.5 2,85 	"/>
	<polygon opacity="0.29" points="100,17 100,16 108,12 108,13 	"/>
	<polygon opacity="0.29" points="16,91 16,90 100,16 100,17 	"/>
	<polygon opacity="0.3" points="102,15 103,14.5 91,8.5 90,9 	"/>
	<polygon opacity="0.3" points="106,13 107,12.5 95,6.5 94,7 	"/>
	<g>
		<polygon opacity="0.3" points="51.8,41.9 52.5,41.3 64.5,47.3 63.8,47.9 		"/>
		<polygon opacity="0.3" points="69.2,26.6 69.9,25.9 81.9,31.9 81.2,32.6 		"/>
		<polygon opacity="0.3" points="63.4,31.7 64.1,31.1 76.1,37.1 75.4,37.7 		"/>
		<polygon opacity="0.3" points="66.3,29.1 67,28.5 79,34.5 78.3,35.1 		"/>
		<polygon opacity="0.3" points="48.9,44.4 49.6,43.8 61.6,49.8 60.9,50.4 		"/>
		<polygon opacity="0.3" points="54.7,39.3 55.4,38.7 67.4,44.7 66.7,45.3 		"/>
		<polygon opacity="0.3" points="58,37 59,36.5 70.3,42.2 69.6,42.8 		"/>
		<polygon opacity="0.3" points="60.5,34.2 61.2,33.6 73.2,39.6 72.5,40.2 		"/>
		<polygon opacity="0.3" points="75,21.5 75.7,20.8 87.7,26.8 87,27.5 		"/>
		<polygon opacity="0.3" points="99.3,16.6 98.6,17.3 86.6,11.3 87.3,10.6 		"/>
		<polygon opacity="0.3" points="6.2,82.1 18.2,88.1 17.4,88.7 5.4,82.7 		"/>
		<polygon opacity="0.3" points="83.7,13.8 84.4,13.2 96.4,19.2 95.7,19.8 		"/>
		<polygon opacity="0.3" points="77.9,18.9 78.6,18.3 90.6,24.3 89.9,24.9 		"/>
		<polygon opacity="0.3" points="80.8,16.4 81.5,15.7 93.5,21.7 92.8,22.4 		"/>
		<polygon opacity="0.3" points="72.1,24 72.8,23.4 84.8,29.4 84.1,30 		"/>
		<polygon opacity="0.3" points="17,72.5 17.8,71.9 29.8,77.9 29,78.5 		"/>
		<polygon opacity="0.3" points="46,47 46.7,46.4 58.7,52.4 58,53 		"/>
		<polygon opacity="0.3" points="22.8,67.4 23.6,66.8 35.6,72.8 34.8,73.4 		"/>
		<polygon opacity="0.3" points="19.9,70 20.7,69.3 32.7,75.3 31.9,76 		"/>
		<polygon opacity="0.3" points="14.1,75.1 14.9,74.4 26.9,80.4 26.1,81.1 		"/>
		<polygon opacity="0.3" points="8.3,80.2 9.1,79.5 21.1,85.5 20.3,86.2 		"/>
		<polygon opacity="0.3" points="11.2,77.6 12,77 24,83 23.2,83.6 		"/>
		<polygon opacity="0.3" points="25.7,64.9 26.4,64.2 38.4,70.2 37.7,70.9 		"/>
		<polygon opacity="0.3" points="37.3,54.7 38,54 50,60 49.3,60.7 		"/>
		<polygon opacity="0.3" points="40.2,52.1 40.9,51.5 52.9,57.5 52.2,58.1 		"/>
		<polygon opacity="0.3" points="28.6,62.3 29.3,61.7 41.3,67.7 40.6,68.3 		"/>
		<polygon opacity="0.3" points="43.1,49.6 43.8,48.9 55.8,54.9 55.1,55.6 		"/>
		<polygon opacity="0.3" points="31.5,59.8 32.2,59.1 44.2,65.1 43.5,65.8 		"/>
		<polygon opacity="0.3" points="34.4,57.2 35.1,56.6 47.1,62.6 46.4,63.2 		"/>
	</g>
</g>
</svg>
