<?xml version="1.0" encoding="utf-8"?>
<!-- Generator: Adobe Illustrator 18.1.0, SVG Export Plug-In . SVG Version: 6.00 Build 0)  -->
<svg version="1.1" id="Layer_1" xmlns="http://www.w3.org/2000/svg" xmlns:xlink="http://www.w3.org/1999/xlink" x="0px" y="0px"
	 viewBox="0 0 40 40" enable-background="new 0 0 40 40" xml:space="preserve">
<g>
	<g>
		<polygon fill="#999999" points="29.2,35.4 29.2,39.4 28,40 26.8,39.4 26.8,35.4 28,34.8 		"/>
		<polygon opacity="0.29" points="28,40 29.2,39.4 29.2,35.4 28,36 		"/>
		<polygon opacity="0.11" points="28,40 26.8,39.4 26.8,35.4 28,36 		"/>
	</g>
	<g>
		<polygon fill="#999999" points="40,30 40,34 38.8,34.6 37.6,34 37.6,30 38.8,29.4 		"/>
		<polygon opacity="0.29" points="38.8,34.6 40,34 40,30 38.8,30.6 		"/>
		<polygon opacity="0.11" points="38.8,34.6 37.6,34 37.6,30 38.8,30.6 		"/>
	</g>
	<g>
		<polygon fill="#999999" points="32,14 32,18 30.8,18.6 29.6,18 29.6,14 30.8,13.4 		"/>
		<polygon opacity="0.29" points="30.8,18.6 32,18 32,14 30.8,14.6 		"/>
		<polygon opacity="0.11" points="30.8,18.6 29.6,18 29.6,14 30.8,14.6 		"/>
	</g>
	<g>
		<polygon fill="#999999" points="11.2,26.4 11.2,30.4 10,31 8.8,30.4 8.8,26.4 10,25.8 		"/>
		<polygon opacity="0.29" points="10,31 11.2,30.4 11.2,26.4 10,27 		"/>
		<polygon opacity="0.11" points="10,31 8.8,30.4 8.8,26.4 10,27 		"/>
	</g>
	<path fill="#656565" d="M8,14l16-8l12,6v1l-15,7.5L40,30v1l-12,6L8,27c-2.6-1.3-3.9-4-3.7-6.5C4.1,18,5.4,15.3,8,14z"/>
	<polygon opacity="0.29" points="40,30 28,36 28,37 40,31 	"/>
	<polygon opacity="0.3" points="26,35 25,34.5 37,28.5 38,29 	"/>
	<polygon opacity="0.3" points="22,33 21,32.5 33,26.5 34,27 	"/>
	<polygon opacity="0.3" points="18,31 17,30.5 29,24.5 30,25 	"/>
	<polygon opacity="0.3" points="14,29 13,28.5 25,22.5 26,23 	"/>
	<polygon opacity="0.3" points="10,27 9,26.5 21,20.5 22,21 	"/>
	<polygon opacity="0.3" points="22,19 23,18.5 11,12.5 10,13 	"/>
	<polygon opacity="0.3" points="26,17 27,16.5 15,10.5 14,11 	"/>
	<polygon opacity="0.3" points="30,15 31,14.5 19,8.5 18,9 	"/>
	<polygon opacity="0.3" points="34,13 35,12.5 23,6.5 22,7 	"/>
	<path opacity="0.3" d="M5.4,23.7c-0.2-0.3-0.4-0.6-0.5-1L20,20L5.4,23.7z"/>
	<path opacity="0.3" d="M20,20H4.3c0-0.3,0-0.6,0.1-0.9L20,20z"/>
	<path opacity="0.3" d="M5.4,16.3c0.2-0.3,0.5-0.7,0.8-1L20,20L5.4,16.3z"/>
	<polygon opacity="0.29" points="20,20 36,12 36,13 21,20.5 	"/>
	<path opacity="0.11" d="M8,26l20,10v1L8,27c-2.6-1.3-3.9-4-3.7-6.5C4.5,22.7,5.7,24.9,8,26z"/>
</g>
</svg>
