<?xml version="1.0" encoding="utf-8"?>
<!-- Generator: Adobe Illustrator 18.1.0, SVG Export Plug-In . SVG Version: 6.00 Build 0)  -->
<svg version="1.1" id="Layer_1" xmlns="http://www.w3.org/2000/svg" xmlns:xlink="http://www.w3.org/1999/xlink" x="0px" y="0px"
	 viewBox="0 0 112 64" enable-background="new 0 0 112 64" xml:space="preserve">
<g>
	<g>
		<polygon fill="#999999" points="37.2,27.4 37.2,31.4 36,32 34.8,31.4 34.8,27.4 36,26.8 		"/>
		<polygon opacity="0.29" points="36,32 37.2,31.4 37.2,27.4 36,28 		"/>
		<polygon opacity="0.11" points="36,32 34.8,31.4 34.8,27.4 36,28 		"/>
	</g>
	<g>
		<polygon fill="#999999" points="10.4,14 10.4,18 9.2,18.6 8,18 8,14 9.2,13.4 		"/>
		<polygon opacity="0.29" points="9.2,18.6 10.4,18 10.4,14 9.2,14.6 		"/>
		<polygon opacity="0.11" points="9.2,18.6 8,18 8,14 9.2,14.6 		"/>
	</g>
	<g>
		<polygon fill="#999999" points="69.2,43.4 69.2,47.4 68,48 66.8,47.4 66.8,43.4 68,42.8 		"/>
		<polygon opacity="0.29" points="68,48 69.2,47.4 69.2,43.4 68,44 		"/>
		<polygon opacity="0.11" points="68,48 66.8,47.4 66.8,43.4 68,44 		"/>
	</g>
	<g>
		<polygon fill="#999999" points="42.4,30 42.4,34 41.2,34.6 40,34 40,30 41.2,29.4 		"/>
		<polygon opacity="0.29" points="41.2,34.6 42.4,34 42.4,30 41.2,30.6 		"/>
		<polygon opacity="0.11" points="41.2,34.6 40,34 40,30 41.2,30.6 		"/>
	</g>
	<g>
		<polygon fill="#999999" points="101.2,59.4 101.2,63.4 100,64 98.8,63.4 98.8,59.4 100,58.8 		"/>
		<polygon opacity="0.29" points="100,64 101.2,63.4 101.2,59.4 100,60 		"/>
		<polygon opacity="0.11" points="100,64 98.8,63.4 98.8,59.4 100,60 		"/>
	</g>
	<g>
		<polygon fill="#999999" points="112,54 112,58 110.8,58.6 109.6,58 109.6,54 110.8,53.4 		"/>
		<polygon opacity="0.29" points="110.8,58.6 112,58 112,54 110.8,54.6 		"/>
		<polygon opacity="0.11" points="110.8,58.6 109.6,58 109.6,54 110.8,54.6 		"/>
	</g>
	<g>
		<polygon fill="#999999" points="74.4,46 74.4,50 73.2,50.6 72,50 72,46 73.2,45.4 		"/>
		<polygon opacity="0.29" points="73.2,50.6 74.4,50 74.4,46 73.2,46.6 		"/>
		<polygon opacity="0.11" points="73.2,50.6 72,50 72,46 73.2,46.6 		"/>
	</g>
	<polygon fill="#656565" points="16,6 112,54 112,55 100,61 4,13 4,12 	"/>
	<polygon opacity="0.11" points="100,60 100,61 4,13 4,12 	"/>
	<polygon opacity="0.29" points="112,54 100,60 100,61 112,55 	"/>
	<polygon opacity="0.3" points="34,27 33,26.5 45,20.5 46,21 	"/>
	<polygon opacity="0.3" points="30,25 29,24.5 41,18.5 42,19 	"/>
	<polygon opacity="0.3" points="26,23 25,22.5 37,16.5 38,17 	"/>
	<polygon opacity="0.3" points="22,21 21,20.5 33,14.5 34,15 	"/>
	<polygon opacity="0.3" points="18,19 17,18.5 29,12.5 30,13 	"/>
	<polygon opacity="0.3" points="14,17 13,16.5 25,10.5 26,11 	"/>
	<polygon opacity="0.3" points="10,15 9,14.5 21,8.5 22,9 	"/>
	<polygon opacity="0.3" points="6,13 5,12.5 17,6.5 18,7 	"/>
	<polygon opacity="0.3" points="66,43 65,42.5 77,36.5 78,37 	"/>
	<polygon opacity="0.3" points="62,41 61,40.5 73,34.5 74,35 	"/>
	<polygon opacity="0.3" points="58,39 57,38.5 69,32.5 70,33 	"/>
	<polygon opacity="0.3" points="54,37 53,36.5 65,30.5 66,31 	"/>
	<polygon opacity="0.3" points="50,35 49,34.5 61,28.5 62,29 	"/>
	<polygon opacity="0.3" points="46,33 45,32.5 57,26.5 58,27 	"/>
	<polygon opacity="0.3" points="42,31 41,30.5 53,24.5 54,25 	"/>
	<polygon opacity="0.3" points="38,29 37,28.5 49,22.5 50,23 	"/>
	<polygon opacity="0.3" points="98,59 97,58.5 109,52.5 110,53 	"/>
	<polygon opacity="0.3" points="94,57 93,56.5 105,50.5 106,51 	"/>
	<polygon opacity="0.3" points="90,55 89,54.5 101,48.5 102,49 	"/>
	<polygon opacity="0.3" points="86,53 85,52.5 97,46.5 98,47 	"/>
	<polygon opacity="0.3" points="82,51 81,50.5 93,44.5 94,45 	"/>
	<polygon opacity="0.3" points="78,49 77,48.5 89,42.5 90,43 	"/>
	<polygon opacity="0.3" points="74,47 73,46.5 85,40.5 86,41 	"/>
	<polygon opacity="0.3" points="70,45 69,44.5 81,38.5 82,39 	"/>
</g>
</svg>
