<?xml version="1.0" encoding="utf-8"?>
<!-- Generator: Adobe Illustrator 18.1.0, SVG Export Plug-In . SVG Version: 6.00 Build 0)  -->
<svg version="1.1" id="Layer_1" xmlns="http://www.w3.org/2000/svg" xmlns:xlink="http://www.w3.org/1999/xlink" x="0px" y="0px"
	 viewBox="0 0 112 96" enable-background="new 0 0 112 96" xml:space="preserve">
<g>
	<g>
		<polygon fill="#999999" points="18.8,18.2 18.8,44.6 20,45.2 21.2,44.6 21.2,18.2 20,17.6 		"/>
		<polygon opacity="0.11" points="20,45.2 18.8,44.6 18.8,18.2 20,18.8 		"/>
		<polygon opacity="0.29" points="20,45.2 21.2,44.6 21.2,18.2 20,18.8 		"/>
	</g>
	<g>
		<polygon fill="#999999" points="8.5,37.9 8.5,39.3 9.7,39.9 20,34.7 20,33.3 18.8,32.7 		"/>
		<polygon opacity="0.29" points="9.7,39.9 20,34.7 20,33.3 9.7,38.5 		"/>
	</g>
	<g>
		<polygon fill="#999999" points="98.8,91.4 98.8,95.4 100,96 101.2,95.4 101.2,91.4 100,90.8 		"/>
		<polygon opacity="0.11" points="100,96 98.8,95.4 98.8,91.4 100,92 		"/>
		<polygon opacity="0.29" points="100,96 101.2,95.4 101.2,91.4 100,92 		"/>
	</g>
	<g>
		<polygon fill="#999999" points="109.6,86 109.6,90 110.8,90.6 112,90 112,86 110.8,85.4 		"/>
		<polygon opacity="0.11" points="110.8,90.6 109.6,90 109.6,86 110.8,86.6 		"/>
		<polygon opacity="0.29" points="110.8,90.6 112,90 112,86 110.8,86.6 		"/>
	</g>
	<g>
		<polygon fill="#999999" points="72,67 72,82 73.2,82.6 74.4,82 74.4,67 73.2,66.4 		"/>
		<polygon opacity="0.11" points="73.2,82.6 72,82 72,67 73.2,67.6 		"/>
		<polygon opacity="0.29" points="73.2,82.6 74.4,82 74.4,67 73.2,67.6 		"/>
	</g>
	<g>
		<polygon fill="#999999" points="8,14 8,50 9.2,50.6 10.4,50 10.4,14 9.2,13.4 		"/>
		<polygon opacity="0.11" points="9.2,50.6 8,50 8,14 9.2,14.6 		"/>
		<polygon opacity="0.29" points="9.2,50.6 10.4,50 10.4,14 9.2,14.6 		"/>
	</g>
	<g>
		<polygon fill="#999999" points="45.6,31.6 45.6,58 46.8,58.6 48,58 48,31.6 46.8,31 		"/>
		<polygon opacity="0.11" points="46.8,58.6 45.6,58 45.6,31.6 46.8,32.2 		"/>
		<polygon opacity="0.29" points="46.8,58.6 48,58 48,31.6 46.8,32.2 		"/>
	</g>
	<g>
		<polygon fill="#999999" points="35.3,51.3 35.3,52.7 36.5,53.3 46.8,48.2 46.8,46.8 45.6,46.2 		"/>
		<polygon opacity="0.29" points="36.5,53.3 46.8,48.2 46.8,46.8 36.5,51.9 		"/>
	</g>
	<g>
		<polygon fill="#999999" points="34.8,37 34.8,63.4 36,64 37.2,63.4 37.2,37 36,36.4 		"/>
		<polygon opacity="0.11" points="36,64 34.8,63.4 34.8,37 36,37.6 		"/>
		<polygon opacity="0.29" points="36,64 37.2,63.4 37.2,37 36,37.6 		"/>
	</g>
	<polygon fill="#656565" points="108,84 24,10 16,6 4,12 4,13 12,17 96,91 100,93 112,87 112,86 	"/>
	<polygon opacity="0.29" points="112,86 100,92 100,93 112,87 	"/>
	<polygon opacity="0.11" points="100,93 100,92 96,90 96,91 	"/>
	<polygon opacity="0.3" points="98,91 97,90.5 109,84.5 110,85 	"/>
	<polygon opacity="0.11" points="12,17 12,16 4,12 4,13 	"/>
	<polygon opacity="0.11" points="96,91 96,90 12,16 12,17 	"/>
	<polygon opacity="0.3" points="10,15 9,14.5 21,8.5 22,9 	"/>
	<polygon opacity="0.3" points="6,13 5,12.5 17,6.5 18,7 	"/>
	<g>
		<polygon opacity="0.3" points="60.2,41.9 59.5,41.3 47.5,47.3 48.2,47.9 		"/>
		<polygon opacity="0.3" points="42.8,26.6 42.1,25.9 30.1,31.9 30.8,32.6 		"/>
		<polygon opacity="0.3" points="48.6,31.7 47.9,31.1 35.9,37.1 36.6,37.7 		"/>
		<polygon opacity="0.3" points="45.7,29.1 45,28.5 33,34.5 33.7,35.1 		"/>
		<polygon opacity="0.3" points="63.1,44.4 62.4,43.8 50.4,49.8 51.1,50.4 		"/>
		<polygon opacity="0.3" points="57.3,39.3 56.6,38.7 44.6,44.7 45.3,45.3 		"/>
		<polygon opacity="0.3" points="54,37 53,36.5 41.7,42.2 42.4,42.8 		"/>
		<polygon opacity="0.3" points="51.5,34.2 50.8,33.6 38.8,39.6 39.5,40.2 		"/>
		<polygon opacity="0.3" points="37,21.5 36.3,20.8 24.3,26.8 25,27.5 		"/>
		<polygon opacity="0.3" points="12.7,16.6 13.4,17.3 25.4,11.3 24.7,10.6 		"/>
		<polygon opacity="0.3" points="105.8,82.1 93.8,88.1 94.6,88.7 106.6,82.7 		"/>
		<polygon opacity="0.3" points="28.3,13.8 27.6,13.2 15.6,19.2 16.3,19.8 		"/>
		<polygon opacity="0.3" points="34.1,18.9 33.4,18.3 21.4,24.3 22.1,24.9 		"/>
		<polygon opacity="0.3" points="31.2,16.4 30.5,15.7 18.5,21.7 19.2,22.4 		"/>
		<polygon opacity="0.3" points="39.9,24 39.2,23.4 27.2,29.4 27.9,30 		"/>
		<polygon opacity="0.3" points="95,72.5 94.2,71.9 82.2,77.9 83,78.5 		"/>
		<polygon opacity="0.3" points="66,47 65.3,46.4 53.3,52.4 54,53 		"/>
		<polygon opacity="0.3" points="89.2,67.4 88.4,66.8 76.4,72.8 77.2,73.4 		"/>
		<polygon opacity="0.3" points="92.1,70 91.3,69.3 79.3,75.3 80.1,76 		"/>
		<polygon opacity="0.3" points="97.9,75.1 97.1,74.4 85.1,80.4 85.9,81.1 		"/>
		<polygon opacity="0.3" points="103.7,80.2 102.9,79.5 90.9,85.5 91.7,86.2 		"/>
		<polygon opacity="0.3" points="100.8,77.6 100,77 88,83 88.8,83.6 		"/>
		<polygon opacity="0.3" points="86.3,64.9 85.6,64.2 73.6,70.2 74.3,70.9 		"/>
		<polygon opacity="0.3" points="74.7,54.7 74,54 62,60 62.7,60.7 		"/>
		<polygon opacity="0.3" points="71.8,52.1 71.1,51.5 59.1,57.5 59.8,58.1 		"/>
		<polygon opacity="0.3" points="83.4,62.3 82.7,61.7 70.7,67.7 71.4,68.3 		"/>
		<polygon opacity="0.3" points="68.9,49.6 68.2,48.9 56.2,54.9 56.9,55.6 		"/>
		<polygon opacity="0.3" points="80.5,59.8 79.8,59.1 67.8,65.1 68.5,65.8 		"/>
		<polygon opacity="0.3" points="77.6,57.2 76.9,56.6 64.9,62.6 65.6,63.2 		"/>
	</g>
</g>
</svg>
