<?xml version="1.0" encoding="utf-8"?>
<!-- Generator: Adobe Illustrator 18.1.0, SVG Export Plug-In . SVG Version: 6.00 Build 0)  -->
<svg version="1.1" id="Layer_1" xmlns="http://www.w3.org/2000/svg" xmlns:xlink="http://www.w3.org/1999/xlink" x="0px" y="0px"
	 viewBox="0 0 64 32" enable-background="new 0 0 64 32" xml:space="preserve">
<g>
	<g>
		<polygon fill="#999999" points="10.8,27.4 10.8,31.4 12,32 13.2,31.4 13.2,27.4 12,26.8 		"/>
		<polygon opacity="0.11" points="12,32 10.8,31.4 10.8,27.4 12,28 		"/>
		<polygon opacity="0.29" points="12,32 13.2,31.4 13.2,27.4 12,28 		"/>
	</g>
	<g>
		<polygon fill="#999999" points="0,22 0,26 1.2,26.6 2.4,26 2.4,22 1.2,21.4 		"/>
		<polygon opacity="0.11" points="1.2,26.6 0,26 0,22 1.2,22.6 		"/>
		<polygon opacity="0.29" points="1.2,26.6 2.4,26 2.4,22 1.2,22.6 		"/>
	</g>
	<g>
		<polygon fill="#999999" points="50.8,27.4 50.8,31.4 52,32 53.2,31.4 53.2,27.4 52,26.8 		"/>
		<polygon opacity="0.11" points="52,32 50.8,31.4 50.8,27.4 52,28 		"/>
		<polygon opacity="0.29" points="52,32 53.2,31.4 53.2,27.4 52,28 		"/>
	</g>
	<g>
		<polygon fill="#999999" points="61.6,22 61.6,26 62.8,26.6 64,26 64,22 62.8,21.4 		"/>
		<polygon opacity="0.11" points="62.8,26.6 61.6,26 61.6,22 62.8,22.6 		"/>
		<polygon opacity="0.29" points="62.8,26.6 64,26 64,22 62.8,22.6 		"/>
	</g>
	<path fill="#656565" d="M44,12c-7.6-3.8-16.4-3.8-24,0L0,22v1l12,6l20-10l20,10l12-6v-1L44,12z"/>
	<polygon opacity="0.11" points="0,22 12,28 12,29 0,23 	"/>
	<polygon opacity="0.29" points="12,29 12,28 32,18 32,19 	"/>
	<polygon opacity="0.3" points="14,27 15,26.5 3,20.5 2,21 	"/>
	<polygon opacity="0.3" points="18,25 19,24.5 7,18.5 6,19 	"/>
	<polygon opacity="0.3" points="22,23 23,22.5 11,16.5 10,17 	"/>
	<polygon opacity="0.3" points="26,21 27,20.5 15,14.5 14,15 	"/>
	<polygon opacity="0.3" points="30,19 31,18.5 19,12.5 18,13 	"/>
	<polygon opacity="0.29" points="64,22 52,28 52,29 64,23 	"/>
	<polygon opacity="0.11" points="52,29 52,28 32,18 32,19 	"/>
	<polygon opacity="0.3" points="50,27 49,26.5 61,20.5 62,21 	"/>
	<polygon opacity="0.3" points="46,25 45,24.5 57,18.5 58,19 	"/>
	<polygon opacity="0.3" points="42,23 41,22.5 53,16.5 54,17 	"/>
	<polygon opacity="0.3" points="38,21 37,20.5 49,14.5 50,15 	"/>
	<polygon opacity="0.3" points="34,19 33,18.5 45,12.5 46,13 	"/>
	<path opacity="0.3" d="M39,10.1L32,18l8.4-7.5C39.9,10.4,39.5,10.2,39,10.1z"/>
	<path opacity="0.3" d="M33.8,9.2L32,18l2.9-8.7C34.5,9.3,34.1,9.3,33.8,9.2z"/>
	<path opacity="0.3" d="M29.1,9.3L32,18l-1.8-8.8C29.9,9.3,29.5,9.3,29.1,9.3z"/>
	<path opacity="0.3" d="M23.6,10.5L32,18l-7-7.9C24.5,10.2,24.1,10.4,23.6,10.5z"/>
</g>
</svg>
