<?xml version="1.0" encoding="utf-8"?>
<!-- Generator: Adobe Illustrator 18.1.0, SVG Export Plug-In . SVG Version: 6.00 Build 0)  -->
<svg version="1.1" id="Layer_1" xmlns="http://www.w3.org/2000/svg" xmlns:xlink="http://www.w3.org/1999/xlink" x="0px" y="0px"
	 viewBox="0 0 48 32" enable-background="new 0 0 48 32" xml:space="preserve">
<g>
	<g>
		<polygon fill="#999999" points="10.8,27.4 10.8,31.4 12,32 13.2,31.4 13.2,27.4 12,26.8 		"/>
		<polygon opacity="0.11" points="12,32 10.8,31.4 10.8,27.4 12,28 		"/>
		<polygon opacity="0.29" points="12,32 13.2,31.4 13.2,27.4 12,28 		"/>
	</g>
	<g>
		<polygon fill="#999999" points="0,22 0,26 1.2,26.6 2.4,26 2.4,22 1.2,21.4 		"/>
		<polygon opacity="0.11" points="1.2,26.6 0,26 0,22 1.2,22.6 		"/>
		<polygon opacity="0.29" points="1.2,26.6 2.4,26 2.4,22 1.2,22.6 		"/>
	</g>
	<g>
		<polygon fill="#999999" points="37.6,14 37.6,18 38.8,18.6 40,18 40,14 38.8,13.4 		"/>
		<polygon opacity="0.11" points="38.8,18.6 37.6,18 37.6,14 38.8,14.6 		"/>
		<polygon opacity="0.29" points="38.8,18.6 40,18 40,14 38.8,14.6 		"/>
	</g>
	<polygon fill="#656565" points="32,6 0,22 0,23 12,29 44,13 44,12 	"/>
	<polygon opacity="0.11" points="0,22 12,28 12,29 0,23 	"/>
	<polygon opacity="0.29" points="12,29 12,28 44,12 44,13 	"/>
	<polygon opacity="0.3" points="14,27 15,26.5 3,20.5 2,21 	"/>
	<polygon opacity="0.3" points="18,25 19,24.5 7,18.5 6,19 	"/>
	<polygon opacity="0.3" points="22,23 23,22.5 11,16.5 10,17 	"/>
	<polygon opacity="0.3" points="26,21 27,20.5 15,14.5 14,15 	"/>
	<polygon opacity="0.3" points="30,19 31,18.5 19,12.5 18,13 	"/>
	<polygon opacity="0.3" points="34,17 35,16.5 23,10.5 22,11 	"/>
	<polygon opacity="0.3" points="38,15 39,14.5 27,8.5 26,9 	"/>
	<polygon opacity="0.3" points="42,13 43,12.5 31,6.5 30,7 	"/>
</g>
</svg>
