<?xml version="1.0" encoding="utf-8"?>
<!-- Generator: Adobe Illustrator 18.1.0, SVG Export Plug-In . SVG Version: 6.00 Build 0)  -->
<svg version="1.1" id="Layer_1" xmlns="http://www.w3.org/2000/svg" xmlns:xlink="http://www.w3.org/1999/xlink" x="0px" y="0px"
	 viewBox="0 0 240 240" enable-background="new 0 0 240 240" xml:space="preserve">
<g>
	<polygon opacity="0.2" points="14,113 28,106 203,194 189,201 	"/>
	<g>
		<path fill="#2D3134" d="M43.7,71.1c-6.3-3.2-12-3.5-16.3-1.6l0,0L18.3,74l0,0c-4.6,2-7.4,6.7-7.4,13.5c0,13.1,10.6,29.1,23.7,35.6
			c6.5,3.2,12.3,3.6,16.6,1.5c0,0,9.1-4.5,10-5.1c3.8-2.3,6.2-6.7,6.2-12.9C67.4,93.6,56.8,77.7,43.7,71.1z"/>
		<path opacity="0.29" d="M51.4,124.5c1.7-0.8,8.9-4.4,9.8-4.9c3.8-2.3,6.2-6.7,6.2-12.9c0-5.3-1.7-11-4.6-16.4l-9.1,4.6
			c2.9,5.4,4.6,11.1,4.6,16.4C58.3,117.8,55.6,122.4,51.4,124.5z"/>
		<path fill="#A9ABB0" d="M52.3,108.2c0,9.8-8,13.8-17.8,8.9s-17.8-16.9-17.8-26.7s8-13.8,17.8-8.9S52.3,98.3,52.3,108.2z"/>
		<path fill="#808285" d="M36,116.4c-9.8-4.9-17.8-16.9-17.8-26.7c0-4.8,1.9-8.2,5.1-9.9c-4,1.3-6.5,5-6.5,10.5
			c0,9.8,8,21.8,17.8,26.7c5,2.5,9.5,2.7,12.7,1C44.2,119,40.3,118.6,36,116.4z"/>
		<path fill="#2D3134" d="M43.4,102.4c0,4.1-3.3,5.8-7.4,3.7s-7.4-7-7.4-11.1c0-4.1,3.3-5.8,7.4-3.7S43.4,98.3,43.4,102.4z"/>
		<path opacity="0.39" d="M43.4,102.4c0,4.1-3.3,5.8-7.4,3.7s-7.4-7-7.4-11.1c0-4.1,3.3-5.8,7.4-3.7S43.4,98.3,43.4,102.4z"/>
		<path fill="#2D3134" d="M42,103.1c0,4.1-3.3,5.8-7.4,3.7c-4.1-2-7.4-7-7.4-11.1s3.3-5.8,7.4-3.7S42,99,42,103.1z"/>
		<path opacity="0.11" d="M58.3,111.3c0,13.1-10.6,18.4-23.7,11.9s-23.7-22.5-23.7-35.6s10.6-18.4,23.7-11.9
			C47.6,82.2,58.3,98.2,58.3,111.3z"/>
		<path fill="#FF9900" d="M39.1,82.2c-2.9,7.1-5.1,12.8-6.4,15.9c-0.6,1.4,0.2,2.9,1.6,3.4c1.3,0.5,2.8-0.2,3.3-1.5
			c1.7-4.2,3.9-9.2,6.2-14.7L39.1,82.2z"/>
		<path opacity="0.11" d="M39.1,82.2c-2.9,7.1-5.1,12.8-6.4,15.9c-0.6,1.4,0.2,2.9,1.6,3.4c1.3,0.5,2.8-0.2,3.3-1.5
			c1.7-4.2,3.9-9.2,6.2-14.7L39.1,82.2z"/>
	</g>
	<g>
		<path fill="#FF9900" d="M13.3,75.3l47,35.6l13.4-6.7c0.7-1.9,1.1-4.2,1.1-6.7C74.9,84.1,64,67.7,50.5,61
			c-6.5-3.2-12.4-3.6-16.7-1.7l0,0l-13.3,6.7l0,0C16.9,67.6,14.3,70.8,13.3,75.3z"/>
		<path opacity="0.11" d="M37.2,67.6c-11.8-5.9-21.7-2.4-23.9,7.7l47,35.7l0.1-0.1c0.7-1.9,1.1-4.2,1.1-6.7
			C61.5,90.7,50.6,74.4,37.2,67.6z"/>
	</g>
	<path fill="#2D3134" d="M58.2,34.8c0,5.9,4.8,8.3,10.7,5.3s10.7-10.1,10.7-16s-4.8-8.3-10.7-5.3S58.2,28.9,58.2,34.8z"/>
	<path fill="#FF9900" d="M62.2,42.1C38.6,90.1,53.3,130,68,138s31.7-21.1,31.7-21.1S83,96.7,78,71.3s5.9-39.2,5.9-39.2L62.2,42.1z"
		/>
	<path fill="#FF9900" d="M119,163.5L68,138v-5.3l31.7-15.8l60,30v5.3L137,163.5C131.3,166.3,124.7,166.3,119,163.5z"/>
	<g>
		<path fill="#2D3134" d="M168.3,133.4c-6.3-3.2-12-3.5-16.3-1.6l0,0l-9.1,4.6l0,0c-4.6,2-7.4,6.7-7.4,13.5
			c0,13.1,10.6,29.1,23.7,35.6c6.5,3.2,12.3,3.6,16.6,1.5c0,0,9.1-4.5,10-5.1c3.8-2.3,6.2-6.7,6.2-12.9
			C192,155.9,181.4,140,168.3,133.4z"/>
		<path opacity="0.29" d="M176.1,186.9c1.7-0.8,8.9-4.4,9.8-4.9c3.8-2.3,6.2-6.7,6.2-12.9c0-5.3-1.7-11-4.6-16.4l-9.1,4.6
			c2.9,5.4,4.6,11.1,4.6,16.4C182.9,180.1,180.3,184.7,176.1,186.9z"/>
		<path fill="#A9ABB0" d="M177,170.5c0,9.8-8,13.8-17.8,8.9s-17.8-16.9-17.8-26.7c0-9.8,8-13.8,17.8-8.9S177,160.7,177,170.5z"/>
		<path fill="#808285" d="M160.7,178.8c-9.8-4.9-17.8-16.9-17.8-26.7c0-4.8,1.9-8.2,5.1-9.9c-4,1.3-6.5,5-6.5,10.5
			c0,9.8,8,21.8,17.8,26.7c5,2.5,9.5,2.7,12.7,1C168.9,181.4,165,180.9,160.7,178.8z"/>
		<path fill="#2D3134" d="M168.1,164.7c0,4.1-3.3,5.8-7.4,3.7c-4.1-2-7.4-7-7.4-11.1s3.3-5.8,7.4-3.7
			C164.8,155.6,168.1,160.6,168.1,164.7z"/>
		<path opacity="0.39" d="M168.1,164.7c0,4.1-3.3,5.8-7.4,3.7c-4.1-2-7.4-7-7.4-11.1s3.3-5.8,7.4-3.7
			C164.8,155.6,168.1,160.6,168.1,164.7z"/>
		<path fill="#2D3134" d="M166.6,165.4c0,4.1-3.3,5.8-7.4,3.7c-4.1-2-7.4-7-7.4-11.1c0-4.1,3.3-5.8,7.4-3.7
			C163.3,156.3,166.6,161.3,166.6,165.4z"/>
		<path opacity="0.11" d="M182.9,173.6c0,13.1-10.6,18.4-23.7,11.9c-13.1-6.6-23.7-22.5-23.7-35.6s10.6-18.4,23.7-11.9
			C172.3,144.6,182.9,160.5,182.9,173.6z"/>
	</g>
	<path fill="#FF9900" d="M186.4,116c-7.4-3.7-14.2-4.2-19.1-1.9l0,0L131,132.2l0,0c-5.4,2.4-8.7,7.9-8.7,15.9c0,6.4,0.9,11,4.6,17.5
		l1,0.1c0.9,0,1.8,0,2.7-0.1c1.4-0.1,2.7-0.3,4.5-1c9.7-3.7,20.5-3.9,30.4-0.2l12.2,4.5l35.9-17.9
		C210.6,137.2,199.6,122.6,186.4,116z"/>
	<path fill="#2D3134" d="M90,26.4c0.4,0,0.8-0.1,1.1-0.3l14.4-7.3c1.2-0.6,1.7-2.1,1.1-3.4c-0.6-1.2-2.1-1.7-3.4-1.1l-14.4,7.3
		c-1.2,0.6-1.7,2.1-1.1,3.4C88.2,25.9,89.1,26.4,90,26.4z"/>
	<g>
		<path fill="#FF9900" d="M155,160l-30-15v-12.7c0-8.6,4.9-16.5,12.6-20.3l23-11.5l30,15v26.7L155,160z"/>
	</g>
	<g>
		<polygon fill="#2D3134" points="156,130 130,117 130,115 160.8,99.6 186.8,109.5 186.8,114.6 		"/>
		<polygon opacity="0.11" points="130,115 130,117 156,130 156,124.9 		"/>
		<polygon opacity="0.29" points="186.8,109.5 186.8,114.6 156,130 156,124.9 		"/>
	</g>
	<path opacity="0.29" d="M99.7,116.9c0,0-16.7-20.2-21.7-45.5c-5-25.3,5.9-39.2,5.9-39.2l-18.2,8.4c-11.1,21.3-14.8,46.4-9.5,67.4
		c2.4,9.4,7.5,17.8,14.6,24.2L99,118C99.5,117.3,99.7,116.9,99.7,116.9z"/>
	<path opacity="0.11" d="M150.1,134.1c-14.7-7.4-26.7-2-27.8,11.9l-0.4,4.8c0,4.1-4.3,6.8-8,5l-32.2-16.1
		c-12.4-6.2-21.7-17.4-25.3-30.8c-5.6-21.1-1.9-46.7,9.3-68.3l-3.5,1.6C38.6,90.1,53.3,130,68,138l50.9,25.4c5.1,2.6,11.1,3,16.5,1
		c9.6-3.6,20.2-3.7,30-0.1l11.7,4.3C174.1,155.1,163.1,140.6,150.1,134.1z"/>
	<path fill="#FF9900" d="M60,130.3c1.7,2.4,3.4,4.4,5.3,5.8C63.4,134.6,61.7,132.7,60,130.3z"/>
	<g>
		<path fill="#FF9900" d="M67.3,49c-4.8,2.4-12.1-11.5-5.5-17.7c2.9-2.7,21.2-11.9,24.2-12.5c5.5-1.1,9.2,3.2,9.4,9.1
			C95.5,36.3,73.7,45.8,67.3,49z"/>
		<path opacity="0.11" d="M64.1,30.5c-0.6,0-1.3,0.1-1.8,0.3c-0.2,0.2-0.4,0.3-0.6,0.5c-6.5,6.1,0.6,19.8,5.4,17.7
			C72.6,41.9,68.5,30.6,64.1,30.5z"/>
	</g>
	<path fill="#2D3134" d="M45,49.1c0.4,0,0.8-0.1,1.1-0.3l20-10.1c1.2-0.6,1.7-2.1,1.1-3.4c-0.6-1.2-2.1-1.7-3.4-1.1l-20,10.1
		c-1.2,0.6-1.7,2.1-1.1,3.4C43.2,48.6,44.1,49.1,45,49.1z"/>
	<path opacity="0.29" d="M67.1,49c0,0,0.1,0,0.1,0c6.4-3.2,28.2-12.7,28-21.1c0-0.1,0-0.2,0-0.3L69.7,40.3
		C69.9,43.3,69.1,46.4,67.1,49z"/>
	<path opacity="0.29" d="M177.1,168.7l0.4,0.2l35.9-17.9c-2.4-11.2-10.1-22.9-20-30.5l-36.3,18.1C167,146.1,174.7,157.7,177.1,168.7
		z"/>
	<g>
		<polygon fill="#2D3134" points="187.8,163 189.8,164 205.8,156 205.8,140 193.8,134 177.8,142 		"/>
		<polygon fill="#2D3134" points="189.8,164 205.8,156 205.8,140 189.8,148 		"/>
		<polygon fill="#CC291F" points="191.8,149.2 203.8,143.2 203.8,154.8 191.8,160.8 		"/>
		<polygon opacity="0.2" points="191.8,149.2 203.8,143.2 203.8,151 		"/>
		<polygon opacity="0.29" points="189.8,164 205.8,156 205.8,140 189.8,148 		"/>
		<polygon opacity="0.11" points="177.8,142 187.8,163 189.8,164 189.8,148 		"/>
	</g>
	<g>
		<polygon fill="#2D3134" points="187.2,152.5 161.2,139.5 161.2,134.4 192,119 218,132 218,137.1 		"/>
		<polygon opacity="0.11" points="161.2,134.4 161.2,139.5 187.2,152.5 187.2,147.4 		"/>
		<polygon opacity="0.29" points="218,132 218,137.1 187.2,152.5 187.2,147.4 		"/>
	</g>
	<g>
		<polygon fill="#FFCC00" points="142,91 142,131 182,151 222,131 222,91 182,71 		"/>
		<polygon opacity="0.11" points="182,151 142,131 142,91 182,111 		"/>
		<polygon opacity="0.3" points="166.9,78.6 157.1,83.4 197.1,103.4 197.1,122.9 206.9,118 206.9,98.6 		"/>
		<polygon opacity="0.29" points="182,151 222,131 222,91 182,111 		"/>
	</g>
</g>
</svg>
