<?xml version="1.0" encoding="utf-8"?>
<!-- Generator: Adobe Illustrator 18.1.0, SVG Export Plug-In . SVG Version: 6.00 Build 0)  -->
<svg version="1.1" id="Layer_1" xmlns="http://www.w3.org/2000/svg" xmlns:xlink="http://www.w3.org/1999/xlink" x="0px" y="0px"
	 viewBox="0 0 240 240" enable-background="new 0 0 240 240" xml:space="preserve">
<g>
	<g>
		<polygon fill="#2D3134" points="38,87 12,74 12,68.9 42.8,53.5 68.8,66.5 68.8,71.6 		"/>
		<polygon opacity="0.11" points="12,68.9 12,74 38,87 38,81.9 		"/>
		<polygon opacity="0.29" points="68.8,66.5 68.8,71.6 38,87 38,81.9 		"/>
	</g>
	<polygon opacity="0.2" points="14,113 28,106 203,194 189,201 	"/>
	<g>
		<path fill="#2D3134" d="M63.7,81.1c-6.3-3.2-12-3.5-16.3-1.6l0,0L38.3,84l0,0c-4.6,2-7.4,6.7-7.4,13.5c0,13.1,10.6,29.1,23.7,35.6
			c6.5,3.2,12.3,3.6,16.6,1.5c0,0,9.1-4.5,10-5.1c3.8-2.3,6.2-6.7,6.2-12.9C87.4,103.6,76.8,87.7,63.7,81.1z"/>
		<path opacity="0.29" d="M71.4,134.5c1.7-0.8,8.9-4.4,9.8-4.9c3.8-2.3,6.2-6.7,6.2-12.9c0-5.3-1.7-11-4.6-16.4l-9.1,4.6
			c2.9,5.4,4.6,11.1,4.6,16.4C78.3,127.8,75.6,132.4,71.4,134.5z"/>
		<path fill="#A9ABB0" d="M72.3,118.2c0,9.8-8,13.8-17.8,8.9c-9.8-4.9-17.8-16.9-17.8-26.7s8-13.8,17.8-8.9S72.3,108.3,72.3,118.2z"
			/>
		<path fill="#808285" d="M56,126.4c-9.8-4.9-17.8-16.9-17.8-26.7c0-4.8,1.9-8.2,5.1-9.9c-4,1.3-6.5,5-6.5,10.5
			c0,9.8,8,21.8,17.8,26.7c5,2.5,9.5,2.7,12.7,1C64.2,129,60.3,128.6,56,126.4z"/>
		<path fill="#2D3134" d="M63.4,112.4c0,4.1-3.3,5.8-7.4,3.7s-7.4-7-7.4-11.1c0-4.1,3.3-5.8,7.4-3.7S63.4,108.3,63.4,112.4z"/>
		<path opacity="0.39" d="M63.4,112.4c0,4.1-3.3,5.8-7.4,3.7s-7.4-7-7.4-11.1c0-4.1,3.3-5.8,7.4-3.7S63.4,108.3,63.4,112.4z"/>
		<path fill="#2D3134" d="M62,113.1c0,4.1-3.3,5.8-7.4,3.7c-4.1-2-7.4-7-7.4-11.1s3.3-5.8,7.4-3.7S62,109,62,113.1z"/>
		<path opacity="0.11" d="M78.3,121.3c0,13.1-10.6,18.4-23.7,11.9c-13.1-6.6-23.7-22.5-23.7-35.6s10.6-18.4,23.7-11.9
			C67.6,92.2,78.3,108.2,78.3,121.3z"/>
	</g>
	<path fill="#FF9900" d="M117.4,125.7c-7-3.5-11.1-10.7-10.9-18.5c0-0.1,0-0.1,0-0.2c0-13.8-11.1-30.5-24.9-37.4
		c-6.6-3.3-12.6-3.7-17.1-1.7l0,0L31.9,84.3l0,0c-3.7,1.6-6.3,4.9-7.3,9.5c0,6,8.5,1.5,21,11c13.9,10.5,19.2,23.8,23,27.8
		c1.3,1.4,2.4,2.9,3.6,4.4c2.4,3.2,5.6,5.8,9.2,7.6l39.2,19.4l31.7-15.8v-5.3L117.4,125.7z"/>
	<g>
		<polygon fill="#FFCC00" points="85,25 85,65 45,85 5,65 5,25 45,5 		"/>
		<polygon opacity="0.29" points="45,85 85,65 85,25 45,45 		"/>
		<polygon opacity="0.3" points="60.1,12.6 69.9,17.4 29.9,37.4 29.9,56.9 20.1,52 20.1,32.6 		"/>
		<polygon opacity="0.11" points="45,85 5,65 5,25 45,45 		"/>
	</g>
	<path fill="#2D3134" d="M150.6,53.6c0.4,0,0.8-0.1,1.1-0.3l14.4-7.3c1.2-0.6,1.7-2.1,1.1-3.4c-0.6-1.2-2.1-1.7-3.4-1.1l-14.4,7.3
		c-1.2,0.6-1.7,2.1-1.1,3.4C148.8,53.1,149.7,53.6,150.6,53.6z"/>
	<g>
		<polygon fill="#2D3134" points="75,94 51,82 51,76.9 79,62.9 103,78 103,80 		"/>
		<polygon opacity="0.11" points="51,76.9 51,82 75,94 75,92 		"/>
		<polygon opacity="0.29" points="103,78 103,80 75,94 75,92 		"/>
	</g>
	<path fill="#FF9900" d="M112.4,160c0,0,32-3.2,33.1-29.5c1.1-25.3-12-60.2-12-60.2l16.8-6.7c0,0,23.5,33,27.5,55.1
		C185.2,160.7,146,180.2,112.4,160z"/>
	<path opacity="0.11" d="M24.6,93.8c0,6,8.5,1.5,21,11c13.9,10.5,19.2,23.7,23,27.8c1.3,1.4,2.5,2.9,3.6,4.5
		c2.4,3.2,5.6,5.8,9.2,7.6l30.9,15.3c7.1,4.3,14.5,6.8,21.6,7.7c9.3,1.2,18.3-3.9,22-12.6c3-7.2,4.7-16,4.7-26.4
		c0-19.7-19.1-51.9-22.7-60.1l-4.5,1.5c0,0,13.2,34.9,12,60.2c-0.5,10.5-5.8,17.3-12.1,21.7c-6.7,4.7-15.5,5.2-22.8,1.6l-25.7-12.7
		c-6.7-3.3-10.9-10.1-11-17.6v0c0-13.8-11.1-30.5-24.9-37.4c-5.8-2.9-11.9-3.4-16.9-1.9l-0.3,0.1l0,0C28.2,86,25.6,89.2,24.6,93.8z"
		/>
	<path fill="#FF9900" d="M147.9,74.7c-4.8,2.4-18-2.2-22-4c-3.7-1.6-7.2-8.6-4.6-11.7c2.5-3.1,21.2-11.9,24.2-12.5
		c5.5-1.1,9,5.7,9.4,9.1C155.2,58.9,154.3,71.5,147.9,74.7z"/>
	<path opacity="0.11" d="M121.3,59c0.1-0.1,0.1-0.2,0.2-0.3c0.9-0.9,2.2-1.4,3.5-1.4c3.1,0.1,6.9,1.9,10.2,4.7
		c3.9,3.3,7.2,9.3,8.6,13.3c-5.9-0.1-14.7-3.2-17.9-4.6C122.2,69.1,118.8,62.1,121.3,59z"/>
	<g>
		<path fill="#2D3134" d="M163,63.2L163,63.2c2.1,0.9,3.3,3,3.3,6.1c0,5.9-4.8,13.1-10.7,16c-2.9,1.5-5.6,1.6-7.5,0.7
			c0,0-12.9-8.5-5.7-19C150.2,55.7,163,63.2,163,63.2z"/>
		<path fill="#FFFFFF" d="M148.8,78c0,3.8,3.1,5.3,6.8,3.4c3.8-1.9,6.8-6.5,6.8-10.2c0-3.8-3.1-5.3-6.8-3.4
			C151.9,69.6,148.8,74.2,148.8,78z"/>
		<path opacity="0.15" d="M155.1,81.2c3.8-1.9,6.8-6.5,6.8-10.2c0-1.9-0.7-3.2-1.9-3.8c1.5,0.5,2.5,1.9,2.5,4
			c0,3.8-3.1,8.4-6.8,10.2c-1.9,1-3.6,1-4.9,0.4C151.9,82.1,153.4,82,155.1,81.2z"/>
		<path opacity="0.29" d="M144.9,80c0,5.9,4.8,8.3,10.7,5.3c5.9-3,10.7-10.1,10.7-16s-4.8-8.3-10.7-5.3
			C149.7,66.9,144.9,74.1,144.9,80z"/>
		<path opacity="0.11" d="M142.4,67c0.3-0.5,0.7-0.9,1-1.3l5.7,3.7c-2.6,3.2-4.2,7.1-4.2,10.6c0,2,0.6,3.6,1.6,4.8
			C143.3,82,136.9,75.1,142.4,67z"/>
	</g>
	<path fill="#2D3134" d="M105.6,76.3c0.4,0,0.8-0.1,1.1-0.3l20-10.1c1.2-0.6,1.7-2.1,1.1-3.4c-0.6-1.2-2.1-1.7-3.4-1.1l-20,10.1
		c-1.2,0.6-1.7,2.1-1.1,3.4C103.8,75.8,104.7,76.3,105.6,76.3z"/>
	<path opacity="0.29" d="M178.6,126.5l-18.3,9.1c-0.6,7.4-2.1,13.9-4.4,19.4c-3.6,8.5-12.3,13.5-21.5,12.6v0
		C158.6,170.5,179.8,154.6,178.6,126.5z"/>
	<g>
		<path fill="#2D3134" d="M188.3,143.4c-6.3-3.2-12-3.5-16.3-1.6l0,0l-9.1,4.6l0,0c-4.6,2-7.4,6.7-7.4,13.5
			c0,13.1,10.6,29.1,23.7,35.6c6.5,3.2,12.3,3.6,16.6,1.5c0,0,9.1-4.5,10-5.1c3.8-2.3,6.2-6.7,6.2-12.9
			C212,165.9,201.4,150,188.3,143.4z"/>
		<path opacity="0.29" d="M196.1,196.9c1.7-0.8,8.9-4.4,9.8-4.9c3.8-2.3,6.2-6.7,6.2-12.9c0-5.3-1.7-11-4.6-16.4l-9.1,4.6
			c2.9,5.4,4.6,11.1,4.6,16.4C202.9,190.1,200.3,194.7,196.1,196.9z"/>
		<path fill="#A9ABB0" d="M197,180.5c0,9.8-8,13.8-17.8,8.9s-17.8-16.9-17.8-26.7c0-9.8,8-13.8,17.8-8.9S197,170.7,197,180.5z"/>
		<path fill="#808285" d="M180.7,188.8c-9.8-4.9-17.8-16.9-17.8-26.7c0-4.8,1.9-8.2,5.1-9.9c-4,1.3-6.5,5-6.5,10.5
			c0,9.8,8,21.8,17.8,26.7c5,2.5,9.5,2.7,12.7,1C188.9,191.4,185,190.9,180.7,188.8z"/>
		<path fill="#2D3134" d="M188.1,174.7c0,4.1-3.3,5.8-7.4,3.7c-4.1-2-7.4-7-7.4-11.1s3.3-5.8,7.4-3.7
			C184.8,165.6,188.1,170.6,188.1,174.7z"/>
		<path opacity="0.39" d="M188.1,174.7c0,4.1-3.3,5.8-7.4,3.7c-4.1-2-7.4-7-7.4-11.1s3.3-5.8,7.4-3.7
			C184.8,165.6,188.1,170.6,188.1,174.7z"/>
		<path fill="#2D3134" d="M186.6,175.4c0,4.1-3.3,5.8-7.4,3.7c-4.1-2-7.4-7-7.4-11.1c0-4.1,3.3-5.8,7.4-3.7
			C183.3,166.3,186.6,171.3,186.6,175.4z"/>
		<path opacity="0.11" d="M202.9,183.6c0,13.1-10.6,18.4-23.7,11.9c-13.1-6.6-23.7-22.5-23.7-35.6s10.6-18.4,23.7-11.9
			C192.3,154.6,202.9,170.5,202.9,183.6z"/>
		<path fill="#FF9900" d="M174.7,153.5c2.4,6.4,4.8,12.5,7.1,18.2c0.5,1.2-0.1,2.5-1.2,3.1c-1.2,0.5-2.6,0-3.1-1.3
			c-1.5-3.7-4.3-10.6-7.6-19L174.7,153.5z"/>
		<path opacity="0.11" d="M174.7,153.5c2.4,6.4,4.8,12.5,7.1,18.2c0.5,1.2-0.1,2.5-1.2,3.1c-1.2,0.5-2.6,0-3.1-1.3
			c-1.5-3.7-4.3-10.6-7.6-19L174.7,153.5z"/>
	</g>
	<g>
		<path fill="#FF9900" d="M161.4,144.4L161.4,144.4l12.3-6.1l0,0c4.2-1.9,9.8-1.5,16,1.6c7.7,3.9,14.5,11,18.8,18.9c0,0,0,0,0,0
			l-12.3,6.1l-40.4,2.1l-0.6-1.8c-0.7-2.6-1.1-5.1-1.1-7.6C154.1,151,156.9,146.4,161.4,144.4z"/>
		<path opacity="0.11" d="M177.4,146c7.7,3.9,14.5,11,18.8,18.9l0,0l-40.4,2.1l-0.6-1.8c-0.7-2.6-1.1-5.1-1.1-7.6
			C154.1,144.8,164.6,139.5,177.4,146z"/>
	</g>
</g>
</svg>
