<?xml version="1.0" encoding="utf-8"?>
<!-- Generator: Adobe Illustrator 18.1.0, SVG Export Plug-In . SVG Version: 6.00 Build 0)  -->
<svg version="1.1" id="Layer_1" xmlns="http://www.w3.org/2000/svg" xmlns:xlink="http://www.w3.org/1999/xlink" x="0px" y="0px"
	 viewBox="0 0 240 320" enable-background="new 0 0 240 320" xml:space="preserve">
<g>
	<polygon opacity="0.2" points="14.2,193 28.2,186 203.2,274 189.2,281 	"/>
	<g>
		<path fill="#2D3134" d="M43.8,151.1c-6.3-3.2-12-3.5-16.3-1.6l0,0l-9.1,4.6l0,0c-4.6,2-7.4,6.7-7.4,13.5
			c0,13.1,10.6,29.1,23.7,35.6c6.5,3.2,12.3,3.6,16.6,1.5c0,0,9.1-4.5,10-5.1c3.8-2.3,6.2-6.7,6.2-12.9
			C67.5,173.6,56.9,157.7,43.8,151.1z"/>
		<path opacity="0.29" d="M51.6,204.5c1.7-0.8,8.9-4.4,9.8-4.9c3.8-2.3,6.2-6.7,6.2-12.9c0-5.3-1.7-11-4.6-16.4l-9.1,4.6
			c2.9,5.4,4.6,11.1,4.6,16.4C58.4,197.8,55.8,202.4,51.6,204.5z"/>
		<path fill="#A9ABB0" d="M52.5,188.2c0,9.8-8,13.8-17.8,8.9s-17.8-16.9-17.8-26.7c0-9.8,8-13.8,17.8-8.9S52.5,178.3,52.5,188.2z"/>
		<path fill="#808285" d="M36.2,196.4c-9.8-4.9-17.8-16.9-17.8-26.7c0-4.8,1.9-8.2,5.1-9.9c-4,1.3-6.5,5-6.5,10.5
			c0,9.8,8,21.8,17.8,26.7c5,2.5,9.5,2.7,12.7,1C44.4,199,40.5,198.6,36.2,196.4z"/>
		<path fill="#2D3134" d="M43.6,182.4c0,4.1-3.3,5.8-7.4,3.7s-7.4-7-7.4-11.1c0-4.1,3.3-5.8,7.4-3.7
			C40.3,173.3,43.6,178.3,43.6,182.4z"/>
		<path opacity="0.39" d="M43.6,182.4c0,4.1-3.3,5.8-7.4,3.7s-7.4-7-7.4-11.1c0-4.1,3.3-5.8,7.4-3.7
			C40.3,173.3,43.6,178.3,43.6,182.4z"/>
		<path fill="#2D3134" d="M42.1,183.1c0,4.1-3.3,5.8-7.4,3.7c-4.1-2-7.4-7-7.4-11.1c0-4.1,3.3-5.8,7.4-3.7
			C38.8,174,42.1,179,42.1,183.1z"/>
		<path opacity="0.11" d="M58.4,191.3c0,13.1-10.6,18.4-23.7,11.9C21.6,196.6,11,180.7,11,167.5s10.6-18.4,23.7-11.9
			C47.8,162.2,58.4,178.2,58.4,191.3z"/>
		<path fill="#FF9900" d="M39.2,162.2c-2.9,7.1-5.1,12.8-6.4,15.9c-0.6,1.4,0.2,2.9,1.6,3.4c1.3,0.5,2.8-0.2,3.3-1.5
			c1.7-4.2,3.9-9.2,6.2-14.7L39.2,162.2z"/>
		<path opacity="0.11" d="M39.2,162.2c-2.9,7.1-5.1,12.8-6.4,15.9c-0.6,1.4,0.2,2.9,1.6,3.4c1.3,0.5,2.8-0.2,3.3-1.5
			c1.7-4.2,3.9-9.2,6.2-14.7L39.2,162.2z"/>
	</g>
	<g>
		<path fill="#FF9900" d="M13.5,155.3l47,35.6l13.4-6.7c0.7-1.9,1.1-4.2,1.1-6.7c0-13.5-10.9-29.8-24.3-36.6
			c-6.5-3.2-12.4-3.6-16.7-1.7l0,0l-13.3,6.7l0,0C17,147.6,14.5,150.8,13.5,155.3z"/>
		<path opacity="0.11" d="M37.4,147.6c-11.8-5.9-21.7-2.4-23.9,7.7l47,35.7l0.1-0.1c0.7-1.9,1.1-4.2,1.1-6.7
			C61.7,170.7,50.8,154.4,37.4,147.6z"/>
	</g>
	<path fill="#FF9900" d="M62.4,122.1c-23.7,48-8.9,87.9,5.8,95.9s31.7-21.1,31.7-21.1s-16.7-20.2-21.7-45.5s5.9-39.2,5.9-39.2
		L62.4,122.1z"/>
	<path fill="#FF9900" d="M119.2,243.5l-51-25.5v-5.3l31.7-15.8l60,30v5.3l-22.7,11.3C131.5,246.3,124.8,246.3,119.2,243.5z"/>
	<path opacity="0.2" d="M80,211.7c-3.8,2.6-2.3,9,10.5,10.7c12.8,1.7,16.6,2.1,21,1.5c4.1-0.5,7.4-1.9,10.7-1.3
		c10.1,1.8,18.5-8.7,8.7-12.3c-9.8-3.7-30.8-5.5-36.2-3.7C89.3,208.3,82.7,209.8,80,211.7z"/>
	<path fill="#2D3134" d="M114.5,203.7c-2.7-0.4-9.7-1.8-10.2,1.8c-0.6,3.6,2.8,6.7,5.3,7.6s7.4,5.9,10.2,7.1c2.8,1.2,7.9,1.2,8-1.3
		c0.1-2.6,0.4-6.9,0-7.6c-0.4-0.7-10.2-5.8-10.2-5.8L114.5,203.7z"/>
	<path fill="#06547A" d="M112.3,205.4c0,0,3.4,5.6,6.7,7.4c3.9,2.1,8.2,2.9,11.1,0.4c1.3-1.1-0.1-12.4,0-19.6
		c0.1-5.3,1.3-11.6,1.3-11.6l12.8-17.3l-20.3-3.8c-5.5-1-10.6,3.1-10.8,8.7l-0.4,12.6c0,0,0.8,10.9,0.4,15.6
		C112.9,202.5,112.3,205.4,112.3,205.4z"/>
	<path opacity="0.2" d="M112.3,205.4c0,0,3.4,5.6,6.7,7.4c3.9,2.1,8.2,2.9,11.1,0.4c1.3-1.1-0.1-12.4,0-19.6
		c0.1-5.3,1.3-11.6,1.3-11.6l12.8-17.3l-20.3-3.8c-5.5-1-10.6,3.1-10.8,8.7l-0.4,12.6c0,0,0.8,10.9,0.4,15.6
		C112.9,202.5,112.3,205.4,112.3,205.4z"/>
	<path fill="#2D3134" d="M58.3,114.8c0,5.9,4.8,8.3,10.7,5.3c5.9-3,10.7-10.1,10.7-16c0-5.9-4.8-8.3-10.7-5.3
		C63.1,101.8,58.3,108.9,58.3,114.8z"/>
	<path opacity="0.4" d="M121.6,219.3c-3-1.3-8.2-6.7-11-7.6c-2.5-0.9-5.8-3.8-5.8-7.3c-0.2,0.3-0.4,0.6-0.4,1.1
		c-0.6,3.6,2.8,6.7,5.3,7.6s7.4,5.9,10.2,7.1c2.2,1,5.7,1.2,7.3,0C125.3,220.3,123.1,220,121.6,219.3z"/>
	<g>
		<path fill="#2D3134" d="M168.5,213.4c-6.3-3.2-12-3.5-16.3-1.6l0,0l-9.1,4.6l0,0c-4.6,2-7.4,6.7-7.4,13.5
			c0,13.1,10.6,29.1,23.7,35.6c6.5,3.2,12.3,3.6,16.6,1.5c0,0,9.1-4.5,10-5.1c3.8-2.3,6.2-6.7,6.2-12.9
			C192.2,235.9,181.6,220,168.5,213.4z"/>
		<path opacity="0.29" d="M176.3,266.9c1.7-0.8,8.9-4.4,9.8-4.9c3.8-2.3,6.2-6.7,6.2-12.9c0-5.3-1.7-11-4.6-16.4l-9.1,4.6
			c2.9,5.4,4.6,11.1,4.6,16.4C183.1,260.1,180.5,264.7,176.3,266.9z"/>
		<path fill="#A9ABB0" d="M177.1,250.5c0,9.8-8,13.8-17.8,8.9s-17.8-16.9-17.8-26.7c0-9.8,8-13.8,17.8-8.9S177.1,240.7,177.1,250.5z
			"/>
		<path fill="#808285" d="M160.9,258.8c-9.8-4.9-17.8-16.9-17.8-26.7c0-4.8,1.9-8.2,5.1-9.9c-4,1.3-6.5,5-6.5,10.5
			c0,9.8,8,21.8,17.8,26.7c5,2.5,9.5,2.7,12.7,1C169,261.4,165.1,260.9,160.9,258.8z"/>
		<path fill="#2D3134" d="M168.3,244.7c0,4.1-3.3,5.8-7.4,3.7c-4.1-2-7.4-7-7.4-11.1s3.3-5.8,7.4-3.7
			C164.9,235.6,168.3,240.6,168.3,244.7z"/>
		<path opacity="0.39" d="M168.3,244.7c0,4.1-3.3,5.8-7.4,3.7c-4.1-2-7.4-7-7.4-11.1s3.3-5.8,7.4-3.7
			C164.9,235.6,168.3,240.6,168.3,244.7z"/>
		<path fill="#2D3134" d="M166.8,245.4c0,4.1-3.3,5.8-7.4,3.7c-4.1-2-7.4-7-7.4-11.1c0-4.1,3.3-5.8,7.4-3.7
			C163.5,236.3,166.8,241.3,166.8,245.4z"/>
		<path opacity="0.11" d="M183.1,253.6c0,13.1-10.6,18.4-23.7,11.9c-13.1-6.6-23.7-22.5-23.7-35.6s10.6-18.4,23.7-11.9
			C172.5,224.6,183.1,240.5,183.1,253.6z"/>
	</g>
	<path fill="#FF9900" d="M186.6,196c-7.4-3.7-14.2-4.2-19.1-1.9l0,0l-36.3,18.1l0,0c-5.4,2.4-8.7,7.9-8.7,15.9
		c0,6.4,0.9,11,4.6,17.5l1,0.1c0.9,0,1.8,0,2.7-0.1c1.4-0.1,2.7-0.3,4.5-1c9.7-3.7,20.5-3.9,30.4-0.2l12.2,4.5l35.9-17.9
		C210.7,217.2,199.7,202.6,186.6,196z"/>
	<path fill="#2D3134" d="M90.2,106.4c0.4,0,0.8-0.1,1.1-0.3l14.4-7.3c1.2-0.6,1.7-2.1,1.1-3.4c-0.6-1.2-2.1-1.7-3.4-1.1L89,101.7
		c-1.2,0.6-1.7,2.1-1.1,3.4C88.4,105.9,89.3,106.4,90.2,106.4z"/>
	<g>
		<path fill="#FF9900" d="M155.2,240l-30-15v-12.7c0-8.6,4.9-16.5,12.6-20.3l23-11.5l30,15v26.7L155.2,240z"/>
	</g>
	<g>
		<polygon fill="#2D3134" points="156.2,210 130.2,197 130.2,195 160.9,179.6 186.9,189.5 186.9,194.6 		"/>
		<polygon opacity="0.11" points="130.2,195 130.2,197 156.2,210 156.2,204.9 		"/>
		<polygon opacity="0.29" points="186.9,189.5 186.9,194.6 156.2,210 156.2,204.9 		"/>
	</g>
	<path fill="#FBD7C7" d="M93.5,99c0,0,1.8-1,3,0.3c0.9,1,0.4,3.9,0.4,3.9l-1.7,1c0,0,0.6,1.4,1.4,1.5c0.8,0.1,3.5,0.3,4.3,0.7
		c0.9,0.4,4.8-2.7,4.8-2.7s-1.6-8.3-3.3-10.4C100.1,90.4,90.3,93.7,93.5,99z"/>
	<path fill="#3399CC" d="M132.4,115.1L108,104.2l-2.1-1.4l-5.3,4.4l2.7,1.8c0,0,11.5,10.9,18.9,13.8c3.3,1.3,6.8-0.7,9.6-2
		C134.7,119.5,132.4,115.1,132.4,115.1z"/>
	<path fill="#3399CC" d="M129.5,111.1c0,0,7.9-2.3,12.5-4.9c4.6-2.6,4.5-4.3,4.5-4.3s9.8-2.6,13.7,0.6c6.5,5.3,7.2,23.2,8.9,31.1
		c1.7,7.9,3.8,23.7,5.2,29.6c1.2,5.2-9.1,8.1-16.6,9.1c-8.8,1.2-23.7-3.3-23.7-3.3s-2.3-18.4-5.9-23.1c-4.2-5.5-11.6-12.9-11.6-16.8
		c0-12.9,3.8-15.3,6.2-16C125,112.4,129.5,111.1,129.5,111.1z"/>
	<path fill="#FBD7C7" d="M124.7,102.8c-1.5-0.2-2.4-2.7-2.9-5.6c-0.5-3-0.8-14,1.7-17.4c2.5-3.4,12.7-5.9,18.2,1.8
		c5.5,7.7,1.4,13.1,1.3,15.5s3.4,4.8,3.4,4.8s0.3,4.4-3.8,6.8c-4.1,2.4-8.6,3.5-12.7,2.4c-0.1-0.9,0.2-2.3-0.1-4.2
		C129.5,105.2,127.1,103.2,124.7,102.8z"/>
	<path opacity="0.29" d="M99.9,196.9c0,0-16.7-20.2-21.7-45.5c-5-25.3,5.9-39.2,5.9-39.2l-18.2,8.4c-11.1,21.3-14.8,46.4-9.5,67.4
		c2.4,9.4,7.5,17.8,14.6,24.2L99.2,198C99.6,197.3,99.9,196.9,99.9,196.9z"/>
	<g>
		<path fill="#2D3134" d="M97.5,209.8c-2,1.4-10.7,0.8-12.9,0.8c-2.2,0-5.6,1.7-5.4,5.4c0.2,3.7,8.1,4.3,10.8,5
			c2.7,0.7,12.9,1.6,15.8,2.1c2.8,0.5,4.8-2.4,4.2-6.2c-0.6-3.7-0.4-5.8-0.4-5.8L97.5,209.8z"/>
		<path opacity="0.4" d="M107.8,221.8c-3.2-0.6-14.3-1.5-17.3-2.3c-2.6-0.7-9.4-1.2-11.3-4c0,0.2,0,0.3,0,0.5
			c0.2,3.7,8.1,4.3,10.8,5c2.7,0.7,12.9,1.6,15.8,2.1c1.3,0.2,2.4-0.3,3.2-1.2C108.6,221.9,108.2,221.9,107.8,221.8z"/>
		<path fill="#06547A" d="M132.8,158.8l33.1-7.6c0,0,10.8,15.8,9.1,25.4c-1.9,10.8-14.1,10.4-14.1,10.4s-8.8,8-20.4,6.2
			c-11.5-1.8-29.1-10-29.1-10s-0.7,10-0.9,18.4c-0.2,7-0.5,14-0.5,14s-7.3,0.9-11.4-0.2c-5.5-1.6-7.1-4.6-7.1-4.6s-0.7-2.4,0.4-12.3
			c1.2-10.5,2.3-25.6,2.4-29c0.1-3.6,2.4-7.4,8.7-7.1c6.3,0.3,29.9,3.8,29.9,3.8L132.8,158.8z"/>
	</g>
	<path fill="#99CC33" d="M175.5,163.7c-1.4-5.9-3.5-21.5-5.2-29.5c-0.5-2.5-1.4-6.1-2.5-10c-1.6-1.7-3.2-3.5-4.2-5
		c-2.5-3.6-6.1-14.9-7.2-18.5c-2-0.3-4.3,0-6.2,0.3c-0.4,3.5,0.8,7.8-5,11.2c-9.6,5.7-16.5-1-17.5-0.7c-1.1,0.3-2.6,0.7-3.8,1.1
		c10.6,1,3.9,28.3,0.6,31.8c1.8,3,3.5,5.7,4.4,7.5c2.7,5.2,4.2,17.9,4.2,17.9s16.1,4.6,24.9,3.3
		C165.6,172.1,176.8,168.8,175.5,163.7z"/>
	<g>
		<path fill="#2D3134" d="M118.7,84.6c0,0,5.3-12.2,18.3-7.5c12.7,4.5,10.5,25.9,10.5,25.9s-11.1-3-17.8-6.7S118.7,84.6,118.7,84.6z
			"/>
		<path fill="#3399CC" d="M119,82.3c0,0,6.3-13,20.3-7.3c13.6,5.6,10.4,28.7,10.4,28.7s-12.2-3.7-19.4-8.2
			C123.2,91.1,119,82.3,119,82.3z"/>
		<path fill="#2D3134" d="M125.4,104.6l-0.5-0.4c0,0,2.1-2.2,2.9-3.8c0.7-1.3,0.9-4.3,1-5.4l1.5,0.5c0,0.1-0.5,2.8-1.2,4.8
			c0.2-0.2,0.5-0.4,0.7-0.6c2-1.7,2.2-3.2,2.6-3l1.4,0.6c0,0.1-1.1,1.4-3.3,3.3C128.3,102.5,125.5,104.5,125.4,104.6z"/>
		<path opacity="0.2" d="M120.6,81l1,1.6c0,0,5.3-5.4,10-5.5s7.8,1,7.8,1s-1.6-2.7-7.5-3C126.1,74.8,120.6,81,120.6,81z"/>
		<path opacity="0.2" d="M122.6,84.1L124,86c0,0,2.6-3,6.2-4.1c3.6-1.1,5.7-0.5,5.7-0.5s-2.2-2.3-6.5-1.3
			C125.1,81.2,122.6,84.1,122.6,84.1z"/>
		<path opacity="0.2" d="M125.8,88.3c0,0,1.7,2.1,4.6,4.4c1.4,1.2,4.6,2.6,4.6,2.6s0.9-5.3-2.3-7.7
			C129.4,85.2,125.8,88.3,125.8,88.3z"/>
	</g>
	<path opacity="0.11" d="M150.3,214.1c-14.7-7.4-26.7-2-27.8,11.9l-0.4,4.8c0,4.1-4.3,6.8-8,5l-32.2-16.1
		c-12.4-6.2-21.7-17.4-25.3-30.8c-5.6-21.1-1.9-46.7,9.3-68.3l-3.5,1.6c-23.7,48-8.9,87.9,5.8,95.9l50.9,25.4c5.1,2.6,11.1,3,16.5,1
		c9.6-3.6,20.2-3.7,30-0.1l11.7,4.3C174.2,235.1,163.3,220.6,150.3,214.1z"/>
	<path fill="#FF9900" d="M60.1,210.3c1.7,2.4,3.4,4.4,5.3,5.8C63.6,214.6,61.8,212.7,60.1,210.3z"/>
	<g>
		<path fill="#FF9900" d="M67.4,129c-4.8,2.4-12.1-11.5-5.5-17.7c2.9-2.7,21.2-11.9,24.2-12.5c5.5-1.1,9.2,3.2,9.4,9.1
			C95.6,116.3,73.8,125.8,67.4,129z"/>
		<path opacity="0.11" d="M64.2,110.5c-0.6,0-1.3,0.1-1.8,0.3c-0.2,0.2-0.4,0.3-0.6,0.5c-6.5,6.1,0.6,19.8,5.4,17.7
			C72.8,121.9,68.6,110.6,64.2,110.5z"/>
	</g>
	<path opacity="0.29" d="M67.3,129c0,0,0.1,0,0.1,0c6.4-3.2,28.2-12.7,28-21.1c0-0.1,0-0.2,0-0.3l-25.5,12.7
		C70,123.3,69.3,126.4,67.3,129z"/>
	<path opacity="0.29" d="M177.3,248.7l0.4,0.2l35.9-17.9c-2.4-11.2-10.1-22.9-20-30.5l-36.3,18.1
		C167.2,226.1,174.8,237.7,177.3,248.7z"/>
	<g>
		<polygon fill="#2D3134" points="188,243 190,244 206,236 206,220 194,214 178,222 		"/>
		<polygon fill="#2D3134" points="190,244 206,236 206,220 190,228 		"/>
		<polygon fill="#CC291F" points="192,229.2 204,223.2 204,234.8 192,240.8 		"/>
		<polygon opacity="0.2" points="192,229.2 204,223.2 204,231 		"/>
		<polygon opacity="0.29" points="190,244 206,236 206,220 190,228 		"/>
		<polygon opacity="0.11" points="178,222 188,243 190,244 190,228 		"/>
	</g>
	<g>
		<polygon fill="#2D3134" points="187.4,232.5 161.4,219.5 161.4,214.4 192.2,199 218.2,212 218.2,217.1 		"/>
		<polygon opacity="0.11" points="161.4,214.4 161.4,219.5 187.4,232.5 187.4,227.4 		"/>
		<polygon opacity="0.29" points="218.2,212 218.2,217.1 187.4,232.5 187.4,227.4 		"/>
	</g>
	<g>
		<polygon fill="#FFCC00" points="142.2,171 142.2,211 182.2,231 222.2,211 222.2,171 182.2,151 		"/>
		<polygon opacity="0.11" points="182.2,231 142.2,211 142.2,171 182.2,191 		"/>
		<polygon opacity="0.3" points="167,158.6 157.3,163.4 197.3,183.4 197.3,202.9 207,198 207,178.6 		"/>
		<polygon opacity="0.29" points="182.2,231 222.2,211 222.2,171 182.2,191 		"/>
	</g>
	<path fill="#2D3134" d="M45.1,129.1c0.4,0,0.8-0.1,1.1-0.3l20-10.1c1.2-0.6,1.7-2.1,1.1-3.4c-0.6-1.2-2.1-1.7-3.4-1.1l-20,10.1
		c-1.2,0.6-1.7,2.1-1.1,3.4C43.4,128.6,44.2,129.1,45.1,129.1z"/>
	<path fill="#FBD7C7" d="M64.9,132.8c0,0-7.6-3.4-10.2-4.9c-1.8-1-5.7-5.5-5.7-7.6s4.5-5.7,8.1-4.9c1.9,0.4,5,4.4,6.1,4
		c1.1-0.3,1.4-0.5,2.1-0.8c0.7-0.2,1-0.4,1.5,0.5c0.5,0.9,0.2,3.9,1,5.4c0.8,1.5,1.1,2.2,1.1,2.2l1.1,0.4L64.9,132.8z"/>
	<path fill="#3399CC" d="M68.6,125.7l3.5,1.8c0,0,9.7,2.2,15.8,4c4.3,1.3,9.1,2.8,9.1,2.8s19.8-17.3,24.5-18.1s13.3,13,3.5,20.6
		c-11,8.6-22.8,12.1-26.5,11.9c-3.7-0.2-17.7-5.4-24.7-9.6c-2.7-1.6-8.2-5.5-8.2-5.5l-3.2-1.5L68.6,125.7z"/>
</g>
</svg>
