<?xml version="1.0" encoding="utf-8"?>
<!-- Generator: Adobe Illustrator 18.1.0, SVG Export Plug-In . SVG Version: 6.00 Build 0)  -->
<svg version="1.1" id="Layer_1" xmlns="http://www.w3.org/2000/svg" xmlns:xlink="http://www.w3.org/1999/xlink" x="0px" y="0px"
	 viewBox="0 0 240 320" enable-background="new 0 0 240 320" xml:space="preserve">
<g>
	<g>
		<polygon fill="#2D3134" points="38,167 12,154 12,148.9 42.8,133.5 68.8,146.5 68.8,151.6 		"/>
		<polygon opacity="0.11" points="12,148.9 12,154 38,167 38,161.9 		"/>
		<polygon opacity="0.29" points="68.8,146.5 68.8,151.6 38,167 38,161.9 		"/>
	</g>
	<polygon opacity="0.2" points="14,193 28,186 203,274 189,281 	"/>
	<g>
		<path fill="#2D3134" d="M63.7,161.1c-6.3-3.2-12-3.5-16.3-1.6l0,0l-9.1,4.6l0,0c-4.6,2-7.4,6.7-7.4,13.5
			c0,13.1,10.6,29.1,23.7,35.6c6.5,3.2,12.3,3.6,16.6,1.5c0,0,9.1-4.5,10-5.1c3.8-2.3,6.2-6.7,6.2-12.9
			C87.4,183.6,76.8,167.7,63.7,161.1z"/>
		<path opacity="0.29" d="M71.4,214.5c1.7-0.8,8.9-4.4,9.8-4.9c3.8-2.3,6.2-6.7,6.2-12.9c0-5.3-1.7-11-4.6-16.4l-9.1,4.6
			c2.9,5.4,4.6,11.1,4.6,16.4C78.3,207.8,75.6,212.4,71.4,214.5z"/>
		<path fill="#A9ABB0" d="M72.3,198.2c0,9.8-8,13.8-17.8,8.9s-17.8-16.9-17.8-26.7c0-9.8,8-13.8,17.8-8.9S72.3,188.3,72.3,198.2z"/>
		<path fill="#808285" d="M56,206.4c-9.8-4.9-17.8-16.9-17.8-26.7c0-4.8,1.9-8.2,5.1-9.9c-4,1.3-6.5,5-6.5,10.5
			c0,9.8,8,21.8,17.8,26.7c5,2.5,9.5,2.7,12.7,1C64.2,209,60.3,208.6,56,206.4z"/>
		<path fill="#2D3134" d="M63.4,192.4c0,4.1-3.3,5.8-7.4,3.7s-7.4-7-7.4-11.1c0-4.1,3.3-5.8,7.4-3.7
			C60.1,183.3,63.4,188.3,63.4,192.4z"/>
		<path opacity="0.39" d="M63.4,192.4c0,4.1-3.3,5.8-7.4,3.7s-7.4-7-7.4-11.1c0-4.1,3.3-5.8,7.4-3.7
			C60.1,183.3,63.4,188.3,63.4,192.4z"/>
		<path fill="#2D3134" d="M62,193.1c0,4.1-3.3,5.8-7.4,3.7c-4.1-2-7.4-7-7.4-11.1c0-4.1,3.3-5.8,7.4-3.7C58.6,184,62,189,62,193.1z"
			/>
		<path opacity="0.11" d="M78.3,201.3c0,13.1-10.6,18.4-23.7,11.9c-13.1-6.6-23.7-22.5-23.7-35.6s10.6-18.4,23.7-11.9
			C67.6,172.2,78.3,188.2,78.3,201.3z"/>
	</g>
	<path fill="#FF9900" d="M117.4,205.7c-7-3.5-11.1-10.7-10.9-18.5c0-0.1,0-0.1,0-0.2c0-13.8-11.1-30.5-24.9-37.4
		c-6.6-3.3-12.6-3.7-17.1-1.7l0,0l-32.6,16.5l0,0c-3.7,1.6-6.3,4.9-7.3,9.5c0,6,8.5,1.5,21,11c13.9,10.5,19.2,23.8,23,27.8
		c1.3,1.4,2.4,2.9,3.6,4.4c2.4,3.2,5.6,5.8,9.2,7.6l39.2,19.4l31.7-15.8v-5.3L117.4,205.7z"/>
	<g>
		<polygon fill="#FFCC00" points="85,105 85,145 45,165 5,145 5,105 45,85 		"/>
		<polygon opacity="0.29" points="45,165 85,145 85,105 45,125 		"/>
		<polygon opacity="0.3" points="60.1,92.6 69.9,97.4 29.9,117.4 29.9,136.9 20.1,132 20.1,112.6 		"/>
		<polygon opacity="0.11" points="45,165 5,145 5,105 45,125 		"/>
	</g>
	<path fill="#2D3134" d="M150.6,133.6c0.4,0,0.8-0.1,1.1-0.3l14.4-7.3c1.2-0.6,1.7-2.1,1.1-3.4c-0.6-1.2-2.1-1.7-3.4-1.1l-14.4,7.3
		c-1.2,0.6-1.7,2.1-1.1,3.4C148.8,133.1,149.7,133.6,150.6,133.6z"/>
	<g>
		<polygon fill="#2D3134" points="75,174 51,162 51,156.9 79,142.9 103,158 103,160 		"/>
		<polygon opacity="0.11" points="51,156.9 51,162 75,174 75,172 		"/>
		<polygon opacity="0.29" points="103,158 103,160 75,174 75,172 		"/>
	</g>
	<path fill="#FBD7C7" d="M160.2,131.1c-2.3,1-2.8-0.1-4.4-1.2c-1.6-1.1-3.8-2-4.2-1.5c-0.4,0.5,1.1,4.5,2.4,4.4
		c1.2-0.1,1.8,0.9,0.8,1.2c-5,1.6-6.8-1.6-7.9-3.1c-1.1-1.4-2.3-5.2-2.3-5.2l-2.3-0.8l2.1-6.6c0,0,2,1.2,4.3,1.4
		c2.3,0.2,9.4,0.3,11.5,2.9C162.7,125.6,162.1,130.3,160.2,131.1z"/>
	<path fill="#3399CC" d="M146.1,118.5l-2.4,7.4l-3.1-0.8c0,0-6.5-0.6-9.8-1.6c-7.1-2.2-13.7-6.7-14.5-7.4c-1.5-1.3-4.1-5-5.1-9.7
		c-2.3-11.6-1.7-29-1.7-29s4.3-1.4,6.5,2.9c1.2,2.3,7.2,22.4,7.9,24.2c0.7,1.7,5.4,4.5,9.9,7.1c4,2.4,8.5,5.3,8.5,5.3L146.1,118.5z"
		/>
	<g>
		<path opacity="0.2" d="M151.7,219.8c-5,4.7-15,1.3-20.7,0.8c-5.7-0.5-7.7-1.8-6,1.5c1.7,3.3,7,14.8-3.3,13.8s-12.8-3-17.2-7.7
			c-4.3-4.7-8.7-13-11.7-18.3c-1.8-3.2,0.2-33.7-4.2-37.3c-4.3-3.7-26.7-17.3-26.2-21.2s4.9-5.7,8.8-6.5
			c11.8-2.5,35.8,7.8,43.5,28.3s12.8,35.7,20,37.2C142,212,154.8,216.8,151.7,219.8z"/>
		<path fill="none" d="M116.9,206c-0.2,1.3-1.2,7-0.2,8.3c1,1.3,3.2,1.6,5.7,1.9s6.8,0.2,9.7,1.5c2.9,1.3,7.7,2.7,12.3,3.2
			c4.5,0.5,6.6-1.7,6.7-4s-1.4-4.4-4.3-5.1s-12.9-4.6-14.2-5.9C131.2,204.7,116.9,206,116.9,206z"/>
		<path fill="#2D3134" d="M115.5,211.3l-12.4-0.4c0,0-2.4,3.3-1.8,6c0.7,2.7,4.4,6.9,5.3,8.6c0.9,1.8,2.7,7.5,7.7,8.8
			c5.1,1.3,11.7,0.9,12.6-2.4c0.7-2.6-9.9-15-10.4-16.1C116.1,214.6,115.5,211.3,115.5,211.3z"/>
		<path opacity="0.4" d="M106.6,225.5c-0.9-1.8-4.6-6-5.3-8.6c-0.2-0.9-0.1-2,0.2-2.9c0.5,1.3,1.3,3.2,2.1,4.2
			c1.5,1.6,4.5,7.9,6.2,10.9c2.2,3.9,12.7,6.8,17.1,2.2c0.1,0.3,0.1,0.5,0,0.7c-0.9,3.3-7.5,3.8-12.6,2.4
			C109.3,233,107.5,227.2,106.6,225.5z"/>
		<path fill="#2D3134" d="M131.8,206c4.5,2.8,12.6,4.8,15.3,6.2c2.9,1.6,4.7,7.5-1.3,8s-15.9-3.9-19.4-3.9s-9.7-1.1-10.6-3
			c-0.9-1.9,0.4-6.9,0.4-6.9L131.8,206z"/>
		<path opacity="0.4" d="M115.9,213.3c-0.1-0.2-0.2-0.5-0.2-0.8c2.9,1.3,7.8,2.1,11.3,2.2c3,0.1,13.1,4.1,18,4.1
			c2.3,0,3.8-0.8,4.8-1.6c-0.2,1.5-1.3,2.8-4,3c-6,0.4-15.9-3.9-19.4-3.9C123,216.4,116.8,215.3,115.9,213.3z"/>
		<path fill="#06547A" d="M97.7,129.1c0,0,20.6,13,26.2,16.5c5.6,3.4,8.4,6.9,8.6,12.3c0.2,5.4-1.3,33.1-0.6,38.3s2.4,11,2.4,11
			s-2.7,3.9-18.3,1.3c-1.3-0.2-2.4-34.2-2.4-37.6c0-3.4,0.3-8.1,0.3-8.1l-28.5-15.5l-0.6-19.4L97.7,129.1z"/>
		<path opacity="0.2" d="M97.7,129.1c0,0,20.6,13,26.2,16.5c5.6,3.4,8.4,6.9,8.6,12.3c0.2,5.4-1.3,33.1-0.6,38.3s2.4,11,2.4,11
			s-2.7,3.9-18.3,1.3c-1.3-0.2-2.4-34.2-2.4-37.6c0-3.4,0.3-8.1,0.3-8.1l-28.5-15.5l-0.6-19.4L97.7,129.1z"/>
		<path fill="#06547A" d="M68.1,122.8c0,0-4.8,7.8-5.8,15.1c-1,7.4,0.4,12.7,6.2,17.4c3.6,3,29.2,16.8,30.5,19.6
			c1.3,2.8-0.3,35.9,1,37.8c1.3,1.9,6.5,3.3,10.7,3.2c4.3-0.1,6.7-2.4,6.5-3.2c-0.2-0.9,1.8-38.1,0.1-45.3
			c-1.4-6.2-25.2-24.1-25.2-24.1l3.7-14L68.1,122.8z"/>
	</g>
	<g>
		<path fill="#3399CC" d="M98.3,72.6c-8.4,1.3-18.6,3.8-21.7,8.6c-3.1,4.8-6,15.5-6.4,22s-0.3,13.4-2.2,17.1c-1.9,3.6-4.6,8.3-4,9.7
			c0.7,1.4,15,1.6,22.5,1.9c7.5,0.3,17.5-2,18.8-2.7c1.3-0.8,0.9-12.7,2.2-15.9s6.1-8.4,7.6-11.2s2.4-12.7,2.7-19.4
			C117.9,79.4,115.2,69.9,98.3,72.6z"/>
		<path fill="#99CC33" d="M89.8,74.3c0,0,8.4,10.5,9.5,23.2s-3.3,32.4-4,34.9c-2,6.6-35.1,7.8-32.2-1.3c1.3-4,5.3-11.9,5.7-19.3
			c0.6-10,0.6-23.2,5.6-29.7C79.4,75.6,89.8,74.3,89.8,74.3z"/>
	</g>
	<path fill="#99CC33" d="M95.6,133.2c1.5,1,10.9,1.2,11.5-0.2s-0.6-5.1,1.3-15.1c1-5,2-8.9,2-8.9s6.6-19.8,7.2-23.3
		c0.5-3.7,1-8.5-2.7-10.7c-3.7-2.2-5.2-2.5-5.2-1.8c0,0.6-3.4,12.2-6.2,21c-2.8,8.8-3,13.1-4.1,18.9
		C98.3,119.1,95.6,133.2,95.6,133.2z"/>
	<path fill="#FBD7C7" d="M108.7,77.8c0.5-0.2,4.4,1.7,6-0.6c1.6-2.3,4.8-12.1,4.2-19.1c-0.6-7-3.5-13.4-13.9-12.1s-9.9,8.4-10,10
		s-0.1,5.7,0.2,7.2c0.3,1.5,1,3.1,1,3.1s-0.6,2.8-1.5,4.3c-0.9,1.3-0.7,1.1-2.9,3.7c-0.4,0.5,0.6,2.2,1.5,3.4
		c2.5,3.6,7.3,6.7,11.1,5.9C107.3,83,106.1,79.1,108.7,77.8z"/>
	<g>
		<path fill="#2D3134" d="M121.1,63.1c0,0-8.7,4.8-19,4c-10.2-0.8-11.5-6-11.5-6s3.5-12.8,18.9-12.5
			C121.1,48.7,121.1,63.1,121.1,63.1z"/>
		<path fill="#3399CC" d="M121.7,61.6c0,0-9.3,5.1-20.3,4.2s-12.3-6.5-12.3-6.5s3.1-14.7,19.6-14.4
			C120.9,45.2,121.7,61.6,121.7,61.6z"/>
		<path opacity="0.2" d="M119.9,59.9l-1.9,0.6c0,0-0.8-6.9-4.7-9.6c-3.9-2.7-9.2-2.9-9.2-2.9s5.2-1.8,10.2,1.3
			S119.9,59.9,119.9,59.9z"/>
		<path opacity="0.2" d="M116.1,61.2l-2.4,0.7c0,0-0.2-3.9-2.4-6.8c-2.3-3-4.4-3.7-4.4-3.7s3.3-0.5,6.2,2.9
			C116,57.5,116.1,61.2,116.1,61.2z"/>
		<path opacity="0.2" d="M110.7,62.6c0,0-2.9,0.6-6.7,0.7c-2,0-5.6-0.9-5.6-0.9s2.7-5.1,7-4.9C109.7,57.6,110.7,62.6,110.7,62.6z"/>
		<path fill="#2D3134" d="M107.8,79c-0.2-0.2-5.3-5-6.8-7.5c-1.2-2-2.5-5.6-2.5-5.7l2,0.2c0,0,0.5,3,1.7,5c0.3,0.4,0.7,1,1.1,1.6
			c-1-3.4,0-6.3,0-6.4l1.1,0l0.6-0.1c0,0-2.1,3.9,0,8.1c0.2,0.5,2.2,3.2,3.5,4.8L107.8,79z"/>
	</g>
	<path fill="#FF9900" d="M112.4,240c0,0,32-3.2,33.1-29.5c1.1-25.3-12-60.2-12-60.2l16.8-6.7c0,0,23.5,33,27.5,55.1
		C185.2,240.7,146,260.2,112.4,240z"/>
	<path opacity="0.11" d="M24.6,173.8c0,6,8.5,1.5,21,11c13.9,10.5,19.2,23.7,23,27.8c1.3,1.4,2.5,2.9,3.6,4.5
		c2.4,3.2,5.6,5.8,9.2,7.6l30.9,15.3c7.1,4.3,14.5,6.8,21.6,7.7c9.3,1.2,18.3-3.9,22-12.6c3-7.2,4.7-16,4.7-26.4
		c0-19.7-19.1-51.9-22.7-60.1l-4.5,1.5c0,0,13.2,34.9,12,60.2c-0.5,10.5-5.8,17.3-12.1,21.7c-6.7,4.7-15.5,5.2-22.8,1.6l-25.7-12.7
		c-6.7-3.3-10.9-10.1-11-17.6v0c0-13.8-11.1-30.5-24.9-37.4c-5.8-2.9-11.9-3.4-16.9-1.9l-0.3,0.1l0,0
		C28.2,166,25.6,169.2,24.6,173.8z"/>
	<path fill="#FF9900" d="M147.9,154.7c-4.8,2.4-18-2.2-22-4c-3.7-1.6-7.2-8.6-4.6-11.7c2.5-3.1,21.2-11.9,24.2-12.5
		c5.5-1.1,9,5.7,9.4,9.1S154.3,151.5,147.9,154.7z"/>
	<path opacity="0.11" d="M121.3,139c0.1-0.1,0.1-0.2,0.2-0.3c0.9-0.9,2.2-1.4,3.5-1.4c3.1,0.1,6.9,1.9,10.2,4.7
		c3.9,3.3,7.2,9.3,8.6,13.3c-5.9-0.1-14.7-3.2-17.9-4.6C122.2,149.1,118.8,142.1,121.3,139z"/>
	<g>
		<path fill="#2D3134" d="M163,143.2L163,143.2c2.1,0.9,3.3,3,3.3,6.1c0,5.9-4.8,13.1-10.7,16c-2.9,1.5-5.6,1.6-7.5,0.7
			c0,0-12.9-8.5-5.7-19C150.2,135.7,163,143.2,163,143.2z"/>
		<path fill="#FFFFFF" d="M148.8,158c0,3.8,3.1,5.3,6.8,3.4c3.8-1.9,6.8-6.5,6.8-10.2s-3.1-5.3-6.8-3.4
			C151.9,149.6,148.8,154.2,148.8,158z"/>
		<path opacity="0.15" d="M155.1,161.2c3.8-1.9,6.8-6.5,6.8-10.2c0-1.9-0.7-3.2-1.9-3.8c1.5,0.5,2.5,1.9,2.5,4
			c0,3.8-3.1,8.4-6.8,10.2c-1.9,1-3.6,1-4.9,0.4C151.9,162.1,153.4,162,155.1,161.2z"/>
		<path opacity="0.29" d="M144.9,160c0,5.9,4.8,8.3,10.7,5.3c5.9-3,10.7-10.1,10.7-16s-4.8-8.3-10.7-5.3
			C149.7,146.9,144.9,154.1,144.9,160z"/>
		<path opacity="0.11" d="M142.4,147c0.3-0.5,0.7-0.9,1-1.3l5.7,3.7c-2.6,3.2-4.2,7.1-4.2,10.6c0,2,0.6,3.6,1.6,4.8
			C143.3,162,136.9,155.1,142.4,147z"/>
	</g>
	<path fill="#2D3134" d="M105.6,156.3c0.4,0,0.8-0.1,1.1-0.3l20-10.1c1.2-0.6,1.7-2.1,1.1-3.4c-0.6-1.2-2.1-1.7-3.4-1.1l-20,10.1
		c-1.2,0.6-1.7,2.1-1.1,3.4C103.8,155.8,104.7,156.3,105.6,156.3z"/>
	<path opacity="0.29" d="M178.6,206.5l-18.3,9.1c-0.6,7.4-2.1,13.9-4.4,19.4c-3.6,8.5-12.3,13.5-21.5,12.6v0
		C158.6,250.5,179.8,234.6,178.6,206.5z"/>
	<g>
		<path fill="#2D3134" d="M188.3,223.4c-6.3-3.2-12-3.5-16.3-1.6l0,0l-9.1,4.6l0,0c-4.6,2-7.4,6.7-7.4,13.5
			c0,13.1,10.6,29.1,23.7,35.6c6.5,3.2,12.3,3.6,16.6,1.5c0,0,9.1-4.5,10-5.1c3.8-2.3,6.2-6.7,6.2-12.9
			C212,245.9,201.4,230,188.3,223.4z"/>
		<path opacity="0.29" d="M196.1,276.9c1.7-0.8,8.9-4.4,9.8-4.9c3.8-2.3,6.2-6.7,6.2-12.9c0-5.3-1.7-11-4.6-16.4l-9.1,4.6
			c2.9,5.4,4.6,11.1,4.6,16.4C202.9,270.1,200.3,274.7,196.1,276.9z"/>
		<path fill="#A9ABB0" d="M197,260.5c0,9.8-8,13.8-17.8,8.9s-17.8-16.9-17.8-26.7c0-9.8,8-13.8,17.8-8.9S197,250.7,197,260.5z"/>
		<path fill="#808285" d="M180.7,268.8c-9.8-4.9-17.8-16.9-17.8-26.7c0-4.8,1.9-8.2,5.1-9.9c-4,1.3-6.5,5-6.5,10.5
			c0,9.8,8,21.8,17.8,26.7c5,2.5,9.5,2.7,12.7,1C188.9,271.4,185,270.9,180.7,268.8z"/>
		<path fill="#2D3134" d="M188.1,254.7c0,4.1-3.3,5.8-7.4,3.7c-4.1-2-7.4-7-7.4-11.1s3.3-5.8,7.4-3.7
			C184.8,245.6,188.1,250.6,188.1,254.7z"/>
		<path opacity="0.39" d="M188.1,254.7c0,4.1-3.3,5.8-7.4,3.7c-4.1-2-7.4-7-7.4-11.1s3.3-5.8,7.4-3.7
			C184.8,245.6,188.1,250.6,188.1,254.7z"/>
		<path fill="#2D3134" d="M186.6,255.4c0,4.1-3.3,5.8-7.4,3.7c-4.1-2-7.4-7-7.4-11.1c0-4.1,3.3-5.8,7.4-3.7
			C183.3,246.3,186.6,251.3,186.6,255.4z"/>
		<path opacity="0.11" d="M202.9,263.6c0,13.1-10.6,18.4-23.7,11.9c-13.1-6.6-23.7-22.5-23.7-35.6s10.6-18.4,23.7-11.9
			C192.3,234.6,202.9,250.5,202.9,263.6z"/>
		<path fill="#FF9900" d="M174.7,233.5c2.4,6.4,4.8,12.5,7.1,18.2c0.5,1.2-0.1,2.5-1.2,3.1c-1.2,0.5-2.6,0-3.1-1.3
			c-1.5-3.7-4.3-10.6-7.6-19L174.7,233.5z"/>
		<path opacity="0.11" d="M174.7,233.5c2.4,6.4,4.8,12.5,7.1,18.2c0.5,1.2-0.1,2.5-1.2,3.1c-1.2,0.5-2.6,0-3.1-1.3
			c-1.5-3.7-4.3-10.6-7.6-19L174.7,233.5z"/>
	</g>
	<g>
		<path fill="#FF9900" d="M161.4,224.4L161.4,224.4l12.3-6.1l0,0c4.2-1.9,9.8-1.5,16,1.6c7.7,3.9,14.5,11,18.8,18.9c0,0,0,0,0,0
			l-12.3,6.1l-40.4,2.1l-0.6-1.8c-0.7-2.6-1.1-5.1-1.1-7.6C154.1,231,156.9,226.4,161.4,224.4z"/>
		<path opacity="0.11" d="M177.4,226c7.7,3.9,14.5,11,18.8,18.9l0,0l-40.4,2.1l-0.6-1.8c-0.7-2.6-1.1-5.1-1.1-7.6
			C154.1,224.8,164.6,219.5,177.4,226z"/>
	</g>
	<path fill="#FBD7C7" d="M109.3,141c0,0,2.4,1,4.1,1c2,0.1,4.9-0.1,7.2,1.3c0.9,0.5-1.5,0.5-2.3,1.1c0.7,0.8,4.1,2.4,4.6,5.9
		c0.5,3.5-5.5,5.9-8.5,4.7c-3.4-1.3-7-4.6-7.5-6c-0.5-1.4-1.1-3.2-1.1-3.2L109.3,141z"/>
	<path fill="#3399CC" d="M111.1,141.1l-2.1-1.6c0,0-4-4.5-9.4-8.5c-5.4-4-11.1-8.1-12-9.6c-0.8-1.5-0.1-28.1-1.5-33.4
		c-2-7.4-11.8-8.9-13.6,1.3c-1.8,10.2,0.1,27.8,1.2,34.3c0.6,3.4,2.3,6.4,7,9.3c4.7,3,21.4,12.5,21.4,12.5l3.5,2.3L111.1,141.1z"/>
</g>
</svg>
