<?xml version="1.0" encoding="utf-8"?>
<!-- Generator: Adobe Illustrator 18.1.0, SVG Export Plug-In . SVG Version: 6.00 Build 0)  -->
<svg version="1.1" id="Layer_1" xmlns="http://www.w3.org/2000/svg" xmlns:xlink="http://www.w3.org/1999/xlink" x="0px" y="0px"
	 viewBox="0 0 32 32" enable-background="new 0 0 32 32" xml:space="preserve">
<polygon fill="#E5E5E5" points="8,3 6,4 6,23 8,24 10,23 10,4 "/>
<polygon opacity="0.1" points="8,3 6,4 6,23 8,24 10,23 10,4 "/>
<polygon opacity="0.29" points="8,24 10,23 10,4 8,5 "/>
<polygon opacity="0.11" points="8,24 6,23 6,4 8,5 "/>
<g>
	<polygon fill="#E5E5E5" points="22,29 8,22 8,7 22,14 	"/>
	<polygon opacity="0.11" points="22,29 8,22 8,7 22,14 	"/>
	<polygon fill="#E5E5E5" points="22,14 24,13 10,6 8,7 	"/>
</g>
<polygon fill="#E5E5E5" points="24,11 22,12 22,31 24,32 26,31 26,12 "/>
<polygon opacity="0.1" points="24,11 22,12 22,31 24,32 26,31 26,12 "/>
<polygon opacity="0.29" points="24,32 26,31 26,12 24,13 "/>
<polygon opacity="0.11" points="24,32 22,31 22,12 24,13 "/>
</svg>
