<?xml version="1.0" encoding="utf-8"?>
<!-- Generator: Adobe Illustrator 18.1.0, SVG Export Plug-In . SVG Version: 6.00 Build 0)  -->
<svg version="1.1" id="Layer_1" xmlns="http://www.w3.org/2000/svg" xmlns:xlink="http://www.w3.org/1999/xlink" x="0px" y="0px"
	 viewBox="0 0 80 56" enable-background="new 0 0 80 56" xml:space="preserve">
<polygon fill="#E5E5E5" points="8,3 6,4 6,23 8,24 10,23 10,4 "/>
<polygon opacity="0.1" points="8,3 6,4 6,23 8,24 10,23 10,4 "/>
<polygon opacity="0.29" points="8,24 10,23 10,4 8,5 "/>
<polygon opacity="0.11" points="8,24 6,23 6,4 8,5 "/>
<g>
	<polygon fill="#E5E5E5" points="22,29 8,22 8,7 22,14 	"/>
	<polygon opacity="0.11" points="22,29 8,22 8,7 22,14 	"/>
	<polygon fill="#E5E5E5" points="22,14 24,13 10,6 8,7 	"/>
</g>
<polygon fill="#E5E5E5" points="24,11 22,12 22,31 24,32 26,31 26,12 "/>
<polygon opacity="0.1" points="24,11 22,12 22,31 24,32 26,31 26,12 "/>
<polygon opacity="0.29" points="24,32 26,31 26,12 24,13 "/>
<polygon opacity="0.11" points="24,32 22,31 22,12 24,13 "/>
<g>
	<polygon fill="#E5E5E5" points="38,37 24,30 24,15 38,22 	"/>
	<polygon opacity="0.11" points="38,37 24,30 24,15 38,22 	"/>
	<polygon fill="#E5E5E5" points="38,22 40,21 26,14 24,15 	"/>
</g>
<polygon fill="#E5E5E5" points="40,19 38,20 38,39 40,40 42,39 42,20 "/>
<polygon opacity="0.1" points="40,19 38,20 38,39 40,40 42,39 42,20 "/>
<polygon opacity="0.29" points="40,40 42,39 42,20 40,21 "/>
<polygon opacity="0.11" points="40,40 38,39 38,20 40,21 "/>
<g>
	<polygon fill="#E5E5E5" points="54,45 40,38 40,23 54,30 	"/>
	<polygon opacity="0.11" points="54,45 40,38 40,23 54,30 	"/>
	<polygon fill="#E5E5E5" points="54,30 56,29 42,22 40,23 	"/>
</g>
<polygon fill="#E5E5E5" points="56,27 54,28 54,47 56,48 58,47 58,28 "/>
<polygon opacity="0.1" points="56,27 54,28 54,47 56,48 58,47 58,28 "/>
<polygon opacity="0.29" points="56,48 58,47 58,28 56,29 "/>
<polygon opacity="0.11" points="56,48 54,47 54,28 56,29 "/>
<g>
	<polygon fill="#E5E5E5" points="70,53 56,46 56,31 70,38 	"/>
	<polygon opacity="0.11" points="70,53 56,46 56,31 70,38 	"/>
	<polygon fill="#E5E5E5" points="70,38 72,37 58,30 56,31 	"/>
</g>
<polygon fill="#E5E5E5" points="72,35 70,36 70,55 72,56 74,55 74,36 "/>
<polygon opacity="0.1" points="72,35 70,36 70,55 72,56 74,55 74,36 "/>
<polygon opacity="0.29" points="72,56 74,55 74,36 72,37 "/>
<polygon opacity="0.11" points="72,56 70,55 70,36 72,37 "/>
</svg>
