<?xml version="1.0" encoding="utf-8"?>
<!-- Generator: Adobe Illustrator 18.1.0, SVG Export Plug-In . SVG Version: 6.00 Build 0)  -->
<svg version="1.1" id="Layer_1" xmlns="http://www.w3.org/2000/svg" xmlns:xlink="http://www.w3.org/1999/xlink" x="0px" y="0px"
	 viewBox="0 0 80 56" enable-background="new 0 0 80 56" xml:space="preserve">
<polygon fill="#E5E5E5" points="72,3 74,4 74,23 72,24 70,23 70,4 "/>
<polygon opacity="0.1" points="72,3 74,4 74,23 72,24 70,23 70,4 "/>
<polygon opacity="0.11" points="72,24 70,23 70,4 72,5 "/>
<polygon opacity="0.29" points="72,24 74,23 74,4 72,5 "/>
<g>
	<polygon fill="#E5E5E5" points="58,29 72,22 72,7 58,14 	"/>
	<polygon opacity="0.29" points="58,29 72,22 72,7 58,14 	"/>
	<polygon fill="#E5E5E5" points="58,14 56,13 70,6 72,7 	"/>
</g>
<polygon fill="#E5E5E5" points="56,11 58,12 58,31 56,32 54,31 54,12 "/>
<polygon opacity="0.1" points="56,11 58,12 58,31 56,32 54,31 54,12 "/>
<polygon opacity="0.11" points="56,32 54,31 54,12 56,13 "/>
<polygon opacity="0.29" points="56,32 58,31 58,12 56,13 "/>
<g>
	<polygon fill="#E5E5E5" points="42,37 56,30 56,15 42,22 	"/>
	<polygon opacity="0.29" points="42,37 56,30 56,15 42,22 	"/>
	<polygon fill="#E5E5E5" points="42,22 40,21 54,14 56,15 	"/>
</g>
<polygon fill="#E5E5E5" points="40,19 42,20 42,39 40,40 38,39 38,20 "/>
<polygon opacity="0.1" points="40,19 42,20 42,39 40,40 38,39 38,20 "/>
<polygon opacity="0.11" points="40,40 38,39 38,20 40,21 "/>
<polygon opacity="0.29" points="40,40 42,39 42,20 40,21 "/>
<g>
	<polygon fill="#E5E5E5" points="26,45 40,38 40,23 26,30 	"/>
	<polygon opacity="0.29" points="26,45 40,38 40,23 26,30 	"/>
	<polygon fill="#E5E5E5" points="26,30 24,29 38,22 40,23 	"/>
</g>
<polygon fill="#E5E5E5" points="24,27 26,28 26,47 24,48 22,47 22,28 "/>
<polygon opacity="0.1" points="24,27 26,28 26,47 24,48 22,47 22,28 "/>
<polygon opacity="0.11" points="24,48 22,47 22,28 24,29 "/>
<polygon opacity="0.29" points="24,48 26,47 26,28 24,29 "/>
<g>
	<polygon fill="#E5E5E5" points="10,53 24,46 24,31 10,38 	"/>
	<polygon opacity="0.29" points="10,53 24,46 24,31 10,38 	"/>
	<polygon fill="#E5E5E5" points="10,38 8,37 22,30 24,31 	"/>
</g>
<polygon fill="#E5E5E5" points="8,35 10,36 10,55 8,56 6,55 6,36 "/>
<polygon opacity="0.1" points="8,35 10,36 10,55 8,56 6,55 6,36 "/>
<polygon opacity="0.11" points="8,56 6,55 6,36 8,37 "/>
<polygon opacity="0.29" points="8,56 10,55 10,36 8,37 "/>
</svg>
