<?xml version="1.0" encoding="utf-8"?>
<!-- Generator: Adobe Illustrator 18.1.0, SVG Export Plug-In . SVG Version: 6.00 Build 0)  -->
<svg version="1.1" id="Layer_1" xmlns="http://www.w3.org/2000/svg" xmlns:xlink="http://www.w3.org/1999/xlink" x="0px" y="0px"
	 viewBox="0 0 32 32" enable-background="new 0 0 32 32" xml:space="preserve">
<polygon fill="#E5E5E5" points="24,3 26,4 26,23 24,24 22,23 22,4 "/>
<polygon opacity="0.1" points="24,3 26,4 26,23 24,24 22,23 22,4 "/>
<polygon opacity="0.11" points="24,24 22,23 22,4 24,5 "/>
<polygon opacity="0.29" points="24,24 26,23 26,4 24,5 "/>
<g>
	<polygon fill="#E5E5E5" points="10,29 24,22 24,7 10,14 	"/>
	<polygon opacity="0.29" points="10,29 24,22 24,7 10,14 	"/>
	<polygon fill="#E5E5E5" points="10,14 8,13 22,6 24,7 	"/>
</g>
<polygon fill="#E5E5E5" points="8,11 10,12 10,31 8,32 6,31 6,12 "/>
<polygon opacity="0.1" points="8,11 10,12 10,31 8,32 6,31 6,12 "/>
<polygon opacity="0.11" points="8,32 6,31 6,12 8,13 "/>
<polygon opacity="0.29" points="8,32 10,31 10,12 8,13 "/>
</svg>
