<?xml version="1.0" encoding="utf-8"?>
<!-- Generator: Adobe Illustrator 18.1.0, SVG Export Plug-In . SVG Version: 6.00 Build 0)  -->
<svg version="1.1" id="Layer_1" xmlns="http://www.w3.org/2000/svg" xmlns:xlink="http://www.w3.org/1999/xlink" x="0px" y="0px"
	 viewBox="0 0 720 480" enable-background="new 0 0 720 480" xml:space="preserve">
<g>
	<polygon opacity="0.3" points="30,202.5 160.9,127.5 700,398.1 560,468.1 	"/>
	<polygon fill="#2D3134" points="52.5,170 52.5,207.5 77.5,195 77.5,157.5 	"/>
	<polygon opacity="0.29" points="52.5,170 52.5,207.5 77.5,195 77.5,157.5 	"/>
	<g>
		<path fill="#2D3134" d="M379,307.3c-7.5-3.7-14.2-4.2-19.2-1.9l0,0l-14,7l0,0c-5.4,2.4-8.8,7.9-8.8,15.9c0,15.5,12.5,34.3,28,42
			c7.6,3.8,14.6,4.2,19.6,1.8c0,0,13.9-6.9,15.1-7.6c4.5-2.7,7.3-7.9,7.3-15.2C407,333.8,394.5,315,379,307.3z"/>
		<path opacity="0.29" d="M384.9,371.9c2-1,13.7-6.8,14.8-7.5c4.5-2.7,7.3-7.9,7.3-15.2c0-6.2-2.1-13-5.5-19.3l-14,7
			c3.4,6.4,5.5,13.1,5.5,19.3C393,364,389.9,369.3,384.9,371.9z"/>
		<path fill="#999999" d="M382.9,351.1c0,9.9-8,13.9-17.9,8.9c-9.9-4.9-17.9-17-17.9-26.8s8-13.9,17.9-8.9
			C374.9,329.2,382.9,341.2,382.9,351.1z"/>
		<path opacity="0.15" d="M366.5,359.4c-9.9-4.9-17.9-17-17.9-26.8c0-4.9,1.9-8.3,5.1-9.9c-4,1.3-6.6,5-6.6,10.6
			c0,9.9,8,21.9,17.9,26.8c5,2.5,9.6,2.7,12.8,1C374.7,362,370.8,361.5,366.5,359.4z"/>
		<path fill="#2D3134" d="M373.9,345.2c0,4.1-3.3,5.8-7.5,3.7s-7.5-7.1-7.5-11.2c0-4.1,3.3-5.8,7.5-3.7
			C370.6,336.1,373.9,341.1,373.9,345.2z"/>
		<path opacity="0.29" d="M373.9,345.2c0,4.1-3.3,5.8-7.5,3.7s-7.5-7.1-7.5-11.2c0-4.1,3.3-5.8,7.5-3.7
			C370.6,336.1,373.9,341.1,373.9,345.2z"/>
		<path fill="#2D3134" d="M372.5,345.9c0,4.1-3.3,5.8-7.5,3.7c-4.1-2.1-7.5-7.1-7.5-11.2c0-4.1,3.3-5.8,7.5-3.7
			C369.1,336.8,372.5,341.8,372.5,345.9z"/>
		<path opacity="0.11" d="M393,356.3c0,15.5-12.5,21.7-28,14c-15.5-7.7-28-26.5-28-42c0-15.5,12.5-21.7,28-14
			C380.5,322,393,340.8,393,356.3z"/>
	</g>
	<g>
		<polygon fill="#06547A" points="533,268 393,338 393,369 479,412 619,342 619,311 		"/>
		<polygon opacity="0.11" points="393,338 393,369 479,412 479,381 		"/>
		<polygon opacity="0.29" points="619,311 619,342 479,412 479,381 		"/>
	</g>
	<g>
		<path fill="#2D3134" d="M97,166.2c-7.5-3.7-14.2-4.2-19.2-1.9l0,0l-14,7l0,0c-5.4,2.4-8.8,7.9-8.8,15.9c0,15.5,12.5,34.3,28,42
			c7.6,3.8,14.6,4.2,19.6,1.8c0,0,13.9-6.9,15.1-7.6c4.5-2.7,7.3-7.9,7.3-15.2C125,192.7,112.5,173.9,97,166.2z"/>
		<path opacity="0.29" d="M102.9,230.8c2-1,13.7-6.8,14.8-7.5c4.5-2.7,7.3-7.9,7.3-15.2c0-6.2-2.1-13-5.5-19.3l-14,7
			c3.4,6.4,5.5,13.1,5.5,19.3C111,222.9,107.9,228.2,102.9,230.8z"/>
		<path fill="#999999" d="M104,211.5c0,11.6-9.4,16.3-21,10.5c-11.6-5.8-21-19.9-21-31.5s9.4-16.3,21-10.5
			C94.6,185.8,104,199.9,104,211.5z"/>
		<path opacity="0.15" d="M84.8,221.3c-11.6-5.8-21-19.9-21-31.5c0-5.7,2.3-9.7,6-11.7C65,179.6,62,184,62,190.5
			c0,11.6,9.4,25.7,21,31.5c5.9,2.9,11.2,3.2,15,1.2C94.4,224.3,89.8,223.8,84.8,221.3z"/>
		<path fill="#2D3134" d="M93.5,204.7c0,4.8-3.9,6.8-8.8,4.4c-4.8-2.4-8.8-8.3-8.8-13.1s3.9-6.8,8.8-4.4
			C89.6,194,93.5,199.8,93.5,204.7z"/>
		<path opacity="0.29" d="M93.5,204.7c0,4.8-3.9,6.8-8.8,4.4c-4.8-2.4-8.8-8.3-8.8-13.1s3.9-6.8,8.8-4.4
			C89.6,194,93.5,199.8,93.5,204.7z"/>
		<path fill="#2D3134" d="M91.8,205.5c0,4.8-3.9,6.8-8.8,4.4c-4.8-2.4-8.8-8.3-8.8-13.1s3.9-6.8,8.8-4.4
			C87.8,194.8,91.8,200.7,91.8,205.5z"/>
		<path opacity="0.11" d="M111,215.2c0,15.5-12.5,21.7-28,14s-28-26.5-28-42s12.5-21.7,28-14S111,199.7,111,215.2z"/>
	</g>
	<g>
		<path fill="#2D3134" d="M157,196.3c-7.5-3.7-14.2-4.2-19.2-1.9l0,0l-14,7l0,0c-5.4,2.4-8.8,7.9-8.8,15.9c0,15.5,12.5,34.3,28,42
			c7.6,3.8,14.6,4.2,19.6,1.8c0,0,13.9-6.9,15.1-7.6c4.5-2.7,7.3-7.9,7.3-15.2C185,222.8,172.5,204,157,196.3z"/>
		<path opacity="0.29" d="M162.9,260.9c2-1,13.7-6.8,14.8-7.5c4.5-2.7,7.3-7.9,7.3-15.2c0-6.2-2.1-13-5.5-19.3l-14,7
			c3.4,6.4,5.5,13.1,5.5,19.3C171,253,167.9,258.3,162.9,260.9z"/>
		<path fill="#999999" d="M164,241.6c0,11.6-9.4,16.3-21,10.5c-11.6-5.8-21-19.9-21-31.5s9.4-16.3,21-10.5
			C154.6,215.9,164,230,164,241.6z"/>
		<path opacity="0.15" d="M144.8,251.4c-11.6-5.8-21-19.9-21-31.5c0-5.7,2.3-9.7,6-11.7c-4.7,1.5-7.7,5.8-7.7,12.4
			c0,11.6,9.4,25.7,21,31.5c5.9,2.9,11.2,3.2,15,1.2C154.4,254.4,149.8,253.9,144.8,251.4z"/>
		<path fill="#2D3134" d="M153.5,234.8c0,4.8-3.9,6.8-8.8,4.4c-4.8-2.4-8.8-8.3-8.8-13.1c0-4.8,3.9-6.8,8.8-4.4
			C149.6,224.1,153.5,229.9,153.5,234.8z"/>
		<path opacity="0.29" d="M153.5,234.8c0,4.8-3.9,6.8-8.8,4.4c-4.8-2.4-8.8-8.3-8.8-13.1c0-4.8,3.9-6.8,8.8-4.4
			C149.6,224.1,153.5,229.9,153.5,234.8z"/>
		<path fill="#2D3134" d="M151.8,235.6c0,4.8-3.9,6.8-8.8,4.4s-8.8-8.3-8.8-13.1s3.9-6.8,8.8-4.4S151.8,230.8,151.8,235.6z"/>
		<path opacity="0.11" d="M171,245.3c0,15.5-12.5,21.7-28,14c-15.5-7.7-28-26.5-28-42s12.5-21.7,28-14S171,229.8,171,245.3z"/>
	</g>
	<g>
		<polygon fill="#E5E5E5" points="170,73 30,143 30,153 456,366 596,296 596,286 		"/>
		<polygon opacity="0.11" points="30,143 30,153 456,366 456,356 		"/>
		<polygon opacity="0.29" points="596,286 596,296 456,366 456,356 		"/>
		<polygon opacity="0.2" points="30,143 30,153 456,366 456,356 		"/>
		<polygon opacity="0.2" points="596,286 596,296 456,366 456,356 		"/>
	</g>
	<polygon opacity="0.15" points="150,83 142,87 568,300 576,296 	"/>
	<polygon opacity="0.15" points="58,129 50,133 476,346 484,342 	"/>
	<g>
		<path fill="#2D3134" d="M695,264.4h-1v-30.7c0-1.1-0.6-2.1-1.5-2.7c-0.9-0.6-2.1-0.6-3-0.1l-2.3,1.1l-0.4-0.9l2.3-1.1
			c1.3-0.6,2.8-0.6,4,0.2c1.2,0.8,2,2.1,2,3.5V264.4z"/>
		<path fill="#2D3134" d="M688.7,240v20.9c0,1.9,2.1,3,3.6,1.9l0.5-0.4c2.5-1.8,4-4.7,4-7.7v-21c0-1.9-2.2-3-3.7-1.8l-0.8,0.6
			C690.1,234.3,688.7,237.1,688.7,240z"/>
		<g>
			<path fill="#2D3134" d="M522,378.7c-7.5-3.7-14.2-4.2-19.2-1.9l0,0l-14,7l0,0c-5.4,2.4-8.8,7.9-8.8,15.9c0,15.5,12.5,34.3,28,42
				c7.6,3.8,14.6,4.2,19.6,1.8c0,0,13.9-6.9,15.1-7.6c4.5-2.7,7.3-7.9,7.3-15.2C550,405.2,537.5,386.4,522,378.7z"/>
			<path opacity="0.29" d="M527.9,443.3c2-1,13.7-6.8,14.8-7.5c4.5-2.7,7.3-7.9,7.3-15.2c0-6.2-2.1-13-5.5-19.3l-14,7
				c3.4,6.4,5.5,13.1,5.5,19.3C536,435.4,532.9,440.7,527.9,443.3z"/>
			<path fill="#999999" d="M525.9,422.5c0,9.9-8,13.9-17.9,8.9c-9.9-4.9-17.9-17-17.9-26.8c0-9.9,8-13.9,17.9-8.9
				C517.9,400.6,525.9,412.6,525.9,422.5z"/>
			<path opacity="0.15" d="M509.5,430.8c-9.9-4.9-17.9-17-17.9-26.8c0-4.9,1.9-8.3,5.1-9.9c-4,1.3-6.6,5-6.6,10.6
				c0,9.9,8,21.9,17.9,26.8c5,2.5,9.6,2.7,12.8,1C517.7,433.4,513.8,432.9,509.5,430.8z"/>
			<path fill="#2D3134" d="M516.9,416.6c0,4.1-3.3,5.8-7.5,3.7c-4.1-2.1-7.5-7.1-7.5-11.2c0-4.1,3.3-5.8,7.5-3.7
				C513.6,407.5,516.9,412.5,516.9,416.6z"/>
			<path opacity="0.29" d="M516.9,416.6c0,4.1-3.3,5.8-7.5,3.7c-4.1-2.1-7.5-7.1-7.5-11.2c0-4.1,3.3-5.8,7.5-3.7
				C513.6,407.5,516.9,412.5,516.9,416.6z"/>
			<path fill="#2D3134" d="M515.5,417.3c0,4.1-3.3,5.8-7.5,3.7c-4.1-2.1-7.5-7.1-7.5-11.2s3.3-5.8,7.5-3.7
				C512.1,408.2,515.5,413.2,515.5,417.3z"/>
			<path opacity="0.11" d="M536,427.7c0,15.5-12.5,21.7-28,14c-15.5-7.7-28-26.5-28-42c0-15.5,12.5-21.7,28-14
				C523.5,393.4,536,412.2,536,427.7z"/>
		</g>
		<path fill="#06547A" d="M700,324l-88-44l-140,70v15l18,9c0,0,18.4,8.8,21,10c8.6,4.1,16.1,7.8,23.6,16.9
			c8.6,10.5,12.8,26.5,12.5,36.6L560,444l140-70V324z"/>
		<path opacity="0.15" d="M587.5,281.9l86-43c1.9-1,4.2,0,4.9,2l14.7,44.1L587.5,281.9z"/>
		<path fill="#06547A" d="M612,177.3l-140,70V348l88,44l140-70v-15c0-23.7-3.2-47.3-9.5-70.1l-6.5-23.6L612,177.3z"/>
		<g>
			<path fill="#656565" d="M565.6,344.3c-1.5,0-2.7-1.1-2.9-2.5c-1.6-12.2-4.1-24.4-7.3-36.2l-4.8-17.3c-0.4-1.3,0.3-2.8,1.5-3.4
				l125.6-62.8c0.4-0.2,0.8-0.3,1.3-0.3c1.3,0,2.5,0.9,2.8,2.1l3.9,14.3c3.6,13.2,6.2,26.8,7.7,40.4c0.1,1.2-0.5,2.4-1.6,2.9
				l-125,62.5C566.5,344.2,566,344.3,565.6,344.3z"/>
			<path fill="#2D3134" d="M678.9,222.8c0.9,0,1.6,0.6,1.9,1.4l3.9,14.3c3.6,13.1,6.2,26.7,7.7,40.2c0.1,0.8-0.3,1.6-1.1,1.9
				l-125,62.5c-0.3,0.1-0.6,0.2-0.9,0.2c-0.8,0-1.8-0.6-1.9-1.7c-1.6-12.3-4.1-24.5-7.4-36.3l-4.8-17.3c-0.2-0.9,0.2-1.8,1-2.2
				L678.1,223C678.3,222.8,678.6,222.8,678.9,222.8 M678.9,220.8c-0.6,0-1.2,0.1-1.7,0.4L551.6,284c-1.7,0.8-2.5,2.7-2,4.5l4.8,17.3
				c3.3,11.9,5.7,23.9,7.3,36.1c0.3,2,2,3.4,3.9,3.4c0.6,0,1.2-0.1,1.7-0.4l125-62.5c1.5-0.7,2.3-2.3,2.2-3.9
				c-1.5-13.7-4.1-27.2-7.8-40.5l-3.9-14.3C682.2,221.9,680.6,220.8,678.9,220.8L678.9,220.8z"/>
		</g>
		<g>
			<path fill="#2D3134" d="M694.4,278.5c-0.5-4.3-0.8-6.2-0.4-2.8c0.2,1.6-0.7,3.2-2.2,3.9l-125,62.5c-2.2,1.1-4.8-0.1-5.5-2.3
				c0.1,0.7,0.2,1.4,0.3,2.1c0.4,2.7,3.2,4.2,5.6,3l125-62.5C693.7,281.7,694.6,280.1,694.4,278.5z"/>
		</g>
		<g>
			<path fill="#656565" d="M550.3,343.5c-0.3,0-0.7-0.1-1-0.2l-20.2-10.1c-2.5-1.3-4.1-3.8-4.1-6.7c0-4.4-2.4-8.4-6.4-10.3
				l-13.2-6.6c-0.7-0.4-1.2-1.1-1.2-1.9v-35.1c0-1.3,1.1-2.2,2.2-2.2c0.3,0,0.7,0.1,1,0.2l27.9,14c2.8,1.4,4.9,4,5.8,7l4.6,16.6
				c3,10.7,5.2,21.8,6.8,32.8c0.1,0.6-0.1,1.3-0.5,1.7C551.6,343.2,551,343.5,550.3,343.5z"/>
			<path fill="#2D3134" d="M506.4,271.4c0.2,0,0.4,0,0.5,0.1l27.9,14c2.6,1.3,4.5,3.6,5.3,6.4l4.6,16.6c2.9,10.7,5.2,21.7,6.8,32.7
				c0.1,0.4-0.1,0.8-0.3,0.9c-0.2,0.3-0.6,0.4-0.9,0.4c-0.2,0-0.4,0-0.5-0.1l-20.2-10.1c-2.2-1.1-3.6-3.3-3.6-5.8
				c0-4.8-2.7-9.1-6.9-11.2l-13.2-6.6c-0.4-0.2-0.7-0.6-0.7-1.1v-35.1C505.2,271.8,505.9,271.4,506.4,271.4 M506.4,269.4
				c-1.7,0-3.2,1.3-3.2,3.2v35.1c0,1.2,0.7,2.3,1.8,2.8l13.2,6.6c3.6,1.8,5.8,5.4,5.8,9.4v0c0,3.2,1.8,6.1,4.7,7.5l20.2,10.1
				c0.5,0.2,1,0.3,1.4,0.3c1.8,0,3.4-1.6,3.2-3.6c-1.6-11.1-3.8-22.1-6.8-32.9l-4.6-16.6c-0.9-3.3-3.2-6.1-6.3-7.7l-27.9-14
				C507.4,269.5,506.9,269.4,506.4,269.4L506.4,269.4z"/>
		</g>
		<path opacity="0.2" d="M599.5,290c35,0,67.6-4.8,94.7-13.1c-1.5-13.1-4.1-26.1-7.6-38.9l-3.9-14.3c-0.7-2.4-3.3-3.6-5.5-2.5
			L551.6,284c-1.1,0.5-1.8,1.5-2.1,2.6C565.4,288.8,582.1,290,599.5,290z"/>
		<g>
			<path fill="#2D3134" d="M682.8,233.6c1-0.5,1.7-1.4,2-2.4l-2.1-7.6c-0.7-2.4-3.3-3.6-5.5-2.5L551.6,284c-1.7,0.8-2.5,2.7-2,4.5
				l2.3,8.4c1.1,0.7,2.6,0.9,3.9,0.2L682.8,233.6z"/>
		</g>
		<path opacity="0.11" d="M472,350v15l18,9c0,0,18.4,8.8,21,10c8.6,4.1,16.1,7.8,23.6,16.9c8.6,10.5,12.8,26.5,12.5,36.6L560,444
			v-50L472,350z"/>
		<polygon opacity="0.5" fill="#2D3134" points="503,318.5 503,323.5 513,328.5 513,323.5 		"/>
		<polygon opacity="0.5" fill="#FFFFFF" points="513,331 503,326 503,323.5 513,328.5 		"/>
		<path fill="#2D3134" d="M633,283.5c-0.8-0.7-1.9-0.6-2.6,0.2l-34.2,38.9c-0.7,0.8-0.6,1.9,0.2,2.6s1.9,0.6,2.6-0.2l9.2-10.5v9h2.3
			V312h-0.1l22.9-26C633.8,285.3,633.7,284.2,633,283.5z"/>
		<path fill="#2D3134" d="M665.9,265.5c-0.8-0.7-1.9-0.6-2.6,0.2l-34.2,38.9c-0.7,0.8-0.6,1.9,0.2,2.6c0.8,0.7,1.9,0.6,2.6-0.2
			l8.2-9.3v9.9h2.3V295l23.8-27C666.7,267.3,666.6,266.1,665.9,265.5z"/>
		<g>
			<polyline opacity="0.2" fill="none" stroke="#000000" stroke-width="0.8485" stroke-miterlimit="10" points="700,292 
				693.2,295.4 658,383.4 602,411.4 566.8,358.6 560,362 			"/>
			<polygon fill="#2D3134" points="675.1,329.5 685.1,304.4 574.9,359.5 584.9,374.6 			"/>
			<g>
				<polygon fill="#2D3134" points="599.4,396.3 605.1,404.9 654.9,380 660.6,365.7 				"/>
				<polygon fill="#2D3134" points="664.1,357 669.6,343.2 590.4,382.8 595.9,391.1 				"/>
			</g>
			<polygon fill="#2D3134" points="671.8,360.1 666.3,373.9 700,357 700,346 			"/>
			<polygon opacity="0.2" points="700,317 700,297 696.3,298.8 686.3,323.9 			"/>
			<polygon fill="#FFFFFF" points="700,339 700,328 680.8,337.6 675.3,351.4 			"/>
			<polygon opacity="0.2" points="573.7,380.2 563.7,365.1 560,367 560,387 			"/>
			<polygon fill="#2D3134" points="560,416 560,427 593.7,410.2 588.2,401.9 			"/>
			<polygon fill="#FFFFFF" points="584.7,396.7 579.2,388.4 560,398 560,409 			"/>
			<polygon fill="#FFFFFF" points="681,364.5 698,356 698,349 681,357.5 			"/>
			<polygon fill="#FFFFFF" points="614,414 650,396 650,389 614,407 			"/>
			<polygon fill="#FFFFFF" points="562,424 579,415.5 579,408.5 562,417 			"/>
			
				<ellipse transform="matrix(-0.6313 0.7756 -0.7756 -0.6313 1259.7249 229.8508)" opacity="0.3" fill="#2D3134" cx="575.2" cy="414.4" rx="2.6" ry="1.7"/>
			
				<ellipse transform="matrix(-0.6313 0.7756 -0.7756 -0.6313 1255.7949 231.7192)" opacity="0.3" fill="#2D3134" cx="572.8" cy="414.4" rx="2.6" ry="1.7"/>
			
				<ellipse transform="matrix(-0.6313 0.7756 -0.7756 -0.6313 1247.9342 199.8004)" opacity="0.3" fill="#2D3134" cx="576.5" cy="396.6" rx="4.4" ry="2.9"/>
			
				<ellipse transform="matrix(-0.6313 0.7756 -0.7756 -0.6313 1241.2863 202.961)" opacity="0.3" fill="#2D3134" cx="572.4" cy="396.6" rx="4.4" ry="2.9"/>
			
				<ellipse transform="matrix(-0.6313 0.7756 -0.7756 -0.6313 1380.6006 28.7268)" opacity="0.3" fill="#2D3134" cx="683.5" cy="342.6" rx="4.4" ry="2.9"/>
			
				<ellipse transform="matrix(-0.6313 0.7756 -0.7756 -0.6313 1383.9006 19.1578)" opacity="0.3" fill="#2D3134" cx="687.4" cy="338.6" rx="4.4" ry="2.9"/>
			
				<ellipse transform="matrix(-0.6313 0.7756 -0.7756 -0.6313 1249.7769 242.5804)" opacity="0.3" fill="#2D3134" cx="567.2" cy="418.4" rx="2.6" ry="1.7"/>
			
				<ellipse transform="matrix(-0.6313 0.7756 -0.7756 -0.6313 1245.8469 244.4488)" opacity="0.3" fill="#2D3134" cx="564.8" cy="418.4" rx="2.6" ry="1.7"/>
			
				<ellipse transform="matrix(-0.6313 0.7756 -0.7756 -0.6313 1408.9445 38.9073)" opacity="0.3" fill="#2D3134" cx="695.2" cy="354.4" rx="2.6" ry="1.7"/>
			
				<ellipse transform="matrix(-0.6313 0.7756 -0.7756 -0.6313 1405.0145 40.7757)" opacity="0.3" fill="#2D3134" cx="692.8" cy="354.4" rx="2.6" ry="1.7"/>
			
				<ellipse transform="matrix(-0.6313 0.7756 -0.7756 -0.6313 1398.9965 51.6368)" opacity="0.3" fill="#2D3134" cx="687.2" cy="358.4" rx="2.6" ry="1.7"/>
			
				<ellipse transform="matrix(-0.6313 0.7756 -0.7756 -0.6313 1395.0665 53.5052)" opacity="0.3" fill="#2D3134" cx="684.8" cy="358.4" rx="2.6" ry="1.7"/>
			<polygon fill="#FF9900" points="561,407 567,404 567,399 561,402 			"/>
			<polygon fill="#FF9900" points="693,341 699,338 699,333 693,336 			"/>
		</g>
		<g>
			<path fill="#06547A" d="M612,141l-140,70v36l46,23l140-70v0c0-11.5-4.9-22.4-13.4-30L612,141z"/>
			<path opacity="0.11" d="M472,211v36l46,23v0c0-11.5-4.9-22.4-13.4-30L472,211z"/>
		</g>
		<path fill="#2D3134" d="M541,342c-1.1,0-2.2-0.3-3.1-0.9c-1.8-1.1-2.8-3-2.8-5.1v-32.3c0-2.3,1.3-4.3,3.3-5.3l3.7-1.8l0.4,0.9
			l-3.7,1.8c-1.7,0.8-2.7,2.5-2.7,4.4V336c0,1.7,0.9,3.3,2.4,4.2c1.5,0.9,3.3,1,4.8,0.2l0.6-0.3l0.4,0.9l-0.6,0.3
			C542.8,341.7,541.9,342,541,342z"/>
		<path fill="#2D3134" d="M535.3,302.9l0.7-0.3c2.4-0.8,4.9,1,4.9,3.5v21.4c0,3.1-1.9,6-4.9,7.1l-0.9,0.3c-2.4,0.9-5.1-0.9-5.1-3.5
			V310C530.2,306.8,532.2,303.9,535.3,302.9z"/>
		<polygon opacity="0.5" fill="#2D3134" points="490,357 492,358 492,257.3 490,256.3 		"/>
		<polygon opacity="0.5" fill="#FFFFFF" points="488,356 490,357 490,256.3 488,255.3 		"/>
		<polygon opacity="0.29" points="560,444 700,374 700,324 560,394 		"/>
		<path opacity="0.29" d="M684,213.3l-140,70l6.5,23.6c6.3,22.8,9.5,46.4,9.5,70.1v15l140-70v-15c0-23.7-3.2-47.3-9.5-70.1
			L684,213.3z"/>
		<path opacity="0.11" d="M544,283.3l-72-36V348l88,44v-15c0-23.7-3.2-47.3-9.5-70.1L544,283.3z"/>
	</g>
</g>
</svg>
