<?xml version="1.0" encoding="utf-8"?>
<!-- Generator: Adobe Illustrator 18.1.0, SVG Export Plug-In . SVG Version: 6.00 Build 0)  -->
<svg version="1.1" id="Layer_1" xmlns="http://www.w3.org/2000/svg" xmlns:xlink="http://www.w3.org/1999/xlink" x="0px" y="0px"
	 viewBox="0 0 640 480" enable-background="new 0 0 640 480" xml:space="preserve">
<g>
	<polygon opacity="0.3" points="30,202.5 160.9,127.5 596,346 456,416 	"/>
	<polygon fill="#2D3134" points="52.5,170 52.5,207.5 77.5,195 77.5,157.5 	"/>
	<polygon opacity="0.29" points="52.5,170 52.5,207.5 77.5,195 77.5,157.5 	"/>
	<g>
		<path fill="#2D3134" d="M97,166.2c-7.5-3.7-14.2-4.2-19.2-1.9l0,0l-14,7l0,0c-5.4,2.4-8.8,7.9-8.8,15.9c0,15.5,12.5,34.3,28,42
			c7.6,3.8,14.6,4.2,19.6,1.8c0,0,13.9-6.9,15.1-7.6c4.5-2.7,7.3-7.9,7.3-15.2C125,192.7,112.5,173.9,97,166.2z"/>
		<path opacity="0.29" d="M102.9,230.8c2-1,13.7-6.8,14.8-7.5c4.5-2.7,7.3-7.9,7.3-15.2c0-6.2-2.1-13-5.5-19.3l-14,7
			c3.4,6.4,5.5,13.1,5.5,19.3C111,222.9,107.9,228.2,102.9,230.8z"/>
		<path fill="#999999" d="M104,211.5c0,11.6-9.4,16.3-21,10.5c-11.6-5.8-21-19.9-21-31.5s9.4-16.3,21-10.5
			C94.6,185.8,104,199.9,104,211.5z"/>
		<path opacity="0.15" d="M84.8,221.3c-11.6-5.8-21-19.9-21-31.5c0-5.7,2.3-9.7,6-11.7C65,179.6,62,184,62,190.5
			c0,11.6,9.4,25.7,21,31.5c5.9,2.9,11.2,3.2,15,1.2C94.4,224.3,89.8,223.8,84.8,221.3z"/>
		<path fill="#2D3134" d="M93.5,204.7c0,4.8-3.9,6.8-8.8,4.4c-4.8-2.4-8.8-8.3-8.8-13.1s3.9-6.8,8.8-4.4
			C89.6,194,93.5,199.8,93.5,204.7z"/>
		<path opacity="0.29" d="M93.5,204.7c0,4.8-3.9,6.8-8.8,4.4c-4.8-2.4-8.8-8.3-8.8-13.1s3.9-6.8,8.8-4.4
			C89.6,194,93.5,199.8,93.5,204.7z"/>
		<path fill="#2D3134" d="M91.8,205.5c0,4.8-3.9,6.8-8.8,4.4c-4.8-2.4-8.8-8.3-8.8-13.1s3.9-6.8,8.8-4.4
			C87.8,194.8,91.8,200.7,91.8,205.5z"/>
		<path opacity="0.11" d="M111,215.2c0,15.5-12.5,21.7-28,14s-28-26.5-28-42s12.5-21.7,28-14S111,199.7,111,215.2z"/>
	</g>
	<g>
		<path fill="#2D3134" d="M157,196.3c-7.5-3.7-14.2-4.2-19.2-1.9l0,0l-14,7l0,0c-5.4,2.4-8.8,7.9-8.8,15.9c0,15.5,12.5,34.3,28,42
			c7.6,3.8,14.6,4.2,19.6,1.8c0,0,13.9-6.9,15.1-7.6c4.5-2.7,7.3-7.9,7.3-15.2C185,222.8,172.5,204,157,196.3z"/>
		<path opacity="0.29" d="M162.9,260.9c2-1,13.7-6.8,14.8-7.5c4.5-2.7,7.3-7.9,7.3-15.2c0-6.2-2.1-13-5.5-19.3l-14,7
			c3.4,6.4,5.5,13.1,5.5,19.3C171,253,167.9,258.3,162.9,260.9z"/>
		<path fill="#999999" d="M164,241.6c0,11.6-9.4,16.3-21,10.5c-11.6-5.8-21-19.9-21-31.5s9.4-16.3,21-10.5
			C154.6,215.9,164,230,164,241.6z"/>
		<path opacity="0.15" d="M144.8,251.4c-11.6-5.8-21-19.9-21-31.5c0-5.7,2.3-9.7,6-11.7c-4.7,1.5-7.7,5.8-7.7,12.4
			c0,11.6,9.4,25.7,21,31.5c5.9,2.9,11.2,3.2,15,1.2C154.4,254.4,149.8,253.9,144.8,251.4z"/>
		<path fill="#2D3134" d="M153.5,234.8c0,4.8-3.9,6.8-8.8,4.4c-4.8-2.4-8.8-8.3-8.8-13.1c0-4.8,3.9-6.8,8.8-4.4
			C149.6,224.1,153.5,229.9,153.5,234.8z"/>
		<path opacity="0.29" d="M153.5,234.8c0,4.8-3.9,6.8-8.8,4.4c-4.8-2.4-8.8-8.3-8.8-13.1c0-4.8,3.9-6.8,8.8-4.4
			C149.6,224.1,153.5,229.9,153.5,234.8z"/>
		<path fill="#2D3134" d="M151.8,235.6c0,4.8-3.9,6.8-8.8,4.4s-8.8-8.3-8.8-13.1s3.9-6.8,8.8-4.4S151.8,230.8,151.8,235.6z"/>
		<path opacity="0.11" d="M171,245.3c0,15.5-12.5,21.7-28,14c-15.5-7.7-28-26.5-28-42s12.5-21.7,28-14S171,229.8,171,245.3z"/>
	</g>
	<g>
		<polygon fill="#2D3134" points="394,376 406,370 394,364 382,370 		"/>
		<g>
			<polygon fill="#2D3134" points="399.7,353 443.8,330.9 443.8,323.3 437.1,320 393,342.1 393,349.7 			"/>
			<polygon opacity="0.29" points="443.8,323.3 443.8,330.9 399.7,353 399.7,345.4 			"/>
			<polygon opacity="0.11" points="393,342.1 393,349.7 399.7,353 399.7,345.4 			"/>
		</g>
		<g>
			<polygon fill="#2D3134" points="394,373 400,370 400,304 394,301 388,304 388,370 			"/>
			<polygon opacity="0.29" points="400,304 400,370 394,373 394,307 			"/>
			<polygon opacity="0.11" points="388,304 388,370 394,373 394,307 			"/>
		</g>
	</g>
	<g>
		<polygon fill="#E5E5E5" points="170,73 30,143 30,153 456,366 596,296 596,286 		"/>
		<polygon opacity="0.11" points="30,143 30,153 456,366 456,356 		"/>
		<polygon opacity="0.29" points="596,286 596,296 456,366 456,356 		"/>
		<polygon opacity="0.2" points="30,143 30,153 456,366 456,356 		"/>
		<polygon opacity="0.2" points="596,286 596,296 456,366 456,356 		"/>
	</g>
	<polygon opacity="0.15" points="150,83 142,87 568,300 576,296 	"/>
	<polygon opacity="0.15" points="58,129 50,133 476,346 484,342 	"/>
</g>
</svg>
