<?xml version="1.0" encoding="utf-8"?>
<!-- Generator: Adobe Illustrator 18.1.0, SVG Export Plug-In . SVG Version: 6.00 Build 0)  -->
<svg version="1.1" id="Layer_1" xmlns="http://www.w3.org/2000/svg" xmlns:xlink="http://www.w3.org/1999/xlink" x="0px" y="0px"
	 viewBox="0 0 720 560" enable-background="new 0 0 720 560" xml:space="preserve">
<g>
	<polygon opacity="0.3" points="50,253 180.9,178 720,449.2 580,519.2 	"/>
	<g>
		<path fill="#2D3134" d="M477,398.3c-7.5-3.7-14.2-4.2-19.2-1.9l0,0l-14,7l0,0c-5.4,2.4-8.8,7.9-8.8,15.9c0,15.5,12.5,34.3,28,42
			c7.6,3.8,14.6,4.2,19.6,1.8c0,0,13.9-6.9,15.1-7.6c4.5-2.7,7.3-7.9,7.3-15.2C505,424.8,492.5,406,477,398.3z"/>
		<path opacity="0.29" d="M482.9,462.9c2-1,13.7-6.8,14.8-7.5c4.5-2.7,7.3-7.9,7.3-15.2c0-6.2-2.1-13-5.5-19.3l-14,7
			c3.4,6.4,5.5,13.1,5.5,19.3C491,455,487.9,460.3,482.9,462.9z"/>
		<path fill="#999999" d="M484,443.6c0,11.6-9.4,16.3-21,10.5c-11.6-5.8-21-19.9-21-31.5s9.4-16.3,21-10.5
			C474.6,417.9,484,432,484,443.6z"/>
		<path fill="#808285" d="M464.8,453.4c-11.6-5.8-21-19.9-21-31.5c0-5.7,2.3-9.7,6-11.7c-4.7,1.5-7.7,5.8-7.7,12.4
			c0,11.6,9.4,25.7,21,31.5c5.9,2.9,11.2,3.2,15,1.2C474.4,456.4,469.8,455.9,464.8,453.4z"/>
		<path fill="#2D3134" d="M473.5,436.8c0,4.8-3.9,6.8-8.8,4.4c-4.8-2.4-8.8-8.3-8.8-13.1s3.9-6.8,8.8-4.4
			C469.6,426.1,473.5,431.9,473.5,436.8z"/>
		<path opacity="0.29" d="M473.5,436.8c0,4.8-3.9,6.8-8.8,4.4c-4.8-2.4-8.8-8.3-8.8-13.1s3.9-6.8,8.8-4.4
			C469.6,426.1,473.5,431.9,473.5,436.8z"/>
		<path fill="#2D3134" d="M471.8,437.6c0,4.8-3.9,6.8-8.8,4.4s-8.8-8.3-8.8-13.1s3.9-6.8,8.8-4.4S471.8,432.8,471.8,437.6z"/>
		<path opacity="0.11" d="M491,447.3c0,15.5-12.5,21.7-28,14c-15.5-7.7-28-26.5-28-42c0-15.5,12.5-21.7,28-14
			C478.5,413,491,431.8,491,447.3z"/>
	</g>
	<g>
		<path fill="#2D3134" d="M534.5,428.9c-7.5-3.7-14.2-4.2-19.2-1.9l0,0l-14,7l0,0c-5.4,2.4-8.8,7.9-8.8,15.9c0,15.5,12.5,34.3,28,42
			c7.6,3.8,14.6,4.2,19.6,1.8c0,0,13.9-6.9,15.1-7.6c4.5-2.7,7.3-7.9,7.3-15.2C562.5,455.5,550,436.7,534.5,428.9z"/>
		<path opacity="0.39" d="M540.4,493.5c2-1,13.7-6.8,14.8-7.5c4.5-2.7,7.3-7.9,7.3-15.2c0-6.2-2.1-13-5.5-19.3l-14,7
			c3.4,6.4,5.5,13.1,5.5,19.3C548.5,485.6,545.4,491,540.4,493.5z"/>
		<path fill="#999999" d="M541.5,474.3c0,11.6-9.4,16.3-21,10.5c-11.6-5.8-21-19.9-21-31.5s9.4-16.3,21-10.5
			C532.1,448.5,541.5,462.7,541.5,474.3z"/>
		<path fill="#808285" d="M522.3,484c-11.6-5.8-21-19.9-21-31.5c0-5.7,2.3-9.7,6-11.7c-4.7,1.5-7.7,5.8-7.7,12.4
			c0,11.6,9.4,25.7,21,31.5c5.9,2.9,11.2,3.2,15,1.2C531.9,487.1,527.3,486.5,522.3,484z"/>
		<path fill="#2D3134" d="M531,467.4c0,4.8-3.9,6.8-8.8,4.4c-4.8-2.4-8.8-8.3-8.8-13.1s3.9-6.8,8.8-4.4
			C527.1,456.7,531,462.6,531,467.4z"/>
		<path opacity="0.39" d="M531,467.4c0,4.8-3.9,6.8-8.8,4.4c-4.8-2.4-8.8-8.3-8.8-13.1s3.9-6.8,8.8-4.4
			C527.1,456.7,531,462.6,531,467.4z"/>
		<path fill="#2D3134" d="M529.3,468.2c0,4.8-3.9,6.8-8.8,4.4s-8.8-8.3-8.8-13.1s3.9-6.8,8.8-4.4S529.3,463.4,529.3,468.2z"/>
		<path opacity="0.06" d="M548.5,477.9c0,15.5-12.5,21.7-28,14c-15.5-7.7-28-26.5-28-42c0-15.5,12.5-21.7,28-14
			C536,443.7,548.5,462.5,548.5,477.9z"/>
	</g>
	<polygon fill="#2D3134" points="545,450.6 545,488.1 570,475.6 570,438.1 	"/>
	<polygon opacity="0.06" points="545,450.6 545,488.1 570,475.6 570,438.1 	"/>
	<polygon fill="#06547A" points="65,214 65,240 99,223 99,197 	"/>
	<polygon opacity="0.29" points="65,214 65,240 99,223 99,197 	"/>
	<g>
		<path fill="#2D3134" d="M109,213.3c-7.5-3.7-14.2-4.2-19.2-1.9l0,0l-14,7l0,0c-5.4,2.4-8.8,7.9-8.8,15.9c0,15.5,12.5,34.3,28,42
			c7.6,3.8,14.6,4.2,19.6,1.8c0,0,13.9-6.9,15.1-7.6c4.5-2.7,7.3-7.9,7.3-15.2C137,239.8,124.5,221,109,213.3z"/>
		<path opacity="0.29" d="M114.9,277.9c2-1,13.7-6.8,14.8-7.5c4.5-2.7,7.3-7.9,7.3-15.2c0-6.2-2.1-13-5.5-19.3l-14,7
			c3.4,6.4,5.5,13.1,5.5,19.3C123,270,119.9,275.3,114.9,277.9z"/>
		<path fill="#999999" d="M112.9,257.1c0,9.9-8,13.9-17.9,8.9c-9.9-4.9-17.9-17-17.9-26.8s8-13.9,17.9-8.9
			C104.9,235.2,112.9,247.2,112.9,257.1z"/>
		<path opacity="0.15" d="M96.5,265.4c-9.9-4.9-17.9-17-17.9-26.8c0-4.9,1.9-8.3,5.1-9.9c-4,1.3-6.6,5-6.6,10.6
			c0,9.9,8,21.9,17.9,26.8c5,2.5,9.6,2.7,12.8,1C104.7,268,100.8,267.5,96.5,265.4z"/>
		<path fill="#2D3134" d="M103.9,251.2c0,4.1-3.3,5.8-7.5,3.7c-4.1-2.1-7.5-7.1-7.5-11.2c0-4.1,3.3-5.8,7.5-3.7
			C100.6,242.1,103.9,247.1,103.9,251.2z"/>
		<path opacity="0.29" d="M103.9,251.2c0,4.1-3.3,5.8-7.5,3.7c-4.1-2.1-7.5-7.1-7.5-11.2c0-4.1,3.3-5.8,7.5-3.7
			C100.6,242.1,103.9,247.1,103.9,251.2z"/>
		<path fill="#2D3134" d="M102.5,251.9c0,4.1-3.3,5.8-7.5,3.7c-4.1-2.1-7.5-7.1-7.5-11.2c0-4.1,3.3-5.8,7.5-3.7
			C99.1,242.8,102.5,247.8,102.5,251.9z"/>
		<path opacity="0.11" d="M123,262.3c0,15.5-12.5,21.7-28,14c-15.5-7.7-28-26.5-28-42s12.5-21.7,28-14S123,246.8,123,262.3z"/>
	</g>
	<g>
		<polygon fill="#06547A" points="263,174 123,244 123,275 209,318 349,248 349,217 		"/>
		<polygon opacity="0.11" points="123,244 123,275 209,318 209,287 		"/>
		<polygon opacity="0.29" points="349,217 349,248 209,318 209,287 		"/>
	</g>
	<g>
		<g>
			<path fill="#2D3134" d="M271.4,275.2c-7.5-3.7-14.2-4.2-19.2-1.9l0,0l-14,7l0,0c-5.4,2.4-8.8,7.9-8.8,15.9
				c0,15.5,12.5,34.3,28,42c7.6,3.8,14.6,4.2,19.6,1.8c0,0,13.9-6.9,15.1-7.6c4.5-2.7,7.3-7.9,7.3-15.2
				C299.4,301.8,286.8,283,271.4,275.2z"/>
			<path opacity="0.29" d="M277.3,339.8c2-1,13.7-6.8,14.8-7.5c4.5-2.7,7.3-7.9,7.3-15.2c0-6.2-2.1-13-5.5-19.3l-14,7
				c3.4,6.4,5.5,13.1,5.5,19.3C285.4,331.9,282.3,337.3,277.3,339.8z"/>
			<path fill="#999999" d="M275.3,319c0,9.9-8,13.9-17.9,8.9c-9.9-4.9-17.9-17-17.9-26.8s8-13.9,17.9-8.9
				C267.2,297.1,275.3,309.1,275.3,319z"/>
			<path opacity="0.15" d="M258.9,327.3c-9.9-4.9-17.9-17-17.9-26.8c0-4.9,1.9-8.3,5.1-9.9c-4,1.3-6.6,5-6.6,10.6
				c0,9.9,8,21.9,17.9,26.8c5,2.5,9.6,2.7,12.8,1C267.1,329.9,263.2,329.4,258.9,327.3z"/>
			<path fill="#2D3134" d="M266.3,313.2c0,4.1-3.3,5.8-7.5,3.7c-4.1-2.1-7.5-7.1-7.5-11.2s3.3-5.8,7.5-3.7
				C263,304,266.3,309,266.3,313.2z"/>
			<path opacity="0.29" d="M266.3,313.2c0,4.1-3.3,5.8-7.5,3.7c-4.1-2.1-7.5-7.1-7.5-11.2s3.3-5.8,7.5-3.7
				C263,304,266.3,309,266.3,313.2z"/>
			<path fill="#2D3134" d="M264.8,313.9c0,4.1-3.3,5.8-7.5,3.7c-4.1-2.1-7.5-7.1-7.5-11.2c0-4.1,3.3-5.8,7.5-3.7
				C261.5,304.7,264.8,309.7,264.8,313.9z"/>
			<path opacity="0.11" d="M285.4,324.2c0,15.5-12.5,21.7-28,14c-15.5-7.7-28-26.5-28-42c0-15.5,12.5-21.7,28-14
				C272.8,290,285.4,308.8,285.4,324.2z"/>
		</g>
	</g>
	<g>
		<g>
			<path fill="#2D3134" d="M252,284.7c-7.5-3.7-14.2-4.2-19.2-1.9l0,0l-14,7l0,0c-5.4,2.4-8.8,7.9-8.8,15.9c0,15.5,12.5,34.3,28,42
				c7.6,3.8,14.6,4.2,19.6,1.8c0,0,13.9-6.9,15.1-7.6c4.5-2.7,7.3-7.9,7.3-15.2C280,311.2,267.5,292.4,252,284.7z"/>
			<path opacity="0.29" d="M257.9,349.3c2-1,13.7-6.8,14.8-7.5c4.5-2.7,7.3-7.9,7.3-15.2c0-6.2-2.1-13-5.5-19.3l-14,7
				c3.4,6.4,5.5,13.1,5.5,19.3C266,341.4,262.9,346.7,257.9,349.3z"/>
			<path fill="#999999" d="M255.9,328.5c0,9.9-8,13.9-17.9,8.9s-17.9-17-17.9-26.8c0-9.9,8-13.9,17.9-8.9
				C247.9,306.6,255.9,318.6,255.9,328.5z"/>
			<path opacity="0.15" d="M239.5,336.8c-9.9-4.9-17.9-17-17.9-26.8c0-4.9,1.9-8.3,5.1-9.9c-4,1.3-6.6,5-6.6,10.6
				c0,9.9,8,21.9,17.9,26.8c5,2.5,9.6,2.7,12.8,1C247.7,339.4,243.8,338.9,239.5,336.8z"/>
			<path fill="#2D3134" d="M246.9,322.6c0,4.1-3.3,5.8-7.5,3.7c-4.1-2.1-7.5-7.1-7.5-11.2c0-4.1,3.3-5.8,7.5-3.7
				C243.6,313.5,246.9,318.5,246.9,322.6z"/>
			<path opacity="0.29" d="M246.9,322.6c0,4.1-3.3,5.8-7.5,3.7c-4.1-2.1-7.5-7.1-7.5-11.2c0-4.1,3.3-5.8,7.5-3.7
				C243.6,313.5,246.9,318.5,246.9,322.6z"/>
			<path fill="#2D3134" d="M245.5,323.3c0,4.1-3.3,5.8-7.5,3.7c-4.1-2.1-7.5-7.1-7.5-11.2s3.3-5.8,7.5-3.7
				C242.1,314.2,245.5,319.2,245.5,323.3z"/>
			<path opacity="0.11" d="M266,333.7c0,15.5-12.5,21.7-28,14s-28-26.5-28-42c0-15.5,12.5-21.7,28-14S266,318.2,266,333.7z"/>
		</g>
	</g>
	<g>
		<path fill="#2D3134" d="M652,370.7c-7.5-3.7-14.2-4.2-19.2-1.9l0,0l-14,7l0,0c-5.4,2.4-8.8,7.9-8.8,15.9c0,15.5,12.5,34.3,28,42
			c7.6,3.8,14.6,4.2,19.6,1.8c0,0,13.9-6.9,15.1-7.6c4.5-2.7,7.3-7.9,7.3-15.2C680,397.2,667.5,378.4,652,370.7z"/>
		<path opacity="0.29" d="M657.9,435.3c2-1,13.7-6.8,14.8-7.5c4.5-2.7,7.3-7.9,7.3-15.2c0-6.2-2.1-13-5.5-19.3l-14,7
			c3.4,6.4,5.5,13.1,5.5,19.3C666,427.3,662.9,432.7,657.9,435.3z"/>
		<path fill="#999999" d="M659,416c0,11.6-9.4,16.3-21,10.5c-11.6-5.8-21-19.9-21-31.5s9.4-16.3,21-10.5
			C649.6,390.3,659,404.4,659,416z"/>
		<path fill="#808285" d="M639.8,425.8c-11.6-5.8-21-19.9-21-31.5c0-5.7,2.3-9.7,6-11.7c-4.7,1.5-7.7,5.8-7.7,12.4
			c0,11.6,9.4,25.7,21,31.5c5.9,2.9,11.2,3.2,15,1.2C649.4,428.8,644.8,428.3,639.8,425.8z"/>
		<path fill="#2D3134" d="M648.5,409.2c0,4.8-3.9,6.8-8.8,4.4c-4.8-2.4-8.8-8.3-8.8-13.1s3.9-6.8,8.8-4.4
			C644.6,398.5,648.5,404.3,648.5,409.2z"/>
		<path opacity="0.29" d="M648.5,409.2c0,4.8-3.9,6.8-8.8,4.4c-4.8-2.4-8.8-8.3-8.8-13.1s3.9-6.8,8.8-4.4
			C644.6,398.5,648.5,404.3,648.5,409.2z"/>
		<path fill="#2D3134" d="M646.8,410c0,4.8-3.9,6.8-8.8,4.4s-8.8-8.3-8.8-13.1s3.9-6.8,8.8-4.4S646.8,405.2,646.8,410z"/>
		<path opacity="0.11" d="M666,419.7c0,15.5-12.5,21.7-28,14c-15.5-7.7-28-26.5-28-42c0-15.5,12.5-21.7,28-14
			C653.5,385.4,666,404.2,666,419.7z"/>
	</g>
	<g>
		<path fill="#06547A" d="M192,114L52,184v50l12.9,6.4l0-2.9c0.5-9.6,4.7-19.4,12.5-21.2c7.5-1.7,15,2.2,23.6,6.6
			c2.6,1.3,21,11,21,11l18,9l140-70v-15L192,114z"/>
		<path fill="#06547A" d="M208,19L68,89l-6.5,17.4C55.2,123,52,143.3,52,167v15l88,44l140-70V55L208,19z"/>
		<polygon opacity="0.29" points="140,243 280,173 280,158 140,228 		"/>
		<polygon opacity="0.29" points="140,226 280,156 280,55 140,125 		"/>
		<g>
			<path fill="#656565" d="M85.5,155c-0.5,0-1.1-0.2-1.7-0.5l-20.2-10.1c-2-1-4.3-5.2-4-6.8c1.5-9.5,3.8-18.2,6.8-25.9l4.6-12.1
				c0.4-1.1,1.1-1.6,2.2-1.6c0.8,0,1.7,0.3,2.7,0.8l27.9,14c1.8,0.9,4,4.6,4,6.5v35.1c0,0.1,0,0.2,0,0.3c-0.1,0-0.2,0-0.3-0.1
				L94.3,148c-1.2-0.6-2.2-0.9-3.2-0.9c-2.6,0-4.1,2-4.1,5.4C87,154.2,86.5,155,85.5,155z"/>
			<path fill="#2D3134" d="M73.1,99c0.4,0,1.2,0.1,2.3,0.7l27.9,14c1.4,0.7,3.5,4,3.5,5.6v33.8l-12-6c-1.3-0.6-2.5-1-3.6-1
				c-1.6,0-3,0.7-3.9,2c-0.8,1.1-1.2,2.6-1.2,4.4c0,1-0.3,1.4-0.3,1.5c0,0,0,0-0.2,0c-0.2,0-0.6-0.1-1.3-0.4L64,143.5
				c-1.7-0.9-3.7-4.6-3.5-5.8c1.5-9.4,3.8-18,6.7-25.7l4.6-12.1C72.1,99.2,72.5,99,73.1,99 M73.1,97c-1.5,0-2.6,0.8-3.1,2.2
				l-4.6,12.1c-3,7.8-5.3,16.6-6.8,26.1c-0.4,2.2,2.3,6.7,4.6,7.9l20.2,10.1c0.8,0.4,1.6,0.6,2.2,0.6c1.6,0,2.5-1.2,2.5-3.5
				c0-2.8,1.1-4.4,3.1-4.4c0.8,0,1.7,0.3,2.7,0.8l13.2,6.6c0.3,0.2,0.6,0.2,0.8,0.2c0.6,0,0.9-0.5,0.9-1.3v-35.1
				c0-2.4-2.5-6.4-4.6-7.4l-27.9-14C75.1,97.3,74,97,73.1,97L73.1,97z"/>
		</g>
		<path opacity="0.11" d="M140,228v15l-18-9c0,0-18.4-9.7-21-11c-8.6-4.5-16.1-8.3-23.6-6.6c-8.6,2-12.8,13.7-12.5,24.1L52,234v-50
			L140,228z"/>
		<polygon opacity="0.5" fill="#2D3134" points="109,165.5 109,170.5 99,165.5 99,160.5 		"/>
		<polygon opacity="0.5" fill="#FFFFFF" points="99,168 109,173 109,170.5 99,165.5 		"/>
		<polygon opacity="0.5" fill="#2D3134" points="122,217 120,216 120,115.3 122,116.3 		"/>
		<polygon opacity="0.5" fill="#FFFFFF" points="124,218 122,217 122,116.3 124,117.3 		"/>
		<path fill="#2D3134" d="M66.3,148.2c-1.1,0-2.2-0.3-3.1-0.9c-1.8-1.1-2.8-3-2.8-5.1V110c0-2.3,1.3-4.3,3.3-5.3l3.7-1.8l0.4,0.9
			l-3.7,1.8c-1.7,0.8-2.7,2.5-2.7,4.4v32.3c0,1.7,0.9,3.3,2.4,4.2c1.5,0.9,3.3,1,4.8,0.2l0.6-0.3l0.4,0.9l-0.6,0.3
			C68.2,148,67.3,148.2,66.3,148.2z"/>
		<path fill="#2D3134" d="M60.6,109.1l0.7-0.3c2.4-0.8,4.9,1,4.9,3.5v21.4c0,3.1-1.9,6-4.9,7.1l-0.9,0.3c-2.4,0.9-5.1-0.9-5.1-3.5
			v-21.5C55.5,113.1,57.5,110.2,60.6,109.1z"/>
		<path opacity="0.11" d="M68,89l72,36v101l-88-44v-15c0-23.7,3.2-44.1,9.5-60.6L68,89z"/>
		<path fill="#06547A" d="M247.4,15.5c-3-0.3-5.5,0.2-7.5,1.5l-0.1,0L101.2,86.3c-0.3,0.1-0.6,0.3-0.9,0.5L99.8,87
			c0,0-0.1,0.1-0.1,0.1C96,89.5,94,94.6,94,102l46,23l140-70V19L247.4,15.5z"/>
		<path opacity="0.11" d="M140,89v36l-46-23v0c0-11.5,4.9-17.5,13.4-16.5L140,89z"/>
		<polygon opacity="0.29" points="140,89 140,125 280,55 280,19 		"/>
	</g>
	<g>
		<polygon fill="#E5E5E5" points="294,170 154,240 154,250 580,463 720,393 720,383 		"/>
		<polygon fill="#CC291F" points="715,385.5 715,395 705,400 705,390.5 		"/>
		<polygon fill="#CC291F" points="700,393 700,402.5 690,407.5 690,398 		"/>
		<polygon fill="#CC291F" points="610,438 610,447.5 600,452.5 600,443 		"/>
		<polygon fill="#CC291F" points="595,445.5 595,455 585,460 585,450.5 		"/>
		<polygon opacity="0.11" points="154,240 154,250 580,463 580,453 		"/>
		<polygon opacity="0.29" points="720,383 720,393 580,463 580,453 		"/>
		<polygon opacity="0.2" points="154,240 154,250 580,463 580,453 		"/>
		<polygon opacity="0.15" points="274,180 266,184 692,397 700,393 		"/>
		<polygon opacity="0.15" points="182,226 174,230 600,443 608,439 		"/>
		<polygon fill="#FFFFFF" points="675,406 675,415 625,440 625,431 		"/>
		<polygon opacity="0.2" points="720,383 720,393 580,463 580,453 		"/>
	</g>
</g>
</svg>
