<?xml version="1.0" encoding="utf-8"?>
<!-- Generator: Adobe Illustrator 18.1.0, SVG Export Plug-In . SVG Version: 6.00 Build 0)  -->
<svg version="1.1" id="Layer_1" xmlns="http://www.w3.org/2000/svg" xmlns:xlink="http://www.w3.org/1999/xlink" x="0px" y="0px"
	 viewBox="0 0 640 400" enable-background="new 0 0 640 400" xml:space="preserve">
<g>
	<polygon opacity="0.3" points="74,145 204.9,70 640,289.2 500,359.2 	"/>
	<g>
		<path fill="#2D3134" d="M397,238.3c-7.5-3.7-14.2-4.2-19.2-1.9l0,0l-14,7l0,0c-5.4,2.4-8.8,7.9-8.8,15.9c0,15.5,12.5,34.3,28,42
			c7.6,3.8,14.6,4.2,19.6,1.8c0,0,13.9-6.9,15.1-7.6c4.5-2.7,7.3-7.9,7.3-15.2C425,264.8,412.5,246,397,238.3z"/>
		<path opacity="0.29" d="M402.9,302.9c2-1,13.7-6.8,14.8-7.5c4.5-2.7,7.3-7.9,7.3-15.2c0-6.2-2.1-13-5.5-19.3l-14,7
			c3.4,6.4,5.5,13.1,5.5,19.3C411,295,407.9,300.3,402.9,302.9z"/>
		<path fill="#999999" d="M404,283.6c0,11.6-9.4,16.3-21,10.5c-11.6-5.8-21-19.9-21-31.5c0-11.6,9.4-16.3,21-10.5S404,272,404,283.6
			z"/>
		<path fill="#808285" d="M384.8,293.4c-11.6-5.8-21-19.9-21-31.5c0-5.7,2.3-9.7,6-11.7c-4.7,1.5-7.7,5.8-7.7,12.4
			c0,11.6,9.4,25.7,21,31.5c5.9,2.9,11.2,3.2,15,1.2C394.4,296.4,389.8,295.9,384.8,293.4z"/>
		<path fill="#2D3134" d="M393.5,276.8c0,4.8-3.9,6.8-8.8,4.4c-4.8-2.4-8.8-8.3-8.8-13.1s3.9-6.8,8.8-4.4
			C389.6,266.1,393.5,271.9,393.5,276.8z"/>
		<path opacity="0.29" d="M393.5,276.8c0,4.8-3.9,6.8-8.8,4.4c-4.8-2.4-8.8-8.3-8.8-13.1s3.9-6.8,8.8-4.4
			C389.6,266.1,393.5,271.9,393.5,276.8z"/>
		<path fill="#2D3134" d="M391.8,277.6c0,4.8-3.9,6.8-8.8,4.4s-8.8-8.3-8.8-13.1s3.9-6.8,8.8-4.4S391.8,272.8,391.8,277.6z"/>
		<path opacity="0.11" d="M411,287.3c0,15.5-12.5,21.7-28,14c-15.5-7.7-28-26.5-28-42c0-15.5,12.5-21.7,28-14S411,271.8,411,287.3z"
			/>
	</g>
	<g>
		<path fill="#2D3134" d="M454.5,268.9c-7.5-3.7-14.2-4.2-19.2-1.9l0,0l-14,7l0,0c-5.4,2.4-8.8,7.9-8.8,15.9c0,15.5,12.5,34.3,28,42
			c7.6,3.8,14.6,4.2,19.6,1.8c0,0,13.9-6.9,15.1-7.6c4.5-2.7,7.3-7.9,7.3-15.2C482.5,295.5,470,276.7,454.5,268.9z"/>
		<path opacity="0.29" d="M460.4,333.5c2-1,13.7-6.8,14.8-7.5c4.5-2.7,7.3-7.9,7.3-15.2c0-6.2-2.1-13-5.5-19.3l-14,7
			c3.4,6.4,5.5,13.1,5.5,19.3C468.5,325.6,465.4,331,460.4,333.5z"/>
		<path fill="#999999" d="M461.5,314.3c0,11.6-9.4,16.3-21,10.5c-11.6-5.8-21-19.9-21-31.5s9.4-16.3,21-10.5
			C452.1,288.5,461.5,302.7,461.5,314.3z"/>
		<path fill="#808285" d="M442.3,324c-11.6-5.8-21-19.9-21-31.5c0-5.7,2.3-9.7,6-11.7c-4.7,1.5-7.7,5.8-7.7,12.4
			c0,11.6,9.4,25.7,21,31.5c5.9,2.9,11.2,3.2,15,1.2C451.9,327.1,447.3,326.5,442.3,324z"/>
		<path fill="#2D3134" d="M451,307.4c0,4.8-3.9,6.8-8.8,4.4c-4.8-2.4-8.8-8.3-8.8-13.1s3.9-6.8,8.8-4.4
			C447.1,296.7,451,302.6,451,307.4z"/>
		<path opacity="0.29" d="M451,307.4c0,4.8-3.9,6.8-8.8,4.4c-4.8-2.4-8.8-8.3-8.8-13.1s3.9-6.8,8.8-4.4
			C447.1,296.7,451,302.6,451,307.4z"/>
		<path fill="#2D3134" d="M449.3,308.2c0,4.8-3.9,6.8-8.8,4.4s-8.8-8.3-8.8-13.1s3.9-6.8,8.8-4.4S449.3,303.4,449.3,308.2z"/>
		<path opacity="0.11" d="M468.5,317.9c0,15.5-12.5,21.7-28,14c-15.5-7.7-28-26.5-28-42c0-15.5,12.5-21.7,28-14
			C456,283.7,468.5,302.5,468.5,317.9z"/>
	</g>
	<polygon fill="#2D3134" points="465,290.6 465,328.1 490,315.6 490,278.1 	"/>
	<polygon opacity="0.11" points="465,290.6 465,328.1 490,315.6 490,278.1 	"/>
	<g>
		<path fill="#2D3134" d="M572,210.7c-7.5-3.7-14.2-4.2-19.2-1.9l0,0l-14,7l0,0c-5.4,2.4-8.8,7.9-8.8,15.9c0,15.5,12.5,34.3,28,42
			c7.6,3.8,14.6,4.2,19.6,1.8c0,0,13.9-6.9,15.1-7.6c4.5-2.7,7.3-7.9,7.3-15.2C600,237.2,587.5,218.4,572,210.7z"/>
		<path opacity="0.29" d="M577.9,275.3c2-1,13.7-6.8,14.8-7.5c4.5-2.7,7.3-7.9,7.3-15.2c0-6.2-2.1-13-5.5-19.3l-14,7
			c3.4,6.4,5.5,13.1,5.5,19.3C586,267.3,582.9,272.7,577.9,275.3z"/>
		<path fill="#999999" d="M579,256c0,11.6-9.4,16.3-21,10.5c-11.6-5.8-21-19.9-21-31.5s9.4-16.3,21-10.5
			C569.6,230.3,579,244.4,579,256z"/>
		<path fill="#808285" d="M559.8,265.8c-11.6-5.8-21-19.9-21-31.5c0-5.7,2.3-9.7,6-11.7c-4.7,1.5-7.7,5.8-7.7,12.4
			c0,11.6,9.4,25.7,21,31.5c5.9,2.9,11.2,3.2,15,1.2C569.4,268.8,564.8,268.3,559.8,265.8z"/>
		<path fill="#2D3134" d="M568.5,249.2c0,4.8-3.9,6.8-8.8,4.4c-4.8-2.4-8.8-8.3-8.8-13.1c0-4.8,3.9-6.8,8.8-4.4
			C564.6,238.5,568.5,244.3,568.5,249.2z"/>
		<path opacity="0.29" d="M568.5,249.2c0,4.8-3.9,6.8-8.8,4.4c-4.8-2.4-8.8-8.3-8.8-13.1c0-4.8,3.9-6.8,8.8-4.4
			C564.6,238.5,568.5,244.3,568.5,249.2z"/>
		<path fill="#2D3134" d="M566.8,250c0,4.8-3.9,6.8-8.8,4.4c-4.8-2.4-8.8-8.3-8.8-13.1s3.9-6.8,8.8-4.4S566.8,245.2,566.8,250z"/>
		<path opacity="0.11" d="M586,259.7c0,15.5-12.5,21.7-28,14c-15.5-7.7-28-26.5-28-42s12.5-21.7,28-14S586,244.2,586,259.7z"/>
	</g>
	<polygon fill="#2D3134" points="582.5,232.4 582.5,269.9 607.5,257.4 607.5,219.9 	"/>
	<polygon opacity="0.11" points="582.5,232.4 582.5,269.9 607.5,257.4 607.5,219.9 	"/>
	<g>
		<polygon fill="#2D3134" points="127.2,163 139.2,157 127.2,151 115.2,157 		"/>
		<g>
			<polygon fill="#2D3134" points="132.9,140 177,117.9 177,110.3 170.3,107 126.2,129.1 126.2,136.7 			"/>
			<polygon opacity="0.29" points="177,110.3 177,117.9 132.9,140 132.9,132.4 			"/>
			<polygon opacity="0.11" points="126.2,129.1 126.2,136.7 132.9,140 132.9,132.4 			"/>
		</g>
		<g>
			<polygon fill="#2D3134" points="127.2,160 133.2,157 133.2,91 127.2,88 121.2,91 121.2,157 			"/>
			<polygon opacity="0.29" points="133.2,91 133.2,157 127.2,160 127.2,94 			"/>
			<polygon opacity="0.11" points="121.2,91 121.2,157 127.2,160 127.2,94 			"/>
		</g>
	</g>
	<g>
		<polygon fill="#E5E5E5" points="214,10 74,80 74,90 500,303 640,233 640,223 		"/>
		<polygon fill="#CC291F" points="635,225.5 635,235 625,240 625,230.5 		"/>
		<polygon fill="#CC291F" points="620,233 620,242.5 610,247.5 610,238 		"/>
		<polygon fill="#CC291F" points="530,278 530,287.5 520,292.5 520,283 		"/>
		<polygon fill="#CC291F" points="515,285.5 515,295 505,300 505,290.5 		"/>
		<polygon opacity="0.11" points="74,80 74,90 500,303 500,293 		"/>
		<polygon opacity="0.29" points="640,223 640,233 500,303 500,293 		"/>
		<polygon opacity="0.2" points="74,80 74,90 500,303 500,293 		"/>
		<polygon opacity="0.15" points="194,20 186,24 612,237 620,233 		"/>
		<polygon opacity="0.15" points="102,66 94,70 520,283 528,279 		"/>
		<polygon fill="#FFFFFF" points="595,246 595,255 545,280 545,271 		"/>
		<polygon opacity="0.2" points="640,223 640,233 500,303 500,293 		"/>
	</g>
</g>
</svg>
