<?xml version="1.0" encoding="utf-8"?>
<!-- Generator: Adobe Illustrator 18.1.0, SVG Export Plug-In . SVG Version: 6.00 Build 0)  -->
<svg version="1.1" id="Layer_1" xmlns="http://www.w3.org/2000/svg" xmlns:xlink="http://www.w3.org/1999/xlink" x="0px" y="0px"
	 viewBox="0 0 80 40" enable-background="new 0 0 80 40" xml:space="preserve">
<path fill="#FFCC00" d="M40,0L6,17l34,17l34-17L40,0z M68,16H12l4-2h48L68,16z M60,12H20l4-2h32L60,12z M28,8l4-2h16l4,2H28z M44,4
	h-8l4-2L44,4z M12,18h56l-4,2H16L12,18z M20,22h40l-4,2H24L20,22z M52,26l-4,2H32l-4-2H52z M36,30h8l-4,2L36,30z"/>
</svg>
