<?xml version="1.0" encoding="utf-8"?>
<!-- Generator: Adobe Illustrator 18.1.0, SVG Export Plug-In . SVG Version: 6.00 Build 0)  -->
<svg version="1.1" id="Layer_1" xmlns="http://www.w3.org/2000/svg" xmlns:xlink="http://www.w3.org/1999/xlink" x="0px" y="0px"
	 viewBox="0 0 80 160" enable-background="new 0 0 80 160" xml:space="preserve">
<g>
	
		<ellipse transform="matrix(0.9564 -0.2919 0.2919 0.9564 -38.4514 18.1466)" opacity="0.2" cx="41.6" cy="137.9" rx="25" ry="13.7"/>
	<path fill="#2D3134" d="M44.1,110.7c0.1,0.5,0,8.1,0.7,9.9s3.3,6.8,3.3,6.8l-7.1,2.9c0,0-3.1-9.5-2.5-12.9
		C39.1,113.9,44.1,110.7,44.1,110.7z"/>
	<path opacity="0.2" d="M44.1,110.7c0.1,0.5,0,8.1,0.7,9.9s3.3,6.8,3.3,6.8l-7.1,2.9c0,0-3.1-9.5-2.5-12.9
		C39.1,113.9,44.1,110.7,44.1,110.7z"/>
	<path fill="#2D3134" d="M64.8,53.9c0.8-3.5,0.2-5.6-1.3-7.1c-1.6-1.6-4.9-1.8-6.6-2.3c-1.7-0.5-4.4-2.9-8.2-1.9
		c-3.8,1-5.3,2.1-5.3,2.1l-3.3-7.1c0,0-2.3,3.6-2.4,6.9c-0.1,3.3,0.9,5.8,0.9,5.8s-2.2,1.9-2.9,10.1c-0.7,8.2-2.4,16.1-6.2,23.1
		c-3.8,7.1-8.5,14.6-9.9,24.4c-1.3,9.9-4,22.6-1.5,28.6c2.5,6,4.7,6.3,4.7,6.3s-4.1,5.4-1.1,5.9c3,0.5,6.6-3.1,6.6-3.1
		s4.4,2.2,7.8,1.3c3.5-0.9,6.5-4.6,6.5-4.6s-0.8,3.7,2.2,2.4c3-1.2,9.2-5.2,9.2-5.2s4.3,1,6.9,0.4c2.6-0.6,3.1-3.7,1.8-4.9
		c-1.3-1.2-2.8-2.1-4.4-1.7c-1.6,0.4-3.7,1.7-3.9,1.9c0.5-0.3,8.4-5.6,6.2-9.6c-1.3-2.3-3.8-2.8-6.2-2.6c0.3-1.7,1.8-10.1,1.9-11.7
		c0.1-1.8,0.4-7.9,1.5-10.1c1.2-2.2,4.2-7,3.6-11.6c-0.7-4.6-6.7-11-7.5-14.2c-0.8-3.3-1-12.2,0.8-13.8C56.4,60.2,64,57.4,64.8,53.9
		z M42.3,125.9c0,0-2.9-4.7-2.1-8.3c0.8-3.7,9.4-9.9,9.4-9.9l-0.2,16.4C47,124.8,42.3,125.9,42.3,125.9z"/>
	<path fill="#825012" d="M54.3,55.5c-1.6,1.2-4.3-2.6-3.3-6s1.9-6.3,1.9-6.3s0.5,3.2,0.9,4.2S56,54.3,54.3,55.5z"/>
	<path fill="#825012" d="M54,62.7c0.2-0.4,0.4-0.8,0.6-1c1.7-1.5,9.4-4.3,10.2-7.8c0.8-3.5,0.2-5.6-1.3-7.1
		c-0.2-0.2-0.4-0.4-0.7-0.5c-1.5,1.2-2.7,4.4-4.1,6.8c-1.5,2.7-4.9,5.4-4.9,7.7C53.8,61.3,53.9,62,54,62.7z"/>
	<g>
		<path fill="#825012" d="M60.6,125.8c-2.2-4.1-8.5-2.4-10.8-1.7c-0.5,0.1-7.4,1.9-7.4,1.9l-1.9,5.2l20.4-4.9
			C60.8,126.1,60.7,125.9,60.6,125.8z"/>
	</g>
	<path fill="#825012" d="M58.4,133.5c-1.2,0.3-2.7,1.1-3.5,1.6c-0.1,0.1-0.2,0.1-0.2,0.2c-0.6,0.6-6.3,5.9-6.3,5.9l5.6-1.8l-0.1,0.4
		c0.1,0,0.1-0.1,0.1-0.1s4.3,1,6.9,0.4c2.6-0.6,3.1-3.7,1.8-4.9C61.5,133.9,60,133.1,58.4,133.5z"/>
	<path fill="#262626" d="M59.1,45c0,0,3.6-1.8,5.3-0.2c1.7,1.6,0.9,3.8,0.1,3.8C63.7,48.6,59.3,45.6,59.1,45z"/>
</g>
</svg>
