<?xml version="1.0" encoding="utf-8"?>
<!-- Generator: Adobe Illustrator 18.1.0, SVG Export Plug-In . SVG Version: 6.00 Build 0)  -->
<svg version="1.1" id="Layer_1" xmlns="http://www.w3.org/2000/svg" xmlns:xlink="http://www.w3.org/1999/xlink" x="0px" y="0px"
	 viewBox="0 0 160 160" enable-background="new 0 0 160 160" xml:space="preserve">
<g>
	<path opacity="0.2" d="M88.3,145.3c11.9-4.6,42.4-13.4,27.3-25.6c-14.1-11.4-42.4,0.5-54,4.8c-17.1,6.4-36.5,11.9-24.4,21.7
		C52.9,158.9,66,153.9,88.3,145.3z"/>
	<path fill="#825012" d="M89,88.4c0,0,1,9.9,1.3,12.8c0.3,2.9,0.1,8.1,0.9,8.8c0.8,0.6,2.6,3.7,2.9,4.7c0.3,1.1,0.4,4.2,2.1,5
		c1.6,0.8,8.4,1.4,9-1.3c0.6-2.7-3.4-4.1-4.9-4.9c-1.5-0.8-3.6-4.7-3.8-6.7c-0.3-2-0.1-19.4-0.1-19.4L89,88.4z"/>
	<path opacity="0.2" d="M89,88.4c0,0,1,9.9,1.3,12.8c0.3,2.9,0.1,8.1,0.9,8.8c0.8,0.6,2.6,3.7,2.9,4.7c0.3,1.1,0.4,4.2,2.1,5
		c1.6,0.8,8.4,1.4,9-1.3c0.6-2.7-3.4-4.1-4.9-4.9c-1.5-0.8-3.6-4.7-3.8-6.7c-0.3-2-0.1-19.4-0.1-19.4L89,88.4z"/>
	<path fill="#2D3134" d="M124.9,37.1l7.6-6.7c0,0-0.9,6.8-0.4,8c0.5,1.2,2.2,1.8,3.8,2.4c1.6,0.6,3.2,1,3.5,2.7
		c0.3,1.7-0.3,2.8,0,3.2c0.3,0.4,7,4.7,7.5,5.5s1.5,4.6-1.7,7c-3.2,2.4-5.3,2.7-9.3,1.3c-3.9-1.4-4.2-2.9-5.7-2.2
		c-1.5,0.8-8.4,6-10.7,7.8s-4.3,4-4.5,5.6c-0.1,1.6,0.5,9.3-3,14.9c-3.6,5.6-5.7,7.4-5.8,9.7s0.2,22.6,0.9,24.4s2.7,5.9,3.8,6.1
		c1.1,0.1,3.6,0.4,4.1,2.7s-1.3,4.8-3.1,4.8c-1.8,0-5.6-1.1-6-2.8c-0.4-1.8-1.7-6.2-2.5-7.7c-0.8-1.5-2.2-2-2.4-3.3
		c-0.1-1.3-1.5-14.1-1.6-16.6c-0.1-2.5-0.7-4.2-1.2-5.5s-1.7-4.3-1-5.5c0.8-1.3,2.3-3.6,2.3-3.6s-7.1,1.8-13,0.6
		c-5.9-1.2-12.7-2.6-15.5-2.6c-2.7,0-7,1.3-7,1.3s1.3,14.5-1.3,21.5c-2.6,7-8.6,16.8-8.9,22.3c-0.4,5.5,0,12.2,1,12.7
		c1,0.6,4.5-0.2,4.6,3.3c0,3.5-5.1,4.6-7.4,4.2s-2.5-1.4-2.8-5.3c-0.2-3.9-0.8-14.4-0.8-16c0-1.5,0.5-2.7,1.6-6.3
		c1.1-3.6,3.9-13.7,3.8-15.3c-0.1-1.7-5.2-11.9-8.7-15c-3.5-3.1-5.9-5.8-5.9-5.8s-7.5,5.3-9.3,6.9s-14.1,9.8-14,10.7
		c0.1,0.9,0,3.4-2.1,3.5c-2,0.1-7.1-0.4-6.4-3.6c0.7-3.2,2.9-3.8,3.9-4.1s9.7-6.2,11.2-7.4c1.4-1.2,3.8-3.1,5.3-4
		c1.5-0.9,7.7-6.7,7.7-6.7s-1.7-3.2,4-8.9c5.7-5.7,9.5-8.1,18.3-9.8c8.8-1.7,27.3-7.5,31.1-9.3s9.2-3.6,14.7-5
		c6.7-1.7,10.2-5.8,13.1-8.7S124.9,37.1,124.9,37.1z"/>
	<path fill="#2D3134" d="M37.5,79.2c0,0-5.6,0.1-4.9,2.2c0.8,2.1,3.9,1.5,5.1,1.3C38.9,82.5,37.5,79.2,37.5,79.2z"/>
	<path fill="#825012" d="M124,48.7c-1.9,0-3.7-4.9-1.7-7.8c2-2.9,4.3-4.6,4.3-4.6s-0.1,2,0.3,4.4C127.4,43.1,127.9,48.7,124,48.7z"
		/>
	<path fill="#825012" d="M123.5,63c2.7-2,5.7-4.2,6.7-4.7c1.5-0.8,1.8,0.8,5.7,2.2c3.9,1.4,6.1,1.1,9.3-1.3c3.2-2.4,2.2-6.2,1.7-7
		c-0.1-0.2-0.6-0.6-1.3-1.1c-3.4,0.9-4,2.2-9.4,2.3c-5.6,0.1-8.3-1.8-11.4-0.3c-3.1,1.5-0.5,5.1-1.3,9
		C123.6,62.4,123.6,62.7,123.5,63z"/>
	<path d="M136.9,48.1c-0.2-0.9-2.5-0.4-2.3,0.2C134.8,48.9,137.2,49.2,136.9,48.1z"/>
	<path fill="#825012" d="M55,145c-0.8-0.5-1.3-5.2-1.1-10c-1.4-0.7-2.8-2.1-3.4-4.3c-0.9-3.2,3.1-12.8,5.4-19.5
		c2.3-6.7-5-16.8-7.6-21.9c-2.6-5.1-8.5-4.4-9.7-4C37.2,85.7,28.1,93,26,93.9c-1.1,0.5-4.4,2.3-7.6,4c-2.9,2-6.2,4.1-6.8,4.3
		c-1,0.2-3.2,0.9-3.9,4.1c-0.7,3.2,4.4,3.7,6.4,3.6c2-0.1,2.2-2.5,2.1-3.5c-0.1-0.9,12.2-9.1,14-10.7s9.3-6.9,9.3-6.9
		s2.4,2.7,5.9,5.8c3.5,3.1,8.6,13.3,8.7,15c0.1,1.7-2.8,11.7-3.8,15.3c-1.1,3.6-1.6,4.8-1.6,6.3c0,1.5,0.6,12.1,0.8,16
		c0.2,3.9,0.5,4.9,2.8,5.3s7.5-0.7,7.4-4.2C59.5,144.8,56,145.6,55,145z"/>
	<path fill="#825012" d="M110.9,126.7c-1.1-0.1-3.1-4.2-3.8-6.1c-0.1-0.3-0.2-1.4-0.3-2.8c-0.6-0.3-1.1-0.5-1.5-0.7
		c-2.3-1.2-4.2-6.5-5.5-11l-0.1,0.3c0.4,4.6,1.3,13,1.4,14c0.1,1.3,1.5,1.8,2.4,3.3c0.8,1.5,2.1,5.9,2.5,7.7c0.4,1.8,4.2,2.8,6,2.8
		c1.8,0,3.6-2.5,3.1-4.8S112,126.9,110.9,126.7z"/>
	<path fill="#262626" d="M144.6,51c-1.6,0.5,0.3,2.8,0.9,4.1s1.7,1.5,2.1,1.2s1.4-1.9,1.3-2.7C148.9,52.8,146.4,50.5,144.6,51z"/>
</g>
</svg>
