<?xml version="1.0" encoding="utf-8"?>
<!-- Generator: Adobe Illustrator 18.1.0, SVG Export Plug-In . SVG Version: 6.00 Build 0)  -->
<svg version="1.1" id="Layer_1" xmlns="http://www.w3.org/2000/svg" xmlns:xlink="http://www.w3.org/1999/xlink" x="0px" y="0px"
	 viewBox="0 0 80 160" enable-background="new 0 0 80 160" xml:space="preserve">
<g>
	
		<ellipse transform="matrix(0.9564 -0.2919 0.2919 0.9564 -38.1725 17.888)" opacity="0.2" cx="40.9" cy="136.9" rx="26.8" ry="14.6"/>
	<path fill="#825012" d="M41.1,114.4c0,0-12.3,0.8-17.3,2.2s-3.7,8.6,0.8,11.3c4.5,2.7,7.4,3.8,7.4,3.8s-7.3,0.1-9.2,1
		c-1.9,0.9-6,2.7-5.6,5.4s3.8,4.1,6.3,3.1c2.4-1,6.2-4.2,8.3-4.7s8.3,0,8.8-0.5c0.5-0.5,0.9-1.3,0.9-1.3l3.5,0.9l12.7-12.9
		L41.1,114.4z"/>
	<path opacity="0.2" d="M41.1,114.4c0,0-12.3,0.8-17.3,2.2s-3.7,8.6,0.8,11.3c4.5,2.7,7.4,3.8,7.4,3.8s-7.3,0.1-9.2,1
		c-1.9,0.9-6,2.7-5.6,5.4s3.8,4.1,6.3,3.1c2.4-1,6.2-4.2,8.3-4.7s8.3,0,8.8-0.5c0.5-0.5,0.9-1.3,0.9-1.3l3.5,0.9l12.7-12.9
		L41.1,114.4z"/>
	<path fill="#825012" d="M63.7,127.2c-0.2-2.9-4.9-6.2-10.4-4.4c-5.5,1.8-10.4,7.2-10,10.4c0.4,3.2,4.1,6.8,4.1,6.8
		s-4.3-0.1-5.9,1.3c-1.7,1.4-1.4,2.4-2.7,4.2c-1.3,1.8-3.1,4.2-0.3,5.2c2.8,1,5,0.9,6.4-0.6c1.4-1.5,1.8-4.9,1.8-4.9
		s5.1-1.2,6.4-1.9c2.6-1.4,1.4-4.6,1.4-4.6s4.3-1,6.6-4.2C63.4,131.3,64,131.1,63.7,127.2z"/>
	<path fill="#2D3134" d="M14.5,64.7c2.5-2.4,7.6-5.6,8.1-6.7c0.5-1.2-0.7-5.2,0.4-5.9s3.5-1.4,3.5-1.4s0-2.1,0.8-4.8
		c0.8-2.7,1-5.3,1-5.3s2.3,2.6,2.8,4.1c0.5,1.5,2.2,3.5,2.2,3.5s2.3-0.7,4.5,0.4c1.9,0.9,2.5,1.8,2.5,1.8l0.9-4.4
		c0,0,2.5,2.6,3.1,6.1c0.5,3,0.4,3.8,0.4,3.8s2.2,4.6,2.4,9.5c0.2,4.9,2.3,9.8,5.6,14.3s9,11,10.1,17.3c1.1,6.3,4.2,17.6,3.9,22.7
		c-0.3,5.4-0.8,13.8-5.7,17.2c-3.3,2.3-6.4,1.8-6.4,1.8s-4.9-4.2-5-5.1s7-6.8,8.8-8.3c1.8-1.4,0.5-2.6,0.5-2.6s-4.3-1.1-6.2-1.5
		c-4.6-1.2-9-4-9-4s-1.5,5.3-1.3,8.7c0.3,3.4,0.4,6.9-1.1,9.1s-3.4,6.4-3.5,8.7s-0.6,5.3-2.9,6.4c-2.3,1.2-6.6-0.2-6.6-1.5
		s1.5-3.2,3-4.8c1.5-1.6,5.3-10.1,5.7-12.6c0.4-2.5,0.5-18.2,0.5-18.2l-5.6-2c0,0,0.1,8.7,0.2,11.4c0.1,2.8-0.2,6.3-1.5,10.2
		c-1.3,3.9-2.6,9.3-3.1,10.7c-0.5,1.3-2,3.2-3.9,3.5c-3.2,0.4-6.2-1.5-5.3-3.3c0.9-1.7,3.7-3.8,5-6c1.4-2.4,3.2-6.2,3.4-10.3
		c0.3-8-1.9-19.9-2.3-22.1c-0.4-2.2-3-4.7-2-11c1-6.3,5.1-10.9,5.2-13.1c0.1-2.2,1.3-8.3-0.4-9s-6.3,2-10.5-1.3
		C12.5,67.5,14.5,64.7,14.5,64.7z"/>
	<path fill="#825012" d="M39.9,65.8c-0.4-1-7.1-1-12.8-2.1c-3.5-0.7-7.8-0.8-10.5-0.7c-0.8,0.6-1.5,1.2-2.1,1.8c0,0-2,2.8,2.1,6.1
		c4.1,3.3,8.8,0.5,10.5,1.3c0.5,0.2,0.8,1,0.9,2c0.6,1.2,1.6,2.5,2.6,2.2C32.4,75.8,40.3,66.8,39.9,65.8z"/>
	<path d="M28.5,59.5c-0.1-0.7,3.8-0.7,3.9-0.1S28.7,60.8,28.5,59.5z"/>
	<path fill="#825012" d="M39.7,59.9c-1.4-0.7-1.2-3.9,0-6.3c1.2-2.3,2.1-5.3,2.1-5.3s2.4,4.7,2,7.4C43.4,58.3,42,61,39.7,59.9z"/>
	<path fill="#262626" d="M15.8,66.9c-0.7-0.6-1.9-2.2-1.3-3.7c0.6-1.4,4-2.9,5.6-1.6s0.2,4.1-0.5,4.9C18.8,67.4,16.9,67.8,15.8,66.9
		z"/>
</g>
</svg>
