<?xml version="1.0" encoding="utf-8"?>
<!-- Generator: Adobe Illustrator 18.1.0, SVG Export Plug-In . SVG Version: 6.00 Build 0)  -->
<svg version="1.1" id="Layer_1" xmlns="http://www.w3.org/2000/svg" xmlns:xlink="http://www.w3.org/1999/xlink" x="0px" y="0px"
	 viewBox="0 0 160 160" enable-background="new 0 0 160 160" xml:space="preserve">
<g>
	<path opacity="0.2" d="M91.6,140.7c11.2-6.1,40.3-18.8,23.7-28.9c-15.5-9.5-42,6-52.9,11.8C46.3,132.2,30,143.8,39.9,150
		C50,156.4,70.5,152.1,91.6,140.7z"/>
	<path fill="#825012" d="M86.5,85.4c0,1.5,0.6,11.2,0.6,13.8c0,2.6-0.3,7.7,0,8.2c0.3,0.5,1.1,0.8,1.6,2.5c0.6,1.7,0.4,6.1,2.1,6.7
		c1.7,0.7,6.6-1.3,6.7-3.2c0.1-1.8-2.7-2.8-3.4-3.7s-2.1-4.9-2.1-8.5c0-3.6,0.9-16,0.9-16L86.5,85.4z"/>
	<path opacity="0.2" d="M86.5,85.4c0,1.5,0.6,11.2,0.6,13.8c0,2.6-0.3,7.7,0,8.2c0.3,0.5,1.1,0.8,1.6,2.5c0.6,1.7,0.4,6.1,2.1,6.7
		c1.7,0.7,6.6-1.3,6.7-3.2c0.1-1.8-2.7-2.8-3.4-3.7s-2.1-4.9-2.1-8.5c0-3.6,0.9-16,0.9-16L86.5,85.4z"/>
	<path fill="#2D3134" d="M105.7,28.1c0,0-0.3-5.4,1-8s2.9-5.3,2.9-5.3s0.4,3.5,1,5.3c0.6,1.8,1,2.2,1,2.2s3.8-0.6,5.7-0.6
		s3.5,0.8,3.5,0.8l2-2.9c0,0-0.1,3.4,0.3,3.7c0.4,0.3,2.1,1.1,2.6,1.5c0.5,0.4,0.6,1,0.6,1s2.4,0.7,3.5,2.2s3.8,5.7,0.6,8.3
		c-3.2,2.6-8.1,1.6-10.2,4.5c-2.1,2.9-8.8,17.1-9,21.2c-0.3,4.2,2.8,8.9,1.4,14.2s-3.8,9.4-4,12.8c-0.2,3.5,0.2,22.6,0.6,24.6
		c0.4,2.1,2.8,4.6,4.4,5.4c1.5,0.8,5.5,2.8,2.8,5.3c-2.8,2.5-7.8,2-8.3,0.4c-0.6-1.5-1.1-5.8-1.8-7.2c-0.7-1.3-1.8-1.3-2.1-3.8
		s-2.9-20.7-3.1-22.6s-1-3.6-0.5-4.6c0.4-1,1.3-2.8,1.3-2.8s-7.3,3.8-12.3,3.5c-5-0.3-11.6-1.8-15.1-1.5c-3.5,0.3-5.9,1.6-5.9,1.6
		s2.1,14.9-1.5,22.9c-3.5,8-8.3,15.3-8.7,21.5c-0.3,6.2,0.4,12.2,1.3,12.5c0.8,0.3,5.6-0.1,4.4,4.4c-1.2,4.5-8.7,3.5-9.7,1.6
		c-1-1.9,0.1-3.7-0.3-6.3c-0.3-2.6-1.3-13.7-1.3-14.7s5.8-18.9,5.8-20.5s-2.9-7.9-2.9-7.9s-4.9,10.4-6.2,13.4s-4.2,11.8-4.4,14.3
		c-0.1,2.5-0.6,7.5-0.1,7.9c0.5,0.4,3.3,0.2,3.8,2.6c0.5,2.4-3.5,3.6-4.6,4.1s-4.5,1.4-5.1-0.4c-0.6-1.8,1.4-13.3,1.4-15.1
		c0-1.8-0.1-4,1.2-6.4c1.3-2.4,5.7-16.8,5-21.6c-0.7-4.8-5.8-15.1-5.1-19.7c0.7-4.6,5.5-11.9,14.9-14.7c3.4-1,10.1-1.1,15.6-3.7
		c5.5-2.6,21.4-9.5,25.2-16.2S105.7,28.1,105.7,28.1z"/>
	<path fill="#825012" d="M122,33.2c-0.8,0.9-3.8-4.5-2.2-7.5s2.5-3.5,2.5-3.5s0.5,3.1,0.2,5.5S123,32.1,122,33.2z"/>
	<path fill="#825012" d="M130.3,36.3c2.6-2.1,1.3-5.2,0.2-7.1c-2.5,0.6-3.5,1.7-4.6,3.6c-1.2,2.1-4.6,3.2-5.3,6.1
		c-0.1,0.5-0.1,0.9,0.1,1.3C122.9,38,127.3,38.6,130.3,36.3z"/>
	<path fill="#2D3134" d="M42.4,78.9c-1.9,1.3-4.2,2.9-3.2,4.5c1.1,1.6,3.1-0.5,4.9-1.2s3-1.3,3-1.3L42.4,78.9z"/>
	<path fill="#825012" d="M113.5,119.1c-1.5-0.8-3.9-3.3-4.4-5.4c0-0.1-0.1-0.3-0.1-0.5c-0.4-0.2-0.7-0.4-0.9-0.6
		c-2.2-1.5-3.2-5.9-4-11.3s-0.5-12.4,0.6-16.1c1.1-3.7,2.9-7.5,1.1-7.3c-1.8,0.2-3.9,5.9-3.9,5.9s-0.8,1.7-1.3,2.8
		c-0.4,1,0.3,2.8,0.5,4.6c0.2,1.9,2.8,20.1,3.1,22.6c0.3,2.4,1.3,2.4,2.1,3.8c0.7,1.3,1.2,5.6,1.8,7.2c0.6,1.5,5.6,2.1,8.3-0.4
		S115,119.9,113.5,119.1z"/>
	<path fill="#825012" d="M59.6,144.3c-0.6-0.2-1.2-3.3-1.3-7.3c-1.2-0.7-2.5-1.8-2.8-3c-0.7-2.5,0-9.6,3.4-17.1s1.8-12.4,0.7-15.6
		c-1.2-3.2-6.6-15.8-10.1-16.3c-2.6-0.4-5,1.6-6.3,3.5c1.3,4.1,3.1,8.5,3.5,11.2c0.7,4.8-3.7,19.2-5,21.6c-1.3,2.4-1.2,4.6-1.2,6.4
		c0,1.8-2,13.3-1.4,15.1c0.6,1.8,4,0.9,5.1,0.4c1.1-0.5,5.1-1.7,4.6-4.1c-0.5-2.4-3.3-2.2-3.8-2.6c-0.5-0.4,0-5.4,0.1-7.9
		c0.1-2.5,3.1-11.3,4.4-14.3c1.3-3,6.2-13.4,6.2-13.4s2.9,6.3,2.9,7.9c0.1,1.6-5.8,19.5-5.8,20.5s1,12.1,1.3,14.7
		c0.3,2.6-0.7,4.4,0.3,6.3c1,1.9,8.5,2.9,9.7-1.6C65.2,144.2,60.5,144.6,59.6,144.3z"/>
	<path fill="#262626" d="M126.9,26.1c0,0,4.2-0.5,4.6,1.9c0.4,2.4-1.2,1.8-1.2,1.8L126.9,26.1z"/>
</g>
</svg>
