<?xml version="1.0" encoding="utf-8"?>
<!-- Generator: Adobe Illustrator 18.1.0, SVG Export Plug-In . SVG Version: 6.00 Build 0)  -->
<svg version="1.1" id="Layer_1" xmlns="http://www.w3.org/2000/svg" xmlns:xlink="http://www.w3.org/1999/xlink" x="0px" y="0px"
	 viewBox="0 0 160 160" enable-background="new 0 0 160 160" xml:space="preserve">
<g>
	<path opacity="0.2" d="M99.1,136.8c11.2-6.1,40.3-18.8,23.7-28.9c-15.5-9.5-42,6-52.9,11.8c-16.1,8.6-34.6,16.6-21.4,24.7
		C65.8,154.8,78.1,148.2,99.1,136.8z"/>
	<path fill="#825012" d="M96.4,72.4c-0.3,2.2,0.1,9.3,3.9,13c3.8,3.7,5.2,5.1,5.2,10.4c0,5.3,0,8.3-2.6,10.5
		c-2.6,2.2-3.5,5.2-0.7,6.9c2.8,1.7,6.7-2,7.5-3.8c0.8-1.7,0.8-9.8,1-12.3s1.2-6.3,0.3-7.5c-0.9-1.2-6-11-5.1-12.8
		c0.9-1.8,4-9.7,4-9.7L96.4,72.4z"/>
	<path opacity="0.2" d="M96.4,72.4c-0.3,2.2,0.1,9.3,3.9,13c3.8,3.7,5.2,5.1,5.2,10.4c0,5.3,0,8.3-2.6,10.5
		c-2.6,2.2-3.5,5.2-0.7,6.9c2.8,1.7,6.7-2,7.5-3.8c0.8-1.7,0.8-9.8,1-12.3s1.2-6.3,0.3-7.5c-0.9-1.2-6-11-5.1-12.8
		c0.9-1.8,4-9.7,4-9.7L96.4,72.4z"/>
	<path fill="#2D3134" d="M50.4,58.3c0-1.6,1.7-4.4,2-5.7c0.3-1.3,0.3-3.5,0.3-3.5s4.5,3.7,4.3,8.4c-0.2,4.8-1.1,5.5-3.4,5.7
		C51.3,63.4,50.4,58.3,50.4,58.3z"/>
	<path fill="#2D3134" d="M123.3,53c1.8,1.6,4.1-1.2-0.5-4.2c-3.1-2.1-7-2.1-13.2-3.1c-10.8-1.6-13.8,1.5-20.2,6.4
		c-6.4,5-19.5,9.4-24.5,9.8s-7.7-7.6-13.5-11.3c-1.9-1.2-4-1.2-6-0.7c-0.9-0.8-2.4-2.2-2.6-3.2c-0.3-1.4-3.3-3.8-3.3-3.8
		s0,4-0.6,6.1c-0.4,1.4,0,3.2,0.3,4.2c-1.4,1-2.6,2-3.2,2.4c-1.9,1.3-0.1,3.8-0.3,5.7c-0.2,1.9-4.8,5.7-6.5,8.1
		c-3,4,1.7,7.7,5.6,8.5c3.8,0.8,8.4-3,10.5-3.5s3.9,4.7,5.1,7.1c1.2,2.4-0.1,3.1,0,6.7c0.1,3.7,3.8,8.3,4.1,8.7
		c0.3,0.4,0.1,14.8,0.4,20.2c0.3,5.4-2.7,10.5-4.8,12.6c-2.1,2.1-3.3,4.3-3.7,6.2c-0.4,1.8,3.2,3,6.4,1.7s2.8-5.6,3.7-6.9
		c0.9-1.3,3.5-9.9,3.9-14.5c0.5-4.6,2.3-16.5,2.3-16.5s6.9,5,8,6.5s0.5,5.1,0.7,14.4s-1.9,17-2.4,19c-0.4,2.1-2.6,3.9-2.8,5.8
		c-0.2,1.9,2.5,3.3,5,2.8s3.1-2.8,3.6-6.8c0.4-4,1.4-8.7,2-11.2c0.6-2.5,0.5-12.9,0.9-18.1c0.4-5.2,1.3-7.7,1.6-9.7
		c0.4-2-2.8-7.8-2.8-7.8s3.4-1.8,8.7-6c5.3-4.2,8.6-11.9,12.3-15.6c3.7-3.8,11-3.6,11-3.6s-0.7,3.4-0.5,7.9c0.1,4.6,2.3,9.4,4,12.1
		c1.7,2.7,5,5.7,6.5,8.9c1.5,3.2,1.1,13.7,0.5,15c-0.5,1.3-4.1,3.2-3.7,5.1c0.4,1.9,5,2.5,6.9,2.2s3.5-5.4,2.8-9.4
		c-0.6-4-1.3-15.2-1.9-16.3s-3.9-6.6-5.2-12.1c-1.3-5.4,3.5-15.1,4.6-21.4s-1.6-9.7-1.6-9.7S121.4,51.3,123.3,53z"/>
	<g>
		<path fill="#825012" d="M122.2,120.5c2-0.3,3.5-5.4,2.8-9.4c-0.4-2.8-0.9-9-1.3-12.9c-1.4-1.8-6-7.6-9.2-12.6
			c-3.8-6-1.7-13.8-3.8-16.9c-1.2-1.8-5.4-0.1-8.8,1.7c3.3-1.1,6.5-1,6.5-1s-0.7,3.4-0.5,7.9c0.1,4.6,2.3,9.4,4,12.1
			c1.7,2.7,5,5.7,6.5,8.9c1.5,3.2,1.1,13.7,0.5,15c-0.5,1.3-4.1,3.2-3.7,5.1C115.7,120.3,120.2,120.8,122.2,120.5z"/>
		<path fill="#825012" d="M97.1,73.1L97.1,73.1c0.1,0,0.2-0.1,0.3-0.2C97.2,73.1,97.1,73.1,97.1,73.1z"/>
	</g>
	<path fill="#825012" d="M74.5,128.8c-0.9-1.8-0.8-10.7-0.9-17.8c-0.1-7.1-1.8-8.4-5.6-12.5c-3.8-4.1-9.7-11.8-13.8-11.4
		c-2.2,0.3-2.2,3.5-1.7,6.8c0.9,1.6,1.9,2.7,2,2.9c0.3,0.4,0.1,14.8,0.4,20.2c0.3,5.4-2.7,10.5-4.8,12.6c-2.1,2.1-3.3,4.3-3.7,6.2
		c-0.4,1.8,3.2,3,6.4,1.7s2.8-5.6,3.7-6.9c0.9-1.3,3.5-9.9,3.9-14.5c0.5-4.6,2.3-16.5,2.3-16.5s6.9,5,8,6.5s0.5,5.1,0.7,14.4
		s-1.9,17-2.4,19c-0.4,2.1-2.6,3.9-2.8,5.8c-0.2,1.9,2.5,3.3,5,2.8s3.1-2.8,3.6-6.8c0.3-2.7,0.8-5.6,1.3-8.1
		C75.5,131.3,74.9,129.6,74.5,128.8z"/>
	<path fill="#825012" d="M53.3,66.9c-1.3-1.3-11.6,2.2-14.8,2.2c-2.7,0-5.2-0.3-7.3-1.9c-0.8,0.8-1.4,1.5-1.9,2.2
		c-3,4,1.7,7.7,5.6,8.5c3.8,0.8,8.4-3,10.5-3.5c0,0,2.9-1.6,5.4-2.9C53.2,70.2,54.7,68.2,53.3,66.9z"/>
	<path d="M41.3,63.2c0.2-0.9,3-0.4,3-0.1C44.3,63.4,40.8,64.9,41.3,63.2z"/>
	<path fill="#825012" d="M51.1,61.5c-0.3-1.1,0.8-5.5,1.5-7.1c0.8-1.7,0.8-3,0.8-3s2.5,1.9,2.8,4.3c0.3,2.4,0.6,6.3-1.5,7.3
		S51.4,63.1,51.1,61.5z"/>
	<path fill="#262626" d="M31.4,67.1c-2,0.4-3.8,2.8-3.6,3.9c0.2,1.1,1.5,2.8,2.5,3s2.6,0,3.2-1.3s1.3-3.3,0.7-4.2
		S32.5,66.9,31.4,67.1z"/>
</g>
</svg>
