<?xml version="1.0" encoding="utf-8"?>
<!-- Generator: Adobe Illustrator 18.1.0, SVG Export Plug-In . SVG Version: 6.00 Build 0)  -->
<svg version="1.1" id="Layer_1" xmlns="http://www.w3.org/2000/svg" xmlns:xlink="http://www.w3.org/1999/xlink" x="0px" y="0px"
	 viewBox="0 0 160 160" enable-background="new 0 0 160 160" xml:space="preserve">
<g>
	<path opacity="0.2" d="M95.6,141.1c11.9-4.6,42.4-13.4,27.3-25.6c-14.1-11.4-42.4,0.5-54,4.8C51.8,126.7,34,132.2,45,143.2
		C58.8,156.9,73.3,149.6,95.6,141.1z"/>
	<path fill="#825012" d="M55,100c0,0,0.1,18.1-0.4,20.2c-0.5,2.1-2.1,7.2-4.4,7.7c-2.2,0.5-5.1,3.7-4.3,5.9c0.8,2.2,6.3,1.9,8.1,0.3
		c1.8-1.6,1.9-5.2,2.9-7.7c1-2.5,3.1-4.2,3.5-5.5s1.2-15.6,1.2-15.6L55,100z"/>
	<path opacity="0.2" d="M55,100c0,0,0.1,18.1-0.4,20.2c-0.5,2.1-2.1,7.2-4.4,7.7c-2.2,0.5-5.1,3.7-4.3,5.9c0.8,2.2,6.3,1.9,8.1,0.3
		c1.8-1.6,1.9-5.2,2.9-7.7c1-2.5,3.1-4.2,3.5-5.5s1.2-15.6,1.2-15.6L55,100z"/>
	<path fill="#2D3134" d="M14,64.1c1.1-2.4,2.9-3.8,4.6-4c1.6-0.2,2.6-0.6,3.1-1.7c0.5-1,2.3-4.2,6.2-4.6c3.8-0.4,6.2-0.8,6.2-0.8
		l-0.1-8.4c0,0,4.2,3.1,5.3,5.8s1.2,5.1,1.2,5.1s4.3,5.2,8,6.3c3.7,1.1,9.7,1.2,15.1,1.7s12.2,1,18.4-1.2
		c6.2-2.2,13.7-9.9,22.8-11.4c6.9-1.1,11,0.6,11,0.6s5.3-5.2,6.8-3.5c1.5,1.7-2.6,5.6-2.4,6.3s5.4,3,6.2,8.5
		c0.8,5.5,0.3,18.1,1.1,18.5c0.8,0.4,3.7-0.7,5.5-1.9c1.8-1.2,3.5-2.4,5.8-0.6c2.2,1.8,14,12,15.4,13.1c1.3,1.2,1.1,3.8-0.3,5.8
		c-1.4,2-5.8,4-6.9,2.3c-1.1-1.7,0.6-4.6,0.3-6s-8.1-10.2-9.7-10.3s-6,7.1-10.5,7.6c-4.5,0.4-6.5-2.7-8.1-5.7
		c-1.7-3-2.4-7.5-4.4-7.8c-2.1-0.3-3.8-0.4-3.8-0.4s-2.2,4.2-1.4,6.1c0.8,1.9,2.7,8,3.7,9.4s1.3,3.8,1.1,6c-0.2,2.1-1.2,10.1-1.1,12
		c0.1,1.9,0.9,3.8-0.9,4.9c-1.8,1.1-3.3,4.3-7.1,2.5c-3.8-1.8-1.8-4.4-0.3-5.6s3.1-1.9,3.7-5.5c0.6-3.6,1-10.2-1.3-12.6
		c-2.2-2.4-5.8-5-6.8-8.5c-1-3.5-2-6.7-2-6.7s-7.2,10.1-14.4,14.1c-7.2,4-14.5,5.5-14.5,5.5s2.9,2.9,3.3,4.6
		c0.4,1.6-2.7,12.4-2.9,17.4c-0.3,5.1,0.3,10.5-0.5,12.2c-0.8,1.7-2.6,3.8-3.3,6.9c-0.6,3.1,0.1,5.9-2.3,7.7
		c-2.4,1.8-9.5,2.1-8.5-1.2c1-3.3,3.5-4.1,4.4-5.5c0.9-1.4,3.5-8.8,3.7-10.7c0.2-1.9,0.2-21.4-0.3-22.3
		c-0.4-0.9-12.3-10.6-14.7-16.7c-2.4-6-0.9-8.2-3-9.9s-13.1-8.1-18.1-8s-10.6,0.5-12.6-2.2S13.5,65.3,14,64.1z"/>
	<path fill="#825012" d="M26.7,55.2c0,0,3.5,3.3,5.3,4.9c1.7,1.7,3.3,2.8,2.4,4.9c-1,2.1-3.4,3.2-5.1,1.5c-1.7-1.7-1.5-5.6-1.9-7.4
		C27.1,57.5,26.7,55.2,26.7,55.2z"/>
	<path fill="#825012" d="M146.8,100.2c1.1,1.7,5.5-0.3,6.9-2.3c1.4-2,1.7-4.7,0.3-5.8c-0.6-0.6-3.7-3.2-6.9-6
		c-1-0.2-1.9-0.5-2.5-0.9c-1.8-1.2-5.2-4.8-6.5-4.6s-8,7.4-11.2,8c-3.3,0.6-8.8-15.5-10.3-18.7c-1.5-3.2-5.7-1.2-8.8,0.7
		c-3.1,1.9-9.6,9-9.6,9c0.3,1.1,1.2,4.1,2,6.7c1,3.5,4.6,6.1,6.8,8.5c2.2,2.4,1.9,9,1.3,12.6c-0.6,3.6-2.1,4.3-3.7,5.5
		c-1.5,1.2-3.6,3.8,0.3,5.6s5.3-1.4,7.1-2.5c1.8-1.1,1-3.1,0.9-4.9c-0.1-1.9,0.9-9.9,1.1-12c0.2-2.1-0.1-4.5-1.1-6
		c-1-1.5-2.8-7.6-3.7-9.4c-0.8-1.9,1.4-6.1,1.4-6.1s1.8,0.1,3.8,0.4c2.1,0.3,2.8,4.8,4.4,7.8c1.7,3,3.7,6.2,8.1,5.7
		c4.5-0.4,8.8-7.6,10.5-7.6c1.6,0.1,9.4,8.9,9.7,10.3C147.4,95.6,145.8,98.6,146.8,100.2z"/>
	<path fill="#825012" d="M32.4,74.6c-1.8-3.3-6.3-4.6-10.8-6.8c-4-2-5.1-3.6-5.7-6.3c-0.7,0.7-1.4,1.5-1.9,2.6
		c-0.5,1.2-1.4,4.6,0.5,7.3s7.5,2.4,12.6,2.2c1.5-0.1,3.4,0.4,5.5,1.2C32.5,74.8,32.5,74.7,32.4,74.6z"/>
	<path fill="#262626" d="M16.2,63.2c0.4-1,0.4-2.6-1.1-2.5c-1.5,0.1-4.2,2.3-3.1,4.1c1.2,1.8,1.5,1.4,1.9,1.1S16,63.9,16.2,63.2z"/>
	<path opacity="0.2" d="M107,94.8c2.2,2.4,1.9,9,1.3,12.6c-0.6,3.6-2.1,4.3-3.7,5.5c-1.5,1.2-3.6,3.8,0.3,5.6s5.3-1.4,7.1-2.5
		c1.8-1.1,1-3.1,0.9-4.9c-0.1-1.9,0.9-9.9,1.1-12c0.2-2.1-0.1-4.5-1.1-6c-1-1.5-2.8-7.6-3.7-9.4c-0.8-1.9,1.4-6.1,1.4-6.1
		s1.8,0.1,3.8,0.4c0.5,0.1,0.9,0.4,1.3,0.9c-0.1-0.3-0.2-0.6-0.2-0.8c-1-3.6-2.1-4.6-5.6-4.4c-3.6,0.3-11.7,5.8-11.7,5.8
		c0.3,1.1,1.2,4.1,2,6.7C101.2,89.8,104.7,92.4,107,94.8z"/>
</g>
</svg>
