<?xml version="1.0" encoding="utf-8"?>
<!-- Generator: Adobe Illustrator 18.1.0, SVG Export Plug-In . SVG Version: 6.00 Build 0)  -->
<svg version="1.1" id="Layer_1" xmlns="http://www.w3.org/2000/svg" xmlns:xlink="http://www.w3.org/1999/xlink" x="0px" y="0px"
	 viewBox="0 0 480 480" enable-background="new 0 0 480 480" xml:space="preserve">
<polygon opacity="0.3" points="280,280 260,290 160,240.1 80,280.1 180,329.9 160,340 360,440 480,380 "/>
<g>
	<polygon fill="#2D3134" points="358.8,413.3 437,374.3 425.6,357.4 346,397.2 	"/>
	<g>
		<g>
			<g>
				<polygon fill="#825012" points="78,138 78,142 88,147 168,107 168,103 158,98 				"/>
				<polygon opacity="0.11" points="88,147 78,142 78,138 88,143 				"/>
				<polygon opacity="0.29" points="88,147 168,107 168,103 88,143 				"/>
			</g>
			<g>
				<polygon fill="#825012" points="150,92 150,102 160,107 170,102 170,92 160,87 				"/>
				<polygon opacity="0.11" points="160,107 150,102 150,92 160,97 				"/>
				<polygon opacity="0.29" points="160,107 170,102 170,92 160,97 				"/>
			</g>
			<g>
				<polygon fill="#825012" points="150,174 150,178 160,183 242,142 242,138 232,133 				"/>
				<polygon opacity="0.11" points="160,183 150,178 150,174 160,179 				"/>
				<polygon opacity="0.29" points="160,183 242,142 242,138 160,179 				"/>
			</g>
			<g>
				<polygon fill="#825012" points="114,156 114,160 124,165 204,125 204,121 194,116 				"/>
				<polygon opacity="0.11" points="124,165 114,160 114,156 124,161 				"/>
				<polygon opacity="0.29" points="124,165 204,125 204,121 124,161 				"/>
			</g>
			<g>
				<polygon fill="#825012" points="222,128 222,138 232,143 242,138 242,128 232,123 				"/>
				<polygon opacity="0.11" points="232,143 222,138 222,128 232,133 				"/>
				<polygon opacity="0.29" points="232,143 242,138 242,128 232,133 				"/>
			</g>
			<g>
				<polygon fill="#FF9900" points="230,149.9 240.5,144.7 240.5,140.2 138,89 127.5,94.3 127.5,95.8 141,105.5 				"/>
				<polygon opacity="0.11" points="127.5,94.3 127.5,95.8 141,105.5 230,149.9 230,145.4 				"/>
			</g>
			<g>
				<polygon fill="#FF9900" points="180,175 190.5,169.8 190.5,165.3 88,114 77.5,119.3 77.5,120.8 91,130.5 				"/>
				<polygon opacity="0.11" points="77.5,119.3 77.5,120.8 91,130.5 180,175 180,170.5 				"/>
			</g>
			<g>
				<polygon fill="#825012" points="186,146 186,156 196,161 206,156 206,146 196,141 				"/>
				<polygon opacity="0.11" points="196,161 186,156 186,146 196,151 				"/>
				<polygon opacity="0.29" points="196,161 206,156 206,146 196,151 				"/>
			</g>
			<g>
				<polygon fill="#825012" points="242,124 242,128 232,133 152,93 152,89 162,84 				"/>
				<polygon opacity="0.29" points="232,133 242,128 242,124 232,129 				"/>
				<polygon opacity="0.11" points="232,133 152,93 152,89 232,129 				"/>
			</g>
			<g>
				<polygon fill="#825012" points="186,110 186,120 196,125 206,120 206,110 196,105 				"/>
				<polygon opacity="0.11" points="196,125 186,120 186,110 196,115 				"/>
				<polygon opacity="0.29" points="196,125 206,120 206,110 196,115 				"/>
			</g>
			<g>
				<polygon fill="#825012" points="114,146 114,156 124,161 134,156 134,146 124,141 				"/>
				<polygon opacity="0.11" points="124,161 114,156 114,146 124,151 				"/>
				<polygon opacity="0.29" points="124,161 134,156 134,146 124,151 				"/>
			</g>
			<g>
				<polygon fill="#825012" points="78,128 78,138 88,143 98,138 98,128 88,123 				"/>
				<polygon opacity="0.11" points="88,143 78,138 78,128 88,133 				"/>
				<polygon opacity="0.29" points="88,143 98,138 98,128 88,133 				"/>
			</g>
			<g>
				<polygon fill="#825012" points="150,164 150,174 160,179 170,174 170,164 160,159 				"/>
				<polygon opacity="0.11" points="160,179 150,174 150,164 160,169 				"/>
				<polygon opacity="0.29" points="160,179 170,174 170,164 160,169 				"/>
			</g>
			<g>
				<polygon fill="#825012" points="170,160 170,164 160,169 78,128 78,124 88,119 				"/>
				<polygon opacity="0.29" points="160,169 170,164 170,160 160,165 				"/>
				<polygon opacity="0.11" points="160,169 78,128 78,124 160,165 				"/>
			</g>
			<g>
				<polygon fill="#825012" points="114,110 114,120 124,125 134,120 134,110 124,105 				"/>
				<polygon opacity="0.11" points="124,125 114,120 114,110 124,115 				"/>
				<polygon opacity="0.29" points="124,125 134,120 134,110 124,115 				"/>
			</g>
			<g>
				<polygon fill="#825012" points="206,142 206,146 196,151 116,111 116,107 126,102 				"/>
				<polygon opacity="0.29" points="196,151 206,146 206,142 196,147 				"/>
				<polygon opacity="0.11" points="196,151 116,111 116,107 196,147 				"/>
			</g>
			<g>
				<polygon fill="#825012" points="150,156 150,160 160,165 242,124 242,120 232,115 				"/>
				<polygon opacity="0.11" points="160,165 150,160 150,156 160,161 				"/>
				<polygon opacity="0.29" points="160,165 242,124 242,120 160,161 				"/>
			</g>
			<g>
				<polygon fill="#825012" points="132,147 132,151 142,156 224,115 224,111 214,106 				"/>
				<polygon opacity="0.11" points="142,156 132,151 132,147 142,152 				"/>
				<polygon opacity="0.29" points="142,156 224,115 224,111 142,152 				"/>
			</g>
			<g>
				<polygon fill="#825012" points="114,138 114,142 124,147 206,106 206,102 196,97 				"/>
				<polygon opacity="0.11" points="124,147 114,142 114,138 124,143 				"/>
				<polygon opacity="0.29" points="124,147 206,106 206,102 124,143 				"/>
			</g>
			<g>
				<polygon fill="#825012" points="96,129 96,133 106,138 188,97 188,93 178,88 				"/>
				<polygon opacity="0.11" points="106,138 96,133 96,129 106,134 				"/>
				<polygon opacity="0.29" points="106,138 188,97 188,93 106,134 				"/>
			</g>
			<g>
				<polygon fill="#825012" points="78,120 78,124 88,129 170,88 170,84 160,79 				"/>
				<polygon opacity="0.11" points="88,129 78,124 78,120 88,125 				"/>
				<polygon opacity="0.29" points="88,129 170,88 170,84 88,125 				"/>
			</g>
			<g>
				<polygon fill="#FFCC00" points="80,40 80,120 160,160 240,120 240,40 160,0 				"/>
				<polygon opacity="0.11" points="160,160 80,120 80,40 160,80 				"/>
				<polygon opacity="0.3" points="130,15 110,25 190,65 190,105 210,95 210,55 				"/>
				<polygon opacity="0.29" points="160,160 240,120 240,40 160,80 				"/>
			</g>
			<g>
				<polygon fill="#FF9900" points="240.5,76.5 230,81.8 230,150 236,153 246.5,147.8 246.5,95.3 246.5,95.3 251,93 251,81.8 				
					"/>
				<polygon opacity="0.11" points="230,81.8 230,150 236,153 236,96 240.5,98.3 240.5,87 				"/>
				<polygon opacity="0.29" points="246.5,95.3 246.5,147.8 236,153 236,96 240.5,98.3 				"/>
			</g>
			<g>
				<polygon fill="#FF9900" points="190.5,101.5 180,106.8 180,175 186,178 196.5,172.8 196.5,120.3 196.5,120.3 201,118 201,106.8 
									"/>
				<polygon opacity="0.11" points="180,106.8 180,175 186,178 186,121 190.5,123.3 190.5,112 				"/>
				<polygon opacity="0.29" points="196.5,120.3 196.5,172.8 186,178 186,121 190.5,123.3 				"/>
			</g>
			<polygon opacity="0.29" points="251,81.8 251,93 240.5,98.3 240.5,87 			"/>
			<polygon opacity="0.29" points="201,106.8 201,118 190.5,123.3 190.5,112 			"/>
		</g>
		<g>
			<polygon fill="#2D3134" points="273,138.5 276,137 276,7.3 268.5,3.5 265.5,5 265.5,134.8 			"/>
			<polygon opacity="0.29" points="276,7.3 276,137 273,138.5 273,8.8 			"/>
			<polygon opacity="0.11" points="265.5,5 265.5,134.8 273,138.5 273,8.8 			"/>
		</g>
		<g>
			<polygon fill="#2D3134" points="177,143 271.5,95.8 271.5,86.8 268.5,85.3 174,132.5 174,141.5 			"/>
			<polygon opacity="0.29" points="271.5,86.8 271.5,95.8 177,143 177,134 			"/>
			<polygon opacity="0.11" points="174,132.5 174,141.5 177,143 177,134 			"/>
		</g>
		<g>
			<polygon fill="#2D3134" points="178.5,65 273,17.8 273,8.8 265.5,5 171,52.3 171,61.3 			"/>
			<polygon opacity="0.29" points="273,8.8 273,17.8 178.5,65 178.5,56 			"/>
			<polygon opacity="0.11" points="171,52.3 171,61.3 178.5,65 178.5,56 			"/>
		</g>
		<g>
			<polygon fill="#2D3134" points="177,183.5 271.5,136.3 271.5,127.3 268.5,125.8 174,173 174,182 			"/>
			<polygon opacity="0.29" points="271.5,127.3 271.5,136.3 177,183.5 177,174.5 			"/>
			<polygon opacity="0.11" points="174,173 174,182 177,183.5 177,174.5 			"/>
		</g>
		<g>
			<polygon fill="#2D3134" points="175.5,187.3 178.5,185.8 178.5,56 171,52.3 168,53.8 168,183.5 			"/>
			<polygon opacity="0.29" points="178.5,56 178.5,185.8 175.5,187.3 175.5,57.5 			"/>
			<polygon opacity="0.11" points="168,53.8 168,183.5 175.5,187.3 175.5,57.5 			"/>
		</g>
		<g>
			<polygon fill="#2D3134" points="234.8,116.4 247.5,110.4 259.5,116.4 259.5,325.3 209.3,350.8 197.3,344.8 197.3,135.9 
				209.3,129.9 221.3,135.9 221.3,321.5 234.8,314.8 			"/>
			<polygon opacity="0.29" points="247.5,122.4 247.5,321.5 221.3,334.3 221.3,135.9 209.3,141.9 209.3,350.8 259.5,325.3 
				259.5,116.4 			"/>
			<polygon opacity="0.11" points="197.3,344.8 209.3,350.8 209.3,141.9 197.3,135.9 			"/>
			<polygon opacity="0.11" points="234.8,314.8 247.5,321.5 247.5,122.4 234.8,116.4 			"/>
		</g>
		<g>
			<polygon fill="#2D3134" points="247.5,120.1 255,116.4 255,45.1 247.5,41.4 240,45.1 240,116.4 			"/>
			<polygon opacity="0.29" points="255,45.1 255,116.4 247.5,120.1 247.5,48.9 			"/>
			<polygon opacity="0.11" points="240,45.1 240,116.4 247.5,120.1 247.5,48.9 			"/>
		</g>
		<g>
			<polygon fill="#2D3134" points="209.3,139.6 216.8,135.9 216.8,64.6 209.3,60.9 201.8,64.6 201.8,135.9 			"/>
			<polygon opacity="0.29" points="216.8,64.6 216.8,135.9 209.3,139.6 209.3,68.4 			"/>
			<polygon opacity="0.11" points="201.8,64.6 201.8,135.9 209.3,139.6 209.3,68.4 			"/>
		</g>
		<g>
			<path fill="#2D3134" d="M228.8,154.6c-2.9,0-5.3,1.2-5.3,2.6v166.9c0,1.4,2.4,2.6,5.3,2.6s5.3-1.2,5.3-2.6V157.3
				C234,155.8,231.6,154.6,228.8,154.6z"/>
			<path opacity="0.2" d="M228.8,159.9c-2.9,0-5.3-1.2-5.3-2.6v166.9c0,1.4,2.4,2.6,5.3,2.6s5.3-1.2,5.3-2.6V157.3
				C234,158.7,231.6,159.9,228.8,159.9z"/>
		</g>
		<g>
			<path fill="#2D3134" d="M228.8,135.1c-4.1,0-7.5,1.7-7.5,3.8v25.5c0,2.1,3.4,3.8,7.5,3.8s7.5-1.7,7.5-3.8v-25.5
				C236.3,136.8,232.9,135.1,228.8,135.1z"/>
			<path opacity="0.2" d="M228.8,142.6c-4.1,0-7.5-1.7-7.5-3.8v25.5c0,2.1,3.4,3.8,7.5,3.8s7.5-1.7,7.5-3.8v-25.5
				C236.3,140.9,232.9,142.6,228.8,142.6z"/>
		</g>
		<g>
			<path fill="#E5E5E5" d="M228.8,69.9c-2.1,0-3.8,0.8-3.8,1.9v66.8c0,1,1.7,1.9,3.8,1.9s3.8-0.8,3.8-1.9V71.8
				C232.5,70.7,230.8,69.9,228.8,69.9z"/>
			<path opacity="0.2" d="M228.8,73.6c-2.1,0-3.8-0.8-3.8-1.9v66.8c0,1,1.7,1.9,3.8,1.9s3.8-0.8,3.8-1.9V71.8
				C232.5,72.8,230.8,73.6,228.8,73.6z"/>
		</g>
		<g>
			<path fill="#2D3134" d="M228.8,51.1c-4.1,0-7.5,1.7-7.5,3.8v16.5c0,2.1,3.4,3.8,7.5,3.8s7.5-1.7,7.5-3.8V54.9
				C236.3,52.8,232.9,51.1,228.8,51.1z"/>
			<path opacity="0.2" d="M228.8,58.6c-4.1,0-7.5-1.7-7.5-3.8v16.5c0,2.1,3.4,3.8,7.5,3.8s7.5-1.7,7.5-3.8V54.9
				C236.3,56.9,232.9,58.6,228.8,58.6z"/>
		</g>
		<g>
			<polygon fill="#2D3134" points="207,70.6 256.5,45.9 256.5,42.9 249,39.1 199.5,63.9 199.5,66.9 			"/>
			<polygon opacity="0.29" points="256.5,42.9 256.5,45.9 207,70.6 207,67.6 			"/>
			<polygon opacity="0.11" points="199.5,63.9 199.5,66.9 207,70.6 207,67.6 			"/>
		</g>
	</g>
	<g>
		<path fill="#2D3134" d="M443.5,334.2c-6.8-3.4-13-3.8-17.6-1.8l0,0l-12.8,6.4l0,0c-4.9,2.2-8,7.3-8,14.6
			c0,14.2,11.5,31.4,25.7,38.5c7,3.5,13.4,3.9,18,1.6c0,0,12.8-6.4,13.8-7c4.1-2.5,6.7-7.3,6.7-13.9
			C469.2,358.5,457.7,341.3,443.5,334.2z"/>
		<path opacity="0.39" d="M449,393.4c1.8-0.9,12.6-6.3,13.5-6.8c4.1-2.5,6.7-7.3,6.7-13.9c0-5.7-1.9-11.9-5-17.7l-12.8,6.4
			c3.1,5.8,5,12,5,17.7C456.4,386.1,453.5,391.1,449,393.4z"/>
		<path fill="#A9ABB0" d="M449.9,375.7c0,10.6-8.6,14.9-19.3,9.6c-10.6-5.3-19.3-18.3-19.3-28.9c0-10.6,8.6-14.9,19.3-9.6
			C441.3,352.2,449.9,365.1,449.9,375.7z"/>
		<path fill="#808285" d="M432.3,384.7c-10.6-5.3-19.3-18.3-19.3-28.9c0-5.2,2.1-8.9,5.5-10.7c-4.3,1.4-7.1,5.4-7.1,11.4
			c0,10.6,8.6,23.6,19.3,28.9c5.4,2.7,10.3,2.9,13.8,1.1C441.1,387.5,436.9,387,432.3,384.7z"/>
		<path fill="#2D3134" d="M440.3,369.5c0,4.4-3.6,6.2-8,4s-8-7.6-8-12s3.6-6.2,8-4S440.3,365,440.3,369.5z"/>
		<path opacity="0.39" d="M440.3,369.5c0,4.4-3.6,6.2-8,4s-8-7.6-8-12s3.6-6.2,8-4S440.3,365,440.3,369.5z"/>
		<path fill="#2D3134" d="M438.7,370.2c0,4.4-3.6,6.2-8,4s-8-7.6-8-12s3.6-6.2,8-4S438.7,365.8,438.7,370.2z"/>
		<path opacity="0.06" d="M456.4,379.1c0,14.2-11.5,19.9-25.7,12.8c-14.2-7.1-25.7-24.3-25.7-38.5
			c0-14.2,11.5-19.9,25.7-12.8C444.9,347.7,456.4,364.9,456.4,379.1z"/>
	</g>
	<g>
		<path fill="#2D3134" d="M363.6,374c-6.8-3.4-13-3.8-17.6-1.8l0,0l-12.8,6.4l0,0c-4.9,2.2-8,7.3-8,14.6c0,14.2,11.5,31.4,25.7,38.5
			c7,3.5,13.4,3.9,18,1.6c0,0,12.8-6.4,13.8-7c4.1-2.5,6.7-7.3,6.7-13.9C389.3,398.4,377.8,381.1,363.6,374z"/>
		<path opacity="0.39" d="M369,433.3c1.8-0.9,12.6-6.3,13.5-6.8c4.1-2.5,6.7-7.3,6.7-13.9c0-5.7-1.9-11.9-5-17.7l-12.8,6.4
			c3.1,5.8,5,12,5,17.7C376.4,426,373.6,430.9,369,433.3z"/>
		<path fill="#A9ABB0" d="M370,415.6c0,10.6-8.6,14.9-19.3,9.6c-10.6-5.3-19.3-18.3-19.3-28.9s8.6-14.9,19.3-9.6
			C361.4,392,370,404.9,370,415.6z"/>
		<path fill="#808285" d="M352.3,424.5c-10.6-5.3-19.3-18.3-19.3-28.9c0-5.2,2.1-8.9,5.5-10.7c-4.3,1.4-7.1,5.4-7.1,11.4
			c0,10.6,8.6,23.6,19.3,28.9c5.4,2.7,10.3,2.9,13.8,1.1C361.2,427.3,357,426.8,352.3,424.5z"/>
		<path fill="#2D3134" d="M360.4,409.3c0,4.4-3.6,6.2-8,4c-4.4-2.2-8-7.6-8-12s3.6-6.2,8-4C356.8,399.5,360.4,404.9,360.4,409.3z"/>
		<path opacity="0.39" d="M360.4,409.3c0,4.4-3.6,6.2-8,4c-4.4-2.2-8-7.6-8-12s3.6-6.2,8-4C356.8,399.5,360.4,404.9,360.4,409.3z"/>
		<path fill="#2D3134" d="M358.8,410.1c0,4.4-3.6,6.2-8,4c-4.4-2.2-8-7.6-8-12s3.6-6.2,8-4C355.2,400.2,358.8,405.6,358.8,410.1z"/>
		<path opacity="0.06" d="M376.4,419c0,14.2-11.5,19.9-25.7,12.8c-14.2-7.1-25.7-24.3-25.7-38.5
			c0-14.2,11.5-19.9,25.7-12.8C364.9,387.5,376.4,404.8,376.4,419z"/>
	</g>
	<g>
		<path fill="#2D3134" d="M217.7,297.8c-7.3-3.7-14-4.1-19-1.9l0,0l-13.8,6.9l0,0c-5.3,2.4-8.6,7.8-8.6,15.7
			c0,15.3,12.3,33.8,27.6,41.4c7.5,3.8,14.4,4.2,19.3,1.7c0,0,13.7-6.8,14.9-7.5c4.5-2.7,7.2-7.8,7.2-15
			C245.3,323.9,232.9,305.4,217.7,297.8z"/>
		<path opacity="0.39" d="M223.5,361.5c2-1,13.5-6.7,14.5-7.4c4.5-2.7,7.2-7.8,7.2-15c0-6.1-2-12.8-5.4-19.1l-13.8,6.9
			c3.4,6.3,5.4,12.9,5.4,19.1C231.5,353.7,228.4,359,223.5,361.5z"/>
		<path fill="#A9ABB0" d="M224.6,342.5c0,11.4-9.3,16.1-20.7,10.4c-11.4-5.7-20.7-19.6-20.7-31.1c0-11.4,9.3-16.1,20.7-10.4
			S224.6,331,224.6,342.5z"/>
		<path fill="#808285" d="M205.6,352.1c-11.4-5.7-20.7-19.6-20.7-31.1c0-5.6,2.2-9.6,5.9-11.5c-4.6,1.5-7.6,5.8-7.6,12.2
			c0,11.4,9.3,25.4,20.7,31.1c5.8,2.9,11,3.1,14.8,1.2C215.1,355.1,210.6,354.6,205.6,352.1z"/>
		<path fill="#2D3134" d="M214.2,335.7c0,4.8-3.9,6.7-8.6,4.3c-4.8-2.4-8.6-8.2-8.6-13c0-4.8,3.9-6.7,8.6-4.3
			C210.4,325.1,214.2,330.9,214.2,335.7z"/>
		<path opacity="0.39" d="M214.2,335.7c0,4.8-3.9,6.7-8.6,4.3c-4.8-2.4-8.6-8.2-8.6-13c0-4.8,3.9-6.7,8.6-4.3
			C210.4,325.1,214.2,330.9,214.2,335.7z"/>
		<path fill="#2D3134" d="M212.5,336.5c0,4.8-3.9,6.7-8.6,4.3s-8.6-8.2-8.6-13c0-4.8,3.9-6.7,8.6-4.3
			C208.6,326,212.5,331.8,212.5,336.5z"/>
		<path opacity="0.06" d="M231.5,346.1c0,15.3-12.3,21.4-27.6,13.8s-27.6-26.2-27.6-41.4s12.3-21.4,27.6-13.8
			S231.5,330.8,231.5,346.1z"/>
	</g>
	<path fill="#FF9900" d="M278.3,243.5L204,281v13.5l36.8,18l8.3,38.3l66,33l25.5-20.3l50.3,24l14.2,26.1l0,0l0.1,0.1l0.2-0.2
		c26-4.4,44.8-16.8,44.8-31.3V329L278.3,243.5z"/>
	<polygon fill="#2D3134" points="246,302 280.1,318.8 353.3,281.8 321,265.1 	"/>
	<polygon fill="#FF9900" points="340.5,363.5 315,383.8 348.1,367.1 	"/>
	<polygon opacity="0.4" points="340.5,363.5 315,383.8 348.1,367.1 	"/>
	<g>
		<polygon fill="#FF9900" points="233.6,250.3 310.5,213.5 321,227.6 321,265.1 246,302 216.8,287.1 		"/>
		<polygon opacity="0.11" points="233.6,250.3 246,264.5 246,302 216.8,287.1 		"/>
		<polygon opacity="0.29" points="246,264.5 321,227.6 321,265.1 246,302 		"/>
	</g>
	<g>
		<path fill="#2D3134" d="M291.6,213.9c1.6,0.6,2.7,1.8,2.4,2.6l-10.4,26.3c-0.3,0.8-1.9,1-3.5,0.3c-1.6-0.6-2.7-1.8-2.4-2.6
			l10.4-26.3C288.4,213.4,290,213.3,291.6,213.9z"/>
		<path opacity="0.2" d="M290.4,216.8c1.6,0.6,3.2,0.5,3.5-0.3l-10.4,26.3c-0.3,0.8-1.9,1-3.5,0.3c-1.6-0.6-2.7-1.8-2.4-2.6
			l10.4-26.3C287.8,215,288.8,216.2,290.4,216.8z"/>
	</g>
	<path fill="#FF9900" d="M450,286.9c0-9.2-7.6-17.4-19.9-23.3L409.9,253l-4.7,3.7l-40.8-20.9l-89.3,45.8v36.2l62.9,32.5l0,0
		c11.8,6.5,28.7,10.5,47.5,10.5c35.2,0,63.8-14.2,64.3-31.8l0,0v-41.3l0-0.1C450,287.4,450,287.1,450,286.9z"/>
	<polygon opacity="0.2" points="288.8,274.6 350.3,306.5 425.3,269 360.7,237.8 	"/>
	<g>
		<path opacity="0.2" d="M415.5,331.5v20.7l6,3v-25.5h-0.2C419.4,330.4,417.5,331,415.5,331.5z"/>
		<path opacity="0.2" d="M403.5,334v21.2l6,3v-25.3C407.5,333.4,405.5,333.7,403.5,334z"/>
		<path opacity="0.2" d="M439.5,320.4v16.9l6,3v-25.5h-0.2C443.7,316.7,441.8,318.6,439.5,320.4z"/>
		<path opacity="0.2" d="M427.5,327.3V347l6,3v-25.5h-0.3C431.4,325.5,429.5,326.4,427.5,327.3z"/>
	</g>
	<path opacity="0.11" d="M385.7,360.8c-18.8,0-35.8-4.1-47.5-10.5l0,0L204,281.1v13.4l36.8,18l8.3,38.3l66,33l25.5-20.3l50.3,24
		l14.2,26.1l0.1,0.1l0.2-0.2c26-4.4,44.8-16.8,44.8-31.3V329l0,0C449.6,346.6,421,360.8,385.7,360.8z"/>
	<g>
		<polygon fill="#2D3134" points="321.8,285.5 356.3,268.3 356.3,263.8 329.3,250.3 294.8,267.5 294.8,272 		"/>
		<polygon opacity="0.29" points="356.3,263.8 356.3,268.3 321.8,285.5 321.8,281 		"/>
		<polygon opacity="0.11" points="294.8,267.5 294.8,272 321.8,285.5 321.8,281 		"/>
	</g>
	<g>
		<defs>
			<polygon id="SVGID_1_" points="275.3,317.8 275.3,281.8 288.8,274.6 294,271.8 329.3,289.3 363.8,272 341.3,236 281.3,246.8 
				246,264.5 246,302 			"/>
		</defs>
		<clipPath id="SVGID_2_">
			<use xlink:href="#SVGID_1_"  overflow="visible"/>
		</clipPath>
		<g clip-path="url(#SVGID_2_)">
			<path fill="#825012" d="M272.9,296.5c-1.9,1.3-10.2,0.8-12.3,0.8c-2.1,0-5.3,1.6-5.1,5.1s7.7,4.1,10.3,4.7s12.3,1.5,15,2
				c2.6,0.5,4.5-2.3,4-5.9c-0.6-3.6-0.4-5.5-0.4-5.5L272.9,296.5z"/>
			<path opacity="0.4" d="M282.7,307.9c-3-0.5-13.6-1.4-16.4-2.2c-2.4-0.7-8.9-1.2-10.8-3.8c0,0.1,0,0.3,0,0.4
				c0.2,3.6,7.7,4.1,10.3,4.7s12.3,1.5,15,2c1.2,0.2,2.3-0.3,3-1.2C283.4,308,283,308,282.7,307.9z"/>
			<path fill="#06547A" d="M313.3,248.5l32.4-7.1c0,0,10.3,15,8.7,24.1c-1.8,10.3-13.4,9.9-13.4,9.9s-8.4,7.6-19.4,5.9
				s-27.7-9.5-27.7-9.5s-4.3,13.2-5.5,18c-1.5,6.5-3.4,11.7-3.4,11.7s-5.2,0.7-9.1-0.4c-5.2-1.5-6.7-4.3-6.7-4.3s3.4-12.7,4.6-18.8
				c1.9-9.9,3.8-16,3.9-19.2c0.1-3.5,2.2-7,8.3-6.7c6,0.3,26.9,0.8,26.9,0.8L313.3,248.5z"/>
		</g>
	</g>
	<path fill="#2D3134" d="M310.7,207.6c-3.6-4.4-9-7.8-15.2-9.5c-2.8-0.8-5.6-1.1-8.4-1.1c-10,0-18.1,5-20.1,12.4
		c-2.6,9.7,5.9,20.5,19,24.1c2.8,0.8,5.6,1.1,8.4,1.1c10,0,18.1-5,20.1-12.4C315.7,217.4,314.4,212.2,310.7,207.6z M294.7,201
		c5.6,1.5,10.5,4.5,13.7,8.5c1.2,1.5,2.1,3.1,2.7,4.7l-19.8,0l-12.6-12.9c2.5-0.9,5.3-1.4,8.3-1.4C289.6,200,292.1,200.3,294.7,201z
		 M269.8,210.1c0.8-3.1,3-5.6,6-7.4l13.1,13.4l-5.1,13.5C274,225.9,267.8,217.6,269.8,210.1z M311.5,221.4
		c-1.6,6.1-8.5,10.2-17.2,10.2c-2.5,0-5.1-0.3-7.6-1l5-13.3l20.1,0C312,218.7,311.9,220,311.5,221.4z"/>
	<g>
		<path fill="#3399CC" d="M306.7,207.4c0,0,7.3-2.8,11.5-5.5c4.2-2.8,4-4.3,4-4.3s9.9-4,13-0.4s8.5,21.4,10.7,28.9
			s6.6,21.3,7.9,26.9c1.2,4.9-8.6,7.7-15.8,8.7c-8.4,1.2-22.5-3.2-22.5-3.2s-1.4-12.1-4-17c-2.6-4.9-11.2-17.8-12.3-21.3
			s-1-9.4,1.2-10.3S306.7,207.4,306.7,207.4z"/>
		<path fill="#FBD7C7" d="M269.1,231.1c0,0-4.5-5.6-5.1-7.5c-0.6-1.9-1.7-4.9-0.8-6.7c0.9-1.8,4.6-6.1,5.9-6.3s3.3,6.9,4.3,7.1
			c1.1,0.2,1.8-1.5,2-2c0.2-0.5,0.5-2.5,1.2-2.4c0.7,0.1,1.1,0.3,1.2,2c0.1,1.7-0.8,3-0.8,4c0,1-2,3.2-2,4.7s0,2.4,0,2.4l0.8,0.8
			L269.1,231.1z"/>
		<path fill="#FBD7C7" d="M301.6,199.9c-1.5-0.1-2.5-2.4-3.2-5.1c-0.7-2.8-1.7-13.2,0.4-16.6c2.1-3.4,11.7-6.5,17.4,0.4
			s2.2,12.3,2.4,14.6c0.1,2.3,3.6,4.3,3.6,4.3s0.6,4.2-3.2,6.7c-3.8,2.6-7.9,3.9-11.9,3.2c-0.1-0.9,0-2.2-0.4-4
			C306.3,201.7,303.9,200,301.6,199.9z"/>
		<path fill="#762C07" d="M296.8,185.6c0,0,1.6,1,2.4,2.4c0.5,0.9,1.2,2.4,1.2,2.4s0.9-2.1,2-1.6c1.2,0.5,1.5,3.2,1.7,4
			c0.9,3.3,7,6,11.3,4.5c3-1,4.4-1,4.3-9.3c-0.1-5.5-2.1-13.8-12.7-13.8c-10.5-0.1-10.3,9.1-10.3,9.1V185.6z"/>
		<path fill="#3399CC" d="M302.7,209.7c-2.7-0.8-6.8,3.5-9.5,7.5c-2.7,4.1-10.3,14.2-10.3,14.2l-6.7-4.3l-1.2-1.6l-7.1,5.1l2,2
			c0,0,5.9,10.3,9.1,11.5c3.2,1.2,6.5-0.2,9.1-1.6c2.6-1.4,14.8-13,16.2-15.8C305.7,224,310.6,212,302.7,209.7z"/>
		<path fill="#99CC33" d="M354.9,253.2c-1.3-5.6-5.7-19.5-7.9-26.9c-0.7-2.3-1.8-5.6-3-9.3c-1.6-1.5-3.3-3.1-4.3-4.4
			c-2.6-3.2-6.8-13.7-8.1-17c-1.9-0.1-4.1,0.3-5.9,0.7c-0.1,3.4,1.3,7.3-4,11c-8.7,6.1-15.7,0.2-16.6,0.6c-1,0.4-2.4,0.9-3.6,1.3
			c10.1,0.2,8,22.5,4.9,25.8c1.7,2.8,3.3,5.4,4.2,7.1c2.6,4.9,4,17,4,17s15.3,4.3,23.7,3.2C345.5,261.3,356.1,258.2,354.9,253.2z"/>
	</g>
	<g>
		<polygon fill="#2D3134" points="329.3,289.3 363.8,272 363.8,267.5 363.8,230 360.8,228.5 326.3,245.8 321.8,281 321.8,285.5 		
			"/>
		<polygon opacity="0.29" points="363.8,230 363.8,267.5 363.8,272 329.3,289.3 329.3,284.7 329.3,247.3 		"/>
		<polygon opacity="0.11" points="326.3,245.8 321.8,281 321.8,285.5 329.3,289.3 329.3,284.7 329.3,247.3 		"/>
	</g>
	<g>
		<g>
			<polygon fill="#2D3134" points="431.3,181 426.8,178.8 333.8,132.3 327.8,135.3 322.5,147.3 333.8,152.4 336.8,145.8 419.3,187 
				419.3,266 425.3,269 431.3,266 			"/>
			<polygon opacity="0.29" points="431.3,181 431.3,266 425.3,269 425.3,184 			"/>
			<polygon opacity="0.11" points="425.3,184 420.8,181.8 327.8,135.3 322.5,147.3 328.9,151 332.3,143.5 419.3,187 419.3,266 
				425.3,269 			"/>
		</g>
		<g>
			<polygon fill="#2D3134" points="347.3,220 419.3,184 419.3,182.5 330.8,138.3 258.8,174.3 258.8,175.8 			"/>
			<polygon opacity="0.29" points="419.3,182.5 419.3,184 347.3,220 347.3,218.5 			"/>
			<polygon opacity="0.11" points="258.8,174.3 258.8,175.8 347.3,220 347.3,218.5 			"/>
		</g>
		<g>
			<polygon fill="#2D3134" points="353.3,220 348.8,217.8 255.8,171.3 249.8,174.3 207,282.5 213,285.5 219,282.5 258.8,184.8 
				341.3,226 341.3,305 347.3,308 353.3,305 			"/>
			<polygon opacity="0.29" points="353.3,220 353.3,305 347.3,308 347.3,223 			"/>
			<polygon opacity="0.11" points="347.3,223 342.8,220.8 249.8,174.3 207,282.5 213,285.5 254.3,182.5 341.3,226 341.3,305 
				347.3,308 			"/>
			<polygon opacity="0.29" points="254.3,182.5 213,285.5 219,282.5 258.8,184.8 			"/>
		</g>
	</g>
	<polygon fill="#FF9900" points="203.2,279.6 237.2,297.5 256.5,354.7 248.2,357.5 244.3,355.8 227.5,306.5 195,290 195,282.4 	"/>
	<polygon opacity="0.11" points="244.4,355.8 248.2,357.5 248.3,357.4 229,300.2 195,282.4 195,290 227.5,306.5 	"/>
	<polygon opacity="0.29" points="237.2,297.5 229,300.2 248.3,357.4 248.2,357.5 248.2,357.5 256.5,354.7 	"/>
	<polygon opacity="0.2" points="316.1,339.4 315.6,339.1 275.1,318.1 275.4,317.4 315.4,338.1 315.4,302.8 316.1,302.8 	"/>
	<path opacity="0.11" d="M450,287.7c0-0.1,0-0.3,0-0.4l0,0c-0.4,17.6-29,31.8-64.3,31.8c-18.8,0-35.8-4.1-47.5-10.5l0,0l-17.9-9.5
		l-4.5,3.8l-40.5-21v36l62.9,32.5l0,0c11.8,6.5,28.7,10.5,47.5,10.5c6.2,0,12.1-0.4,17.8-1.3v-4.3l6,3v0.3c2.1-0.4,4.1-0.9,6-1.4
		v-4.9l6,3v0.1c2.1-0.7,4.1-1.5,6-2.3V347l6,3v0.1c2.2-1.2,4.2-2.5,6-3.9v-9l6,3v0.2c2.8-3.5,4.4-7.4,4.5-11.4l0,0L450,287.7
		L450,287.7z"/>
</g>
</svg>
