<?xml version="1.0" encoding="utf-8"?>
<!-- Generator: Adobe Illustrator 18.1.0, SVG Export Plug-In . SVG Version: 6.00 Build 0)  -->
<svg version="1.1" id="Layer_1" xmlns="http://www.w3.org/2000/svg" xmlns:xlink="http://www.w3.org/1999/xlink" x="0px" y="0px"
	 viewBox="0 0 480 480" enable-background="new 0 0 480 480" xml:space="preserve">
<polygon opacity="0.3" points="220,369.9 240,359.9 340,410 420,370 320,319.9 340,309.9 140,209.9 20,269.9 "/>
<polygon fill="#2D3134" points="60.1,264.9 135,223.6 123.6,206.7 47.4,248.7 "/>
<g>
	<path fill="#2D3134" d="M310,248.4c-7.3-3.7-14-4.1-19-1.9l0,0l-13.8,6.9l0,0c-5.3,2.4-8.6,7.8-8.6,15.7
		c0,15.3,12.3,33.8,27.6,41.4c7.5,3.8,14.4,4.2,19.3,1.7c0,0,13.7-6.8,14.9-7.5c4.5-2.7,7.2-7.8,7.2-15
		C337.6,274.6,325.3,256,310,248.4z"/>
	<path opacity="0.39" d="M315.9,312.2c2-1,13.5-6.7,14.5-7.4c4.5-2.7,7.2-7.8,7.2-15c0-6.1-2-12.8-5.4-19.1l-13.8,6.9
		c3.4,6.3,5.4,12.9,5.4,19.1C323.8,304.3,320.8,309.6,315.9,312.2z"/>
	<path fill="#A9ABB0" d="M316.9,293.1c0,11.4-9.3,16.1-20.7,10.4c-11.4-5.7-20.7-19.6-20.7-31.1c0-11.4,9.3-16.1,20.7-10.4
		C307.7,267.8,316.9,281.7,316.9,293.1z"/>
	<path fill="#808285" d="M298,302.8c-11.4-5.7-20.7-19.6-20.7-31.1c0-5.6,2.2-9.6,5.9-11.5c-4.6,1.5-7.6,5.8-7.6,12.2
		c0,11.4,9.3,25.4,20.7,31.1c5.8,2.9,11,3.1,14.8,1.2C307.5,305.8,302.9,305.2,298,302.8z"/>
	<path fill="#2D3134" d="M306.6,286.4c0,4.8-3.9,6.7-8.6,4.3c-4.8-2.4-8.6-8.2-8.6-13c0-4.8,3.9-6.7,8.6-4.3
		C302.7,275.8,306.6,281.6,306.6,286.4z"/>
	<path opacity="0.39" d="M306.6,286.4c0,4.8-3.9,6.7-8.6,4.3c-4.8-2.4-8.6-8.2-8.6-13c0-4.8,3.9-6.7,8.6-4.3
		C302.7,275.8,306.6,281.6,306.6,286.4z"/>
	<path fill="#2D3134" d="M304.9,287.2c0,4.8-3.9,6.7-8.6,4.3s-8.6-8.2-8.6-13c0-4.8,3.9-6.7,8.6-4.3
		C301,276.6,304.9,282.4,304.9,287.2z"/>
	<path opacity="0.06" d="M323.8,296.8c0,15.3-12.3,21.4-27.6,13.8c-15.2-7.6-27.6-26.2-27.6-41.4
		c0-15.3,12.3-21.4,27.6-13.8C311.5,262.9,323.8,281.5,323.8,296.8z"/>
</g>
<polygon fill="#FF9900" points="322.6,254.1 233.4,209.4 233.4,165.6 189.6,144.1 186.1,132.9 177.2,123.5 42.1,140.4 42.1,213.1 
	77.6,231 104.1,281.1 169.1,313.9 199.8,298 245.9,328.9 331.4,286.1 "/>
<g>
	<path fill="#2D3134" d="M64.5,225.4c-6.8-3.4-13-3.8-17.6-1.8l0,0L34,230.1l0,0c-4.9,2.2-8,7.3-8,14.6c0,14.2,11.5,31.4,25.7,38.5
		c7,3.5,13.4,3.9,18,1.6c0,0,12.8-6.4,13.8-7c4.1-2.5,6.7-7.3,6.7-13.9C90.2,249.7,78.7,232.5,64.5,225.4z"/>
	<path opacity="0.39" d="M70,284.7c1.8-0.9,12.6-6.3,13.5-6.8c4.1-2.5,6.7-7.3,6.7-13.9c0-5.7-1.9-11.9-5-17.7l-12.8,6.4
		c3.1,5.8,5,12,5,17.7C77.4,277.4,74.5,282.3,70,284.7z"/>
	<path fill="#A9ABB0" d="M70.9,267c0,10.6-8.6,14.9-19.3,9.6s-19.3-18.3-19.3-28.9c0-10.6,8.6-14.9,19.3-9.6S70.9,256.3,70.9,267z"
		/>
	<path fill="#808285" d="M53.3,275.9C42.6,270.6,34,257.7,34,247c0-5.2,2.1-8.9,5.5-10.7c-4.3,1.4-7.1,5.4-7.1,11.4
		c0,10.6,8.6,23.6,19.3,28.9c5.4,2.7,10.3,2.9,13.8,1.1C62.1,278.7,57.9,278.2,53.3,275.9z"/>
	<path fill="#2D3134" d="M61.3,260.7c0,4.4-3.6,6.2-8,4c-4.4-2.2-8-7.6-8-12c0-4.4,3.6-6.2,8-4C57.7,250.9,61.3,256.3,61.3,260.7z"
		/>
	<path opacity="0.39" d="M61.3,260.7c0,4.4-3.6,6.2-8,4c-4.4-2.2-8-7.6-8-12c0-4.4,3.6-6.2,8-4C57.7,250.9,61.3,256.3,61.3,260.7z"
		/>
	<path fill="#2D3134" d="M59.7,261.4c0,4.4-3.6,6.2-8,4c-4.4-2.2-8-7.6-8-12c0-4.4,3.6-6.2,8-4C56.1,251.6,59.7,257,59.7,261.4z"/>
	<path opacity="0.06" d="M77.4,270.3c0,14.2-11.5,19.9-25.7,12.8S26,258.8,26,244.7s11.5-19.9,25.7-12.8
		S77.4,256.2,77.4,270.3z"/>
</g>
<polygon opacity="0.11" points="245.9,328.9 199.8,298 169.1,313.9 104.1,281.1 77.6,231 42.1,213.1 42.1,140.4 100.6,175.6 
	104.1,186.9 147.4,208.4 147.4,252.1 237.1,296.9 "/>
<polygon fill="#2D3134" points="147.1,252.9 181.3,269.7 251.4,234.9 216.1,216.9 "/>
<polygon opacity="0.29" points="147.1,209.1 233.4,166.9 233.4,209.1 147.1,252.9 "/>
<path fill="#3399CC" d="M212,113.9c3.1,1.2,6.2,8.5,9,13.4c2.8,4.9,9.5,14.5,10.5,15.4s8.2,7.8,9.3,9.8c1.1,2,2.2,3.6,2.2,3.6
	l-9.2,2.6c0,0-4.6-4-6.2-6.1c-1.2-1.5-2.3-3.1-3.7-4.3c-1.4-1.2-14.6-12.6-14.6-12.6L212,113.9z"/>
<g>
	<polygon fill="#2D3134" points="255.1,76.4 250.6,73.4 157.6,26.9 151.6,29.9 151.6,121.6 157.6,124.6 163.6,121.6 163.6,41.9 
		244.6,82.4 297.1,246.1 303.1,249.1 309.1,246.1 	"/>
	<polygon opacity="0.29" points="255.1,76.4 309.1,246.1 303.1,249.1 249.1,79.4 	"/>
	<polygon opacity="0.11" points="249.1,79.4 244.6,76.4 151.6,29.9 151.6,121.6 157.6,124.6 157.6,38.9 244.6,82.4 297.1,246.1 
		303.1,249.1 	"/>
	<polygon opacity="0.29" points="157.6,38.9 157.6,124.6 163.6,121.6 163.6,41.9 	"/>
</g>
<ellipse fill="#FF9900" cx="113.9" cy="140.4" rx="71.7" ry="35.9"/>
<polygon opacity="0.29" points="100.6,175.6 104.1,186.9 189.6,144.1 186.1,132.9 "/>
<polygon opacity="0.2" points="189.6,144.1 188.1,139.1 155.4,122.8 83.4,158.8 83.4,160.3 164.3,200.7 233.4,166.9 233.4,165.6 "/>
<g>
	<polygon fill="#2D3134" points="141.1,186.9 175.6,169.6 175.6,165.1 165.9,128.4 162.9,126.9 128.4,144.1 133.6,183.1 	"/>
	<polygon opacity="0.29" points="165.9,128.4 175.6,165.1 175.6,169.6 141.1,186.9 141.1,182.4 131.4,145.6 	"/>
	<polygon opacity="0.11" points="128.4,144.1 133.6,183.1 141.1,186.9 141.1,182.4 131.4,145.6 	"/>
</g>
<g>
	<polygon fill="#2D3134" points="168.1,200.4 202.6,183.1 202.6,178.6 175.6,165.1 141.1,182.4 141.1,186.9 	"/>
	<polygon opacity="0.29" points="202.6,178.6 202.6,183.1 168.1,200.4 168.1,195.9 	"/>
	<polygon opacity="0.11" points="141.1,182.4 141.1,186.9 168.1,200.4 168.1,195.9 	"/>
</g>
<g>
	<path fill="none" d="M216.3,239.8c-0.2,1.3-1.2,7-0.2,8.3s3.2,1.6,5.7,1.9s6.8,0.2,9.7,1.5c2.9,1.3,7.8,2.7,12.3,3.2
		c4.5,0.5,6.6-1.7,6.7-4c0.1-2.3-1.4-4.4-4.3-5.1s-12.9-4.6-14.2-5.9S216.3,239.8,216.3,239.8z"/>
	<path fill="none" d="M179.1,249.4c0,0-3.3,6.9-3.2,8.8s3.7,5,5.5,6.7c1.8,1.7,7.3,6.1,9.9,6.8s11.4,0,12.4-1.8
		c1-1.8-4.2-6.6-6.4-8.4c-2.2-1.8-5.3-5.4-6.4-7.8c-1.1-2.4-1.4-2.9-1.4-2.9L179.1,249.4z"/>
	<path fill="#825012" d="M190.8,250.4l-12.4-0.4c0,0-2.4,3.3-1.8,6c0.7,2.7,4.4,6.9,5.3,8.6c0.9,1.8,2.7,7.5,7.8,8.9
		s11.7,0.9,12.6-2.4c0.7-2.6-10-15.1-10.4-16.2S190.8,250.4,190.8,250.4z"/>
	<path opacity="0.4" d="M181.9,264.6c-0.9-1.8-4.7-6-5.3-8.6c-0.2-0.9-0.1-2,0.2-2.9c0.5,1.3,1.3,3.2,2.1,4.2
		c1.5,1.6,4.5,7.9,6.2,10.9c2.2,4,12.8,6.8,17.1,2.2c0.1,0.3,0.1,0.5,0,0.7c-0.9,3.3-7.5,3.8-12.6,2.4S182.8,266.4,181.9,264.6z"/>
	<path fill="#825012" d="M231.3,239.8c4.5,2.8,12.7,4.8,15.3,6.3c2.9,1.6,4.7,7.6-1.3,8c-6,0.4-16-3.9-19.4-3.9s-9.7-1.1-10.6-3
		c-0.9-1.9,0.4-6.9,0.4-6.9L231.3,239.8z"/>
	<path opacity="0.4" d="M215.4,247.2c-0.1-0.2-0.2-0.5-0.2-0.8c2.9,1.3,7.9,2.1,11.3,2.2c3,0.1,13.2,4.1,18,4.1
		c2.3,0,3.9-0.8,4.8-1.6c-0.2,1.5-1.3,2.8-4,3c-6,0.4-16-3.9-19.4-3.9S216.2,249.1,215.4,247.2z"/>
	<path fill="#06547A" d="M185.2,164.8c0,0,32.5,11,38.1,14.4c5.6,3.4,8.4,6.9,8.6,12.3c0.2,5.4-1.3,33.2-0.6,38.4
		c0.6,5.2,2.4,11,2.4,11s-2.7,4-18.3,1.3c-1.3-0.2-2.4-34.3-2.4-37.7c0-3.4,0.6-8.9,0.6-8.9s-8.3-1.4-17.5-3.4
		c-8.8-1.9-23.3-9.2-23.3-9.2l-0.6-19.4L185.2,164.8z"/>
	<path opacity="0.2" d="M185.2,164.8c0,0,32.5,11,38.1,14.4c5.6,3.4,8.4,6.9,8.6,12.3c0.2,5.4-1.3,33.2-0.6,38.4
		c0.6,5.2,2.4,11,2.4,11s-2.7,4-18.3,1.3c-1.3-0.2-2.4-34.3-2.4-37.7c0-3.4,0.6-8.9,0.6-8.9s-8.3-1.4-17.5-3.4
		c-8.8-1.9-23.3-9.2-23.3-9.2l-0.6-19.4L185.2,164.8z"/>
	<path fill="#06547A" d="M153.1,159c0,0-4.8,7.8-5.8,15.1c-1,7.4,0.4,12.7,6.2,17.5c3.6,3,19,17.2,20.3,20
		c1.3,2.8,0.5,39.2,1.8,41.2c1.3,1.9,6.5,3.3,10.7,3.2c4.4-0.1,6.7-2.4,6.5-3.2s2.3-36.3,0.6-43.5C192,203,177,179.5,177,179.5
		l3.7-14L153.1,159z"/>
</g>
<g>
	<g>
		<path fill="#3399CC" d="M192.1,111c-8.5,0.6-22.1,2.7-25.6,7.2c-3.6,4.5-7.5,14.9-8.6,21.3c-1.1,6.5-1.6,13.4-3.9,16.8
			c-2.3,3.4-5.5,7.8-4.9,9.3c0.5,1.5,14.8,3.1,22.3,4.2c7.4,1.1,18.6-3.1,20-3.8s1.1-9.7,2.7-12.7c1.6-3,9.7-10.3,11.5-13
			c1.8-2.7,4-3.9,5.6-7.4c1.6-3.6,6.4-12.2,4.7-15.2C214.3,114.7,212,109.5,192.1,111z"/>
		<path fill="#99CC33" d="M200.7,127c-2.3,6.8-6.9,14.2-9.9,20.5c-2.2,4.6-8.3,21.8-7.9,22.9s7,0.2,8.1-0.6s1-11.9,9.1-21.9
			c3.8-4.8,9.4-11.5,9.4-11.5s-3.7-2-1-11.6c1.2-4.5,2.3-12.7,2.3-12.7l-4.6-0.9C206.1,111,202.8,120.6,200.7,127z"/>
		<path fill="#99CC33" d="M183.8,111.8c0,0,4.8,11.9,4.7,24.6s-7.4,32.3-8.5,34.6c-1.7,3.5-33.9,5.1-32.6-4.3
			c0.3-2.3,7-11.5,8.2-18.8c1.6-9.9,4.5-23.5,10.1-29.4C171.3,112.5,183.8,111.8,183.8,111.8z"/>
	</g>
	<path fill="#FBD7C7" d="M202.5,119.2c0,0,4.1,2.4,6,0.4c1.9-2,6.6-11.2,7.2-18.2c0.6-7-1-14.7-11.5-15c-10.5-0.3-11.5,7.5-11.8,9.1
		c-0.4,1.6-1.1,5.6-1,7.1c0.1,1.5,0.5,3.2,0.5,3.2s-1,2.7-2.2,4c-1.2,1.2-4.7,2.8-3.7,7.1c1,4.3,6.3,7,10.2,7
		C200.2,123.9,202.5,119.2,202.5,119.2z"/>
	<path fill="#762C07" d="M191.6,105l0.5,0.8c0,0-1.5-6.2,0.8-7.2c2.3-0.9,3.1,2.4,3.1,2.4s1.1,1.6,1.9,1.3c0.9-0.3,3.2-3.8,5.1-3.7
		c1.9,0.1,4.9,2.8,8.5,2.7c3.6-0.1,4.5-1.8,4.5-1.8s2.3-11.2-10-13.5c-12.3-2.2-14.8,8.7-15,10.8C190.4,101.6,191.6,105,191.6,105z"
		/>
</g>
<g>
	<polygon fill="#FF9900" points="181.3,229.4 243.2,199.7 256,199.7 272.6,254.4 210.6,284.5 181.3,269.7 	"/>
	<polygon opacity="0.11" points="181.3,229.4 195.9,229.4 210.6,284.5 181.3,269.7 	"/>
	<polygon opacity="0.29" points="195.9,229.4 256,199.7 272.6,254.4 210.6,284.5 	"/>
</g>
<g>
	<polygon fill="#2D3134" points="285.5,97 298.3,91 310.3,97 310.3,326.5 260,352 248,346 248,116.5 260,110.5 272,116.5 272,322.8 
		285.5,316 	"/>
	<polygon opacity="0.29" points="298.3,103 298.3,322.8 272,335.5 272,116.5 260,122.5 260,352 310.3,326.5 310.3,97 	"/>
	<polygon opacity="0.11" points="248,346 260,352 260,122.5 248,116.5 	"/>
	<polygon opacity="0.11" points="285.5,316 298.3,322.8 298.3,103 285.5,97 	"/>
</g>
<g>
	<polygon fill="#2D3134" points="298.3,100.8 305.8,97 305.8,6.3 298.3,2.5 290.8,6.3 290.8,97 	"/>
	<polygon opacity="0.29" points="305.8,6.3 305.8,97 298.3,100.8 298.3,10 	"/>
	<polygon opacity="0.11" points="290.8,6.3 290.8,97 298.3,100.8 298.3,10 	"/>
</g>
<g>
	<polygon fill="#2D3134" points="260,120.3 267.5,116.5 267.5,25.8 260,22 252.5,25.8 252.5,116.5 	"/>
	<polygon opacity="0.29" points="267.5,25.8 267.5,116.5 260,120.3 260,29.5 	"/>
	<polygon opacity="0.11" points="252.5,25.8 252.5,116.5 260,120.3 260,29.5 	"/>
</g>
<g>
	<path fill="#2D3134" d="M279.5,135.3c-2.9,0-5.3,1.2-5.3,2.6v187.5c0,1.4,2.4,2.6,5.3,2.6s5.3-1.2,5.3-2.6V137.9
		C284.8,136.4,282.4,135.3,279.5,135.3z"/>
	<path opacity="0.2" d="M279.5,140.5c-2.9,0-5.3-1.2-5.3-2.6v187.5c0,1.4,2.4,2.6,5.3,2.6s5.3-1.2,5.3-2.6V137.9
		C284.8,139.3,282.4,140.5,279.5,140.5z"/>
</g>
<g>
	<path fill="#2D3134" d="M219.4,168.1c-1.7,0.4-2.9,1.5-2.6,2.3l10.1,37.9c0.2,0.8,1.8,1.2,3.4,0.7c1.7-0.4,2.9-1.5,2.6-2.3
		l-10.1-37.9C222.6,167.9,221,167.6,219.4,168.1z"/>
	<path opacity="0.2" d="M220.2,171.1c-1.7,0.4-3.2,0.1-3.4-0.7l10.1,37.9c0.2,0.8,1.8,1.2,3.4,0.7c1.7-0.4,2.9-1.5,2.6-2.3
		l-10.1-37.9C223,169.6,221.9,170.7,220.2,171.1z"/>
</g>
<g>
	<path fill="#2D3134" d="M279.5,115.8c-4.1,0-7.5,1.7-7.5,3.8V145c0,2.1,3.4,3.8,7.5,3.8s7.5-1.7,7.5-3.8v-25.5
		C287,117.4,283.6,115.8,279.5,115.8z"/>
	<path opacity="0.2" d="M279.5,123.3c-4.1,0-7.5-1.7-7.5-3.8V145c0,2.1,3.4,3.8,7.5,3.8s7.5-1.7,7.5-3.8v-25.5
		C287,121.6,283.6,123.3,279.5,123.3z"/>
</g>
<g>
	<path fill="#E5E5E5" d="M279.5,31c-2.1,0-3.8,0.8-3.8,1.9v86.3c0,1,1.7,1.9,3.8,1.9s3.8-0.8,3.8-1.9V32.9
		C283.3,31.8,281.6,31,279.5,31z"/>
	<path opacity="0.2" d="M279.5,34.8c-2.1,0-3.8-0.8-3.8-1.9v86.3c0,1,1.7,1.9,3.8,1.9s3.8-0.8,3.8-1.9V32.9
		C283.3,33.9,281.6,34.8,279.5,34.8z"/>
</g>
<g>
	<path fill="#2D3134" d="M279.5,12.3c-4.1,0-7.5,1.7-7.5,3.8v16.5c0,2.1,3.4,3.8,7.5,3.8s7.5-1.7,7.5-3.8V16
		C287,13.9,283.6,12.3,279.5,12.3z"/>
	<path opacity="0.2" d="M279.5,19.8c-4.1,0-7.5-1.7-7.5-3.8v16.5c0,2.1,3.4,3.8,7.5,3.8s7.5-1.7,7.5-3.8V16
		C287,18.1,283.6,19.8,279.5,19.8z"/>
</g>
<path fill="#2D3134" d="M244.5,161.5c-0.7-2-3-2.9-7.2-2.9c-5.3,0-12.9,1.5-20.8,4.1c-6.6,2.2-12.6,4.8-16.9,7.5
	c-5.1,3.1-7.1,5.8-6.4,8.2c0.7,2,3,2.9,7.2,2.9c5.3,0,12.9-1.5,20.8-4.1C230.1,174.3,246.4,167.3,244.5,161.5z M217.4,165.5
	c5.4-1.8,10.8-3.1,15.2-3.6l-13.3,6.2l-10.8,0.8C211.2,167.7,214.2,166.6,217.4,165.5z M196.1,177.5c-0.1-0.3,0.6-1.9,5.1-4.7
	c0.1-0.1,0.3-0.2,0.4-0.3l15.5-1.2l-2.3,4.7c-5.5,1.5-10.6,2.3-14.3,2.3C197.1,178.4,196.2,177.7,196.1,177.5z M220.3,174.4
	c-0.6,0.2-1.1,0.4-1.7,0.5l2.1-4.2l19.2-9c1.2,0.2,1.7,0.6,1.7,0.7C242.1,163.8,235.4,169.4,220.3,174.4z"/>
<g>
	<path fill="#FBD7C7" d="M188.9,167.5c0,0,7.3,2.2,10.1,2.2s10.1-0.7,12.4-0.1c2.3,0.6,7,1.8,7.2,2.7s-3.7,8.5-5.7,8.8
		s-3.2,1.1-4.7,0.6c-1.5-0.5-6.7-0.8-8.3-1.7s-3.7-3.3-5.4-3.6c-1.7-0.3-8.2-2.9-8.2-2.9L188.9,167.5z"/>
	<path fill="#3399CC" d="M171.6,117.8c3.3-0.5,9.2,0.5,9.2,7.5c-0.1,9.3-3.3,18-4.6,22.4c-1.3,4.4-2.5,11.9-2.5,11.9
		s4.8,2.3,8.4,3.1c3.7,0.8,11,5.2,11,5.2l3.7,0.9l-2.4,8.6l-5-1.3c0,0-9.6-1.7-14.4-2.5c-4.8-0.8-14.2-3.3-15.4-6s1.5-20.8,2.2-27.9
		C162.7,131.4,161.1,119.5,171.6,117.8z"/>
</g>
<g>
	<polygon fill="#2D3134" points="171.1,114.6 243.1,78.6 243.1,77.1 154.6,32.9 82.6,68.9 82.6,70.4 	"/>
	<polygon opacity="0.29" points="243.1,77.1 243.1,78.6 171.1,114.6 171.1,113.1 	"/>
	<polygon opacity="0.11" points="82.6,68.9 82.6,70.4 171.1,114.6 171.1,113.1 	"/>
</g>
<g>
	<polygon fill="#2D3134" points="257.8,31.8 307.3,7 307.3,4 299.8,0.3 250.3,25 250.3,28 	"/>
	<polygon opacity="0.29" points="307.3,4 307.3,7 257.8,31.8 257.8,28.8 	"/>
	<polygon opacity="0.11" points="250.3,25 250.3,28 257.8,31.8 257.8,28.8 	"/>
</g>
<polygon fill="#FF9900" points="189,273.6 210.6,284.5 224.9,277.5 237,283.6 250,339.2 246.6,341.3 234.6,288.3 217.4,297.1 
	185.3,281.4 167.6,320.9 165,319.1 183,276.9 "/>
<polygon opacity="0.11" points="217.3,293.7 217.4,297.1 185.3,281.4 167.6,320.9 165,319.1 183,276.9 "/>
<polygon opacity="0.29" points="237,283.6 250,339.2 246.6,341.3 234.6,288.3 217.4,297.1 217.3,293.7 "/>
<polygon fill="#FF9900" points="167.6,320.9 186.8,311.3 246.6,341.3 234.6,288.3 217.4,297.1 185.3,281.4 "/>
<polygon opacity="0.4" points="167.6,320.9 186.8,311.3 246.6,341.3 234.6,288.3 217.4,297.1 185.3,281.4 "/>
<g>
	<path fill="#2D3134" d="M214.4,296.6c-7.3-3.7-14-4.1-19-1.9l0,0l-13.8,6.9l0,0c-5.3,2.4-8.6,7.8-8.6,15.7
		c0,15.3,12.3,33.8,27.6,41.4c7.5,3.8,14.4,4.2,19.3,1.7c0,0,13.7-6.8,14.9-7.5c4.5-2.7,7.2-7.8,7.2-15
		C242,322.8,229.6,304.3,214.4,296.6z"/>
	<path opacity="0.39" d="M220.3,360.4c2-1,13.5-6.7,14.5-7.4c4.5-2.7,7.2-7.8,7.2-15c0-6.1-2-12.8-5.4-19.1l-13.8,6.9
		c3.4,6.3,5.4,12.9,5.4,19.1C228.2,352.5,225.2,357.9,220.3,360.4z"/>
	<path fill="#A9ABB0" d="M221.3,341.4c0,11.4-9.3,16.1-20.7,10.4c-11.4-5.7-20.7-19.6-20.7-31.1c0-11.4,9.3-16.1,20.7-10.4
		C212,316,221.3,329.9,221.3,341.4z"/>
	<path fill="#808285" d="M202.3,351c-11.4-5.7-20.7-19.6-20.7-31.1c0-5.6,2.2-9.6,5.9-11.5c-4.6,1.5-7.6,5.8-7.6,12.2
		c0,11.4,9.3,25.4,20.7,31.1c5.8,2.9,11,3.1,14.8,1.2C211.9,354,207.3,353.5,202.3,351z"/>
	<path fill="#2D3134" d="M211,334.6c0,4.8-3.9,6.7-8.6,4.3c-4.8-2.4-8.6-8.2-8.6-13c0-4.8,3.9-6.7,8.6-4.3
		C207.1,324,211,329.8,211,334.6z"/>
	<path opacity="0.39" d="M211,334.6c0,4.8-3.9,6.7-8.6,4.3c-4.8-2.4-8.6-8.2-8.6-13c0-4.8,3.9-6.7,8.6-4.3
		C207.1,324,211,329.8,211,334.6z"/>
	<path fill="#2D3134" d="M209.2,335.4c0,4.8-3.9,6.7-8.6,4.3c-4.8-2.4-8.6-8.2-8.6-13c0-4.8,3.9-6.7,8.6-4.3
		C205.4,324.8,209.2,330.6,209.2,335.4z"/>
	<path opacity="0.06" d="M228.2,345c0,15.3-12.3,21.4-27.6,13.8c-15.2-7.6-27.6-26.2-27.6-41.4s12.3-21.4,27.6-13.8
		C215.9,311.2,228.2,329.7,228.2,345z"/>
</g>
<g>
	<polygon fill="#2D3134" points="177.1,115.4 172.6,112.4 79.6,65.9 73.6,68.9 73.6,160.6 79.6,163.6 85.6,160.6 85.6,80.9 
		166.6,121.4 219.1,285.1 225.1,288.1 231.1,285.1 	"/>
	<polygon opacity="0.29" points="177.1,115.4 231.1,285.1 225.1,288.1 171.1,118.4 	"/>
	<polygon opacity="0.11" points="171.1,118.4 166.6,115.4 73.6,68.9 73.6,160.6 79.6,163.6 79.6,77.9 166.6,121.4 219.1,285.1 
		225.1,288.1 	"/>
	<polygon opacity="0.29" points="79.6,77.9 79.6,163.6 85.6,160.6 85.6,80.9 	"/>
</g>
<polygon opacity="0.2" points="147,253.2 103.8,231.4 103.8,186.9 104.5,186.9 104.5,230.9 147.3,252.5 "/>
<g>
	<g>
		<polygon fill="#825012" points="318,404 318,408 328,413 410,372 410,368 400,363 		"/>
		<polygon opacity="0.11" points="328,413 318,408 318,404 328,409 		"/>
		<polygon opacity="0.29" points="328,413 410,372 410,368 328,409 		"/>
	</g>
	<g>
		<polygon fill="#825012" points="390,358 390,368 400,373 410,368 410,358 400,353 		"/>
		<polygon opacity="0.11" points="400,373 390,368 390,358 400,363 		"/>
		<polygon opacity="0.29" points="400,373 410,368 410,358 400,363 		"/>
	</g>
	<g>
		<polygon fill="#825012" points="354,376 354,386 364,391 374,386 374,376 364,371 		"/>
		<polygon opacity="0.11" points="364,391 354,386 354,376 364,381 		"/>
		<polygon opacity="0.29" points="364,391 374,386 374,376 364,381 		"/>
	</g>
	<g>
		<polygon fill="#825012" points="410,354 410,358 400,363 320,323 320,319 330,314 		"/>
		<polygon opacity="0.29" points="400,363 410,358 410,354 400,359 		"/>
		<polygon opacity="0.11" points="400,363 320,323 320,319 400,359 		"/>
	</g>
	<g>
		<polygon fill="#825012" points="282,386 282,390 292,395 372,355 372,351 362,346 		"/>
		<polygon opacity="0.11" points="292,395 282,390 282,386 292,391 		"/>
		<polygon opacity="0.29" points="292,395 372,355 372,351 292,391 		"/>
	</g>
	<g>
		<polygon fill="#825012" points="246,368 246,372 256,377 336,337 336,333 326,328 		"/>
		<polygon opacity="0.11" points="256,377 246,372 246,368 256,373 		"/>
		<polygon opacity="0.29" points="256,377 336,337 336,333 256,373 		"/>
	</g>
	<g>
		<polygon fill="#2D3134" points="331,305.5 334,304 334,174.3 326.5,170.5 323.5,172 323.5,301.8 		"/>
		<polygon opacity="0.29" points="334,174.3 334,304 331,305.5 331,175.8 		"/>
		<polygon opacity="0.11" points="323.5,172 323.5,301.8 331,305.5 331,175.8 		"/>
	</g>
	<g>
		<polygon fill="#2D3134" points="235,310 329.5,262.8 329.5,253.8 326.5,252.3 232,299.5 232,308.5 		"/>
		<polygon opacity="0.29" points="329.5,253.8 329.5,262.8 235,310 235,301 		"/>
		<polygon opacity="0.11" points="232,299.5 232,308.5 235,310 235,301 		"/>
	</g>
	<g>
		<polygon fill="#2D3134" points="236.5,232 331,184.8 331,175.8 323.5,172 229,219.3 229,228.3 		"/>
		<polygon opacity="0.29" points="331,175.8 331,184.8 236.5,232 236.5,223 		"/>
		<polygon opacity="0.11" points="229,219.3 229,228.3 236.5,232 236.5,223 		"/>
	</g>
	<g>
		<polygon fill="#2D3134" points="235,350.5 329.5,303.3 329.5,294.3 326.5,292.8 232,340 232,349 		"/>
		<polygon opacity="0.29" points="329.5,294.3 329.5,303.3 235,350.5 235,341.5 		"/>
		<polygon opacity="0.11" points="232,340 232,349 235,350.5 235,341.5 		"/>
	</g>
	<g>
		<polygon fill="#2D3134" points="233.5,354.3 236.5,352.8 236.5,223 229,219.3 226,220.8 226,350.5 		"/>
		<polygon opacity="0.29" points="236.5,223 236.5,352.8 233.5,354.3 233.5,224.5 		"/>
		<polygon opacity="0.11" points="226,220.8 226,350.5 233.5,354.3 233.5,224.5 		"/>
	</g>
	<g>
		<polygon fill="#FF9900" points="253.5,274.8 243,280 243,293.9 245.2,292.8 248.3,294.3 248.3,351.1 253.5,353.7 264,348.5 
			264,280 		"/>
		<polygon opacity="0.11" points="243,280 243,293.9 245.2,292.8 248.3,294.3 248.3,351.1 253.5,353.8 253.5,285.3 		"/>
		<g>
			<polygon fill="#FF9900" points="355.5,401.8 366,396.5 366,395 264,344 253.5,349.3 253.5,353.8 328.5,391.2 			"/>
			<polygon opacity="0.29" points="366,395 366,396.5 355.5,401.8 355.5,400.3 			"/>
			<polygon opacity="0.11" points="253.5,349.3 253.5,353.8 328.5,391.2 355.5,401.8 355.5,400.3 			"/>
		</g>
		<polygon opacity="0.29" points="264,280 264,344 253.5,349.3 253.5,285.3 		"/>
	</g>
	<g>
		<polygon fill="#FF9900" points="303.5,249.8 293,255.1 293,269 295.2,267.9 298.3,269.4 298.3,326.2 303.5,328.8 314,323.6 
			314,255.1 		"/>
		<polygon opacity="0.11" points="293,255.1 293,269 295.2,267.9 298.3,269.4 298.3,326.2 303.5,328.8 303.5,260.3 		"/>
		<g>
			<polygon fill="#FF9900" points="405.5,376.8 416,371.6 416,370.1 314,319.1 303.5,324.3 303.5,328.8 378.5,366.3 			"/>
			<polygon opacity="0.29" points="416,370.1 416,371.6 405.5,376.8 405.5,375.3 			"/>
			<polygon opacity="0.11" points="303.5,324.3 303.5,328.8 378.5,366.3 405.5,376.8 405.5,375.3 			"/>
		</g>
		<polygon opacity="0.29" points="314,255.1 314,319.1 303.5,324.3 303.5,260.3 		"/>
	</g>
	<g>
		<polygon fill="#825012" points="354,340 354,350 364,355 374,350 374,340 364,335 		"/>
		<polygon opacity="0.11" points="364,355 354,350 354,340 364,345 		"/>
		<polygon opacity="0.29" points="364,355 374,350 374,340 364,345 		"/>
	</g>
	<g>
		<polygon fill="#825012" points="282,376 282,386 292,391 302,386 302,376 292,371 		"/>
		<polygon opacity="0.11" points="292,391 282,386 282,376 292,381 		"/>
		<polygon opacity="0.29" points="292,391 302,386 302,376 292,381 		"/>
	</g>
	<g>
		<polygon fill="#825012" points="246,358 246,368 256,373 266,368 266,358 256,353 		"/>
		<polygon opacity="0.11" points="256,373 246,368 246,358 256,363 		"/>
		<polygon opacity="0.29" points="256,373 266,368 266,358 256,363 		"/>
	</g>
	<g>
		<polygon fill="#825012" points="318,322 318,332 328,337 338,332 338,322 328,317 		"/>
		<polygon opacity="0.11" points="328,337 318,332 318,322 328,327 		"/>
		<polygon opacity="0.29" points="328,337 338,332 338,322 328,327 		"/>
	</g>
	<g>
		<polygon fill="#825012" points="318,394 318,404 328,409 338,404 338,394 328,389 		"/>
		<polygon opacity="0.11" points="328,409 318,404 318,394 328,399 		"/>
		<polygon opacity="0.29" points="328,409 338,404 338,394 328,399 		"/>
	</g>
	<g>
		<polygon fill="#825012" points="338,390 338,394 328,399 246,358 246,354 256,349 		"/>
		<polygon opacity="0.29" points="328,399 338,394 338,390 328,395 		"/>
		<polygon opacity="0.11" points="328,399 246,358 246,354 328,395 		"/>
	</g>
	<g>
		<polygon fill="#825012" points="282,340 282,350 292,355 302,350 302,340 292,335 		"/>
		<polygon opacity="0.11" points="292,355 282,350 282,340 292,345 		"/>
		<polygon opacity="0.29" points="292,355 302,350 302,340 292,345 		"/>
	</g>
	<g>
		<polygon fill="#825012" points="374,372 374,376 364,381 284,341 284,337 294,332 		"/>
		<polygon opacity="0.29" points="364,381 374,376 374,372 364,377 		"/>
		<polygon opacity="0.11" points="364,381 284,341 284,337 364,377 		"/>
	</g>
	<g>
		<polygon fill="#825012" points="318,386 318,390 328,395 410,354 410,350 400,345 		"/>
		<polygon opacity="0.11" points="328,395 318,390 318,386 328,391 		"/>
		<polygon opacity="0.29" points="328,395 410,354 410,350 328,391 		"/>
	</g>
	<g>
		<polygon fill="#825012" points="300,377 300,381 310,386 392,345 392,341 382,336 		"/>
		<polygon opacity="0.11" points="310,386 300,381 300,377 310,382 		"/>
		<polygon opacity="0.29" points="310,386 392,345 392,341 310,382 		"/>
	</g>
	<g>
		<polygon fill="#825012" points="282,368 282,372 292,377 374,336 374,332 364,327 		"/>
		<polygon opacity="0.11" points="292,377 282,372 282,368 292,373 		"/>
		<polygon opacity="0.29" points="292,377 374,336 374,332 292,373 		"/>
	</g>
	<g>
		<polygon fill="#825012" points="264,359 264,363 274,368 356,327 356,323 346,318 		"/>
		<polygon opacity="0.11" points="274,368 264,363 264,359 274,364 		"/>
		<polygon opacity="0.29" points="274,368 356,327 356,323 274,364 		"/>
	</g>
	<g>
		<polygon fill="#825012" points="246,350 246,354 256,359 338,318 338,314 328,309 		"/>
		<polygon opacity="0.11" points="256,359 246,354 246,350 256,355 		"/>
		<polygon opacity="0.29" points="256,359 338,318 338,314 256,355 		"/>
	</g>
</g>
<g>
	<polygon fill="#FFCC00" points="250,270 250,350 330,390 410,350 410,270 330,230 	"/>
	<polygon opacity="0.11" points="330,390 250,350 250,270 330,310 	"/>
	<polygon opacity="0.3" points="300,245 280,255 360,295 360,335 380,325 380,285 	"/>
	<polygon opacity="0.29" points="330,390 410,350 410,270 330,310 	"/>
</g>
<path fill="#FBD7C7" d="M233.3,158.1c0.7-1.6,4.5-3.8,8.5-2.5c4,1.2,5.2,5.3,4.7,6.5c-0.5,1.2-5.4-0.3-7.3-1
	C237.3,160.5,232.3,160.4,233.3,158.1z"/>
</svg>
