<?xml version="1.0" encoding="utf-8"?>
<!-- Generator: Adobe Illustrator 18.1.0, SVG Export Plug-In . SVG Version: 6.00 Build 0)  -->
<svg version="1.1" id="Layer_1" xmlns="http://www.w3.org/2000/svg" xmlns:xlink="http://www.w3.org/1999/xlink" x="0px" y="0px"
	 viewBox="0 0 480 480" enable-background="new 0 0 480 480" xml:space="preserve">
<polygon opacity="0.3" points="220,369.9 240,359.9 340,410 360,400 280,360 320,340 400,380 420,370 320,319.9 340,309.9 
	140,209.9 20,269.9 "/>
<polygon fill="#2D3134" points="60.1,264.9 135,223.6 123.6,206.7 47.4,248.7 "/>
<g>
	<path fill="#2D3134" d="M310,248.4c-7.3-3.7-14-4.1-19-1.9l0,0l-13.8,6.9l0,0c-5.3,2.4-8.6,7.8-8.6,15.7
		c0,15.3,12.3,33.8,27.6,41.4c7.5,3.8,14.4,4.2,19.3,1.7c0,0,13.7-6.8,14.9-7.5c4.5-2.7,7.2-7.8,7.2-15
		C337.6,274.6,325.3,256,310,248.4z"/>
	<path opacity="0.39" d="M315.9,312.2c2-1,13.5-6.7,14.5-7.4c4.5-2.7,7.2-7.8,7.2-15c0-6.1-2-12.8-5.4-19.1l-13.8,6.9
		c3.4,6.3,5.4,12.9,5.4,19.1C323.8,304.3,320.8,309.6,315.9,312.2z"/>
	<path fill="#A9ABB0" d="M316.9,293.1c0,11.4-9.3,16.1-20.7,10.4c-11.4-5.7-20.7-19.6-20.7-31.1c0-11.4,9.3-16.1,20.7-10.4
		C307.7,267.8,316.9,281.7,316.9,293.1z"/>
	<path fill="#808285" d="M298,302.8c-11.4-5.7-20.7-19.6-20.7-31.1c0-5.6,2.2-9.6,5.9-11.5c-4.6,1.5-7.6,5.8-7.6,12.2
		c0,11.4,9.3,25.4,20.7,31.1c5.8,2.9,11,3.1,14.8,1.2C307.5,305.8,302.9,305.2,298,302.8z"/>
	<path fill="#2D3134" d="M306.6,286.4c0,4.8-3.9,6.7-8.6,4.3c-4.8-2.4-8.6-8.2-8.6-13c0-4.8,3.9-6.7,8.6-4.3
		C302.7,275.8,306.6,281.6,306.6,286.4z"/>
	<path opacity="0.39" d="M306.6,286.4c0,4.8-3.9,6.7-8.6,4.3c-4.8-2.4-8.6-8.2-8.6-13c0-4.8,3.9-6.7,8.6-4.3
		C302.7,275.8,306.6,281.6,306.6,286.4z"/>
	<path fill="#2D3134" d="M304.9,287.2c0,4.8-3.9,6.7-8.6,4.3s-8.6-8.2-8.6-13c0-4.8,3.9-6.7,8.6-4.3
		C301,276.6,304.9,282.4,304.9,287.2z"/>
	<path opacity="0.06" d="M323.8,296.8c0,15.3-12.3,21.4-27.6,13.8c-15.2-7.6-27.6-26.2-27.6-41.4
		c0-15.3,12.3-21.4,27.6-13.8C311.5,262.9,323.8,281.5,323.8,296.8z"/>
</g>
<polygon fill="#FF9900" points="322.6,254.1 233.4,209.4 233.4,165.6 189.6,144.1 186.1,132.9 177.2,123.5 42.1,140.4 42.1,213.1 
	77.6,231 104.1,281.1 169.1,313.9 199.8,298 245.9,328.9 331.4,286.1 "/>
<g>
	<path fill="#2D3134" d="M64.5,225.4c-6.8-3.4-13-3.8-17.6-1.8l0,0L34,230.1l0,0c-4.9,2.2-8,7.3-8,14.6c0,14.2,11.5,31.4,25.7,38.5
		c7,3.5,13.4,3.9,18,1.6c0,0,12.8-6.4,13.8-7c4.1-2.5,6.7-7.3,6.7-13.9C90.2,249.7,78.7,232.5,64.5,225.4z"/>
	<path opacity="0.39" d="M70,284.7c1.8-0.9,12.6-6.3,13.5-6.8c4.1-2.5,6.7-7.3,6.7-13.9c0-5.7-1.9-11.9-5-17.7l-12.8,6.4
		c3.1,5.8,5,12,5,17.7C77.4,277.4,74.5,282.3,70,284.7z"/>
	<path fill="#A9ABB0" d="M70.9,267c0,10.6-8.6,14.9-19.3,9.6s-19.3-18.3-19.3-28.9c0-10.6,8.6-14.9,19.3-9.6S70.9,256.3,70.9,267z"
		/>
	<path fill="#808285" d="M53.3,275.9C42.6,270.6,34,257.7,34,247c0-5.2,2.1-8.9,5.5-10.7c-4.3,1.4-7.1,5.4-7.1,11.4
		c0,10.6,8.6,23.6,19.3,28.9c5.4,2.7,10.3,2.9,13.8,1.1C62.1,278.7,57.9,278.2,53.3,275.9z"/>
	<path fill="#2D3134" d="M61.3,260.7c0,4.4-3.6,6.2-8,4c-4.4-2.2-8-7.6-8-12c0-4.4,3.6-6.2,8-4C57.7,250.9,61.3,256.3,61.3,260.7z"
		/>
	<path opacity="0.39" d="M61.3,260.7c0,4.4-3.6,6.2-8,4c-4.4-2.2-8-7.6-8-12c0-4.4,3.6-6.2,8-4C57.7,250.9,61.3,256.3,61.3,260.7z"
		/>
	<path fill="#2D3134" d="M59.7,261.4c0,4.4-3.6,6.2-8,4c-4.4-2.2-8-7.6-8-12c0-4.4,3.6-6.2,8-4C56.1,251.6,59.7,257,59.7,261.4z"/>
	<path opacity="0.06" d="M77.4,270.3c0,14.2-11.5,19.9-25.7,12.8S26,258.8,26,244.7s11.5-19.9,25.7-12.8
		S77.4,256.2,77.4,270.3z"/>
</g>
<polygon opacity="0.11" points="245.9,328.9 199.8,298 169.1,313.9 104.1,281.1 77.6,231 42.1,213.1 42.1,140.4 100.6,175.6 
	104.1,186.9 147.4,208.4 147.4,252.1 237.1,296.9 "/>
<polygon fill="#2D3134" points="147.1,252.9 181.3,269.7 251.4,234.9 216.1,216.9 "/>
<polygon opacity="0.29" points="147.1,209.1 233.4,166.9 233.4,209.1 147.1,252.9 "/>
<g>
	<polygon fill="#2D3134" points="255.1,76.4 250.6,73.4 157.6,26.9 151.6,29.9 151.6,121.6 157.6,124.6 163.6,121.6 163.6,41.9 
		244.6,82.4 297.1,246.1 303.1,249.1 309.1,246.1 	"/>
	<polygon opacity="0.29" points="255.1,76.4 309.1,246.1 303.1,249.1 249.1,79.4 	"/>
	<polygon opacity="0.11" points="249.1,79.4 244.6,76.4 151.6,29.9 151.6,121.6 157.6,124.6 157.6,38.9 244.6,82.4 297.1,246.1 
		303.1,249.1 	"/>
	<polygon opacity="0.29" points="157.6,38.9 157.6,124.6 163.6,121.6 163.6,41.9 	"/>
</g>
<ellipse fill="#FF9900" cx="113.9" cy="140.4" rx="71.7" ry="35.9"/>
<polygon opacity="0.29" points="100.6,175.6 104.1,186.9 189.6,144.1 186.1,132.9 "/>
<polygon opacity="0.2" points="189.6,144.1 188.1,139.1 155.4,122.8 83.4,158.8 83.4,160.3 164.3,200.7 233.4,166.9 233.4,165.6 "/>
<g>
	<polygon fill="#2D3134" points="141.1,186.9 175.6,169.6 175.6,165.1 165.9,128.4 162.9,126.9 128.4,144.1 133.6,183.1 	"/>
	<polygon opacity="0.29" points="165.9,128.4 175.6,165.1 175.6,169.6 141.1,186.9 141.1,182.4 131.4,145.6 	"/>
	<polygon opacity="0.11" points="128.4,144.1 133.6,183.1 141.1,186.9 141.1,182.4 131.4,145.6 	"/>
</g>
<g>
	<polygon fill="#2D3134" points="168.1,200.4 202.6,183.1 202.6,178.6 175.6,165.1 141.1,182.4 141.1,186.9 	"/>
	<polygon opacity="0.29" points="202.6,178.6 202.6,183.1 168.1,200.4 168.1,195.9 	"/>
	<polygon opacity="0.11" points="141.1,182.4 141.1,186.9 168.1,200.4 168.1,195.9 	"/>
</g>
<g>
	<polygon fill="#FF9900" points="181.3,229.4 243.2,199.7 256,199.7 272.6,254.4 210.6,284.5 181.3,269.7 	"/>
	<polygon opacity="0.11" points="181.3,229.4 195.9,229.4 210.6,284.5 181.3,269.7 	"/>
	<polygon opacity="0.29" points="195.9,229.4 256,199.7 272.6,254.4 210.6,284.5 	"/>
</g>
<g>
	<polygon fill="#2D3134" points="285.5,97 298.3,91 310.3,97 310.3,326.5 260,352 248,346 248,116.5 260,110.5 272,116.5 272,322.8 
		285.5,316 	"/>
	<polygon opacity="0.29" points="298.3,103 298.3,322.8 272,335.5 272,116.5 260,122.5 260,352 310.3,326.5 310.3,97 	"/>
	<polygon opacity="0.11" points="248,346 260,352 260,122.5 248,116.5 	"/>
	<polygon opacity="0.11" points="285.5,316 298.3,322.8 298.3,103 285.5,97 	"/>
</g>
<g>
	<polygon fill="#2D3134" points="298.3,100.8 305.8,97 305.8,6.3 298.3,2.5 290.8,6.3 290.8,97 	"/>
	<polygon opacity="0.29" points="305.8,6.3 305.8,97 298.3,100.8 298.3,10 	"/>
	<polygon opacity="0.11" points="290.8,6.3 290.8,97 298.3,100.8 298.3,10 	"/>
</g>
<g>
	<polygon fill="#2D3134" points="260,120.3 267.5,116.5 267.5,25.8 260,22 252.5,25.8 252.5,116.5 	"/>
	<polygon opacity="0.29" points="267.5,25.8 267.5,116.5 260,120.3 260,29.5 	"/>
	<polygon opacity="0.11" points="252.5,25.8 252.5,116.5 260,120.3 260,29.5 	"/>
</g>
<g>
	<path fill="#2D3134" d="M279.5,135.3c-2.9,0-5.3,1.2-5.3,2.6v187.5c0,1.4,2.4,2.6,5.3,2.6s5.3-1.2,5.3-2.6V137.9
		C284.8,136.4,282.4,135.3,279.5,135.3z"/>
	<path opacity="0.2" d="M279.5,140.5c-2.9,0-5.3-1.2-5.3-2.6v187.5c0,1.4,2.4,2.6,5.3,2.6s5.3-1.2,5.3-2.6V137.9
		C284.8,139.3,282.4,140.5,279.5,140.5z"/>
</g>
<g>
	<path fill="#2D3134" d="M219.4,168.1c-1.7,0.4-2.9,1.5-2.6,2.3l10.1,37.9c0.2,0.8,1.8,1.2,3.4,0.7c1.7-0.4,2.9-1.5,2.6-2.3
		l-10.1-37.9C222.6,167.9,221,167.6,219.4,168.1z"/>
	<path opacity="0.2" d="M220.2,171.1c-1.7,0.4-3.2,0.1-3.4-0.7l10.1,37.9c0.2,0.8,1.8,1.2,3.4,0.7c1.7-0.4,2.9-1.5,2.6-2.3
		l-10.1-37.9C223,169.6,221.9,170.7,220.2,171.1z"/>
</g>
<g>
	<path fill="#2D3134" d="M279.5,115.8c-4.1,0-7.5,1.7-7.5,3.8V145c0,2.1,3.4,3.8,7.5,3.8s7.5-1.7,7.5-3.8v-25.5
		C287,117.4,283.6,115.8,279.5,115.8z"/>
	<path opacity="0.2" d="M279.5,123.3c-4.1,0-7.5-1.7-7.5-3.8V145c0,2.1,3.4,3.8,7.5,3.8s7.5-1.7,7.5-3.8v-25.5
		C287,121.6,283.6,123.3,279.5,123.3z"/>
</g>
<g>
	<path fill="#E5E5E5" d="M279.5,31c-2.1,0-3.8,0.8-3.8,1.9v86.3c0,1,1.7,1.9,3.8,1.9s3.8-0.8,3.8-1.9V32.9
		C283.3,31.8,281.6,31,279.5,31z"/>
	<path opacity="0.2" d="M279.5,34.8c-2.1,0-3.8-0.8-3.8-1.9v86.3c0,1,1.7,1.9,3.8,1.9s3.8-0.8,3.8-1.9V32.9
		C283.3,33.9,281.6,34.8,279.5,34.8z"/>
</g>
<g>
	<path fill="#2D3134" d="M279.5,12.3c-4.1,0-7.5,1.7-7.5,3.8v16.5c0,2.1,3.4,3.8,7.5,3.8s7.5-1.7,7.5-3.8V16
		C287,13.9,283.6,12.3,279.5,12.3z"/>
	<path opacity="0.2" d="M279.5,19.8c-4.1,0-7.5-1.7-7.5-3.8v16.5c0,2.1,3.4,3.8,7.5,3.8s7.5-1.7,7.5-3.8V16
		C287,18.1,283.6,19.8,279.5,19.8z"/>
</g>
<path fill="#2D3134" d="M244.5,161.5c-0.7-2-3-2.9-7.2-2.9c-5.3,0-12.9,1.5-20.8,4.1c-6.6,2.2-12.6,4.8-16.9,7.5
	c-5.1,3.1-7.1,5.8-6.4,8.2c0.7,2,3,2.9,7.2,2.9c5.3,0,12.9-1.5,20.8-4.1C230.1,174.3,246.4,167.3,244.5,161.5z M217.4,165.5
	c5.4-1.8,10.8-3.1,15.2-3.6l-13.3,6.2l-10.8,0.8C211.2,167.7,214.2,166.6,217.4,165.5z M196.1,177.5c-0.1-0.3,0.6-1.9,5.1-4.7
	c0.1-0.1,0.3-0.2,0.4-0.3l15.5-1.2l-2.3,4.7c-5.5,1.5-10.6,2.3-14.3,2.3C197.1,178.4,196.2,177.7,196.1,177.5z M220.3,174.4
	c-0.6,0.2-1.1,0.4-1.7,0.5l2.1-4.2l19.2-9c1.2,0.2,1.7,0.6,1.7,0.7C242.1,163.8,235.4,169.4,220.3,174.4z"/>
<g>
	<polygon fill="#2D3134" points="171.1,114.6 243.1,78.6 243.1,77.1 154.6,32.9 82.6,68.9 82.6,70.4 	"/>
	<polygon opacity="0.29" points="243.1,77.1 243.1,78.6 171.1,114.6 171.1,113.1 	"/>
	<polygon opacity="0.11" points="82.6,68.9 82.6,70.4 171.1,114.6 171.1,113.1 	"/>
</g>
<g>
	<polygon fill="#2D3134" points="257.8,31.8 307.3,7 307.3,4 299.8,0.3 250.3,25 250.3,28 	"/>
	<polygon opacity="0.29" points="307.3,4 307.3,7 257.8,31.8 257.8,28.8 	"/>
	<polygon opacity="0.11" points="250.3,25 250.3,28 257.8,31.8 257.8,28.8 	"/>
</g>
<polygon fill="#FF9900" points="189,273.6 210.6,284.5 224.9,277.5 237,283.6 250,339.2 246.6,341.3 234.6,288.3 217.4,297.1 
	185.3,281.4 167.6,320.9 165,319.1 183,276.9 "/>
<polygon opacity="0.11" points="217.3,293.7 217.4,297.1 185.3,281.4 167.6,320.9 165,319.1 183,276.9 "/>
<polygon opacity="0.29" points="237,283.6 250,339.2 246.6,341.3 234.6,288.3 217.4,297.1 217.3,293.7 "/>
<polygon fill="#FF9900" points="167.6,320.9 186.8,311.3 246.6,341.3 234.6,288.3 217.4,297.1 185.3,281.4 "/>
<polygon opacity="0.4" points="167.6,320.9 186.8,311.3 246.6,341.3 234.6,288.3 217.4,297.1 185.3,281.4 "/>
<g>
	<path fill="#2D3134" d="M214.4,296.6c-7.3-3.7-14-4.1-19-1.9l0,0l-13.8,6.9l0,0c-5.3,2.4-8.6,7.8-8.6,15.7
		c0,15.3,12.3,33.8,27.6,41.4c7.5,3.8,14.4,4.2,19.3,1.7c0,0,13.7-6.8,14.9-7.5c4.5-2.7,7.2-7.8,7.2-15
		C242,322.8,229.6,304.3,214.4,296.6z"/>
	<path opacity="0.39" d="M220.3,360.4c2-1,13.5-6.7,14.5-7.4c4.5-2.7,7.2-7.8,7.2-15c0-6.1-2-12.8-5.4-19.1l-13.8,6.9
		c3.4,6.3,5.4,12.9,5.4,19.1C228.2,352.5,225.2,357.9,220.3,360.4z"/>
	<path fill="#A9ABB0" d="M221.3,341.4c0,11.4-9.3,16.1-20.7,10.4c-11.4-5.7-20.7-19.6-20.7-31.1c0-11.4,9.3-16.1,20.7-10.4
		C212,316,221.3,329.9,221.3,341.4z"/>
	<path fill="#808285" d="M202.3,351c-11.4-5.7-20.7-19.6-20.7-31.1c0-5.6,2.2-9.6,5.9-11.5c-4.6,1.5-7.6,5.8-7.6,12.2
		c0,11.4,9.3,25.4,20.7,31.1c5.8,2.9,11,3.1,14.8,1.2C211.9,354,207.3,353.5,202.3,351z"/>
	<path fill="#2D3134" d="M211,334.6c0,4.8-3.9,6.7-8.6,4.3c-4.8-2.4-8.6-8.2-8.6-13c0-4.8,3.9-6.7,8.6-4.3
		C207.1,324,211,329.8,211,334.6z"/>
	<path opacity="0.39" d="M211,334.6c0,4.8-3.9,6.7-8.6,4.3c-4.8-2.4-8.6-8.2-8.6-13c0-4.8,3.9-6.7,8.6-4.3
		C207.1,324,211,329.8,211,334.6z"/>
	<path fill="#2D3134" d="M209.2,335.4c0,4.8-3.9,6.7-8.6,4.3c-4.8-2.4-8.6-8.2-8.6-13c0-4.8,3.9-6.7,8.6-4.3
		C205.4,324.8,209.2,330.6,209.2,335.4z"/>
	<path opacity="0.06" d="M228.2,345c0,15.3-12.3,21.4-27.6,13.8c-15.2-7.6-27.6-26.2-27.6-41.4s12.3-21.4,27.6-13.8
		C215.9,311.2,228.2,329.7,228.2,345z"/>
</g>
<g>
	<polygon fill="#2D3134" points="177.1,115.4 172.6,112.4 79.6,65.9 73.6,68.9 73.6,160.6 79.6,163.6 85.6,160.6 85.6,80.9 
		166.6,121.4 219.1,285.1 225.1,288.1 231.1,285.1 	"/>
	<polygon opacity="0.29" points="177.1,115.4 231.1,285.1 225.1,288.1 171.1,118.4 	"/>
	<polygon opacity="0.11" points="171.1,118.4 166.6,115.4 73.6,68.9 73.6,160.6 79.6,163.6 79.6,77.9 166.6,121.4 219.1,285.1 
		225.1,288.1 	"/>
	<polygon opacity="0.29" points="79.6,77.9 79.6,163.6 85.6,160.6 85.6,80.9 	"/>
</g>
<polygon opacity="0.2" points="147,253.2 103.8,231.4 103.8,186.9 104.5,186.9 104.5,230.9 147.3,252.5 "/>
<g>
	<g>
		<polygon fill="#2D3134" points="331,235.5 334,234 334,104.3 326.5,100.5 323.5,102 323.5,231.8 		"/>
		<polygon opacity="0.29" points="334,104.3 334,234 331,235.5 331,105.8 		"/>
		<polygon opacity="0.11" points="323.5,102 323.5,231.8 331,235.5 331,105.8 		"/>
	</g>
	<g>
		<polygon fill="#2D3134" points="235,240 329.5,192.8 329.5,183.8 326.5,182.3 232,229.5 232,238.5 		"/>
		<polygon opacity="0.29" points="329.5,183.8 329.5,192.8 235,240 235,231 		"/>
		<polygon opacity="0.11" points="232,229.5 232,238.5 235,240 235,231 		"/>
	</g>
	<g>
		<polygon fill="#2D3134" points="236.5,162 331,114.8 331,105.8 323.5,102 229,149.3 229,158.3 		"/>
		<polygon opacity="0.29" points="331,105.8 331,114.8 236.5,162 236.5,153 		"/>
		<polygon opacity="0.11" points="229,149.3 229,158.3 236.5,162 236.5,153 		"/>
	</g>
	<g>
		<polygon fill="#2D3134" points="235,280.5 329.5,233.3 329.5,224.3 326.5,222.8 232,270 232,279 		"/>
		<polygon opacity="0.29" points="329.5,224.3 329.5,233.3 235,280.5 235,271.5 		"/>
		<polygon opacity="0.11" points="232,270 232,279 235,280.5 235,271.5 		"/>
	</g>
	<g>
		<polygon fill="#2D3134" points="233.5,284.3 236.5,282.8 236.5,153 229,149.3 226,150.8 226,280.5 		"/>
		<polygon opacity="0.29" points="236.5,153 236.5,282.8 233.5,284.3 233.5,154.5 		"/>
		<polygon opacity="0.11" points="226,150.8 226,280.5 233.5,284.3 233.5,154.5 		"/>
	</g>
	<g>
		<polygon fill="#FF9900" points="253.5,204.8 243,210 243,223.9 245.2,222.8 248.3,224.3 248.3,281.1 253.5,283.7 264,278.5 
			264,210 		"/>
		<polygon opacity="0.11" points="243,210 243,223.9 245.2,222.8 248.3,224.3 248.3,281.1 253.5,283.8 253.5,215.3 		"/>
		<g>
			<polygon fill="#FF9900" points="355.5,331.8 366,326.5 366,325 264,274 253.5,279.3 253.5,283.8 328.5,321.2 			"/>
			<polygon opacity="0.29" points="366,325 366,326.5 355.5,331.8 355.5,330.3 			"/>
			<polygon opacity="0.11" points="253.5,279.3 253.5,283.8 328.5,321.2 355.5,331.8 355.5,330.3 			"/>
		</g>
		<polygon opacity="0.29" points="264,210 264,274 253.5,279.3 253.5,215.3 		"/>
	</g>
	<g>
		<polygon fill="#FF9900" points="303.5,179.8 293,185.1 293,199 295.2,197.9 298.3,199.4 298.3,256.2 303.5,258.8 314,253.6 
			314,185.1 		"/>
		<polygon opacity="0.11" points="293,185.1 293,199 295.2,197.9 298.3,199.4 298.3,256.2 303.5,258.8 303.5,190.3 		"/>
		<g>
			<polygon fill="#FF9900" points="405.5,306.8 416,301.6 416,300.1 314,249.1 303.5,254.3 303.5,258.8 378.5,296.3 			"/>
			<polygon opacity="0.29" points="416,300.1 416,301.6 405.5,306.8 405.5,305.3 			"/>
			<polygon opacity="0.11" points="303.5,254.3 303.5,258.8 378.5,296.3 405.5,306.8 405.5,305.3 			"/>
		</g>
		<polygon opacity="0.29" points="314,185.1 314,249.1 303.5,254.3 303.5,190.3 		"/>
	</g>
</g>
</svg>
