<?xml version="1.0" encoding="utf-8"?>
<!-- Generator: Adobe Illustrator 18.1.0, SVG Export Plug-In . SVG Version: 6.00 Build 0)  -->
<svg version="1.1" id="Layer_1" xmlns="http://www.w3.org/2000/svg" xmlns:xlink="http://www.w3.org/1999/xlink" x="0px" y="0px"
	 viewBox="0 0 480 480" enable-background="new 0 0 480 480" xml:space="preserve">
<polygon opacity="0.3" points="280,279.9 260,289.8 160,240 140,250 200,280 160,300 100,270 80,280 180,329.8 160,339.9 360,439.9 
	480,379.9 "/>
<g>
	<polygon fill="#2D3134" points="358.8,413.2 437,374.1 425.6,357.3 346,397.1 	"/>
	<g>
		<g>
			<g>
				<polygon fill="#FF9900" points="230,269.9 240.5,264.7 240.5,260.2 138,209 127.5,214.3 127.5,215.8 141,225.5 				"/>
				<polygon opacity="0.11" points="127.5,214.3 127.5,215.8 141,225.5 230,269.9 230,265.4 				"/>
			</g>
			<g>
				<polygon fill="#FF9900" points="180,295 190.5,289.8 190.5,285.3 88,234 77.5,239.3 77.5,240.8 91,250.5 				"/>
				<polygon opacity="0.11" points="77.5,239.3 77.5,240.8 91,250.5 180,295 180,290.5 				"/>
			</g>
			<g>
				<polygon fill="#FF9900" points="240.5,196.5 230,201.8 230,270 236,273 246.5,267.8 246.5,215.3 246.5,215.3 251,213 251,201.8 
									"/>
				<polygon opacity="0.11" points="230,201.8 230,270 236,273 236,216 240.5,218.3 240.5,207 				"/>
				<polygon opacity="0.29" points="246.5,215.3 246.5,267.8 236,273 236,216 240.5,218.3 				"/>
			</g>
			<g>
				<polygon fill="#FF9900" points="190.5,221.5 180,226.8 180,295 186,298 196.5,292.8 196.5,240.3 196.5,240.3 201,238 201,226.8 
									"/>
				<polygon opacity="0.11" points="180,226.8 180,295 186,298 186,241 190.5,243.3 190.5,232 				"/>
				<polygon opacity="0.29" points="196.5,240.3 196.5,292.8 186,298 186,241 190.5,243.3 				"/>
			</g>
			<polygon opacity="0.29" points="251,201.8 251,213 240.5,218.3 240.5,207 			"/>
			<polygon opacity="0.29" points="201,226.8 201,238 190.5,243.3 190.5,232 			"/>
		</g>
		<g>
			<polygon fill="#2D3134" points="273,258.5 276,257 276,127.3 268.5,123.5 265.5,125 265.5,254.8 			"/>
			<polygon opacity="0.29" points="276,127.3 276,257 273,258.5 273,128.8 			"/>
			<polygon opacity="0.11" points="265.5,125 265.5,254.8 273,258.5 273,128.8 			"/>
		</g>
		<g>
			<polygon fill="#2D3134" points="177,263 271.5,215.8 271.5,206.8 268.5,205.3 174,252.5 174,261.5 			"/>
			<polygon opacity="0.29" points="271.5,206.8 271.5,215.8 177,263 177,254 			"/>
			<polygon opacity="0.11" points="174,252.5 174,261.5 177,263 177,254 			"/>
		</g>
		<g>
			<polygon fill="#2D3134" points="178.5,185 273,137.8 273,128.8 265.5,125 171,172.3 171,181.3 			"/>
			<polygon opacity="0.29" points="273,128.8 273,137.8 178.5,185 178.5,176 			"/>
			<polygon opacity="0.11" points="171,172.3 171,181.3 178.5,185 178.5,176 			"/>
		</g>
		<g>
			<polygon fill="#2D3134" points="177,303.5 271.5,256.3 271.5,247.3 268.5,245.8 174,293 174,302 			"/>
			<polygon opacity="0.29" points="271.5,247.3 271.5,256.3 177,303.5 177,294.5 			"/>
			<polygon opacity="0.11" points="174,293 174,302 177,303.5 177,294.5 			"/>
		</g>
		<g>
			<polygon fill="#2D3134" points="175.5,307.3 178.5,305.8 178.5,176 171,172.3 168,173.8 168,303.5 			"/>
			<polygon opacity="0.29" points="178.5,176 178.5,305.8 175.5,307.3 175.5,177.5 			"/>
			<polygon opacity="0.11" points="168,173.8 168,303.5 175.5,307.3 175.5,177.5 			"/>
		</g>
		<g>
			<polygon fill="#2D3134" points="234.8,116.3 247.5,110.3 259.5,116.3 259.5,325.1 209.3,350.6 197.3,344.6 197.3,135.8 
				209.3,129.8 221.3,135.8 221.3,321.4 234.8,314.6 			"/>
			<polygon opacity="0.29" points="247.5,122.3 247.5,321.4 221.3,334.1 221.3,135.8 209.3,141.8 209.3,350.6 259.5,325.1 
				259.5,116.3 			"/>
			<polygon opacity="0.11" points="197.3,344.6 209.3,350.6 209.3,141.8 197.3,135.8 			"/>
			<polygon opacity="0.11" points="234.8,314.6 247.5,321.4 247.5,122.3 234.8,116.3 			"/>
		</g>
		<g>
			<polygon fill="#2D3134" points="247.5,120 255,116.3 255,45 247.5,41.3 240,45 240,116.3 			"/>
			<polygon opacity="0.29" points="255,45 255,116.3 247.5,120 247.5,48.8 			"/>
			<polygon opacity="0.11" points="240,45 240,116.3 247.5,120 247.5,48.8 			"/>
		</g>
		<g>
			<polygon fill="#2D3134" points="209.3,139.5 216.8,135.8 216.8,64.5 209.3,60.8 201.8,64.5 201.8,135.8 			"/>
			<polygon opacity="0.29" points="216.8,64.5 216.8,135.8 209.3,139.5 209.3,68.3 			"/>
			<polygon opacity="0.11" points="201.8,64.5 201.8,135.8 209.3,139.5 209.3,68.3 			"/>
		</g>
		<g>
			<path fill="#2D3134" d="M228.8,154.5c-2.9,0-5.3,1.2-5.3,2.6V324c0,1.4,2.4,2.6,5.3,2.6s5.3-1.2,5.3-2.6V157.1
				C234,155.7,231.6,154.5,228.8,154.5z"/>
			<path opacity="0.2" d="M228.8,159.8c-2.9,0-5.3-1.2-5.3-2.6V324c0,1.4,2.4,2.6,5.3,2.6s5.3-1.2,5.3-2.6V157.1
				C234,158.6,231.6,159.8,228.8,159.8z"/>
		</g>
		<g>
			<path fill="#2D3134" d="M228.8,135c-4.1,0-7.5,1.7-7.5,3.8v25.5c0,2.1,3.4,3.8,7.5,3.8s7.5-1.7,7.5-3.8v-25.5
				C236.3,136.7,232.9,135,228.8,135z"/>
			<path opacity="0.2" d="M228.8,142.5c-4.1,0-7.5-1.7-7.5-3.8v25.5c0,2.1,3.4,3.8,7.5,3.8s7.5-1.7,7.5-3.8v-25.5
				C236.3,140.8,232.9,142.5,228.8,142.5z"/>
		</g>
		<g>
			<path fill="#E5E5E5" d="M228.8,69.8c-2.1,0-3.8,0.8-3.8,1.9v66.8c0,1,1.7,1.9,3.8,1.9s3.8-0.8,3.8-1.9V71.6
				C232.5,70.6,230.8,69.8,228.8,69.8z"/>
			<path opacity="0.2" d="M228.8,73.5c-2.1,0-3.8-0.8-3.8-1.9v66.8c0,1,1.7,1.9,3.8,1.9s3.8-0.8,3.8-1.9V71.6
				C232.5,72.7,230.8,73.5,228.8,73.5z"/>
		</g>
		<g>
			<path fill="#2D3134" d="M228.8,51c-4.1,0-7.5,1.7-7.5,3.8v16.5c0,2.1,3.4,3.8,7.5,3.8s7.5-1.7,7.5-3.8V54.8
				C236.3,52.7,232.9,51,228.8,51z"/>
			<path opacity="0.2" d="M228.8,58.5c-4.1,0-7.5-1.7-7.5-3.8v16.5c0,2.1,3.4,3.8,7.5,3.8s7.5-1.7,7.5-3.8V54.8
				C236.3,56.8,232.9,58.5,228.8,58.5z"/>
		</g>
		<g>
			<polygon fill="#2D3134" points="207,70.5 256.5,45.8 256.5,42.8 249,39 199.5,63.8 199.5,66.8 			"/>
			<polygon opacity="0.29" points="256.5,42.8 256.5,45.8 207,70.5 207,67.5 			"/>
			<polygon opacity="0.11" points="199.5,63.8 199.5,66.8 207,70.5 207,67.5 			"/>
		</g>
	</g>
	<g>
		<path fill="#2D3134" d="M443.5,334.1c-6.8-3.4-13-3.8-17.6-1.8l0,0l-12.8,6.4l0,0c-4.9,2.2-8,7.3-8,14.6
			c0,14.2,11.5,31.4,25.7,38.5c7,3.5,13.4,3.9,18,1.6c0,0,12.8-6.4,13.8-7c4.1-2.5,6.7-7.3,6.7-13.9
			C469.2,358.4,457.7,341.2,443.5,334.1z"/>
		<path opacity="0.39" d="M449,393.3c1.8-0.9,12.6-6.3,13.5-6.8c4.1-2.5,6.7-7.3,6.7-13.9c0-5.7-1.9-11.9-5-17.7l-12.8,6.4
			c3.1,5.8,5,12,5,17.7C456.4,386,453.5,391,449,393.3z"/>
		<path fill="#A9ABB0" d="M449.9,375.6c0,10.6-8.6,14.9-19.3,9.6c-10.6-5.3-19.3-18.3-19.3-28.9c0-10.6,8.6-14.9,19.3-9.6
			C441.3,352.1,449.9,365,449.9,375.6z"/>
		<path fill="#808285" d="M432.3,384.6c-10.6-5.3-19.3-18.3-19.3-28.9c0-5.2,2.1-8.9,5.5-10.7c-4.3,1.4-7.1,5.4-7.1,11.4
			c0,10.6,8.6,23.6,19.3,28.9c5.4,2.7,10.3,2.9,13.8,1.1C441.1,387.4,436.9,386.9,432.3,384.6z"/>
		<path fill="#2D3134" d="M440.3,369.3c0,4.4-3.6,6.2-8,4s-8-7.6-8-12s3.6-6.2,8-4S440.3,364.9,440.3,369.3z"/>
		<path opacity="0.39" d="M440.3,369.3c0,4.4-3.6,6.2-8,4s-8-7.6-8-12s3.6-6.2,8-4S440.3,364.9,440.3,369.3z"/>
		<path fill="#2D3134" d="M438.7,370.1c0,4.4-3.6,6.2-8,4s-8-7.6-8-12s3.6-6.2,8-4S438.7,365.7,438.7,370.1z"/>
		<path opacity="0.06" d="M456.4,379c0,14.2-11.5,19.9-25.7,12.8c-14.2-7.1-25.7-24.3-25.7-38.5
			c0-14.2,11.5-19.9,25.7-12.8C444.9,347.6,456.4,364.8,456.4,379z"/>
	</g>
	<g>
		<path fill="#2D3134" d="M363.6,373.9c-6.8-3.4-13-3.8-17.6-1.8l0,0l-12.8,6.4l0,0c-4.9,2.2-8,7.3-8,14.6
			c0,14.2,11.5,31.4,25.7,38.5c7,3.5,13.4,3.9,18,1.6c0,0,12.8-6.4,13.8-7c4.1-2.5,6.7-7.3,6.7-13.9
			C389.3,398.2,377.8,381,363.6,373.9z"/>
		<path opacity="0.39" d="M369,433.2c1.8-0.9,12.6-6.3,13.5-6.8c4.1-2.5,6.7-7.3,6.7-13.9c0-5.7-1.9-11.9-5-17.7l-12.8,6.4
			c3.1,5.8,5,12,5,17.7C376.4,425.9,373.6,430.8,369,433.2z"/>
		<path fill="#A9ABB0" d="M370,415.5c0,10.6-8.6,14.9-19.3,9.6c-10.6-5.3-19.3-18.3-19.3-28.9s8.6-14.9,19.3-9.6
			C361.4,391.9,370,404.8,370,415.5z"/>
		<path fill="#808285" d="M352.3,424.4c-10.6-5.3-19.3-18.3-19.3-28.9c0-5.2,2.1-8.9,5.5-10.7c-4.3,1.4-7.1,5.4-7.1,11.4
			c0,10.6,8.6,23.6,19.3,28.9c5.4,2.7,10.3,2.9,13.8,1.1C361.2,427.2,357,426.7,352.3,424.4z"/>
		<path fill="#2D3134" d="M360.4,409.2c0,4.4-3.6,6.2-8,4c-4.4-2.2-8-7.6-8-12s3.6-6.2,8-4C356.8,399.4,360.4,404.7,360.4,409.2z"/>
		<path opacity="0.39" d="M360.4,409.2c0,4.4-3.6,6.2-8,4c-4.4-2.2-8-7.6-8-12s3.6-6.2,8-4C356.8,399.4,360.4,404.7,360.4,409.2z"/>
		<path fill="#2D3134" d="M358.8,409.9c0,4.4-3.6,6.2-8,4c-4.4-2.2-8-7.6-8-12s3.6-6.2,8-4C355.2,400.1,358.8,405.5,358.8,409.9z"/>
		<path opacity="0.06" d="M376.4,418.8c0,14.2-11.5,19.9-25.7,12.8c-14.2-7.1-25.7-24.3-25.7-38.5
			c0-14.2,11.5-19.9,25.7-12.8C364.9,387.4,376.4,404.7,376.4,418.8z"/>
	</g>
	<g>
		<path fill="#2D3134" d="M217.7,297.6c-7.3-3.7-14-4.1-19-1.9l0,0l-13.8,6.9l0,0c-5.3,2.4-8.6,7.8-8.6,15.7
			c0,15.3,12.3,33.8,27.6,41.4c7.5,3.8,14.4,4.2,19.3,1.7c0,0,13.7-6.8,14.9-7.5c4.5-2.7,7.2-7.8,7.2-15
			C245.3,323.8,232.9,305.3,217.7,297.6z"/>
		<path opacity="0.39" d="M223.5,361.4c2-1,13.5-6.7,14.5-7.4c4.5-2.7,7.2-7.8,7.2-15c0-6.1-2-12.8-5.4-19.1l-13.8,6.9
			c3.4,6.3,5.4,12.9,5.4,19.1C231.5,353.5,228.4,358.9,223.5,361.4z"/>
		<path fill="#A9ABB0" d="M224.6,342.3c0,11.4-9.3,16.1-20.7,10.4c-11.4-5.7-20.7-19.6-20.7-31.1c0-11.4,9.3-16.1,20.7-10.4
			S224.6,330.9,224.6,342.3z"/>
		<path fill="#808285" d="M205.6,352c-11.4-5.7-20.7-19.6-20.7-31.1c0-5.6,2.2-9.6,5.9-11.5c-4.6,1.5-7.6,5.8-7.6,12.2
			c0,11.4,9.3,25.4,20.7,31.1c5.8,2.9,11,3.1,14.8,1.2C215.1,355,210.6,354.5,205.6,352z"/>
		<path fill="#2D3134" d="M214.2,335.6c0,4.8-3.9,6.7-8.6,4.3c-4.8-2.4-8.6-8.2-8.6-13c0-4.8,3.9-6.7,8.6-4.3
			C210.4,325,214.2,330.8,214.2,335.6z"/>
		<path opacity="0.39" d="M214.2,335.6c0,4.8-3.9,6.7-8.6,4.3c-4.8-2.4-8.6-8.2-8.6-13c0-4.8,3.9-6.7,8.6-4.3
			C210.4,325,214.2,330.8,214.2,335.6z"/>
		<path fill="#2D3134" d="M212.5,336.4c0,4.8-3.9,6.7-8.6,4.3s-8.6-8.2-8.6-13c0-4.8,3.9-6.7,8.6-4.3
			C208.6,325.8,212.5,331.6,212.5,336.4z"/>
		<path opacity="0.06" d="M231.5,346c0,15.3-12.3,21.4-27.6,13.8s-27.6-26.2-27.6-41.4s12.3-21.4,27.6-13.8
			S231.5,330.7,231.5,346z"/>
	</g>
	<path fill="#FF9900" d="M278.3,243.4L204,280.9v13.5l36.8,18l8.3,38.3l66,33l25.5-20.3l50.3,24l14.2,26.1l0,0l0.1,0.1l0.2-0.2
		c26-4.4,44.8-16.8,44.8-31.3v-53.3L278.3,243.4z"/>
	<polygon fill="#2D3134" points="246,301.9 280.1,318.7 353.3,281.7 321,265 	"/>
	<polygon fill="#FF9900" points="340.5,363.4 315,383.6 348.1,367 	"/>
	<polygon opacity="0.4" points="340.5,363.4 315,383.6 348.1,367 	"/>
	<g>
		<polygon fill="#FF9900" points="233.6,250.1 310.5,213.4 321,227.5 321,265 246,301.9 216.8,287 		"/>
		<polygon opacity="0.11" points="233.6,250.1 246,264.4 246,301.9 216.8,287 		"/>
		<polygon opacity="0.29" points="246,264.4 321,227.5 321,265 246,301.9 		"/>
	</g>
	<g>
		<path fill="#2D3134" d="M291.6,213.8c1.6,0.6,2.7,1.8,2.4,2.6l-10.4,26.3c-0.3,0.8-1.9,1-3.5,0.3c-1.6-0.6-2.7-1.8-2.4-2.6
			l10.4-26.3C288.4,213.3,290,213.1,291.6,213.8z"/>
		<path opacity="0.2" d="M290.4,216.7c1.6,0.6,3.2,0.5,3.5-0.3l-10.4,26.3c-0.3,0.8-1.9,1-3.5,0.3c-1.6-0.6-2.7-1.8-2.4-2.6
			l10.4-26.3C287.8,214.9,288.8,216.1,290.4,216.7z"/>
	</g>
	<path fill="#FF9900" d="M450,286.7c0-9.2-7.6-17.4-19.9-23.3l-20.2-10.6l-4.7,3.7l-40.8-20.9l-89.3,45.8v36.2l62.9,32.5l0,0
		c11.8,6.5,28.7,10.5,47.5,10.5c35.2,0,63.8-14.2,64.3-31.8l0,0v-41.3l0-0.1C450,287.3,450,287,450,286.7z"/>
	<polygon opacity="0.2" points="288.8,274.5 350.3,306.4 425.3,268.9 360.7,237.7 	"/>
	<g>
		<path opacity="0.2" d="M415.5,331.4v20.7l6,3v-25.5h-0.2C419.4,330.3,417.5,330.8,415.5,331.4z"/>
		<path opacity="0.2" d="M403.5,333.9v21.2l6,3v-25.3C407.5,333.2,405.5,333.6,403.5,333.9z"/>
		<path opacity="0.2" d="M439.5,320.2v16.9l6,3v-25.5h-0.2C443.7,316.6,441.8,318.5,439.5,320.2z"/>
		<path opacity="0.2" d="M427.5,327.2v19.7l6,3v-25.5h-0.3C431.4,325.4,429.5,326.3,427.5,327.2z"/>
	</g>
	<path opacity="0.11" d="M385.7,360.7c-18.8,0-35.8-4.1-47.5-10.5l0,0L204,281v13.4l36.8,18l8.3,38.3l66,33l25.5-20.3l50.3,24
		l14.2,26.1l0.1,0.1l0.2-0.2c26-4.4,44.8-16.8,44.8-31.3v-53.3l0,0C449.6,346.5,421,360.7,385.7,360.7z"/>
	<g>
		<polygon fill="#2D3134" points="321.8,285.4 356.3,268.1 356.3,263.6 329.3,250.1 294.8,267.4 294.8,271.9 		"/>
		<polygon opacity="0.29" points="356.3,263.6 356.3,268.1 321.8,285.4 321.8,280.9 		"/>
		<polygon opacity="0.11" points="294.8,267.4 294.8,271.9 321.8,285.4 321.8,280.9 		"/>
	</g>
	<path fill="#2D3134" d="M310.7,207.5c-3.6-4.4-9-7.8-15.2-9.5c-2.8-0.8-5.6-1.1-8.4-1.1c-10,0-18.1,5-20.1,12.4
		c-2.6,9.7,5.9,20.5,19,24.1c2.8,0.8,5.6,1.1,8.4,1.1c10,0,18.1-5,20.1-12.4C315.7,217.3,314.4,212.1,310.7,207.5z M294.7,200.9
		c5.6,1.5,10.5,4.5,13.7,8.5c1.2,1.5,2.1,3.1,2.7,4.7l-19.8,0l-12.6-12.9c2.5-0.9,5.3-1.4,8.3-1.4
		C289.6,199.8,292.1,200.2,294.7,200.9z M269.8,210c0.8-3.1,3-5.6,6-7.4l13.1,13.4l-5.1,13.5C274,225.7,267.8,217.4,269.8,210z
		 M311.5,221.3c-1.6,6.1-8.5,10.2-17.2,10.2c-2.5,0-5.1-0.3-7.6-1l5-13.3l20.1,0C312,218.5,311.9,219.9,311.5,221.3z"/>
	<g>
		<polygon fill="#2D3134" points="329.3,289.1 363.8,271.9 363.8,267.4 363.8,229.9 360.8,228.4 326.3,245.6 321.8,280.9 
			321.8,285.4 		"/>
		<polygon opacity="0.29" points="363.8,229.9 363.8,267.4 363.8,271.9 329.3,289.1 329.3,284.6 329.3,247.1 		"/>
		<polygon opacity="0.11" points="326.3,245.6 321.8,280.9 321.8,285.4 329.3,289.1 329.3,284.6 329.3,247.1 		"/>
	</g>
	<g>
		<g>
			<polygon fill="#2D3134" points="431.3,180.9 426.8,178.6 333.8,132.1 327.8,135.1 322.5,147.1 333.8,152.2 336.8,145.6 
				419.3,186.9 419.3,265.9 425.3,268.9 431.3,265.9 			"/>
			<polygon opacity="0.29" points="431.3,180.9 431.3,265.9 425.3,268.9 425.3,183.9 			"/>
			<polygon opacity="0.11" points="425.3,183.9 420.8,181.6 327.8,135.1 322.5,147.1 328.9,150.9 332.3,143.4 419.3,186.9 
				419.3,265.9 425.3,268.9 			"/>
		</g>
		<g>
			<polygon fill="#2D3134" points="347.3,219.9 419.3,183.9 419.3,182.4 330.8,138.1 258.8,174.1 258.8,175.6 			"/>
			<polygon opacity="0.29" points="419.3,182.4 419.3,183.9 347.3,219.9 347.3,218.4 			"/>
			<polygon opacity="0.11" points="258.8,174.1 258.8,175.6 347.3,219.9 347.3,218.4 			"/>
		</g>
		<g>
			<polygon fill="#2D3134" points="353.3,219.9 348.8,217.6 255.8,171.1 249.8,174.1 207,282.4 213,285.4 219,282.4 258.8,184.6 
				341.3,225.9 341.3,304.9 347.3,307.9 353.3,304.9 			"/>
			<polygon opacity="0.29" points="353.3,219.9 353.3,304.9 347.3,307.9 347.3,222.9 			"/>
			<polygon opacity="0.11" points="347.3,222.9 342.8,220.6 249.8,174.1 207,282.4 213,285.4 254.3,182.4 341.3,225.9 341.3,304.9 
				347.3,307.9 			"/>
			<polygon opacity="0.29" points="254.3,182.4 213,285.4 219,282.4 258.8,184.6 			"/>
		</g>
	</g>
	<polygon fill="#FF9900" points="203.2,279.5 237.2,297.3 256.5,354.6 248.2,357.4 244.3,355.7 227.5,306.4 195,289.9 195,282.2 	
		"/>
	<polygon opacity="0.11" points="244.4,355.7 248.2,357.4 248.3,357.3 229,300.1 195,282.2 195,289.9 227.5,306.4 	"/>
	<polygon opacity="0.29" points="237.2,297.3 229,300.1 248.3,357.3 248.2,357.4 248.2,357.4 256.5,354.6 	"/>
	<polygon opacity="0.2" points="316.1,339.2 315.6,339 275.1,318 275.4,317.3 315.4,338 315.4,302.6 316.1,302.6 	"/>
	<path opacity="0.11" d="M450,287.5c0-0.1,0-0.3,0-0.4l0,0c-0.4,17.6-29,31.8-64.3,31.8c-18.8,0-35.8-4.1-47.5-10.5l0,0l-17.9-9.5
		l-4.5,3.8l-40.5-21v36l62.9,32.5l0,0c11.8,6.5,28.7,10.5,47.5,10.5c6.2,0,12.1-0.4,17.8-1.3v-4.3l6,3v0.3c2.1-0.4,4.1-0.9,6-1.4
		v-4.9l6,3v0.1c2.1-0.7,4.1-1.5,6-2.3v-6.1l6,3v0.1c2.2-1.2,4.2-2.5,6-3.9v-9l6,3v0.2c2.8-3.5,4.4-7.4,4.5-11.4l0,0L450,287.5
		L450,287.5z"/>
</g>
</svg>
