<?xml version="1.0" encoding="utf-8"?>
<!-- Generator: Adobe Illustrator 18.1.0, SVG Export Plug-In . SVG Version: 6.00 Build 0)  -->
<svg version="1.1" id="Layer_1" xmlns="http://www.w3.org/2000/svg" xmlns:xlink="http://www.w3.org/1999/xlink" x="0px" y="0px"
	 viewBox="0 0 480 560" enable-background="new 0 0 480 560" xml:space="preserve">
<polygon opacity="0.3" points="220,449.9 240,439.9 340,490 420,450 320,399.9 340,389.9 140,289.9 20,349.9 "/>
<polygon fill="#2D3134" points="60.1,344.9 135,303.6 123.6,286.7 47.4,328.7 "/>
<g>
	<path fill="#2D3134" d="M310,328.4c-7.3-3.7-14-4.1-19-1.9l0,0l-13.8,6.9l0,0c-5.3,2.4-8.6,7.8-8.6,15.7
		c0,15.3,12.3,33.8,27.6,41.4c7.5,3.8,14.4,4.2,19.3,1.7c0,0,13.7-6.8,14.9-7.5c4.5-2.7,7.2-7.8,7.2-15
		C337.6,354.6,325.3,336,310,328.4z"/>
	<path opacity="0.39" d="M315.9,392.2c2-1,13.5-6.7,14.5-7.4c4.5-2.7,7.2-7.8,7.2-15c0-6.1-2-12.8-5.4-19.1l-13.8,6.9
		c3.4,6.3,5.4,12.9,5.4,19.1C323.8,384.3,320.8,389.6,315.9,392.2z"/>
	<path fill="#A9ABB0" d="M316.9,373.1c0,11.4-9.3,16.1-20.7,10.4c-11.4-5.7-20.7-19.6-20.7-31.1c0-11.4,9.3-16.1,20.7-10.4
		C307.7,347.8,316.9,361.7,316.9,373.1z"/>
	<path fill="#808285" d="M298,382.8c-11.4-5.7-20.7-19.6-20.7-31.1c0-5.6,2.2-9.6,5.9-11.5c-4.6,1.5-7.6,5.8-7.6,12.2
		c0,11.4,9.3,25.4,20.7,31.1c5.8,2.9,11,3.1,14.8,1.2C307.5,385.8,302.9,385.2,298,382.8z"/>
	<path fill="#2D3134" d="M306.6,366.4c0,4.8-3.9,6.7-8.6,4.3c-4.8-2.4-8.6-8.2-8.6-13c0-4.8,3.9-6.7,8.6-4.3
		C302.7,355.8,306.6,361.6,306.6,366.4z"/>
	<path opacity="0.39" d="M306.6,366.4c0,4.8-3.9,6.7-8.6,4.3c-4.8-2.4-8.6-8.2-8.6-13c0-4.8,3.9-6.7,8.6-4.3
		C302.7,355.8,306.6,361.6,306.6,366.4z"/>
	<path fill="#2D3134" d="M304.9,367.2c0,4.8-3.9,6.7-8.6,4.3s-8.6-8.2-8.6-13c0-4.8,3.9-6.7,8.6-4.3
		C301,356.6,304.9,362.4,304.9,367.2z"/>
	<path opacity="0.06" d="M323.8,376.8c0,15.3-12.3,21.4-27.6,13.8c-15.2-7.6-27.6-26.2-27.6-41.4
		c0-15.3,12.3-21.4,27.6-13.8C311.5,342.9,323.8,361.5,323.8,376.8z"/>
</g>
<polygon fill="#FF9900" points="322.6,334.1 233.4,289.4 233.4,245.6 189.6,224.1 186.1,212.9 177.2,203.5 42.1,220.4 42.1,293.1 
	77.6,311 104.1,361.1 169.1,393.9 199.8,378 245.9,408.9 331.4,366.1 "/>
<g>
	<path fill="#2D3134" d="M64.5,305.4c-6.8-3.4-13-3.8-17.6-1.8l0,0L34,310.1l0,0c-4.9,2.2-8,7.3-8,14.6c0,14.2,11.5,31.4,25.7,38.5
		c7,3.5,13.4,3.9,18,1.6c0,0,12.8-6.4,13.8-7c4.1-2.5,6.7-7.3,6.7-13.9C90.2,329.7,78.7,312.5,64.5,305.4z"/>
	<path opacity="0.39" d="M70,364.7c1.8-0.9,12.6-6.3,13.5-6.8c4.1-2.5,6.7-7.3,6.7-13.9c0-5.7-1.9-11.9-5-17.7l-12.8,6.4
		c3.1,5.8,5,12,5,17.7C77.4,357.4,74.5,362.3,70,364.7z"/>
	<path fill="#A9ABB0" d="M70.9,347c0,10.6-8.6,14.9-19.3,9.6s-19.3-18.3-19.3-28.9c0-10.6,8.6-14.9,19.3-9.6S70.9,336.3,70.9,347z"
		/>
	<path fill="#808285" d="M53.3,355.9C42.6,350.6,34,337.7,34,327c0-5.2,2.1-8.9,5.5-10.7c-4.3,1.4-7.1,5.4-7.1,11.4
		c0,10.6,8.6,23.6,19.3,28.9c5.4,2.7,10.3,2.9,13.8,1.1C62.1,358.7,57.9,358.2,53.3,355.9z"/>
	<path fill="#2D3134" d="M61.3,340.7c0,4.4-3.6,6.2-8,4c-4.4-2.2-8-7.6-8-12c0-4.4,3.6-6.2,8-4C57.7,330.9,61.3,336.3,61.3,340.7z"
		/>
	<path opacity="0.39" d="M61.3,340.7c0,4.4-3.6,6.2-8,4c-4.4-2.2-8-7.6-8-12c0-4.4,3.6-6.2,8-4C57.7,330.9,61.3,336.3,61.3,340.7z"
		/>
	<path fill="#2D3134" d="M59.7,341.4c0,4.4-3.6,6.2-8,4c-4.4-2.2-8-7.6-8-12s3.6-6.2,8-4C56.1,331.6,59.7,337,59.7,341.4z"/>
	<path opacity="0.06" d="M77.4,350.3c0,14.2-11.5,19.9-25.7,12.8S26,338.8,26,324.7c0-14.2,11.5-19.9,25.7-12.8
		S77.4,336.2,77.4,350.3z"/>
</g>
<polygon opacity="0.11" points="245.9,408.9 199.8,378 169.1,393.9 104.1,361.1 77.6,311 42.1,293.1 42.1,220.4 100.6,255.6 
	104.1,266.9 147.4,288.4 147.4,332.1 237.1,376.9 "/>
<polygon fill="#2D3134" points="147.1,332.9 181.3,349.7 251.4,314.9 216.1,296.9 "/>
<polygon opacity="0.29" points="147.1,289.1 233.4,246.9 233.4,289.1 147.1,332.9 "/>
<path fill="#3399CC" d="M212,193.9c3.1,1.2,6.2,8.5,9,13.4s9.5,14.5,10.5,15.4s8.2,7.8,9.3,9.8c1.1,2,2.2,3.6,2.2,3.6l-9.2,2.6
	c0,0-4.6-4-6.2-6.1c-1.2-1.5-2.3-3.1-3.7-4.3c-1.4-1.2-14.6-12.6-14.6-12.6L212,193.9z"/>
<g>
	<polygon fill="#2D3134" points="255.1,156.4 250.6,153.4 157.6,106.9 151.6,109.9 151.6,201.6 157.6,204.6 163.6,201.6 
		163.6,121.9 244.6,162.4 297.1,326.1 303.1,329.1 309.1,326.1 	"/>
	<polygon opacity="0.29" points="255.1,156.4 309.1,326.1 303.1,329.1 249.1,159.4 	"/>
	<polygon opacity="0.11" points="249.1,159.4 244.6,156.4 151.6,109.9 151.6,201.6 157.6,204.6 157.6,118.9 244.6,162.4 
		297.1,326.1 303.1,329.1 	"/>
	<polygon opacity="0.29" points="157.6,118.9 157.6,204.6 163.6,201.6 163.6,121.9 	"/>
</g>
<ellipse fill="#FF9900" cx="113.9" cy="220.4" rx="71.7" ry="35.9"/>
<polygon opacity="0.29" points="100.6,255.6 104.1,266.9 189.6,224.1 186.1,212.9 "/>
<polygon opacity="0.2" points="189.6,224.1 188.1,219.1 155.4,202.8 83.4,238.8 83.4,240.3 164.3,280.7 233.4,246.9 233.4,245.6 "/>
<g>
	<polygon fill="#2D3134" points="141.1,266.9 175.6,249.6 175.6,245.1 165.9,208.4 162.9,206.9 128.4,224.1 133.6,263.1 	"/>
	<polygon opacity="0.29" points="165.9,208.4 175.6,245.1 175.6,249.6 141.1,266.9 141.1,262.4 131.4,225.6 	"/>
	<polygon opacity="0.11" points="128.4,224.1 133.6,263.1 141.1,266.9 141.1,262.4 131.4,225.6 	"/>
</g>
<g>
	<polygon fill="#2D3134" points="168.1,280.4 202.6,263.1 202.6,258.6 175.6,245.1 141.1,262.4 141.1,266.9 	"/>
	<polygon opacity="0.29" points="202.6,258.6 202.6,263.1 168.1,280.4 168.1,275.9 	"/>
	<polygon opacity="0.11" points="141.1,262.4 141.1,266.9 168.1,280.4 168.1,275.9 	"/>
</g>
<g>
	<path fill="none" d="M216.3,319.8c-0.2,1.3-1.2,7-0.2,8.3s3.2,1.6,5.7,1.9c2.5,0.3,6.8,0.2,9.7,1.5c2.9,1.3,7.8,2.7,12.3,3.2
		c4.5,0.5,6.6-1.7,6.7-4c0.1-2.3-1.4-4.4-4.3-5.1s-12.9-4.6-14.2-5.9S216.3,319.8,216.3,319.8z"/>
	<path fill="none" d="M179.1,329.4c0,0-3.3,6.9-3.2,8.8s3.7,5,5.5,6.7c1.8,1.7,7.3,6.1,9.9,6.8s11.4,0,12.4-1.8
		c1-1.8-4.2-6.6-6.4-8.4c-2.2-1.8-5.3-5.4-6.4-7.8c-1.1-2.4-1.4-2.9-1.4-2.9L179.1,329.4z"/>
	<path fill="#825012" d="M190.8,330.4l-12.4-0.4c0,0-2.4,3.3-1.8,6c0.7,2.7,4.4,6.9,5.3,8.6c0.9,1.8,2.7,7.5,7.8,8.9
		s11.7,0.9,12.6-2.4c0.7-2.6-10-15.1-10.4-16.2S190.8,330.4,190.8,330.4z"/>
	<path opacity="0.4" d="M181.9,344.6c-0.9-1.8-4.7-6-5.3-8.6c-0.2-0.9-0.1-2,0.2-2.9c0.5,1.3,1.3,3.2,2.1,4.2
		c1.5,1.6,4.5,7.9,6.2,10.9c2.2,4,12.8,6.8,17.1,2.2c0.1,0.3,0.1,0.5,0,0.7c-0.9,3.3-7.5,3.8-12.6,2.4S182.8,346.4,181.9,344.6z"/>
	<path fill="#825012" d="M231.3,319.8c4.5,2.8,12.7,4.8,15.3,6.3c2.9,1.6,4.7,7.6-1.3,8c-6,0.4-16-3.9-19.4-3.9s-9.7-1.1-10.6-3
		c-0.9-1.9,0.4-6.9,0.4-6.9L231.3,319.8z"/>
	<path opacity="0.4" d="M215.4,327.2c-0.1-0.2-0.2-0.5-0.2-0.8c2.9,1.3,7.9,2.1,11.3,2.2c3,0.1,13.2,4.1,18,4.1
		c2.3,0,3.9-0.8,4.8-1.6c-0.2,1.5-1.3,2.8-4,3c-6,0.4-16-3.9-19.4-3.9S216.2,329.1,215.4,327.2z"/>
	<path fill="#06547A" d="M185.2,244.8c0,0,32.5,11,38.1,14.4c5.6,3.4,8.4,6.9,8.6,12.3c0.2,5.4-1.3,33.2-0.6,38.4s2.4,11,2.4,11
		s-2.7,4-18.3,1.3c-1.3-0.2-2.4-34.3-2.4-37.7s0.6-8.9,0.6-8.9s-8.3-1.4-17.5-3.4c-8.8-1.9-23.3-9.2-23.3-9.2l-0.6-19.4L185.2,244.8
		z"/>
	<path opacity="0.2" d="M185.2,244.8c0,0,32.5,11,38.1,14.4c5.6,3.4,8.4,6.9,8.6,12.3c0.2,5.4-1.3,33.2-0.6,38.4s2.4,11,2.4,11
		s-2.7,4-18.3,1.3c-1.3-0.2-2.4-34.3-2.4-37.7s0.6-8.9,0.6-8.9s-8.3-1.4-17.5-3.4c-8.8-1.9-23.3-9.2-23.3-9.2l-0.6-19.4L185.2,244.8
		z"/>
	<path fill="#06547A" d="M153.1,239c0,0-4.8,7.8-5.8,15.1c-1,7.4,0.4,12.7,6.2,17.5c3.6,3,19,17.2,20.3,20s0.5,39.2,1.8,41.2
		c1.3,1.9,6.5,3.3,10.7,3.2c4.4-0.1,6.7-2.4,6.5-3.2s2.3-36.3,0.6-43.5C192,283,177,259.5,177,259.5l3.7-14L153.1,239z"/>
</g>
<g>
	<g>
		<path fill="#3399CC" d="M192.1,191c-8.5,0.6-22.1,2.7-25.6,7.2c-3.6,4.5-7.5,14.9-8.6,21.3c-1.1,6.5-1.6,13.4-3.9,16.8
			c-2.3,3.4-5.5,7.8-4.9,9.3c0.5,1.5,14.8,3.1,22.3,4.2c7.4,1.1,18.6-3.1,20-3.8s1.1-9.7,2.7-12.7c1.6-3,9.7-10.3,11.5-13
			c1.8-2.7,4-3.9,5.6-7.4c1.6-3.6,6.4-12.2,4.7-15.2C214.3,194.7,212,189.5,192.1,191z"/>
		<path fill="#99CC33" d="M200.7,207c-2.3,6.8-6.9,14.2-9.9,20.5c-2.2,4.6-8.3,21.8-7.9,22.9s7,0.2,8.1-0.6s1-11.9,9.1-21.9
			c3.8-4.8,9.4-11.5,9.4-11.5s-3.7-2-1-11.6c1.2-4.5,2.3-12.7,2.3-12.7l-4.6-0.9C206.1,191,202.8,200.6,200.7,207z"/>
		<path fill="#99CC33" d="M183.8,191.8c0,0,4.8,11.9,4.7,24.6s-7.4,32.3-8.5,34.6c-1.7,3.5-33.9,5.1-32.6-4.3
			c0.3-2.3,7-11.5,8.2-18.8c1.6-9.9,4.5-23.5,10.1-29.4C171.3,192.5,183.8,191.8,183.8,191.8z"/>
	</g>
	<path fill="#FBD7C7" d="M202.5,199.2c0,0,4.1,2.4,6,0.4c1.9-2,6.6-11.2,7.2-18.2c0.6-7-1-14.7-11.5-15s-11.5,7.5-11.8,9.1
		c-0.4,1.6-1.1,5.6-1,7.1c0.1,1.5,0.5,3.2,0.5,3.2s-1,2.7-2.2,4c-1.2,1.2-4.7,2.8-3.7,7.1c1,4.3,6.3,7,10.2,7
		C200.2,203.9,202.5,199.2,202.5,199.2z"/>
	<path fill="#762C07" d="M191.6,185l0.5,0.8c0,0-1.5-6.2,0.8-7.2s3.1,2.4,3.1,2.4s1.1,1.6,1.9,1.3c0.9-0.3,3.2-3.8,5.1-3.7
		c1.9,0.1,4.9,2.8,8.5,2.7c3.6-0.1,4.5-1.8,4.5-1.8s2.3-11.2-10-13.5c-12.3-2.2-14.8,8.7-15,10.8C190.4,181.6,191.6,185,191.6,185z"
		/>
</g>
<g>
	<polygon fill="#FF9900" points="181.3,309.4 243.2,279.7 256,279.7 272.6,334.4 210.6,364.5 181.3,349.7 	"/>
	<polygon opacity="0.11" points="181.3,309.4 195.9,309.4 210.6,364.5 181.3,349.7 	"/>
	<polygon opacity="0.29" points="195.9,309.4 256,279.7 272.6,334.4 210.6,364.5 	"/>
</g>
<g>
	<polygon fill="#2D3134" points="285.5,177 298.3,171 310.3,177 310.3,406.5 260,432 248,426 248,196.5 260,190.5 272,196.5 
		272,402.8 285.5,396 	"/>
	<polygon opacity="0.29" points="298.3,183 298.3,402.8 272,415.5 272,196.5 260,202.5 260,432 310.3,406.5 310.3,177 	"/>
	<polygon opacity="0.11" points="248,426 260,432 260,202.5 248,196.5 	"/>
	<polygon opacity="0.11" points="285.5,396 298.3,402.8 298.3,183 285.5,177 	"/>
</g>
<g>
	<polygon fill="#2D3134" points="298.3,180.8 305.8,177 305.8,86.3 298.3,82.5 290.8,86.3 290.8,177 	"/>
	<polygon opacity="0.29" points="305.8,86.3 305.8,177 298.3,180.8 298.3,90 	"/>
	<polygon opacity="0.11" points="290.8,86.3 290.8,177 298.3,180.8 298.3,90 	"/>
</g>
<g>
	<polygon fill="#2D3134" points="260,200.3 267.5,196.5 267.5,105.8 260,102 252.5,105.8 252.5,196.5 	"/>
	<polygon opacity="0.29" points="267.5,105.8 267.5,196.5 260,200.3 260,109.5 	"/>
	<polygon opacity="0.11" points="252.5,105.8 252.5,196.5 260,200.3 260,109.5 	"/>
</g>
<g>
	<path fill="#2D3134" d="M279.5,215.3c-2.9,0-5.3,1.2-5.3,2.6v187.5c0,1.4,2.4,2.6,5.3,2.6s5.3-1.2,5.3-2.6V217.9
		C284.8,216.4,282.4,215.3,279.5,215.3z"/>
	<path opacity="0.2" d="M279.5,220.5c-2.9,0-5.3-1.2-5.3-2.6v187.5c0,1.4,2.4,2.6,5.3,2.6s5.3-1.2,5.3-2.6V217.9
		C284.8,219.3,282.4,220.5,279.5,220.5z"/>
</g>
<g>
	<path fill="#2D3134" d="M219.4,248.1c-1.7,0.4-2.9,1.5-2.6,2.3l10.1,37.9c0.2,0.8,1.8,1.2,3.4,0.7c1.7-0.4,2.9-1.5,2.6-2.3
		l-10.1-37.9C222.6,247.9,221,247.6,219.4,248.1z"/>
	<path opacity="0.2" d="M220.2,251.1c-1.7,0.4-3.2,0.1-3.4-0.7l10.1,37.9c0.2,0.8,1.8,1.2,3.4,0.7c1.7-0.4,2.9-1.5,2.6-2.3
		l-10.1-37.9C223,249.6,221.9,250.7,220.2,251.1z"/>
</g>
<g>
	<path fill="#2D3134" d="M279.5,195.8c-4.1,0-7.5,1.7-7.5,3.8V225c0,2.1,3.4,3.8,7.5,3.8s7.5-1.7,7.5-3.8v-25.5
		C287,197.4,283.6,195.8,279.5,195.8z"/>
	<path opacity="0.2" d="M279.5,203.3c-4.1,0-7.5-1.7-7.5-3.8V225c0,2.1,3.4,3.8,7.5,3.8s7.5-1.7,7.5-3.8v-25.5
		C287,201.6,283.6,203.3,279.5,203.3z"/>
</g>
<g>
	<path fill="#E5E5E5" d="M279.5,111c-2.1,0-3.8,0.8-3.8,1.9v86.3c0,1,1.7,1.9,3.8,1.9s3.8-0.8,3.8-1.9v-86.3
		C283.3,111.8,281.6,111,279.5,111z"/>
	<path opacity="0.2" d="M279.5,114.8c-2.1,0-3.8-0.8-3.8-1.9v86.3c0,1,1.7,1.9,3.8,1.9s3.8-0.8,3.8-1.9v-86.3
		C283.3,113.9,281.6,114.8,279.5,114.8z"/>
</g>
<g>
	<path fill="#2D3134" d="M279.5,92.3c-4.1,0-7.5,1.7-7.5,3.8v16.5c0,2.1,3.4,3.8,7.5,3.8s7.5-1.7,7.5-3.8V96
		C287,93.9,283.6,92.3,279.5,92.3z"/>
	<path opacity="0.2" d="M279.5,99.8c-4.1,0-7.5-1.7-7.5-3.8v16.5c0,2.1,3.4,3.8,7.5,3.8s7.5-1.7,7.5-3.8V96
		C287,98.1,283.6,99.8,279.5,99.8z"/>
</g>
<path fill="#2D3134" d="M244.5,241.5c-0.7-2-3-2.9-7.2-2.9c-5.3,0-12.9,1.5-20.8,4.1c-6.6,2.2-12.6,4.8-16.9,7.5
	c-5.1,3.1-7.1,5.8-6.4,8.2c0.7,2,3,2.9,7.2,2.9c5.3,0,12.9-1.5,20.8-4.1C230.1,254.3,246.4,247.3,244.5,241.5z M217.4,245.5
	c5.4-1.8,10.8-3.1,15.2-3.6l-13.3,6.2l-10.8,0.8C211.2,247.7,214.2,246.6,217.4,245.5z M196.1,257.5c-0.1-0.3,0.6-1.9,5.1-4.7
	c0.1-0.1,0.3-0.2,0.4-0.3l15.5-1.2l-2.3,4.7c-5.5,1.5-10.6,2.3-14.3,2.3C197.1,258.4,196.2,257.7,196.1,257.5z M220.3,254.4
	c-0.6,0.2-1.1,0.4-1.7,0.5l2.1-4.2l19.2-9c1.2,0.2,1.7,0.6,1.7,0.7C242.1,243.8,235.4,249.4,220.3,254.4z"/>
<g>
	<path fill="#FBD7C7" d="M188.9,247.5c0,0,7.3,2.2,10.1,2.2s10.1-0.7,12.4-0.1c2.3,0.6,7,1.8,7.2,2.7s-3.7,8.5-5.7,8.8
		s-3.2,1.1-4.7,0.6c-1.5-0.5-6.7-0.8-8.3-1.7s-3.7-3.3-5.4-3.6s-8.2-2.9-8.2-2.9L188.9,247.5z"/>
	<path fill="#3399CC" d="M171.6,197.8c3.3-0.5,9.2,0.5,9.2,7.5c-0.1,9.3-3.3,18-4.6,22.4c-1.3,4.4-2.5,11.9-2.5,11.9
		s4.8,2.3,8.4,3.1c3.7,0.8,11,5.2,11,5.2l3.7,0.9l-2.4,8.6l-5-1.3c0,0-9.6-1.7-14.4-2.5c-4.8-0.8-14.2-3.3-15.4-6s1.5-20.8,2.2-27.9
		C162.7,211.4,161.1,199.5,171.6,197.8z"/>
</g>
<g>
	<polygon fill="#2D3134" points="171.1,194.6 243.1,158.6 243.1,157.1 154.6,112.9 82.6,148.9 82.6,150.4 	"/>
	<polygon opacity="0.29" points="243.1,157.1 243.1,158.6 171.1,194.6 171.1,193.1 	"/>
	<polygon opacity="0.11" points="82.6,148.9 82.6,150.4 171.1,194.6 171.1,193.1 	"/>
</g>
<g>
	<polygon fill="#2D3134" points="257.8,111.8 307.3,87 307.3,84 299.8,80.3 250.3,105 250.3,108 	"/>
	<polygon opacity="0.29" points="307.3,84 307.3,87 257.8,111.8 257.8,108.8 	"/>
	<polygon opacity="0.11" points="250.3,105 250.3,108 257.8,111.8 257.8,108.8 	"/>
</g>
<polygon fill="#FF9900" points="189,353.6 210.6,364.5 224.9,357.5 237,363.6 250,419.2 246.6,421.3 234.6,368.3 217.4,377.1 
	185.3,361.4 167.6,400.9 165,399.1 183,356.9 "/>
<polygon opacity="0.11" points="217.3,373.7 217.4,377.1 185.3,361.4 167.6,400.9 165,399.1 183,356.9 "/>
<polygon opacity="0.29" points="237,363.6 250,419.2 246.6,421.3 234.6,368.3 217.4,377.1 217.3,373.7 "/>
<polygon fill="#FF9900" points="167.6,400.9 186.8,391.3 246.6,421.3 234.6,368.3 217.4,377.1 185.3,361.4 "/>
<polygon opacity="0.4" points="167.6,400.9 186.8,391.3 246.6,421.3 234.6,368.3 217.4,377.1 185.3,361.4 "/>
<g>
	<path fill="#2D3134" d="M214.4,376.6c-7.3-3.7-14-4.1-19-1.9l0,0l-13.8,6.9l0,0c-5.3,2.4-8.6,7.8-8.6,15.7
		c0,15.3,12.3,33.8,27.6,41.4c7.5,3.8,14.4,4.2,19.3,1.7c0,0,13.7-6.8,14.9-7.5c4.5-2.7,7.2-7.8,7.2-15
		C242,402.8,229.6,384.3,214.4,376.6z"/>
	<path opacity="0.39" d="M220.3,440.4c2-1,13.5-6.7,14.5-7.4c4.5-2.7,7.2-7.8,7.2-15c0-6.1-2-12.8-5.4-19.1l-13.8,6.9
		c3.4,6.3,5.4,12.9,5.4,19.1C228.2,432.5,225.2,437.9,220.3,440.4z"/>
	<path fill="#A9ABB0" d="M221.3,421.4c0,11.4-9.3,16.1-20.7,10.4c-11.4-5.7-20.7-19.6-20.7-31.1c0-11.4,9.3-16.1,20.7-10.4
		C212,396,221.3,409.9,221.3,421.4z"/>
	<path fill="#808285" d="M202.3,431c-11.4-5.7-20.7-19.6-20.7-31.1c0-5.6,2.2-9.6,5.9-11.5c-4.6,1.5-7.6,5.8-7.6,12.2
		c0,11.4,9.3,25.4,20.7,31.1c5.8,2.9,11,3.1,14.8,1.2C211.9,434,207.3,433.5,202.3,431z"/>
	<path fill="#2D3134" d="M211,414.6c0,4.8-3.9,6.7-8.6,4.3c-4.8-2.4-8.6-8.2-8.6-13c0-4.8,3.9-6.7,8.6-4.3
		C207.1,404,211,409.8,211,414.6z"/>
	<path opacity="0.39" d="M211,414.6c0,4.8-3.9,6.7-8.6,4.3c-4.8-2.4-8.6-8.2-8.6-13c0-4.8,3.9-6.7,8.6-4.3
		C207.1,404,211,409.8,211,414.6z"/>
	<path fill="#2D3134" d="M209.2,415.4c0,4.8-3.9,6.7-8.6,4.3c-4.8-2.4-8.6-8.2-8.6-13c0-4.8,3.9-6.7,8.6-4.3
		C205.4,404.8,209.2,410.6,209.2,415.4z"/>
	<path opacity="0.06" d="M228.2,425c0,15.3-12.3,21.4-27.6,13.8c-15.2-7.6-27.6-26.2-27.6-41.4s12.3-21.4,27.6-13.8
		C215.9,391.2,228.2,409.7,228.2,425z"/>
</g>
<g>
	<polygon fill="#2D3134" points="177.1,195.4 172.6,192.4 79.6,145.9 73.6,148.9 73.6,240.6 79.6,243.6 85.6,240.6 85.6,160.9 
		166.6,201.4 219.1,365.1 225.1,368.1 231.1,365.1 	"/>
	<polygon opacity="0.29" points="177.1,195.4 231.1,365.1 225.1,368.1 171.1,198.4 	"/>
	<polygon opacity="0.11" points="171.1,198.4 166.6,195.4 73.6,148.9 73.6,240.6 79.6,243.6 79.6,157.9 166.6,201.4 219.1,365.1 
		225.1,368.1 	"/>
	<polygon opacity="0.29" points="79.6,157.9 79.6,243.6 85.6,240.6 85.6,160.9 	"/>
</g>
<polygon opacity="0.2" points="147,333.2 103.8,311.4 103.8,266.9 104.5,266.9 104.5,310.9 147.3,332.5 "/>
<g>
	<g>
		<polygon fill="#825012" points="318,254 318,258 328,263 410,222 410,218 400,213 		"/>
		<polygon opacity="0.11" points="328,263 318,258 318,254 328,259 		"/>
		<polygon opacity="0.29" points="328,263 410,222 410,218 328,259 		"/>
	</g>
	<g>
		<polygon fill="#825012" points="390,208 390,218 400,223 410,218 410,208 400,203 		"/>
		<polygon opacity="0.11" points="400,223 390,218 390,208 400,213 		"/>
		<polygon opacity="0.29" points="400,223 410,218 410,208 400,213 		"/>
	</g>
	<g>
		<polygon fill="#825012" points="354,226 354,236 364,241 374,236 374,226 364,221 		"/>
		<polygon opacity="0.11" points="364,241 354,236 354,226 364,231 		"/>
		<polygon opacity="0.29" points="364,241 374,236 374,226 364,231 		"/>
	</g>
	<g>
		<polygon fill="#825012" points="410,204 410,208 400,213 320,173 320,169 330,164 		"/>
		<polygon opacity="0.29" points="400,213 410,208 410,204 400,209 		"/>
		<polygon opacity="0.11" points="400,213 320,173 320,169 400,209 		"/>
	</g>
	<g>
		<polygon fill="#825012" points="282,236 282,240 292,245 372,205 372,201 362,196 		"/>
		<polygon opacity="0.11" points="292,245 282,240 282,236 292,241 		"/>
		<polygon opacity="0.29" points="292,245 372,205 372,201 292,241 		"/>
	</g>
	<g>
		<polygon fill="#825012" points="246,218 246,222 256,227 336,187 336,183 326,178 		"/>
		<polygon opacity="0.11" points="256,227 246,222 246,218 256,223 		"/>
		<polygon opacity="0.29" points="256,227 336,187 336,183 256,223 		"/>
	</g>
	<g>
		<polygon fill="#2D3134" points="331,155.5 334,154 334,24.3 326.5,20.5 323.5,22 323.5,151.8 		"/>
		<polygon opacity="0.29" points="334,24.3 334,154 331,155.5 331,25.8 		"/>
		<polygon opacity="0.11" points="323.5,22 323.5,151.8 331,155.5 331,25.8 		"/>
	</g>
	<g>
		<polygon fill="#2D3134" points="235,160 329.5,112.8 329.5,103.8 326.5,102.3 232,149.5 232,158.5 		"/>
		<polygon opacity="0.29" points="329.5,103.8 329.5,112.8 235,160 235,151 		"/>
		<polygon opacity="0.11" points="232,149.5 232,158.5 235,160 235,151 		"/>
	</g>
	<g>
		<polygon fill="#2D3134" points="236.5,82 331,34.8 331,25.8 323.5,22 229,69.3 229,78.3 		"/>
		<polygon opacity="0.29" points="331,25.8 331,34.8 236.5,82 236.5,73 		"/>
		<polygon opacity="0.11" points="229,69.3 229,78.3 236.5,82 236.5,73 		"/>
	</g>
	<g>
		<polygon fill="#2D3134" points="235,200.5 329.5,153.3 329.5,144.3 326.5,142.8 232,190 232,199 		"/>
		<polygon opacity="0.29" points="329.5,144.3 329.5,153.3 235,200.5 235,191.5 		"/>
		<polygon opacity="0.11" points="232,190 232,199 235,200.5 235,191.5 		"/>
	</g>
	<g>
		<polygon fill="#2D3134" points="233.5,204.3 236.5,202.8 236.5,73 229,69.3 226,70.8 226,200.5 		"/>
		<polygon opacity="0.29" points="236.5,73 236.5,202.8 233.5,204.3 233.5,74.5 		"/>
		<polygon opacity="0.11" points="226,70.8 226,200.5 233.5,204.3 233.5,74.5 		"/>
	</g>
	<g>
		<polygon fill="#FF9900" points="253.5,124.8 243,130 243,143.9 245.2,142.8 248.3,144.3 248.3,201.1 253.5,203.7 264,198.5 
			264,130 		"/>
		<polygon opacity="0.11" points="243,130 243,143.9 245.2,142.8 248.3,144.3 248.3,201.1 253.5,203.8 253.5,135.3 		"/>
		<g>
			<polygon fill="#FF9900" points="355.5,251.8 366,246.5 366,245 264,194 253.5,199.3 253.5,203.8 328.5,241.2 			"/>
			<polygon opacity="0.29" points="366,245 366,246.5 355.5,251.8 355.5,250.3 			"/>
			<polygon opacity="0.11" points="253.5,199.3 253.5,203.8 328.5,241.2 355.5,251.8 355.5,250.3 			"/>
		</g>
		<polygon opacity="0.29" points="264,130 264,194 253.5,199.3 253.5,135.3 		"/>
	</g>
	<g>
		<polygon fill="#FF9900" points="303.5,99.8 293,105.1 293,119 295.2,117.9 298.3,119.4 298.3,176.2 303.5,178.8 314,173.6 
			314,105.1 		"/>
		<polygon opacity="0.11" points="293,105.1 293,119 295.2,117.9 298.3,119.4 298.3,176.2 303.5,178.8 303.5,110.3 		"/>
		<g>
			<polygon fill="#FF9900" points="405.5,226.8 416,221.6 416,220.1 314,169.1 303.5,174.3 303.5,178.8 378.5,216.3 			"/>
			<polygon opacity="0.29" points="416,220.1 416,221.6 405.5,226.8 405.5,225.3 			"/>
			<polygon opacity="0.11" points="303.5,174.3 303.5,178.8 378.5,216.3 405.5,226.8 405.5,225.3 			"/>
		</g>
		<polygon opacity="0.29" points="314,105.1 314,169.1 303.5,174.3 303.5,110.3 		"/>
	</g>
	<g>
		<polygon fill="#825012" points="354,190 354,200 364,205 374,200 374,190 364,185 		"/>
		<polygon opacity="0.11" points="364,205 354,200 354,190 364,195 		"/>
		<polygon opacity="0.29" points="364,205 374,200 374,190 364,195 		"/>
	</g>
	<g>
		<polygon fill="#825012" points="282,226 282,236 292,241 302,236 302,226 292,221 		"/>
		<polygon opacity="0.11" points="292,241 282,236 282,226 292,231 		"/>
		<polygon opacity="0.29" points="292,241 302,236 302,226 292,231 		"/>
	</g>
	<g>
		<polygon fill="#825012" points="246,208 246,218 256,223 266,218 266,208 256,203 		"/>
		<polygon opacity="0.11" points="256,223 246,218 246,208 256,213 		"/>
		<polygon opacity="0.29" points="256,223 266,218 266,208 256,213 		"/>
	</g>
	<g>
		<polygon fill="#825012" points="318,172 318,182 328,187 338,182 338,172 328,167 		"/>
		<polygon opacity="0.11" points="328,187 318,182 318,172 328,177 		"/>
		<polygon opacity="0.29" points="328,187 338,182 338,172 328,177 		"/>
	</g>
	<g>
		<polygon fill="#825012" points="318,244 318,254 328,259 338,254 338,244 328,239 		"/>
		<polygon opacity="0.11" points="328,259 318,254 318,244 328,249 		"/>
		<polygon opacity="0.29" points="328,259 338,254 338,244 328,249 		"/>
	</g>
	<g>
		<polygon fill="#825012" points="338,240 338,244 328,249 246,208 246,204 256,199 		"/>
		<polygon opacity="0.29" points="328,249 338,244 338,240 328,245 		"/>
		<polygon opacity="0.11" points="328,249 246,208 246,204 328,245 		"/>
	</g>
	<g>
		<polygon fill="#825012" points="282,190 282,200 292,205 302,200 302,190 292,185 		"/>
		<polygon opacity="0.11" points="292,205 282,200 282,190 292,195 		"/>
		<polygon opacity="0.29" points="292,205 302,200 302,190 292,195 		"/>
	</g>
	<g>
		<polygon fill="#825012" points="374,222 374,226 364,231 284,191 284,187 294,182 		"/>
		<polygon opacity="0.29" points="364,231 374,226 374,222 364,227 		"/>
		<polygon opacity="0.11" points="364,231 284,191 284,187 364,227 		"/>
	</g>
	<g>
		<polygon fill="#825012" points="318,236 318,240 328,245 410,204 410,200 400,195 		"/>
		<polygon opacity="0.11" points="328,245 318,240 318,236 328,241 		"/>
		<polygon opacity="0.29" points="328,245 410,204 410,200 328,241 		"/>
	</g>
	<g>
		<polygon fill="#825012" points="300,227 300,231 310,236 392,195 392,191 382,186 		"/>
		<polygon opacity="0.11" points="310,236 300,231 300,227 310,232 		"/>
		<polygon opacity="0.29" points="310,236 392,195 392,191 310,232 		"/>
	</g>
	<g>
		<polygon fill="#825012" points="282,218 282,222 292,227 374,186 374,182 364,177 		"/>
		<polygon opacity="0.11" points="292,227 282,222 282,218 292,223 		"/>
		<polygon opacity="0.29" points="292,227 374,186 374,182 292,223 		"/>
	</g>
	<g>
		<polygon fill="#825012" points="264,209 264,213 274,218 356,177 356,173 346,168 		"/>
		<polygon opacity="0.11" points="274,218 264,213 264,209 274,214 		"/>
		<polygon opacity="0.29" points="274,218 356,177 356,173 274,214 		"/>
	</g>
	<g>
		<polygon fill="#825012" points="246,200 246,204 256,209 338,168 338,164 328,159 		"/>
		<polygon opacity="0.11" points="256,209 246,204 246,200 256,205 		"/>
		<polygon opacity="0.29" points="256,209 338,168 338,164 256,205 		"/>
	</g>
</g>
<g>
	<polygon fill="#FFCC00" points="250,120 250,200 330,240 410,200 410,120 330,80 	"/>
	<polygon opacity="0.11" points="330,240 250,200 250,120 330,160 	"/>
	<polygon opacity="0.3" points="300,95 280,105 360,145 360,185 380,175 380,135 	"/>
	<polygon opacity="0.29" points="330,240 410,200 410,120 330,160 	"/>
</g>
<path fill="#FBD7C7" d="M233.3,238.1c0.7-1.6,4.5-3.8,8.5-2.5c4,1.2,5.2,5.3,4.7,6.5c-0.5,1.2-5.4-0.3-7.3-1
	C237.3,240.5,232.3,240.4,233.3,238.1z"/>
</svg>
