<svg version="1.1" id="matrix" xmlns="http://www.w3.org/2000/svg" xmlns:xlink="http://www.w3.org/1999/xlink" x="0px" y="0px"
	 width="960px" height="560px" viewBox="0 0 960 560" enable-background="new 0 0 960 560" xml:space="preserve">

// Vertical lines

<path stroke="green" stroke-width=".2" d="M10 0 V560" />
<path stroke="green" stroke-width=".2" d="M20 0 V560" />
<path stroke="green" stroke-width=".2" d="M30 0 V560" />
<path stroke="green" stroke-width=".2" d="M40 0 V560" />
<path stroke="green" stroke-width=".2" d="M50 0 V560" />
<path stroke="green" stroke-width=".2" d="M60 0 V560" />
<path stroke="green" stroke-width=".2" d="M70 0 V560" />
<path stroke="green" stroke-width=".2" d="M80 0 V560" />
<path stroke="green" stroke-width=".2" d="M90 0 V560" />
<path stroke="green" stroke-width=".2" d="M100 0 V560" />
<path stroke="green" stroke-width=".2" d="M110 0 V560" />
<path stroke="green" stroke-width=".2" d="M120 0 V560" />
<path stroke="green" stroke-width=".2" d="M130 0 V560" />
<path stroke="green" stroke-width=".2" d="M140 0 V560" />
<path stroke="green" stroke-width=".2" d="M150 0 V560" />
<path stroke="green" stroke-width=".2" d="M160 0 V560" />
<path stroke="green" stroke-width=".2" d="M170 0 V560" />
<path stroke="green" stroke-width=".2" d="M180 0 V560" />
<path stroke="green" stroke-width=".2" d="M190 0 V560" />
<path stroke="green" stroke-width=".2" d="M200 0 V560" />
<path stroke="green" stroke-width=".2" d="M210 0 V560" />
<path stroke="green" stroke-width=".2" d="M220 0 V560" />
<path stroke="green" stroke-width=".2" d="M230 0 V560" />
<path stroke="green" stroke-width=".2" d="M240 0 V560" />
<path stroke="green" stroke-width=".2" d="M250 0 V560" />
<path stroke="green" stroke-width=".2" d="M260 0 V560" />
<path stroke="green" stroke-width=".2" d="M270 0 V560" />
<path stroke="green" stroke-width=".2" d="M280 0 V560" />
<path stroke="green" stroke-width=".2" d="M290 0 V560" />
<path stroke="green" stroke-width=".2" d="M300 0 V560" />
<path stroke="green" stroke-width=".2" d="M310 0 V560" />
<path stroke="green" stroke-width=".2" d="M320 0 V560" />
<path stroke="green" stroke-width=".2" d="M330 0 V560" />
<path stroke="green" stroke-width=".2" d="M340 0 V560" />
<path stroke="green" stroke-width=".2" d="M350 0 V560" />
<path stroke="green" stroke-width=".2" d="M360 0 V560" />
<path stroke="green" stroke-width=".2" d="M370 0 V560" />
<path stroke="green" stroke-width=".2" d="M380 0 V560" />
<path stroke="green" stroke-width=".2" d="M390 0 V560" />
<path stroke="green" stroke-width=".2" d="M400 0 V560" />
<path stroke="green" stroke-width=".2" d="M410 0 V560" />
<path stroke="green" stroke-width=".2" d="M420 0 V560" />
<path stroke="green" stroke-width=".2" d="M430 0 V560" />
<path stroke="green" stroke-width=".2" d="M440 0 V560" />
<path stroke="green" stroke-width=".2" d="M450 0 V560" />
<path stroke="green" stroke-width=".2" d="M460 0 V560" />
<path stroke="green" stroke-width=".2" d="M470 0 V560" />
<path stroke="green" stroke-width=".2" d="M480 0 V560" />
<path stroke="green" stroke-width=".2" d="M490 0 V560" />
<path stroke="green" stroke-width=".2" d="M500 0 V560" />
<path stroke="green" stroke-width=".2" d="M510 0 V560" />
<path stroke="green" stroke-width=".2" d="M520 0 V560" />
<path stroke="green" stroke-width=".2" d="M530 0 V560" />
<path stroke="green" stroke-width=".2" d="M540 0 V560" />
<path stroke="green" stroke-width=".2" d="M550 0 V560" />
<path stroke="green" stroke-width=".2" d="M560 0 V560" />
<path stroke="green" stroke-width=".2" d="M570 0 V560" />
<path stroke="green" stroke-width=".2" d="M580 0 V560" />
<path stroke="green" stroke-width=".2" d="M590 0 V560" />
<path stroke="green" stroke-width=".2" d="M600 0 V560" />
<path stroke="green" stroke-width=".2" d="M610 0 V560" />
<path stroke="green" stroke-width=".2" d="M620 0 V560" />
<path stroke="green" stroke-width=".2" d="M630 0 V560" />
<path stroke="green" stroke-width=".2" d="M640 0 V560" />
<path stroke="green" stroke-width=".2" d="M650 0 V560" />
<path stroke="green" stroke-width=".2" d="M660 0 V560" />
<path stroke="green" stroke-width=".2" d="M670 0 V560" />
<path stroke="green" stroke-width=".2" d="M680 0 V560" />

<path stroke="green" stroke-width=".2" d="M690 0 V560" />
<path stroke="green" stroke-width=".2" d="M700 0 V560" />
<path stroke="green" stroke-width=".2" d="M710 0 V560" />
<path stroke="green" stroke-width=".2" d="M720 0 V560" />
<path stroke="green" stroke-width=".2" d="M730 0 V560" />
<path stroke="green" stroke-width=".2" d="M740 0 V560" />
<path stroke="green" stroke-width=".2" d="M750 0 V560" />
<path stroke="green" stroke-width=".2" d="M760 0 V560" />
<path stroke="green" stroke-width=".2" d="M770 0 V560" />
<path stroke="green" stroke-width=".2" d="M780 0 V560" />
<path stroke="green" stroke-width=".2" d="M790 0 V560" />
<path stroke="green" stroke-width=".2" d="M800 0 V560" />
<path stroke="green" stroke-width=".2" d="M810 0 V560" />
<path stroke="green" stroke-width=".2" d="M820 0 V560" />
<path stroke="green" stroke-width=".2" d="M830 0 V560" />
<path stroke="green" stroke-width=".2" d="M840 0 V560" />
<path stroke="green" stroke-width=".2" d="M850 0 V560" />
<path stroke="green" stroke-width=".2" d="M860 0 V560" />
<path stroke="green" stroke-width=".2" d="M870 0 V560" />
<path stroke="green" stroke-width=".2" d="M880 0 V560" />
<path stroke="green" stroke-width=".2" d="M890 0 V560" />
<path stroke="green" stroke-width=".2" d="M900 0 V560" />
<path stroke="green" stroke-width=".2" d="M910 0 V560" />
<path stroke="green" stroke-width=".2" d="M920 0 V560" />
<path stroke="green" stroke-width=".2" d="M930 0 V560" />
<path stroke="green" stroke-width=".2" d="M940 0 V560" />
<path stroke="green" stroke-width=".2" d="M950 0 V560" />

// Horizontal lines

<path stroke="green" stroke-width=".2" d="M0 10 H960" />
<path stroke="green" stroke-width=".2" d="M0 20 H960" />
<path stroke="green" stroke-width=".2" d="M0 30 H960" />
<path stroke="green" stroke-width=".2" d="M0 40 H960" />
<path stroke="green" stroke-width=".2" d="M0 50 H960" />
<path stroke="green" stroke-width=".2" d="M0 60 H960" />
<path stroke="green" stroke-width=".2" d="M0 70 H960" />
<path stroke="green" stroke-width=".2" d="M0 80 H960" />
<path stroke="green" stroke-width=".2" d="M0 90 H960" />
<path stroke="green" stroke-width=".2" d="M0 100 H960" />
<path stroke="green" stroke-width=".2" d="M0 110 H960" />
<path stroke="green" stroke-width=".2" d="M0 120 H960" />
<path stroke="green" stroke-width=".2" d="M0 130 H960" />
<path stroke="green" stroke-width=".2" d="M0 140 H960" />
<path stroke="green" stroke-width=".2" d="M0 150 H960" />
<path stroke="green" stroke-width=".2" d="M0 160 H960" />
<path stroke="green" stroke-width=".2" d="M0 170 H960" />
<path stroke="green" stroke-width=".2" d="M0 180 H960" />
<path stroke="green" stroke-width=".2" d="M0 190 H960" />
<path stroke="green" stroke-width=".2" d="M0 200 H960" />
<path stroke="green" stroke-width=".2" d="M0 210 H960" />
<path stroke="green" stroke-width=".2" d="M0 220 H960" />
<path stroke="green" stroke-width=".2" d="M0 230 H960" />
<path stroke="green" stroke-width=".2" d="M0 240 H960" />
<path stroke="green" stroke-width=".2" d="M0 250 H960" />
<path stroke="green" stroke-width=".2" d="M0 260 H960" />
<path stroke="green" stroke-width=".2" d="M0 270 H960" />
<path stroke="green" stroke-width=".2" d="M0 280 H960" />
<path stroke="green" stroke-width=".2" d="M0 290 H960" />
<path stroke="green" stroke-width=".2" d="M0 300 H960" />
<path stroke="green" stroke-width=".2" d="M0 310 H960" />
<path stroke="green" stroke-width=".2" d="M0 320 H960" />
<path stroke="green" stroke-width=".2" d="M0 330 H960" />
<path stroke="green" stroke-width=".2" d="M0 340 H960" />
<path stroke="green" stroke-width=".2" d="M0 350 H960" />
<path stroke="green" stroke-width=".2" d="M0 360 H960" />
<path stroke="green" stroke-width=".2" d="M0 370 H960" />
<path stroke="green" stroke-width=".2" d="M0 380 H960" />
<path stroke="green" stroke-width=".2" d="M0 390 H960" />
<path stroke="green" stroke-width=".2" d="M0 400 H960" />
<path stroke="green" stroke-width=".2" d="M0 410 H960" />
<path stroke="green" stroke-width=".2" d="M0 420 H960" />
<path stroke="green" stroke-width=".2" d="M0 430 H960" />
<path stroke="green" stroke-width=".2" d="M0 440 H960" />
<path stroke="green" stroke-width=".2" d="M0 450 H960" />
<path stroke="green" stroke-width=".2" d="M0 460 H960" />
<path stroke="green" stroke-width=".2" d="M0 470 H960" />
<path stroke="green" stroke-width=".2" d="M0 480 H960" />
<path stroke="green" stroke-width=".2" d="M0 490 H960" />
<path stroke="green" stroke-width=".2" d="M0 500 H960" />
<path stroke="green" stroke-width=".2" d="M0 510 H960" />
<path stroke="green" stroke-width=".2" d="M0 520 H960" />
<path stroke="green" stroke-width=".2" d="M0 530 H960" />
<path stroke="green" stroke-width=".2" d="M0 540 H960" />
<path stroke="green" stroke-width=".2" d="M0 550 H960" />


<text transform="matrix(1 0 0 1 360 30)" font-family="'MyriadPro-Regular'" font-size="12">Matriz</text>
</svg>
