<?xml version="1.0" encoding="utf-8"?>
<!-- Generator: Adobe Illustrator 18.1.0, SVG Export Plug-In . SVG Version: 6.00 Build 0)  -->
<svg version="1.1" id="Layer_1" xmlns="http://www.w3.org/2000/svg" xmlns:xlink="http://www.w3.org/1999/xlink" x="0px" y="0px"
	 viewBox="0 0 560 480" enable-background="new 0 0 560 480" xml:space="preserve">
<polygon opacity="0.3" points="337.8,448.4 501.3,366.7 163.4,198.4 0,280.1 "/>
<g>
	<polygon points="35.4,274.8 103.1,256 56.4,229.2 28.7,252.9 	"/>
	<polygon points="256.9,387.1 324.6,368.3 277.9,341.4 250.2,365.2 	"/>
	<g>
		<path fill="#2D3134" d="M296.6,355.6c-7.8-3.9-14.8-4.3-20-2l0,0l-10.9,5.9l0,0c-5.6,2.5-9.1,8.2-9.1,16.6
			c0,16.1,13,35.6,29.1,43.7c8,4,15.2,4.4,20.4,1.8c0,0,10.9-5.8,12-6.5c4.7-2.8,7.6-8.2,7.6-15.8
			C325.7,383.2,312.7,363.6,296.6,355.6z"/>
		<path opacity="0.29" d="M306.4,421.3c2.1-1,10.6-5.7,11.7-6.3c4.7-2.8,7.6-8.2,7.6-15.8c0-6.5-2.1-13.5-5.7-20.1l-10.9,5.9
			c3.6,6.6,5.7,13.6,5.7,20.1C314.8,413.1,311.6,418.7,306.4,421.3z"/>
		<g>
			<path fill="#2D3134" d="M314.8,405.1c0,16.1-13,22.6-29.1,14.6s-29.1-27.6-29.1-43.7s13-22.6,29.1-14.6S314.8,389.1,314.8,405.1z
				"/>
			<path fill="#E5E5E5" d="M308.4,402c0,12.6-10.2,17.7-22.7,11.4c-12.6-6.3-22.7-21.6-22.7-34.1s10.2-17.7,22.7-11.4
				C298.2,374.1,308.4,389.4,308.4,402z"/>
			<g>
				<path fill="#2D3134" d="M300.6,412c3.4-2,5.5-5.8,5.5-11.2c0-0.4,0-0.9,0-1.3l-12.7-2L300.6,412z"/>
				<path fill="#2D3134" d="M290.4,387l13.3,2.9c-2.8-6.6-7.8-13-13.8-17.3L290.4,387z"/>
				<path fill="#2D3134" d="M280.9,382.3l0.4-13.9c-6-1.7-11-0.3-13.8,3.5L280.9,382.3z"/>
				<path fill="#2D3134" d="M265.2,379.1c0,0.4,0,0.8,0,1.3c0,5.4,2.1,11.4,5.5,16.7l7.3-7.2L265.2,379.1z"/>
				<path fill="#2D3134" d="M285.7,399.3l-7.8,6.3c2.4,2.2,5,4.1,7.8,5.4s5.4,2.1,7.8,2.4L285.7,399.3z"/>
			</g>
		</g>
		<path opacity="0.11" d="M314.8,405.1c0,16.1-13,22.6-29.1,14.6c-16.1-8-29.1-27.6-29.1-43.7c0-16.1,13-22.6,29.1-14.6
			C301.7,369.5,314.8,389.1,314.8,405.1z"/>
	</g>
	<g>
		<path fill="#2D3134" d="M75.6,246.1c-7.8-3.9-14.8-4.3-20-2l0,0L44.7,250l0,0c-5.6,2.5-9.1,8.2-9.1,16.6c0,16.1,13,35.6,29.1,43.7
			c8,4,15.2,4.4,20.4,1.8c0,0,10.9-5.8,12-6.5c4.7-2.8,7.6-8.2,7.6-15.8C104.7,273.7,91.7,254.1,75.6,246.1z"/>
		<path opacity="0.29" d="M85.4,311.9c2.1-1,10.6-5.7,11.7-6.3c4.7-2.8,7.6-8.2,7.6-15.8c0-6.5-2.1-13.5-5.7-20.1l-10.9,5.9
			c3.6,6.6,5.7,13.6,5.7,20.1C93.8,303.6,90.6,309.2,85.4,311.9z"/>
		<g>
			<path fill="#2D3134" d="M93.8,295.7c0,16.1-13,22.6-29.1,14.6s-29.1-27.6-29.1-43.7s13-22.6,29.1-14.6
				C80.8,260,93.8,279.6,93.8,295.7z"/>
			<path fill="#E5E5E5" d="M87.5,292.5c0,12.6-10.2,17.7-22.7,11.4C52.1,297.6,42,282.3,42,269.8s10.2-17.7,22.7-11.4
				C77.3,264.7,87.5,279.9,87.5,292.5z"/>
			<g>
				<path fill="#2D3134" d="M79.7,302.6c3.4-2,5.5-5.8,5.5-11.2c0-0.4,0-0.9,0-1.3l-12.7-2L79.7,302.6z"/>
				<path fill="#2D3134" d="M69.5,277.6l13.3,2.9c-2.8-6.6-7.8-13-13.8-17.3L69.5,277.6z"/>
				<path fill="#2D3134" d="M60,272.8l0.4-13.9c-6-1.7-11-0.3-13.8,3.5L60,272.8z"/>
				<path fill="#2D3134" d="M44.3,269.6c0,0.4,0,0.8,0,1.3c0,5.4,2.1,11.4,5.5,16.7l7.3-7.2L44.3,269.6z"/>
				<path fill="#2D3134" d="M64.7,289.8l-7.8,6.3c2.4,2.2,5,4.1,7.8,5.4c2.8,1.4,5.4,2.1,7.8,2.4L64.7,289.8z"/>
			</g>
		</g>
		<path opacity="0.11" d="M93.8,295.7c0,16.1-13,22.6-29.1,14.6c-16.1-8-29.1-27.6-29.1-43.7c0-16.1,13-22.6,29.1-14.6
			S93.8,279.6,93.8,295.7z"/>
	</g>
	<path fill="#FFCC00" d="M488,315.4c-1-3.7,1-8.1,0-24.3s-17.2-55.2-26.9-70.1c-9.8-14.8-166.4-89.3-191.3-98
		c-24.9-8.8-55.9,2-73.1,5.1c-17.2,3-65.3,8.1-93.3,15.8c-23.7,6.6-52.5,26.3-58.3,33c-5.7,6.7-10.1,19.9-14.1,26.6
		s-9.8,14.1-9.8,19.9c0,5.7-0.3,24.3,0,34.7c0.3,10.4,13.5,16.2,13.5,16.2l0.7,0.4c-0.8-3.2-1.2-6.4-1.2-9.5
		c0-19.3,15.6-27.1,34.9-17.5c19.3,9.6,34.9,33.1,34.9,52.4c0,3.5-0.5,6.6-1.5,9.3l154.5,77.7c-1.2-4.2-1.9-8.4-1.9-12.4
		c0-19.3,15.6-27.1,34.9-17.5c19.3,9.6,34.9,33.1,34.9,52.4c0,1-0.1,2-0.1,3c9.6,3.6,22.5,9,38.5,7.8
		c23.2-1.7,121.3-54.8,123.3-58.2c2-3.4,3.7-30.7,3.7-35.7S489,319.1,488,315.4z"/>
	<path opacity="0.2" d="M165.1,265.2c0,4-3.2,5.6-7.2,3.6s-7.2-6.8-7.2-10.7c0-4,3.2-5.6,7.2-3.6
		C161.9,256.4,165.1,261.2,165.1,265.2z"/>
	<path fill="#FFCC00" d="M165.8,267.7l2.7-3.7c0,0-23.8-12.5-25.5-9.5C141.2,257.5,165.8,267.7,165.8,267.7z"/>
	<path opacity="0.2" d="M197.4,278.4c0,4-3.2,5.6-7.2,3.6c-4-2-7.2-6.8-7.2-10.7c0-4,3.2-5.6,7.2-3.6
		C194.2,269.6,197.4,274.4,197.4,278.4z"/>
	<path fill="#FFCC00" d="M198.1,280.9l2.7-3.7c0,0-23.8-12.5-25.5-9.5C173.5,270.7,198.1,280.9,198.1,280.9z"/>
	<path fill="#2D3134" d="M189.6,195.7l-14.1,48l-96.7-38.3c-2.3-0.9-2.4-4.1-0.2-5.2c10.6-5.3,34.2-16.1,52.7-18
		C155.9,179.8,189.6,195.7,189.6,195.7z"/>
	<path opacity="0.3" d="M200.9,201.4L342,270c2.9,1.4,4.8,4.4,4.8,7.6v44c0,2.7-2.8,4.4-5.2,3.3c-21.6-10-103.9-48.2-116.8-54.7
		c-14.8-7.5-26.7-13.8-27.8-19.9c-0.9-4.7-1.2-33.1-1.3-45.6C195.7,202,198.5,200.2,200.9,201.4z"/>
	<path fill="#FFCC00" d="M343.1,323.2c-0.2,0-0.5-0.1-0.7-0.2c-24.2-11.2-104-48.2-116.7-54.7c-12.1-6.2-25.8-13.1-26.8-18.5
		c-0.6-3.2-1.1-20.1-1.3-45.2c0-0.6,0.2-0.9,0.5-1.1c0.3-0.3,0.7-0.5,1.2-0.5c0.2,0,0.5,0.1,0.7,0.2l141.1,68.6
		c2.2,1.1,3.6,3.4,3.6,5.8v44C344.7,322.6,343.9,323.2,343.1,323.2z"/>
	<path opacity="0.3" d="M463.2,224.6c-4.1,4.1-16,14-45,27.3c-38.8,17.7-64,23.4-64,23.4l7.6,55c0,0,20.2-1.1,64.9-24.3
		c39.8-20.6,52.1-30,56.1-36.6C477.6,253.7,469.5,235.4,463.2,224.6z"/>
	<path fill="#FFCC00" d="M356.4,276.7c6.5-1.6,29.8-8.1,62.6-23c25.5-11.6,37.9-20.7,43.7-25.9c6,10.8,13.1,27.2,17.9,41.3
		c-5.1,7.3-21.6,17.9-54.8,35.1c-36.4,18.8-56.4,22.9-62.2,23.8L356.4,276.7z"/>
	<path fill="#CC291F" d="M406,343.7v15.7l-31.2,10.8c0,0-7,2-11,1.6c-4-0.4-13-3.1-15-9.2s-4.7-18-4-19.8c0.7-1.8,6.7,4.3,15.9,3.1
		c9.2-1.1,16.8-4.3,19-2.6c2.2,1.7,7,6.9,8.6,6.9S406,343.7,406,343.7z"/>
	<path fill="#CC291F" d="M488,291.1c-0.1-1.9-0.5-4.2-1-6.6c-0.4,1.3-6.8,6.3-7.3,7.1c-0.5,0.8-5.6,15.5-6.9,16.7
		c-1.3,1.2-16.3,10.4-16.3,10.4v15.3c0,0,21.2-14,25.6-17.5c2.2-1.8,4.3-4.2,5.8-6.2C488.2,306,488.6,299.9,488,291.1z"/>
	<path fill="#F1F2F2" d="M473,308.2l15.3-11c0-1.9-0.1-3.9-0.3-6.1c0-0.6-0.1-1.1-0.2-1.8l-10.3,7.9C476,301.6,473.9,307,473,308.2z
		"/>
	<path fill="#F1F2F2" d="M381.7,345c-4.8,1.5-17.1,5.4-21.6,5.8c-2.5,0.2-8.8-2.1-8.8-2.1v6.9c0,0,3.5,2.6,8.8,1.9
		c5.2-0.7,28.3-7.3,28.3-7.3C387.1,350.2,384,347.2,381.7,345z"/>
	<polygon fill="#999999" points="416.9,339.8 416.9,354.9 446,339.8 446,325.1 	"/>
	<polygon opacity="0.3" fill="#FFFFFF" points="105.4,263.2 93.6,264.7 357.5,384.5 357.3,374.7 	"/>
	<polygon opacity="0.3" fill="#FFFFFF" points="40,216.7 344.7,342.8 355.6,346.1 354.8,330.6 213.9,264.5 50.8,200.2 	"/>
	<path fill="#2D3134" d="M189.6,143.4c15.1-7.2,42.9-20.9,56.1-23.6c-2.5,0.1-5,0.2-7.6,0.5c-19.6,3.7-56.4,11.2-72.7,15.8
		c-9.6,2.7-18.2,4.4-27.4,7.3c-10.9,3.4-22.8,8.7-33.4,15.4C94,165.4,79.7,180.2,73.4,187c-0.8,0.9,0.1,2.3,1.3,1.9
		c2.6-0.9,5.8-2.1,8.5-2.9c5.4-1.6,37.3-12.6,58.6-13.5C141.7,172.6,170.7,152.4,189.6,143.4z"/>
	<path fill="#656565" d="M84.7,183.1c7.3-7.5,21.6-20.4,30.1-25.8c15.8-10,25.7-12.3,42.5-17.1c5.4-1.6,11.1-3.2,16.9-5
		c12.3-3.9,41.4-9.8,60.8-13.6c-11.7,4.8-29.2,12.6-37.6,16.3c-20.2,8.9-50.6,29-55.9,32.7c-20.6,1.1-42.1,7.9-52.9,11.3
		C87,182.4,84.8,183,84.7,183.1z"/>
	<g>
		<path fill="#656565" d="M108.5,190.9c-9.9,3.6-22.2,9.2-27.6,11.8l18.6,7.4L108.5,190.9z"/>
		<path fill="#656565" d="M136.6,185.3c-1.8,0-3.5,0.1-5.1,0.2c-4.5,0.4-9.3,1.5-14.1,2.8l-3.7,27.3l59.6,23.6l12.3-41.7
			C177.9,194.3,155.4,185.3,136.6,185.3z"/>
	</g>
	<path opacity="0.3" fill="#FFFFFF" d="M490.4,325.6c-0.1-4.2-1.3-6.5-2.2-9.8l-13.6,10.4c0,0,0,10.8-5.6,18.7
		c-5.3,7.6-74.5,39.5-84.7,42c1.1,3.4,2.8,6.4,5.1,6.5c5.2,0.2,80.2-34.2,85.7-42.1c5.6-7.9,5.6-18.7,5.6-18.7l9.7-7.8
		C490.3,325,490.3,325.3,490.4,325.6z"/>
	<path opacity="0.3" fill="#FFFFFF" d="M357.5,384.5l-0.2-9.8l18-3.4l6.9,6.7c0,0-13.9,7.2-18.7,8.4S357.5,384.5,357.5,384.5z"/>
	<path fill="#2D3134" d="M490.3,324.8l-9.7,7.8c0,0,0,10.8-5.6,18.7c-5.6,7.9-80.5,42.3-85.7,42.1c-5.2-0.2-7.1-15.4-7.1-15.4
		s-19.7,6.9-24.6,6.5v36c0,0,0.4,0,0.6,0c1.5-0.1,3.2,0,5.1-0.2c23.2-1.7,121.3-54.8,123.3-58.2c2-3.4,3.7-30.7,3.7-35.7
		C490.4,325.9,490.3,325.3,490.3,324.8z"/>
	<path opacity="0.29" d="M490.3,324.8l-9.7,7.8c0,0,0,10.8-5.6,18.7c-5.6,7.9-80.5,42.3-85.7,42.1c-5.2-0.2-7.1-15.4-7.1-15.4
		s-19.7,6.9-24.6,6.5v36c0,0,0.4,0,0.6,0c1.5-0.1,3.2,0,5.1-0.2c23.2-1.7,121.3-54.8,123.3-58.2c2-3.4,3.7-30.7,3.7-35.7
		C490.4,325.9,490.3,325.3,490.3,324.8z"/>
	<g opacity="0.3">
		<polygon points="170.5,336.3 170.5,269.2 175.9,244.1 174.9,243.9 169.5,269.1 169.5,269.1 169.5,335.9 104.1,303.5 103.6,304.4 
			255.2,379.5 255.6,378.6 170.3,336.3 		"/>
		<rect x="269.1" y="291.4" width="1" height="61.6"/>
		<polygon points="93.1,236.4 93.1,236.5 93.1,268.7 94.1,268.7 94.1,236.7 102.7,215.5 101.7,215.1 		"/>
	</g>
	<g>
		<g>
			<path fill="#2D3134" d="M21.1,258.1c0.3,10.4,13.5,16.2,13.5,16.2l0.7,0.4c-0.8-3.2-1.2-6.4-1.2-9.5c0-12.1,6.2-19.7,15.5-21.3
				l-2.5-1.2c0,0-22.9-8.7-26-20.6c-0.1,0.5-0.1,0.9-0.1,1.4C21.1,229.2,20.8,247.7,21.1,258.1z"/>
			<path fill="#2D3134" d="M357.7,420.5v-34.7c0,0,0-0.5-0.1-1.3l-264-119.8l-6.6-3.1c10.2,11.2,17.1,25.8,17.1,38.6
				c0,3.5-0.5,6.6-1.5,9.3l154.5,77.7c-1.2-4.2-1.9-8.4-1.9-12.4c0-19.3,15.6-27.1,34.9-17.5c19.3,9.6,34.9,33.1,34.9,52.4
				c0,1-0.1,2-0.1,3C332.9,415.7,344.8,420.3,357.7,420.5z"/>
		</g>
	</g>
	<path fill="#FFCC00" d="M109.7,201c-4.5-1.7-15.7,10.6-13,16.3c2.7,5.7,5.2,6.9,7.1,5.9c1.9-1,8.9-6.2,8.9-8.3
		S113.8,202.6,109.7,201z"/>
	<path fill="#656565" d="M112.8,215c0-1.7,0.7-9.2-1.4-12.6c-3,2-7.8,5.6-8.4,7.8c-0.8,3-1.6,10.7-0.5,13.3c0.5,0,0.9-0.1,1.3-0.3
		C105.7,222.3,112.8,217,112.8,215z"/>
	<path opacity="0.11" d="M272.4,223.6c-48.9-22.9-92-47.5-124.3-46.6c-32.3,0.8-55.2,13.1-72.8,14.1c-14.2,0.8-26.8,2.5-38.4-0.1
		c-2.2,4.7-4.2,9.3-6.1,12.5c-4,6.7-9.8,14.1-9.8,19.9c0,5.7-0.3,24.3,0,34.7c0.3,10.4,13.5,16.2,13.5,16.2l0.7,0.4
		c-0.8-3.2-1.2-6.4-1.2-9.5c0-19.3,15.6-27.1,34.9-17.5c19.3,9.6,34.9,33.1,34.9,52.4c0,3.5-0.5,6.6-1.5,9.3l154.5,77.7
		c-1.2-4.2-1.9-8.4-1.9-12.4c0-19.3,15.6-27.1,34.9-17.5c19.3,9.6,34.9,33.1,34.9,52.4c0,1-0.1,2-0.1,3c8.1,3.1,20,7.7,32.8,8v-34.7
		c0,0-5.4-112.1-7.6-118.8C347.9,260.4,327.8,249.6,272.4,223.6z"/>
	<path fill="#FFFFFF" d="M47.2,174.8c-10.1,16.1,3.6,25.4,3.6,25.4L40,216.7c0,0-13.8-3-10.4-16.2S47.2,174.8,47.2,174.8z"/>
	<path opacity="0.3" d="M47.2,174.8c-18.5,21.4-7.2,41.9-7.2,41.9s-13.8-3-10.4-16.2S47.2,174.8,47.2,174.8z"/>
</g>
</svg>
