<?xml version="1.0" encoding="utf-8"?>
<!-- Generator: Adobe Illustrator 18.1.0, SVG Export Plug-In . SVG Version: 6.00 Build 0)  -->
<svg version="1.1" id="Layer_1" xmlns="http://www.w3.org/2000/svg" xmlns:xlink="http://www.w3.org/1999/xlink" x="0px" y="0px"
	 viewBox="0 0 560 480" enable-background="new 0 0 560 480" xml:space="preserve">
<polygon opacity="0.3" points="337.8,448.4 501.3,366.7 163.4,198.4 0,280.1 "/>
<g>
	<path fill="#FFCC00" d="M381.8,204.2c0,0,6.7-7,8.8-7.4c2-0.4,7.7,8.7,5.8,13.7c-1.8,5-3.6,6.7-3.6,6.7L381.8,204.2z"/>
	<polygon points="42.5,272.8 110.2,254 63.5,227.2 40,250 	"/>
	<polygon points="264.9,392.6 332.5,373.8 285.8,347 258.1,370.7 	"/>
	<g>
		<path fill="#2D3134" d="M305.9,360.8c-7.8-3.9-14.8-4.3-20-2l0,0l-10.9,5.9l0,0c-5.6,2.5-9.1,8.2-9.1,16.6
			c0,16.1,13,35.6,29.1,43.7c8,4,15.2,4.4,20.4,1.8c0,0,10.9-5.8,12-6.5c4.7-2.8,7.6-8.2,7.6-15.8C335,388.4,322,368.9,305.9,360.8z
			"/>
		<path opacity="0.29" d="M315.7,426.6c2.1-1,10.6-5.7,11.7-6.3c4.7-2.8,7.6-8.2,7.6-15.8c0-6.5-2.1-13.5-5.7-20.1l-10.9,5.9
			c3.6,6.6,5.7,13.6,5.7,20.1C324.1,418.3,320.9,424,315.7,426.6z"/>
		<g>
			<path fill="#2D3134" d="M324.1,410.4c0,16.1-13,22.6-29.1,14.6s-29.1-27.6-29.1-43.7s13-22.6,29.1-14.6S324.1,394.3,324.1,410.4z
				"/>
			<path fill="#E5E5E5" d="M317.8,407.2c0,12.6-10.2,17.7-22.7,11.4s-22.7-21.6-22.7-34.1s10.2-17.7,22.7-11.4
				C307.6,379.4,317.8,394.7,317.8,407.2z"/>
			<g>
				<path fill="#2D3134" d="M310,417.3c3.4-2,5.5-5.8,5.5-11.2c0-0.4,0-0.9,0-1.3l-12.7-2L310,417.3z"/>
				<path fill="#2D3134" d="M299.8,392.3l13.3,2.9c-2.8-6.6-7.8-13-13.8-17.3L299.8,392.3z"/>
				<path fill="#2D3134" d="M290.3,387.6l0.4-13.9c-6-1.7-11-0.3-13.8,3.5L290.3,387.6z"/>
				<path fill="#2D3134" d="M274.6,384.4c0,0.4,0,0.8,0,1.3c0,5.4,2.1,11.4,5.5,16.7l7.3-7.2L274.6,384.4z"/>
				<path fill="#2D3134" d="M295,404.6l-7.8,6.3c2.4,2.2,5,4.1,7.8,5.4s5.4,2.1,7.8,2.4L295,404.6z"/>
			</g>
		</g>
		<path opacity="0.11" d="M324.1,410.4c0,16.1-13,22.6-29.1,14.6c-16.1-8-29.1-27.6-29.1-43.7c0-16.1,13-22.6,29.1-14.6
			C311.1,374.8,324.1,394.3,324.1,410.4z"/>
	</g>
	<g>
		<path fill="#2D3134" d="M85,251.4c-7.8-3.9-14.8-4.3-20-2l0,0L54,255.2l0,0c-5.6,2.5-9.1,8.2-9.1,16.6c0,16.1,13,35.6,29.1,43.7
			c8,4,15.2,4.4,20.4,1.8c0,0,10.9-5.8,12-6.5c4.7-2.8,7.6-8.2,7.6-15.8C114.1,279,101,259.4,85,251.4z"/>
		<path opacity="0.29" d="M94.8,317.2c2.1-1,10.6-5.7,11.7-6.3c4.7-2.8,7.6-8.2,7.6-15.8c0-6.5-2.1-13.5-5.7-20.1l-10.9,5.9
			c3.6,6.6,5.7,13.6,5.7,20.1C103.2,308.9,100,314.5,94.8,317.2z"/>
		<g>
			<path fill="#2D3134" d="M103.2,301c0,16.1-13,22.6-29.1,14.6s-29.1-27.6-29.1-43.7c0-16.1,13-22.6,29.1-14.6
				C90.1,265.3,103.2,284.9,103.2,301z"/>
			<path fill="#E5E5E5" d="M96.8,297.8c0,12.6-10.2,17.7-22.7,11.4S51.3,287.6,51.3,275s10.2-17.7,22.7-11.4S96.8,285.2,96.8,297.8z
				"/>
			<g>
				<path fill="#2D3134" d="M89,307.8c3.4-2,5.5-5.8,5.5-11.2c0-0.4,0-0.9,0-1.3l-12.7-2L89,307.8z"/>
				<path fill="#2D3134" d="M78.8,282.9l13.3,2.9c-2.8-6.6-7.8-13-13.8-17.3L78.8,282.9z"/>
				<path fill="#2D3134" d="M69.3,278.1l0.4-13.9c-6-1.7-11-0.3-13.8,3.5L69.3,278.1z"/>
				<path fill="#2D3134" d="M53.6,274.9c0,0.4,0,0.8,0,1.3c0,5.4,2.1,11.4,5.5,16.7l7.3-7.2L53.6,274.9z"/>
				<path fill="#2D3134" d="M74,295.1l-7.8,6.3c2.4,2.2,5,4.1,7.8,5.4s5.4,2.1,7.8,2.4L74,295.1z"/>
			</g>
		</g>
		<path opacity="0.11" d="M103.2,301c0,16.1-13,22.6-29.1,14.6s-29.1-27.6-29.1-43.7s13-22.6,29.1-14.6S103.2,284.9,103.2,301z"/>
	</g>
	<path fill="#FFCC00" d="M471.8,321.4c-2.5-8.3-14.1-33.9-19.3-41.1c-5.2-7.2-75.5-84-96.6-104.2c-21.1-20.2-71-44.9-124.4-72.8
		c-53.4-27.8-91.2-45.2-96.1-45.4c-9.2-0.2-89.2,39.7-96.8,47.4S8.8,163.3,6.5,168.9c-2.2,5.6,0,31.7,0,31.7s-0.2,1.8-2.2,5.6
		c-2,3.8-1.3,29,0,35.4c1.1,5.1,27.5,23.8,38.5,31.3c0.2-19.1,15.7-26.8,34.9-17.2c19.3,9.6,34.9,33.1,34.9,52.4
		c0,2.8-0.3,5.3-0.9,7.5c43.5,21.9,113.3,57.1,153.3,76.9c-0.8-3.4-1.3-6.7-1.3-9.9c0-19.3,15.6-27.1,34.9-17.5
		c19.3,9.6,34.9,33.1,34.9,52.4c0,1.5-0.1,3-0.3,4.3c6.5,1.9,12.6,3.2,17.3,3.2c15.3,0,47.5-7.8,73.7-21.6
		c25.6-13.4,44.6-28.4,47.6-37.7C475.4,354.8,474.3,329.7,471.8,321.4z"/>
	<path opacity="0.2" d="M177.3,268.3c0,4-3.2,5.6-7.2,3.6c-4-2-7.2-6.8-7.2-10.7c0-4,3.2-5.6,7.2-3.6
		C174.1,259.5,177.3,264.3,177.3,268.3z"/>
	<path fill="#FFCC00" d="M158.7,256.1l-3,3.5c0,0,22.5,14.6,24.6,11.8C182.2,268.5,158.7,256.1,158.7,256.1z"/>
	<path opacity="0.2" d="M207.8,285.8c0,4-3.2,5.6-7.2,3.6c-4-2-7.2-6.8-7.2-10.7c0-4,3.2-5.6,7.2-3.6
		C204.6,277.1,207.8,281.9,207.8,285.8z"/>
	<path fill="#FFCC00" d="M189.2,273.7l-3,3.5c0,0,22.5,14.6,24.6,11.8C212.8,286.1,189.2,273.7,189.2,273.7z"/>
	<path fill="#2D3134" d="M355.9,176.1c-1-0.9-2-1.9-3.1-2.8c-7.5,4.3-26.1,15.1-45.4,25.5c-24.9,13.5-60.4,28.1-60.4,28.1
		s43.6,66.9,57.5,76.8c13.9,9.9,57.7-1.3,81.3-13.5c23.6-12.1,31.8-27.8,34-35.7c1.3-4.6-2.9-12.4-6.8-18.3
		C391.5,212.8,367,186.7,355.9,176.1z"/>
	<path fill="#656565" d="M316.6,298.1c-6.7,0-11.8-1.1-14.8-3.2c-10.4-7.4-36.3-46.1-49.8-66.6c9.8-4.1,36.9-15.8,57-26.7
		c17.7-9.6,35-19.5,43.4-24.3c0.4,0.4,0.8,0.8,1.2,1.1c11.3,10.8,32.1,32,52.2,53.8c5.4,8.3,6.7,13.3,6.2,15.2
		c-1.3,4.7-7.6,20.9-32.3,33.6C363.7,289.4,336.2,298.1,316.6,298.1C316.6,298.1,316.6,298.1,316.6,298.1z"/>
	<path fill="#2D3134" d="M192.5,198.6l-3.4,53.7l96.7,59.1c0.8,0.5,1.7-0.3,1.3-1.2c-4-8.2-16.6-33.5-31-54.4
		C238.3,230.2,214.9,209.4,192.5,198.6z"/>
	<path opacity="0.3" d="M42.5,122.5l138.1,70.1c2.6,1.3,3.8,4.5,2.7,7.2l-13.9,33.6c-1.1,2.7-4,4.3-7,3.8l0,0
		c-10.5-2-20.6-5.6-29.9-10.8L20.8,164.6c-2.7-1.5-3.7-4.8-2.3-7.5L34.9,125C36.4,122.2,39.8,121.1,42.5,122.5z"/>
	<path fill="#FFCC00" d="M163.6,235.3c-0.3,0-0.5,0-0.8-0.1c-10.3-1.9-20.2-5.5-29.3-10.6L21.7,162.9c-1.7-1-2.4-3.1-1.5-4.9
		l16.5-32.1c0.6-1.2,1.9-2,3.2-2c0.6,0,1.1,0.1,1.6,0.4l138.1,70.1c1.7,0.9,2.4,2.9,1.7,4.6l-13.9,33.6
		C166.8,234.3,165.3,235.3,163.6,235.3z"/>
	<path fill="#FFFFFF" d="M447.6,299.6c0,0,2.7,10.3,3.6,16.8c0.9,6.5,0.9,15,0.9,15s7-8.8,9.4-15.9c2.5-7.2,2.8-12.7,2.8-12.7
		s-6.3-16.2-8.4-19.4c-2-3.2-6.1-6.4-6.1-6.4s0.9,5.5,0.2,11.3C449.4,294.2,447.6,299.6,447.6,299.6z"/>
	<path opacity="0.3" d="M447.6,299.6c0,0,2.7,10.3,3.6,16.8c0.9,6.5,0.9,15,0.9,15s6-18.1,6-36.4c0-8.7-8.2-18-8.2-18
		s0.9,5.5,0.2,11.3C449.4,294.2,447.6,299.6,447.6,299.6z"/>
	<path fill="#2D3134" d="M471.8,321.4c-5.6,19.1-19.3,29.2-44.6,43.6c-25.3,14.4-60.3,19.3-80.1,18.8c-19.8-0.5-45.4-17.4-45.4-17.4
		l0.2,0.7c17.7,10.6,31.5,32.4,31.5,50.5c0,1.5-0.1,3-0.3,4.3c6.5,1.9,12.6,3.2,17.3,3.2c15.3,0,47.5-7.8,73.7-21.6
		c25.6-13.4,44.6-28.4,47.6-37.7C475.4,354.8,474.3,329.7,471.8,321.4L471.8,321.4z"/>
	<path opacity="0.29" d="M471.8,321.4c-5.6,19.1-19.3,29.2-44.6,43.6c-25.3,14.4-60.3,19.3-80.1,18.8c-19.8-0.5-45.4-17.4-45.4-17.4
		l0.2,0.7c17.7,10.6,31.5,32.4,31.5,50.5c0,1.5-0.1,3-0.3,4.3c6.5,1.9,12.6,3.2,17.3,3.2c15.3,0,47.5-7.8,73.7-21.6
		c25.6-13.4,44.6-28.4,47.6-37.7C475.4,354.8,474.3,329.7,471.8,321.4L471.8,321.4z"/>
	<path opacity="0.3" fill="#FFFFFF" d="M343.4,397.3c0,0-2.5-8.1,0-9.2s26-1.6,28.5-1c2.5,0.6,6.3,5.7,6.1,6.8
		c-0.2,1.1-11.2,2.9-19.8,3.4C349.6,397.8,343.4,397.3,343.4,397.3z"/>
	<path fill="#2D3134" d="M373.5,344.2l6.1,3.9c0,0,27.7-5.6,41.2-12.5c9.9-5.1,25.8-20.5,25.8-20.5l1-8.4c0,0-16.4,18.5-31.6,25.2
		C399.5,339.2,373.5,344.2,373.5,344.2z"/>
	<path fill="#2D3134" d="M378,352.6l5.4,4c0,0,27-5.4,39.1-11.9c13.9-7.4,25.2-20.2,25.2-20.2l1.1-6.5c0,0-13.6,14.8-28.6,22.5
		C407,347.3,378,352.6,378,352.6z"/>
	<path fill="#2D3134" d="M383.3,360.5l4,3.4c0,0,26.2-4.4,38-11.4c15.9-9.5,22.2-18.7,22.2-18.7l1.1-6.8c0,0-11.6,15.3-25.9,21.8
		C408.4,355.3,383.3,360.5,383.3,360.5z"/>
	<path opacity="0.3" fill="#FFFFFF" d="M315.1,333.8l-162.6-96.4L10.6,159.6c-2.1,4.7-3.5,8.1-4,9.3c-0.2,0.4-0.3,1-0.4,1.6
		l11.7,9.6l300.4,176.5L315.1,333.8z"/>
	<path opacity="0.3" fill="#FFFFFF" d="M6.2,201.7c-0.3,0.9-0.9,2.4-2,4.5c-0.3,0.6-0.6,1.8-0.8,3.4l262.4,143.7l-12.2-13.9
		L6.2,201.7z"/>
	<polygon fill="#2D3134" points="319.2,301.6 323.3,301.3 361.5,282.7 363.6,278.9 386.8,268.1 385.8,266.3 341.4,286 342.8,287.6 
		360,279.9 359,281.1 321.7,299 	"/>
	<polygon fill="#2D3134" points="359.5,291.3 363.1,291.3 393.6,268.7 397.3,260 409,245.2 408.2,244.1 386.3,269.1 387.2,270.4 
		393.1,265.1 391.4,268.1 360.5,289.4 	"/>
	<path d="M360.2,419.3c0,0,0-9.7,5.4-13c3.3-2.1,41.3-8.9,63.1-20.8c29-15.7,38.2-31.4,40-31.4s1.8,6.9,0.6,10.6
		c-0.9,2.9-14.3,18.5-38.8,31C386.8,418,360.2,419.3,360.2,419.3z"/>
	<path d="M359.1,393.3c7.4-0.4,10.1-2,10.1-3.4c0-0.7-0.4-2-0.7-3c-7.3-0.2-23.1,0.3-25.1,1.2c-1.3,0.6-1.2,3.2-0.9,5.4
		C345,393.6,352.9,393.6,359.1,393.3z"/>
	<path opacity="0.3" fill="#FFFFFF" d="M472.7,327.4c0,0-3.6,7.7-4.9,10.6c-1.5,3.5-3.5,12.8-3.5,12.8s3.8-3.8,6.5-9.9
		c2.7-6.1,2.4-9.4,2.4-9.4L472.7,327.4z"/>
	<polygon fill="#E5E5E5" points="413,381.6 413,399.6 441.5,385.2 441.5,367.9 	"/>
	<path opacity="0.2" d="M316.5,217.3c34.8,0,66.7,6.9,91.3,18.4c-0.6-1.1-1.3-2.2-2.1-3.4c-20.1-21.8-40.8-43-52.2-53.8
		c-0.4-0.4-0.8-0.7-1.2-1.1c-8.4,4.8-25.6,14.7-43.4,24.3c-13.7,7.4-30.7,15.2-43.3,20.7C281.5,219.2,298.6,217.3,316.5,217.3z"/>
	<path opacity="0.3" d="M461.5,298.3c1.5,3.7,0.4,9.4-2.5,12.8c-2.9,3.4-6.5,3.1-8.1-0.5c-1.5-3.7-0.4-9.4,2.5-12.8
		C456.4,294.4,460,294.6,461.5,298.3z"/>
	<path opacity="0.4" fill="#FFFFFF" d="M459.2,303.9c0.8,1.9,0.2,4.8-1.3,6.6c-1.5,1.7-3.3,1.6-4.1-0.3c-0.8-1.9-0.2-4.8,1.3-6.6
		C456.6,301.9,458.4,302,459.2,303.9z"/>
	<g>
		<path fill="#656565" d="M280.2,304c-4-7.9-10.1-19.5-17.2-31.2l2.2,22.1L280.2,304z"/>
		<path fill="#656565" d="M253.7,258.3c-0.1-0.2-0.3-0.4-0.4-0.6c-16.1-23.2-36.9-42.6-57.7-53.7l-2.9,46.5l61.1,37.3
			C253.7,278.6,253.6,265.7,253.7,258.3z"/>
	</g>
	<path fill="#FFCC00" d="M247,271.8c2.5,0,10.4,11.1,8.5,15.5c-1.8,4.4-16.4,5.6-19.1,4.5s-6.7-2.2-7.2-4.9s0.4-8.8,2.9-10.8
		C234.7,274,243.4,271.8,247,271.8z"/>
	<g opacity="0.3">
		<polygon points="261.9,297.6 257.6,321.8 257.6,321.8 257.6,382.2 184.9,345.7 184.9,277.1 189.5,252.9 188.6,252.7 183.9,276.9 
			183.9,277 183.9,345.2 112.8,309.5 112.3,310.4 257.9,383.5 258.6,383.8 258.6,321.9 262.9,297.7 		"/>
		<polygon points="85.4,220.1 85.4,260.8 86.4,260.8 86.4,220.3 92,204.7 91.1,204.3 		"/>
	</g>
	<path fill="#2D3134" d="M282.3,361.1l-16.4-7.8L3.5,209.6c-1,8.1-0.4,26.6,0.8,32c1.1,5.1,27.5,23.8,38.5,31.3
		c0.2-19.1,15.7-26.8,34.9-17.2c19.3,9.6,34.9,33.1,34.9,52.4c0,2.8-0.3,5.3-0.9,7.5c43.5,21.9,113.3,57.1,153.3,76.9
		c-0.8-3.4-1.3-6.7-1.3-9.9C263.7,369.2,271.2,361.4,282.3,361.1z"/>
	<path opacity="0.11" d="M344.2,424.5c0-21.9-5-41.8-13.5-67.2c-8.4-25.4-29.2-36.6-51.6-75.4c-22.5-38.8-54.8-74.9-74.6-88.3
		C187.6,182.1,71.1,122.7,38.1,106c-8.1,9.3-29.4,57.5-31.6,63c-2.2,5.6,0,31.7,0,31.7s-0.2,1.8-2.2,5.6c-2,3.8-1.3,29,0,35.4
		c1.1,5.1,27.5,23.8,38.5,31.3c0.2-19.1,15.7-26.8,34.9-17.2c19.3,9.6,34.9,33.1,34.9,52.4c0,2.8-0.3,5.3-0.9,7.5
		c43.5,21.9,113.3,57.1,153.3,76.9c-0.8-3.4-1.3-6.7-1.3-9.9c0-19.3,15.6-27.1,34.9-17.5c19.3,9.6,34.9,33.1,34.9,52.4
		c0,1.5-0.1,3-0.3,4.3C337.1,423.1,340.9,424,344.2,424.5z"/>
	<path fill="#CC291F" d="M17.8,180.2l-11.7-9.6c0,0,0,0,0,0l-0.5,12.2c0.1,5.2,0.4,10.5,0.7,14H13L17.8,180.2z"/>
	<path fill="#FFFFFF" d="M316.5,333.8l3.9,24.9c0,0,9.5,6.2,22.5,8.5c14.2,2.5,40.4,0,40.4,0s-13.4-22.9-15.4-24.5
		c-2-1.6-10.4-1.2-25.6-3C327,337.9,316.5,333.8,316.5,333.8z"/>
	<path opacity="0.3" d="M316.5,333.8c0,0,15.7,15.1,27.7,20.4c16.3,7.2,39.1,13.1,39.1,13.1s-13.4-22.9-15.4-24.5
		c-2-1.6-10.4-1.2-25.6-3C327,337.9,316.5,333.8,316.5,333.8z"/>
	<path opacity="0.3" d="M356.1,348c0,5.1-4.1,11.3-9.2,13.9s-9.2,0.5-9.2-4.6s4.1-11.3,9.2-13.9C351.9,340.9,356.1,342.9,356.1,348z
		"/>
	<path opacity="0.3" d="M370.3,354.2c0,3.6-2.9,7.9-6.4,9.7s-6.4,0.3-6.4-3.2s2.9-7.9,6.4-9.7C367.4,349.2,370.3,350.6,370.3,354.2z
		"/>
	<path opacity="0.4" fill="#FFFFFF" d="M352.2,351.9c0,2.6-2.1,5.7-4.6,6.9c-2.6,1.3-4.6,0.2-4.6-2.3s2.1-5.7,4.6-6.9
		S352.2,349.3,352.2,351.9z"/>
	<path opacity="0.4" fill="#FFFFFF" d="M367.8,356.9c0,1.9-1.6,4.2-3.5,5.2s-3.5,0.2-3.5-1.7s1.6-4.2,3.5-5.2
		S367.8,354.9,367.8,356.9z"/>
</g>
</svg>
