<?xml version="1.0" encoding="utf-8"?>
<!-- Generator: Adobe Illustrator 18.1.0, SVG Export Plug-In . SVG Version: 6.00 Build 0)  -->
<svg version="1.1" id="Layer_1" xmlns="http://www.w3.org/2000/svg" xmlns:xlink="http://www.w3.org/1999/xlink" x="0px" y="0px"
	 viewBox="0 0 32 24" enable-background="new 0 0 32 24" xml:space="preserve">
<g>
	<path fill="#825012" d="M23.2,11.5l-0.4,0.2l-0.4-0.2v-0.4l-1-0.5L21,10.8l-0.4-0.2v-0.4l-1-0.5l-0.4,0.2l-0.4-0.2V9.3l-1-0.5
		L17.4,9L17,8.8V8.4l-1-0.5L7.8,12v2.2l1,0.5l1.4-0.7l1.2,0.6V16l1,0.5l1.4-0.7l1.2,0.6v1.4l1,0.5l8.2-4.1V12L23.2,11.5z M21.4,12.4
		l-2.2,1.1l-0.4-0.2l1.6-0.8l0.6-0.3L21.4,12.4z M15.2,15.1l2.2-1.1l0.4,0.2l-2.2,1.1L15.2,15.1z M11.6,13.3l2.2-1.1l0.4,0.2
		L12,13.5L11.6,13.3z M9.8,12.4l1.6-0.8V12l-1.2,0.6L9.8,12.4z M15,10.2l-1.2,0.6l-0.4-0.2L15,9.8V10.2z M13.4,14.2l2.2-1.1l0.4,0.2
		l-2.2,1.1L13.4,14.2z M18.6,12l-1.2,0.6L17,12.4l1.6-0.8V12z M17.8,10.6l-2.2,1.1l-0.4-0.2l1.6-0.8l0.6-0.3L17.8,10.6z M17,16.4V16
		l1.6-0.8v0.4L17,16.4z M20.6,14.6v-0.4l1.6-0.8v0.4L20.6,14.6z"/>
	<polygon opacity="0.29" points="12.4,16.5 13.8,15.8 12.4,15.1 	"/>
	<polygon opacity="0.11" points="23.2,14.3 22.2,13.8 22.2,13.4 23.2,12.9 	"/>
	<polygon opacity="0.11" points="19.6,16.1 18.6,15.6 18.6,15.2 19.6,14.7 	"/>
	<polygon opacity="0.11" points="21.4,12.4 21,12.2 21.4,12 21.8,12.2 	"/>
	<polygon opacity="0.11" points="19.6,11.1 18.6,11.6 18.6,12 20,11.3 	"/>
	<polygon opacity="0.11" points="17.8,10.6 17.4,10.4 17.8,10.2 18.2,10.4 	"/>
	<polygon opacity="0.11" points="16,9.3 15,9.8 15,10.2 16.4,9.5 	"/>
	<polygon opacity="0.11" points="17.8,14.2 17.4,14 17.8,13.8 18.2,14 	"/>
	<polygon opacity="0.11" points="16,13.3 15.6,13.1 16,12.9 16.4,13.1 	"/>
	<polygon opacity="0.11" points="14.2,12.4 13.8,12.2 14.2,12 14.6,12.2 	"/>
	<polygon opacity="0.11" points="12.4,11.1 11.4,11.6 11.4,12 12.8,11.3 	"/>
	<path opacity="0.29" d="M16,16.1v2.2l8.2-4.1V12L16,16.1z M19.6,16.1L17,17.4V16l2.6-1.3V16.1z M23.2,14.3l-2.6,1.3v-1.4l2.6-1.3
		V14.3z"/>
	<polygon opacity="0.29" points="14.2,15.6 22.4,11.5 22.4,11.1 14.2,15.2 	"/>
	<polygon opacity="0.29" points="12.4,14.7 20.6,10.6 20.6,10.2 12.4,14.3 	"/>
	<polygon opacity="0.29" points="10.6,13.8 18.8,9.7 18.8,9.3 10.6,13.4 	"/>
	<polygon opacity="0.11" points="15,15.6 15,16 14.2,15.6 14.2,15.2 13.2,14.7 13.2,15.1 12.4,14.7 12.4,14.3 11.4,13.8 11.4,14.2 
		10.6,13.8 10.6,13.4 9.6,12.9 9.6,13.3 8.8,12.9 8.8,12.5 7.8,12 7.8,14.2 8.8,14.7 8.8,13.3 11.4,14.6 11.4,16 12.4,16.5 
		12.4,15.1 15,16.4 15,17.8 16,18.3 16,16.1 	"/>
	<polygon opacity="0.29" points="8.8,12.9 17,8.8 17,8.4 8.8,12.5 	"/>
	<polygon opacity="0.29" points="8.8,14.7 10.2,14 8.8,13.3 	"/>
</g>
<g>
	<g>
		<polygon fill="#FFCC00" points="8.6,4.5 8.6,11.9 16,15.6 23.4,11.9 23.4,4.5 16,0.8 		"/>
		<polygon opacity="0.11" points="16,15.6 8.6,11.9 8.6,4.5 16,8.2 		"/>
		<polygon opacity="0.3" points="13.2,2.2 11.4,3.1 18.8,6.8 18.8,10.4 20.6,9.5 20.6,5.9 		"/>
		<polygon opacity="0.29" points="16,15.6 23.4,11.9 23.4,4.5 16,8.2 		"/>
	</g>
</g>
</svg>
