<?xml version="1.0" encoding="utf-8"?>
<!-- Generator: Adobe Illustrator 18.1.0, SVG Export Plug-In . SVG Version: 6.00 Build 0)  -->
<svg version="1.1" id="Layer_1" xmlns="http://www.w3.org/2000/svg" xmlns:xlink="http://www.w3.org/1999/xlink" x="0px" y="0px"
	 viewBox="0 0 48 32" enable-background="new 0 0 48 32" xml:space="preserve">
<g>
	<path fill="#825012" d="M31.2,11.5l-0.4,0.2l-0.4-0.2v-0.4l-1-0.5L29,10.8l-0.4-0.2v-0.4l-1-0.5l-0.4,0.2l-0.4-0.2V9.3l-1-0.5
		L25.4,9L25,8.8V8.4l-1-0.5L15.8,12v2.2l1,0.5l1.4-0.7l1.2,0.6V16l1,0.5l1.4-0.7l1.2,0.6v1.4l1,0.5l8.2-4.1V12L31.2,11.5z
		 M29.4,12.4l-2.2,1.1l-0.4-0.2l1.6-0.8l0.6-0.3L29.4,12.4z M23.2,15.1l2.2-1.1l0.4,0.2l-2.2,1.1L23.2,15.1z M19.6,13.3l2.2-1.1
		l0.4,0.2L20,13.5L19.6,13.3z M17.8,12.4l1.6-0.8V12l-1.2,0.6L17.8,12.4z M23,10.2l-1.2,0.6l-0.4-0.2L23,9.8V10.2z M21.4,14.2
		l2.2-1.1l0.4,0.2l-2.2,1.1L21.4,14.2z M26.6,12l-1.2,0.6L25,12.4l1.6-0.8V12z M25.8,10.6l-2.2,1.1l-0.4-0.2l1.6-0.8l0.6-0.3
		L25.8,10.6z M25,16.4V16l1.6-0.8v0.4L25,16.4z M28.6,14.6v-0.4l1.6-0.8v0.4L28.6,14.6z"/>
	<polygon opacity="0.29" points="20.4,16.5 21.8,15.8 20.4,15.1 	"/>
	<polygon opacity="0.11" points="31.2,14.3 30.2,13.8 30.2,13.4 31.2,12.9 	"/>
	<polygon opacity="0.11" points="27.6,16.1 26.6,15.6 26.6,15.2 27.6,14.7 	"/>
	<polygon opacity="0.11" points="29.4,12.4 29,12.2 29.4,12 29.8,12.2 	"/>
	<polygon opacity="0.11" points="27.6,11.1 26.6,11.6 26.6,12 28,11.3 	"/>
	<polygon opacity="0.11" points="25.8,10.6 25.4,10.4 25.8,10.2 26.2,10.4 	"/>
	<polygon opacity="0.11" points="24,9.3 23,9.8 23,10.2 24.4,9.5 	"/>
	<polygon opacity="0.11" points="25.8,14.2 25.4,14 25.8,13.8 26.2,14 	"/>
	<polygon opacity="0.11" points="24,13.3 23.6,13.1 24,12.9 24.4,13.1 	"/>
	<polygon opacity="0.11" points="22.2,12.4 21.8,12.2 22.2,12 22.6,12.2 	"/>
	<polygon opacity="0.11" points="20.4,11.1 19.4,11.6 19.4,12 20.8,11.3 	"/>
	<path opacity="0.29" d="M24,16.1v2.2l8.2-4.1V12L24,16.1z M27.6,16.1L25,17.4V16l2.6-1.3V16.1z M31.2,14.3l-2.6,1.3v-1.4l2.6-1.3
		V14.3z"/>
	<polygon opacity="0.29" points="22.2,15.6 30.4,11.5 30.4,11.1 22.2,15.2 	"/>
	<polygon opacity="0.29" points="20.4,14.7 28.6,10.6 28.6,10.2 20.4,14.3 	"/>
	<polygon opacity="0.29" points="18.6,13.8 26.8,9.7 26.8,9.3 18.6,13.4 	"/>
	<polygon opacity="0.11" points="23,15.6 23,16 22.2,15.6 22.2,15.2 21.2,14.7 21.2,15.1 20.4,14.7 20.4,14.3 19.4,13.8 19.4,14.2 
		18.6,13.8 18.6,13.4 17.6,12.9 17.6,13.3 16.8,12.9 16.8,12.5 15.8,12 15.8,14.2 16.8,14.7 16.8,13.3 19.4,14.6 19.4,16 20.4,16.5 
		20.4,15.1 23,16.4 23,17.8 24,18.3 24,16.1 	"/>
	<polygon opacity="0.29" points="16.8,12.9 25,8.8 25,8.4 16.8,12.5 	"/>
	<polygon opacity="0.29" points="16.8,14.7 18.2,14 16.8,13.3 	"/>
</g>
<g>
	<path fill="#825012" d="M23.2,15.5l-0.4,0.2l-0.4-0.2v-0.4l-1-0.5L21,14.8l-0.4-0.2v-0.4l-1-0.5l-0.4,0.2l-0.4-0.2v-0.4l-1-0.5
		L17.4,13L17,12.8v-0.4l-1-0.5L7.8,16v2.2l1,0.5l1.4-0.7l1.2,0.6V20l1,0.5l1.4-0.7l1.2,0.6v1.4l1,0.5l8.2-4.1V16L23.2,15.5z
		 M21.4,16.4l-2.2,1.1l-0.4-0.2l1.6-0.8l0.6-0.3L21.4,16.4z M15.2,19.1l2.2-1.1l0.4,0.2l-2.2,1.1L15.2,19.1z M11.6,17.3l2.2-1.1
		l0.4,0.2L12,17.5L11.6,17.3z M9.8,16.4l1.6-0.8V16l-1.2,0.6L9.8,16.4z M15,14.2l-1.2,0.6l-0.4-0.2l1.6-0.8V14.2z M13.4,18.2
		l2.2-1.1l0.4,0.2l-2.2,1.1L13.4,18.2z M18.6,16l-1.2,0.6L17,16.4l1.6-0.8V16z M17.8,14.6l-2.2,1.1l-0.4-0.2l1.6-0.8l0.6-0.3
		L17.8,14.6z M17,20.4V20l1.6-0.8v0.4L17,20.4z M20.6,18.6v-0.4l1.6-0.8v0.4L20.6,18.6z"/>
	<polygon opacity="0.29" points="12.4,20.5 13.8,19.8 12.4,19.1 	"/>
	<polygon opacity="0.11" points="23.2,18.3 22.2,17.8 22.2,17.4 23.2,16.9 	"/>
	<polygon opacity="0.11" points="19.6,20.1 18.6,19.6 18.6,19.2 19.6,18.7 	"/>
	<polygon opacity="0.11" points="21.4,16.4 21,16.2 21.4,16 21.8,16.2 	"/>
	<polygon opacity="0.11" points="19.6,15.1 18.6,15.6 18.6,16 20,15.3 	"/>
	<polygon opacity="0.11" points="17.8,14.6 17.4,14.4 17.8,14.2 18.2,14.4 	"/>
	<polygon opacity="0.11" points="16,13.3 15,13.8 15,14.2 16.4,13.5 	"/>
	<polygon opacity="0.11" points="17.8,18.2 17.4,18 17.8,17.8 18.2,18 	"/>
	<polygon opacity="0.11" points="16,17.3 15.6,17.1 16,16.9 16.4,17.1 	"/>
	<polygon opacity="0.11" points="14.2,16.4 13.8,16.2 14.2,16 14.6,16.2 	"/>
	<polygon opacity="0.11" points="12.4,15.1 11.4,15.6 11.4,16 12.8,15.3 	"/>
	<path opacity="0.29" d="M16,20.1v2.2l8.2-4.1V16L16,20.1z M19.6,20.1L17,21.4V20l2.6-1.3V20.1z M23.2,18.3l-2.6,1.3v-1.4l2.6-1.3
		V18.3z"/>
	<polygon opacity="0.29" points="14.2,19.6 22.4,15.5 22.4,15.1 14.2,19.2 	"/>
	<polygon opacity="0.29" points="12.4,18.7 20.6,14.6 20.6,14.2 12.4,18.3 	"/>
	<polygon opacity="0.29" points="10.6,17.8 18.8,13.7 18.8,13.3 10.6,17.4 	"/>
	<polygon opacity="0.11" points="15,19.6 15,20 14.2,19.6 14.2,19.2 13.2,18.7 13.2,19.1 12.4,18.7 12.4,18.3 11.4,17.8 11.4,18.2 
		10.6,17.8 10.6,17.4 9.6,16.9 9.6,17.3 8.8,16.9 8.8,16.5 7.8,16 7.8,18.2 8.8,18.7 8.8,17.3 11.4,18.6 11.4,20 12.4,20.5 
		12.4,19.1 15,20.4 15,21.8 16,22.3 16,20.1 	"/>
	<polygon opacity="0.29" points="8.8,16.9 17,12.8 17,12.4 8.8,16.5 	"/>
	<polygon opacity="0.29" points="8.8,18.7 10.2,18 8.8,17.3 	"/>
</g>
<g>
	<path fill="#825012" d="M39.2,15.5l-0.4,0.2l-0.4-0.2v-0.4l-1-0.5L37,14.8l-0.4-0.2v-0.4l-1-0.5l-0.4,0.2l-0.4-0.2v-0.4l-1-0.5
		L33.4,13L33,12.8v-0.4l-1-0.5L23.8,16v2.2l1,0.5l1.4-0.7l1.2,0.6V20l1,0.5l1.4-0.7l1.2,0.6v1.4l1,0.5l8.2-4.1V16L39.2,15.5z
		 M37.4,16.4l-2.2,1.1l-0.4-0.2l1.6-0.8l0.6-0.3L37.4,16.4z M31.2,19.1l2.2-1.1l0.4,0.2l-2.2,1.1L31.2,19.1z M27.6,17.3l2.2-1.1
		l0.4,0.2L28,17.5L27.6,17.3z M25.8,16.4l1.6-0.8V16l-1.2,0.6L25.8,16.4z M31,14.2l-1.2,0.6l-0.4-0.2l1.6-0.8V14.2z M29.4,18.2
		l2.2-1.1l0.4,0.2l-2.2,1.1L29.4,18.2z M34.6,16l-1.2,0.6L33,16.4l1.6-0.8V16z M33.8,14.6l-2.2,1.1l-0.4-0.2l1.6-0.8l0.6-0.3
		L33.8,14.6z M33,20.4V20l1.6-0.8v0.4L33,20.4z M36.6,18.6v-0.4l1.6-0.8v0.4L36.6,18.6z"/>
	<polygon opacity="0.29" points="28.4,20.5 29.8,19.8 28.4,19.1 	"/>
	<polygon opacity="0.11" points="39.2,18.3 38.2,17.8 38.2,17.4 39.2,16.9 	"/>
	<polygon opacity="0.11" points="35.6,20.1 34.6,19.6 34.6,19.2 35.6,18.7 	"/>
	<polygon opacity="0.11" points="37.4,16.4 37,16.2 37.4,16 37.8,16.2 	"/>
	<polygon opacity="0.11" points="35.6,15.1 34.6,15.6 34.6,16 36,15.3 	"/>
	<polygon opacity="0.11" points="33.8,14.6 33.4,14.4 33.8,14.2 34.2,14.4 	"/>
	<polygon opacity="0.11" points="32,13.3 31,13.8 31,14.2 32.4,13.5 	"/>
	<polygon opacity="0.11" points="33.8,18.2 33.4,18 33.8,17.8 34.2,18 	"/>
	<polygon opacity="0.11" points="32,17.3 31.6,17.1 32,16.9 32.4,17.1 	"/>
	<polygon opacity="0.11" points="30.2,16.4 29.8,16.2 30.2,16 30.6,16.2 	"/>
	<polygon opacity="0.11" points="28.4,15.1 27.4,15.6 27.4,16 28.8,15.3 	"/>
	<path opacity="0.29" d="M32,20.1v2.2l8.2-4.1V16L32,20.1z M35.6,20.1L33,21.4V20l2.6-1.3V20.1z M39.2,18.3l-2.6,1.3v-1.4l2.6-1.3
		V18.3z"/>
	<polygon opacity="0.29" points="30.2,19.6 38.4,15.5 38.4,15.1 30.2,19.2 	"/>
	<polygon opacity="0.29" points="28.4,18.7 36.6,14.6 36.6,14.2 28.4,18.3 	"/>
	<polygon opacity="0.29" points="26.6,17.8 34.8,13.7 34.8,13.3 26.6,17.4 	"/>
	<polygon opacity="0.11" points="31,19.6 31,20 30.2,19.6 30.2,19.2 29.2,18.7 29.2,19.1 28.4,18.7 28.4,18.3 27.4,17.8 27.4,18.2 
		26.6,17.8 26.6,17.4 25.6,16.9 25.6,17.3 24.8,16.9 24.8,16.5 23.8,16 23.8,18.2 24.8,18.7 24.8,17.3 27.4,18.6 27.4,20 28.4,20.5 
		28.4,19.1 31,20.4 31,21.8 32,22.3 32,20.1 	"/>
	<polygon opacity="0.29" points="24.8,16.9 33,12.8 33,12.4 24.8,16.5 	"/>
	<polygon opacity="0.29" points="24.8,18.7 26.2,18 24.8,17.3 	"/>
</g>
<g>
	<path fill="#825012" d="M31.2,19.5l-0.4,0.2l-0.4-0.2v-0.4l-1-0.5L29,18.8l-0.4-0.2v-0.4l-1-0.5l-0.4,0.2l-0.4-0.2v-0.4l-1-0.5
		L25.4,17L25,16.8v-0.4l-1-0.5L15.8,20v2.2l1,0.5l1.4-0.7l1.2,0.6V24l1,0.5l1.4-0.7l1.2,0.6v1.4l1,0.5l8.2-4.1V20L31.2,19.5z
		 M29.4,20.4l-2.2,1.1l-0.4-0.2l1.6-0.8l0.6-0.3L29.4,20.4z M23.2,23.1l2.2-1.1l0.4,0.2l-2.2,1.1L23.2,23.1z M19.6,21.3l2.2-1.1
		l0.4,0.2L20,21.5L19.6,21.3z M17.8,20.4l1.6-0.8V20l-1.2,0.6L17.8,20.4z M23,18.2l-1.2,0.6l-0.4-0.2l1.6-0.8V18.2z M21.4,22.2
		l2.2-1.1l0.4,0.2l-2.2,1.1L21.4,22.2z M26.6,20l-1.2,0.6L25,20.4l1.6-0.8V20z M25.8,18.6l-2.2,1.1l-0.4-0.2l1.6-0.8l0.6-0.3
		L25.8,18.6z M25,24.4V24l1.6-0.8v0.4L25,24.4z M28.6,22.6v-0.4l1.6-0.8v0.4L28.6,22.6z"/>
	<polygon opacity="0.29" points="20.4,24.5 21.8,23.8 20.4,23.1 	"/>
	<polygon opacity="0.11" points="31.2,22.3 30.2,21.8 30.2,21.4 31.2,20.9 	"/>
	<polygon opacity="0.11" points="27.6,24.1 26.6,23.6 26.6,23.2 27.6,22.7 	"/>
	<polygon opacity="0.11" points="29.4,20.4 29,20.2 29.4,20 29.8,20.2 	"/>
	<polygon opacity="0.11" points="27.6,19.1 26.6,19.6 26.6,20 28,19.3 	"/>
	<polygon opacity="0.11" points="25.8,18.6 25.4,18.4 25.8,18.2 26.2,18.4 	"/>
	<polygon opacity="0.11" points="24,17.3 23,17.8 23,18.2 24.4,17.5 	"/>
	<polygon opacity="0.11" points="25.8,22.2 25.4,22 25.8,21.8 26.2,22 	"/>
	<polygon opacity="0.11" points="24,21.3 23.6,21.1 24,20.9 24.4,21.1 	"/>
	<polygon opacity="0.11" points="22.2,20.4 21.8,20.2 22.2,20 22.6,20.2 	"/>
	<polygon opacity="0.11" points="20.4,19.1 19.4,19.6 19.4,20 20.8,19.3 	"/>
	<path opacity="0.29" d="M24,24.1v2.2l8.2-4.1V20L24,24.1z M27.6,24.1L25,25.4V24l2.6-1.3V24.1z M31.2,22.3l-2.6,1.3v-1.4l2.6-1.3
		V22.3z"/>
	<polygon opacity="0.29" points="22.2,23.6 30.4,19.5 30.4,19.1 22.2,23.2 	"/>
	<polygon opacity="0.29" points="20.4,22.7 28.6,18.6 28.6,18.2 20.4,22.3 	"/>
	<polygon opacity="0.29" points="18.6,21.8 26.8,17.7 26.8,17.3 18.6,21.4 	"/>
	<polygon opacity="0.11" points="23,23.6 23,24 22.2,23.6 22.2,23.2 21.2,22.7 21.2,23.1 20.4,22.7 20.4,22.3 19.4,21.8 19.4,22.2 
		18.6,21.8 18.6,21.4 17.6,20.9 17.6,21.3 16.8,20.9 16.8,20.5 15.8,20 15.8,22.2 16.8,22.7 16.8,21.3 19.4,22.6 19.4,24 20.4,24.5 
		20.4,23.1 23,24.4 23,25.8 24,26.3 24,24.1 	"/>
	<polygon opacity="0.29" points="16.8,20.9 25,16.8 25,16.4 16.8,20.5 	"/>
	<polygon opacity="0.29" points="16.8,22.7 18.2,22 16.8,21.3 	"/>
</g>
</svg>
