<?xml version="1.0" encoding="utf-8"?>
<!-- Generator: Adobe Illustrator 18.1.0, SVG Export Plug-In . SVG Version: 6.00 Build 0)  -->
<svg version="1.1" id="Layer_1" xmlns="http://www.w3.org/2000/svg" xmlns:xlink="http://www.w3.org/1999/xlink" x="0px" y="0px"
	 viewBox="0 0 48 40" enable-background="new 0 0 48 40" xml:space="preserve">
<g>
	<path fill="#825012" d="M31.2,19.5l-0.4,0.2l-0.4-0.2v-0.4l-1-0.5L29,18.8l-0.4-0.2v-0.4l-1-0.5l-0.4,0.2l-0.4-0.2v-0.4l-1-0.5
		L25.4,17L25,16.8v-0.4l-1-0.5L15.8,20v2.2l1,0.5l1.4-0.7l1.2,0.6V24l1,0.5l1.4-0.7l1.2,0.6v1.4l1,0.5l8.2-4.1V20L31.2,19.5z
		 M29.4,20.4l-2.2,1.1l-0.4-0.2l1.6-0.8l0.6-0.3L29.4,20.4z M23.2,23.1l2.2-1.1l0.4,0.2l-2.2,1.1L23.2,23.1z M19.6,21.3l2.2-1.1
		l0.4,0.2L20,21.5L19.6,21.3z M17.8,20.4l1.6-0.8V20l-1.2,0.6L17.8,20.4z M23,18.2l-1.2,0.6l-0.4-0.2l1.6-0.8V18.2z M21.4,22.2
		l2.2-1.1l0.4,0.2l-2.2,1.1L21.4,22.2z M26.6,20l-1.2,0.6L25,20.4l1.6-0.8V20z M25.8,18.6l-2.2,1.1l-0.4-0.2l1.6-0.8l0.6-0.3
		L25.8,18.6z M25,24.4V24l1.6-0.8v0.4L25,24.4z M28.6,22.6v-0.4l1.6-0.8v0.4L28.6,22.6z"/>
	<polygon opacity="0.29" points="20.4,24.5 21.8,23.8 20.4,23.1 	"/>
	<polygon opacity="0.11" points="31.2,22.3 30.2,21.8 30.2,21.4 31.2,20.9 	"/>
	<polygon opacity="0.11" points="27.6,24.1 26.6,23.6 26.6,23.2 27.6,22.7 	"/>
	<polygon opacity="0.11" points="29.4,20.4 29,20.2 29.4,20 29.8,20.2 	"/>
	<polygon opacity="0.11" points="27.6,19.1 26.6,19.6 26.6,20 28,19.3 	"/>
	<polygon opacity="0.11" points="25.8,18.6 25.4,18.4 25.8,18.2 26.2,18.4 	"/>
	<polygon opacity="0.11" points="24,17.3 23,17.8 23,18.2 24.4,17.5 	"/>
	<polygon opacity="0.11" points="25.8,22.2 25.4,22 25.8,21.8 26.2,22 	"/>
	<polygon opacity="0.11" points="24,21.3 23.6,21.1 24,20.9 24.4,21.1 	"/>
	<polygon opacity="0.11" points="22.2,20.4 21.8,20.2 22.2,20 22.6,20.2 	"/>
	<polygon opacity="0.11" points="20.4,19.1 19.4,19.6 19.4,20 20.8,19.3 	"/>
	<path opacity="0.29" d="M24,24.1v2.2l8.2-4.1V20L24,24.1z M27.6,24.1L25,25.4V24l2.6-1.3V24.1z M31.2,22.3l-2.6,1.3v-1.4l2.6-1.3
		V22.3z"/>
	<polygon opacity="0.29" points="22.2,23.6 30.4,19.5 30.4,19.1 22.2,23.2 	"/>
	<polygon opacity="0.29" points="20.4,22.7 28.6,18.6 28.6,18.2 20.4,22.3 	"/>
	<polygon opacity="0.29" points="18.6,21.8 26.8,17.7 26.8,17.3 18.6,21.4 	"/>
	<polygon opacity="0.11" points="23,23.6 23,24 22.2,23.6 22.2,23.2 21.2,22.7 21.2,23.1 20.4,22.7 20.4,22.3 19.4,21.8 19.4,22.2 
		18.6,21.8 18.6,21.4 17.6,20.9 17.6,21.3 16.8,20.9 16.8,20.5 15.8,20 15.8,22.2 16.8,22.7 16.8,21.3 19.4,22.6 19.4,24 20.4,24.5 
		20.4,23.1 23,24.4 23,25.8 24,26.3 24,24.1 	"/>
	<polygon opacity="0.29" points="16.8,20.9 25,16.8 25,16.4 16.8,20.5 	"/>
	<polygon opacity="0.29" points="16.8,22.7 18.2,22 16.8,21.3 	"/>
</g>
<g>
	<path fill="#825012" d="M23.2,23.5l-0.4,0.2l-0.4-0.2v-0.4l-1-0.5L21,22.8l-0.4-0.2v-0.4l-1-0.5l-0.4,0.2l-0.4-0.2v-0.4l-1-0.5
		L17.4,21L17,20.8v-0.4l-1-0.5L7.8,24v2.2l1,0.5l1.4-0.7l1.2,0.6V28l1,0.5l1.4-0.7l1.2,0.6v1.4l1,0.5l8.2-4.1V24L23.2,23.5z
		 M21.4,24.4l-2.2,1.1l-0.4-0.2l1.6-0.8l0.6-0.3L21.4,24.4z M15.2,27.1l2.2-1.1l0.4,0.2l-2.2,1.1L15.2,27.1z M11.6,25.3l2.2-1.1
		l0.4,0.2L12,25.5L11.6,25.3z M9.8,24.4l1.6-0.8V24l-1.2,0.6L9.8,24.4z M15,22.2l-1.2,0.6l-0.4-0.2l1.6-0.8V22.2z M13.4,26.2
		l2.2-1.1l0.4,0.2l-2.2,1.1L13.4,26.2z M18.6,24l-1.2,0.6L17,24.4l1.6-0.8V24z M17.8,22.6l-2.2,1.1l-0.4-0.2l1.6-0.8l0.6-0.3
		L17.8,22.6z M17,28.4V28l1.6-0.8v0.4L17,28.4z M20.6,26.6v-0.4l1.6-0.8v0.4L20.6,26.6z"/>
	<polygon opacity="0.29" points="12.4,28.5 13.8,27.8 12.4,27.1 	"/>
	<polygon opacity="0.11" points="23.2,26.3 22.2,25.8 22.2,25.4 23.2,24.9 	"/>
	<polygon opacity="0.11" points="19.6,28.1 18.6,27.6 18.6,27.2 19.6,26.7 	"/>
	<polygon opacity="0.11" points="21.4,24.4 21,24.2 21.4,24 21.8,24.2 	"/>
	<polygon opacity="0.11" points="19.6,23.1 18.6,23.6 18.6,24 20,23.3 	"/>
	<polygon opacity="0.11" points="17.8,22.6 17.4,22.4 17.8,22.2 18.2,22.4 	"/>
	<polygon opacity="0.11" points="16,21.3 15,21.8 15,22.2 16.4,21.5 	"/>
	<polygon opacity="0.11" points="17.8,26.2 17.4,26 17.8,25.8 18.2,26 	"/>
	<polygon opacity="0.11" points="16,25.3 15.6,25.1 16,24.9 16.4,25.1 	"/>
	<polygon opacity="0.11" points="14.2,24.4 13.8,24.2 14.2,24 14.6,24.2 	"/>
	<polygon opacity="0.11" points="12.4,23.1 11.4,23.6 11.4,24 12.8,23.3 	"/>
	<path opacity="0.29" d="M16,28.1v2.2l8.2-4.1V24L16,28.1z M19.6,28.1L17,29.4V28l2.6-1.3V28.1z M23.2,26.3l-2.6,1.3v-1.4l2.6-1.3
		V26.3z"/>
	<polygon opacity="0.29" points="14.2,27.6 22.4,23.5 22.4,23.1 14.2,27.2 	"/>
	<polygon opacity="0.29" points="12.4,26.7 20.6,22.6 20.6,22.2 12.4,26.3 	"/>
	<polygon opacity="0.29" points="10.6,25.8 18.8,21.7 18.8,21.3 10.6,25.4 	"/>
	<polygon opacity="0.11" points="15,27.6 15,28 14.2,27.6 14.2,27.2 13.2,26.7 13.2,27.1 12.4,26.7 12.4,26.3 11.4,25.8 11.4,26.2 
		10.6,25.8 10.6,25.4 9.6,24.9 9.6,25.3 8.8,24.9 8.8,24.5 7.8,24 7.8,26.2 8.8,26.7 8.8,25.3 11.4,26.6 11.4,28 12.4,28.5 
		12.4,27.1 15,28.4 15,29.8 16,30.3 16,28.1 	"/>
	<polygon opacity="0.29" points="8.8,24.9 17,20.8 17,20.4 8.8,24.5 	"/>
	<polygon opacity="0.29" points="8.8,26.7 10.2,26 8.8,25.3 	"/>
</g>
<g>
	<path fill="#825012" d="M39.2,23.5l-0.4,0.2l-0.4-0.2v-0.4l-1-0.5L37,22.8l-0.4-0.2v-0.4l-1-0.5l-0.4,0.2l-0.4-0.2v-0.4l-1-0.5
		L33.4,21L33,20.8v-0.4l-1-0.5L23.8,24v2.2l1,0.5l1.4-0.7l1.2,0.6V28l1,0.5l1.4-0.7l1.2,0.6v1.4l1,0.5l8.2-4.1V24L39.2,23.5z
		 M37.4,24.4l-2.2,1.1l-0.4-0.2l1.6-0.8l0.6-0.3L37.4,24.4z M31.2,27.1l2.2-1.1l0.4,0.2l-2.2,1.1L31.2,27.1z M27.6,25.3l2.2-1.1
		l0.4,0.2L28,25.5L27.6,25.3z M25.8,24.4l1.6-0.8V24l-1.2,0.6L25.8,24.4z M31,22.2l-1.2,0.6l-0.4-0.2l1.6-0.8V22.2z M29.4,26.2
		l2.2-1.1l0.4,0.2l-2.2,1.1L29.4,26.2z M34.6,24l-1.2,0.6L33,24.4l1.6-0.8V24z M33.8,22.6l-2.2,1.1l-0.4-0.2l1.6-0.8l0.6-0.3
		L33.8,22.6z M33,28.4V28l1.6-0.8v0.4L33,28.4z M36.6,26.6v-0.4l1.6-0.8v0.4L36.6,26.6z"/>
	<polygon opacity="0.29" points="28.4,28.5 29.8,27.8 28.4,27.1 	"/>
	<polygon opacity="0.11" points="39.2,26.3 38.2,25.8 38.2,25.4 39.2,24.9 	"/>
	<polygon opacity="0.11" points="35.6,28.1 34.6,27.6 34.6,27.2 35.6,26.7 	"/>
	<polygon opacity="0.11" points="37.4,24.4 37,24.2 37.4,24 37.8,24.2 	"/>
	<polygon opacity="0.11" points="35.6,23.1 34.6,23.6 34.6,24 36,23.3 	"/>
	<polygon opacity="0.11" points="33.8,22.6 33.4,22.4 33.8,22.2 34.2,22.4 	"/>
	<polygon opacity="0.11" points="32,21.3 31,21.8 31,22.2 32.4,21.5 	"/>
	<polygon opacity="0.11" points="33.8,26.2 33.4,26 33.8,25.8 34.2,26 	"/>
	<polygon opacity="0.11" points="32,25.3 31.6,25.1 32,24.9 32.4,25.1 	"/>
	<polygon opacity="0.11" points="30.2,24.4 29.8,24.2 30.2,24 30.6,24.2 	"/>
	<polygon opacity="0.11" points="28.4,23.1 27.4,23.6 27.4,24 28.8,23.3 	"/>
	<path opacity="0.29" d="M32,28.1v2.2l8.2-4.1V24L32,28.1z M35.6,28.1L33,29.4V28l2.6-1.3V28.1z M39.2,26.3l-2.6,1.3v-1.4l2.6-1.3
		V26.3z"/>
	<polygon opacity="0.29" points="30.2,27.6 38.4,23.5 38.4,23.1 30.2,27.2 	"/>
	<polygon opacity="0.29" points="28.4,26.7 36.6,22.6 36.6,22.2 28.4,26.3 	"/>
	<polygon opacity="0.29" points="26.6,25.8 34.8,21.7 34.8,21.3 26.6,25.4 	"/>
	<polygon opacity="0.11" points="31,27.6 31,28 30.2,27.6 30.2,27.2 29.2,26.7 29.2,27.1 28.4,26.7 28.4,26.3 27.4,25.8 27.4,26.2 
		26.6,25.8 26.6,25.4 25.6,24.9 25.6,25.3 24.8,24.9 24.8,24.5 23.8,24 23.8,26.2 24.8,26.7 24.8,25.3 27.4,26.6 27.4,28 28.4,28.5 
		28.4,27.1 31,28.4 31,29.8 32,30.3 32,28.1 	"/>
	<polygon opacity="0.29" points="24.8,24.9 33,20.8 33,20.4 24.8,24.5 	"/>
	<polygon opacity="0.29" points="24.8,26.7 26.2,26 24.8,25.3 	"/>
</g>
<g>
	<path fill="#825012" d="M31.2,27.5l-0.4,0.2l-0.4-0.2v-0.4l-1-0.5L29,26.8l-0.4-0.2v-0.4l-1-0.5l-0.4,0.2l-0.4-0.2v-0.4l-1-0.5
		L25.4,25L25,24.8v-0.4l-1-0.5L15.8,28v2.2l1,0.5l1.4-0.7l1.2,0.6V32l1,0.5l1.4-0.7l1.2,0.6v1.4l1,0.5l8.2-4.1V28L31.2,27.5z
		 M29.4,28.4l-2.2,1.1l-0.4-0.2l1.6-0.8l0.6-0.3L29.4,28.4z M23.2,31.1l2.2-1.1l0.4,0.2l-2.2,1.1L23.2,31.1z M19.6,29.3l2.2-1.1
		l0.4,0.2L20,29.5L19.6,29.3z M17.8,28.4l1.6-0.8V28l-1.2,0.6L17.8,28.4z M23,26.2l-1.2,0.6l-0.4-0.2l1.6-0.8V26.2z M21.4,30.2
		l2.2-1.1l0.4,0.2l-2.2,1.1L21.4,30.2z M26.6,28l-1.2,0.6L25,28.4l1.6-0.8V28z M25.8,26.6l-2.2,1.1l-0.4-0.2l1.6-0.8l0.6-0.3
		L25.8,26.6z M25,32.4V32l1.6-0.8v0.4L25,32.4z M28.6,30.6v-0.4l1.6-0.8v0.4L28.6,30.6z"/>
	<polygon opacity="0.29" points="20.4,32.5 21.8,31.8 20.4,31.1 	"/>
	<polygon opacity="0.11" points="31.2,30.3 30.2,29.8 30.2,29.4 31.2,28.9 	"/>
	<polygon opacity="0.11" points="27.6,32.1 26.6,31.6 26.6,31.2 27.6,30.7 	"/>
	<polygon opacity="0.11" points="29.4,28.4 29,28.2 29.4,28 29.8,28.2 	"/>
	<polygon opacity="0.11" points="27.6,27.1 26.6,27.6 26.6,28 28,27.3 	"/>
	<polygon opacity="0.11" points="25.8,26.6 25.4,26.4 25.8,26.2 26.2,26.4 	"/>
	<polygon opacity="0.11" points="24,25.3 23,25.8 23,26.2 24.4,25.5 	"/>
	<polygon opacity="0.11" points="25.8,30.2 25.4,30 25.8,29.8 26.2,30 	"/>
	<polygon opacity="0.11" points="24,29.3 23.6,29.1 24,28.9 24.4,29.1 	"/>
	<polygon opacity="0.11" points="22.2,28.4 21.8,28.2 22.2,28 22.6,28.2 	"/>
	<polygon opacity="0.11" points="20.4,27.1 19.4,27.6 19.4,28 20.8,27.3 	"/>
	<path opacity="0.29" d="M24,32.1v2.2l8.2-4.1V28L24,32.1z M27.6,32.1L25,33.4V32l2.6-1.3V32.1z M31.2,30.3l-2.6,1.3v-1.4l2.6-1.3
		V30.3z"/>
	<polygon opacity="0.29" points="22.2,31.6 30.4,27.5 30.4,27.1 22.2,31.2 	"/>
	<polygon opacity="0.29" points="20.4,30.7 28.6,26.6 28.6,26.2 20.4,30.3 	"/>
	<polygon opacity="0.29" points="18.6,29.8 26.8,25.7 26.8,25.3 18.6,29.4 	"/>
	<polygon opacity="0.11" points="23,31.6 23,32 22.2,31.6 22.2,31.2 21.2,30.7 21.2,31.1 20.4,30.7 20.4,30.3 19.4,29.8 19.4,30.2 
		18.6,29.8 18.6,29.4 17.6,28.9 17.6,29.3 16.8,28.9 16.8,28.5 15.8,28 15.8,30.2 16.8,30.7 16.8,29.3 19.4,30.6 19.4,32 20.4,32.5 
		20.4,31.1 23,32.4 23,33.8 24,34.3 24,32.1 	"/>
	<polygon opacity="0.29" points="16.8,28.9 25,24.8 25,24.4 16.8,28.5 	"/>
	<polygon opacity="0.29" points="16.8,30.7 18.2,30 16.8,29.3 	"/>
</g>
<g>
	<g>
		<polygon fill="#FFCC00" points="8.6,16.5 8.6,23.9 16,27.6 23.4,23.9 23.4,16.5 16,12.8 		"/>
		<polygon opacity="0.11" points="16,27.6 8.6,23.9 8.6,16.5 16,20.2 		"/>
		<polygon opacity="0.3" points="13.2,14.2 11.4,15.1 18.8,18.8 18.8,22.4 20.6,21.5 20.6,17.9 		"/>
		<polygon opacity="0.29" points="16,27.6 23.4,23.9 23.4,16.5 16,20.2 		"/>
	</g>
	<g>
		<polygon fill="#FFCC00" points="24.6,16.5 24.6,23.9 32,27.6 39.4,23.9 39.4,16.5 32,12.8 		"/>
		<polygon opacity="0.11" points="32,27.6 24.6,23.9 24.6,16.5 32,20.2 		"/>
		<polygon opacity="0.3" points="29.2,14.2 27.4,15.1 34.8,18.8 34.8,22.4 36.6,21.5 36.6,17.9 		"/>
		<polygon opacity="0.29" points="32,27.6 39.4,23.9 39.4,16.5 32,20.2 		"/>
	</g>
	<g>
		<polygon fill="#FFCC00" points="16.6,20.5 16.6,27.9 24,31.6 31.4,27.9 31.4,20.5 24,16.8 		"/>
		<polygon opacity="0.11" points="24,31.6 16.6,27.9 16.6,20.5 24,24.2 		"/>
		<polygon opacity="0.3" points="21.2,18.2 19.4,19.1 26.8,22.8 26.8,26.4 28.6,25.5 28.6,21.9 		"/>
		<polygon opacity="0.29" points="24,31.6 31.4,27.9 31.4,20.5 24,24.2 		"/>
	</g>
	<g>
		<polygon fill="#FFCC00" points="16.6,4.5 16.6,11.9 24,15.6 31.4,11.9 31.4,4.5 24,0.8 		"/>
		<polygon opacity="0.11" points="24,15.6 16.6,11.9 16.6,4.5 24,8.2 		"/>
		<polygon opacity="0.3" points="21.2,2.2 19.4,3.1 26.8,6.8 26.8,10.4 28.6,9.5 28.6,5.9 		"/>
		<polygon opacity="0.29" points="24,15.6 31.4,11.9 31.4,4.5 24,8.2 		"/>
	</g>
	<g>
		<polygon fill="#FFCC00" points="8.6,8.5 8.6,15.9 16,19.6 23.4,15.9 23.4,8.5 16,4.8 		"/>
		<polygon opacity="0.11" points="16,19.6 8.6,15.9 8.6,8.5 16,12.2 		"/>
		<polygon opacity="0.3" points="13.2,6.2 11.4,7.1 18.8,10.8 18.8,14.4 20.6,13.5 20.6,9.9 		"/>
		<polygon opacity="0.29" points="16,19.6 23.4,15.9 23.4,8.5 16,12.2 		"/>
	</g>
	<g>
		<polygon fill="#FFCC00" points="24.6,8.5 24.6,15.9 32,19.6 39.4,15.9 39.4,8.5 32,4.8 		"/>
		<polygon opacity="0.11" points="32,19.6 24.6,15.9 24.6,8.5 32,12.2 		"/>
		<polygon opacity="0.3" points="29.2,6.2 27.4,7.1 34.8,10.8 34.8,14.4 36.6,13.5 36.6,9.9 		"/>
		<polygon opacity="0.29" points="32,19.6 39.4,15.9 39.4,8.5 32,12.2 		"/>
	</g>
	<g>
		<polygon fill="#FFCC00" points="16.6,12.5 16.6,19.9 24,23.6 31.4,19.9 31.4,12.5 24,8.8 		"/>
		<polygon opacity="0.11" points="24,23.6 16.6,19.9 16.6,12.5 24,16.2 		"/>
		<polygon opacity="0.3" points="21.2,10.2 19.4,11.1 26.8,14.8 26.8,18.4 28.6,17.5 28.6,13.9 		"/>
		<polygon opacity="0.29" points="24,23.6 31.4,19.9 31.4,12.5 24,16.2 		"/>
	</g>
</g>
</svg>
