<?xml version="1.0" encoding="utf-8"?>
<!-- Generator: Adobe Illustrator 18.1.0, SVG Export Plug-In . SVG Version: 6.00 Build 0)  -->
<svg version="1.0" id="Layer_1" xmlns="http://www.w3.org/2000/svg" xmlns:xlink="http://www.w3.org/1999/xlink" x="0px" y="0px"
	 viewBox="0 0 160 240" enable-background="new 0 0 160 240" xml:space="preserve">
<g>
	<g>
		<path opacity="0.2" d="M129.8,218.4c17.2-9.6,4.2-17-11.8-24.6c-17.8-8.5-24.2-10.6-40.5-1.6c-13.9,7.6-1.6,14.9,14.6,22.5
			C110.5,223.3,117.6,225.3,129.8,218.4z"/>
		<path fill="#262626" d="M89,190.1c-3.4,2.5-6.8,4-9.8,5.6c-3,1.6-4.5,3.1-4.1,4.5c0.3,1.5,3,3.2,7.6,3s12-4.4,13.4-4.5
			c1.4-0.1,1.1,0.8,2.1,0.8c1,0,6.4-1,7-1.7c0.6-0.7-0.1-5.7-0.1-5.7L89,190.1z"/>
		<path opacity="0.5" d="M105.2,197.7c0.3-0.4,0.3-1.8,0.2-3.1c-1.3,1.2-3.5,1.9-5.7,2c-2.6,0.1-5.7,0.6-9.3,2.9
			c-3.6,2.3-16,4.2-14.6-1.4c-0.6,0.7-0.9,1.4-0.7,2.1c0.3,1.5,3,3.2,7.6,3c4.6-0.2,12-4.4,13.4-4.5c1.4-0.1,1.1,0.8,2.1,0.8
			C99.2,199.5,104.6,198.4,105.2,197.7z"/>
		<path fill="#656565" d="M91.2,111.4c-0.9,6.6-1.3,29.8-0.4,40.3c0.8,10.6,0.7,25.9-0.1,31.2c-0.6,3.9-2.5,6-2,7.4
			c0.5,1.5,5,4.6,10.2,5.2c5.1,0.6,7.2-0.2,7.9-2.2c0.6-2,2.8-23.5,3.5-37c0.6-12,1.7-45.1,1.7-45.1H91.2z"/>
		<path opacity="0.3" d="M91.2,111.4c-0.9,6.6-1.3,29.8-0.4,40.3c0.8,10.6,0.7,25.9-0.1,31.2c-0.6,3.9-2.5,6-2,7.4
			c0.5,1.5,5,4.6,10.2,5.2c5.1,0.6,7.2-0.2,7.9-2.2c0.6-2,2.8-23.5,3.5-37c0.6-12,1.7-45.1,1.7-45.1H91.2z"/>
		<path fill="#262626" d="M120,202.1c-0.8,2.3-4.3,8-5,9.4c-0.8,1.4-2.3,3.3-1.3,4.7c1,1.5,5.7,3.3,10.4,1c4.7-2.2,5.5-7.7,5.5-7.7
			h0.8c0,0,1-2.3,1-3.9c0-1.6-0.3-2.6-0.3-2.6L120,202.1z"/>
		<path opacity="0.5" d="M129.6,209.6h0.8c0,0,1-2.3,1-3.9c0-1.6-0.3-2.6-0.3-2.6l-0.1,0c-0.1,0.2-0.1,0.4-0.1,0.6
			c-0.2,1.3-2.5,8.3-3.8,10c-3.4,4.4-12.6,5.4-13.5,0.3c-0.3,0.8-0.4,1.6,0.1,2.2c1,1.5,5.7,3.3,10.4,1
			C128.8,215,129.6,209.6,129.6,209.6z"/>
		<path fill="#656565" d="M103.1,112.2c0.1,4.3,4.5,9.3,5.8,15.4c1.3,6.1,5.3,36.3,6.3,45.2c1.5,12.9,2.8,31.7,3.2,31.9
			c0.4,0.1,3.7-1.9,6.9-0.2c3.2,1.7,6.8,1,7.9,0.2c1-0.8,0.6-9.4,0.2-14.6c-0.3-5.1-1.9-43.6-1.8-48.8c0.1-5.2,1.8-19.3,1.4-22.6
			c-0.4-3.4-2.3-7.3-2.3-7.3L103.1,112.2z"/>
		<path opacity="0.15" d="M103.1,112.2c0.1,4.3,4.5,9.3,5.8,15.4c1.3,6.1,5.3,36.3,6.3,45.2c1.5,12.9,2.8,31.7,3.2,31.9
			c0.4,0.1,3.7-1.9,6.9-0.2c3.2,1.7,6.8,1,7.9,0.2c1-0.8,0.6-9.4,0.2-14.6c-0.3-5.1-1.9-43.6-1.8-48.8c0.1-5.2,1.8-19.3,1.4-22.6
			c-0.4-3.4-2.3-7.3-2.3-7.3L103.1,112.2z"/>
		<path fill="#656565" d="M92.9,64.9c-2.5,4-5.1,10.3-6.6,14.5c-1.5,4.2-5.4,11.7-5.7,12.7c-0.2,0.9-0.1,4.6,3.4,5.7
			s5.2,1.8,5.8,0.9c0.5-0.8,4.2-5,4.2-5L92.9,64.9z"/>
		<path opacity="0.15" d="M92.9,64.9c-2.5,4-5.1,10.3-6.6,14.5c-1.5,4.2-5.4,11.7-5.7,12.7c-0.2,0.9-0.1,4.6,3.4,5.7
			s5.2,1.8,5.8,0.9c0.5-0.8,4.2-5,4.2-5L92.9,64.9z"/>
		<path fill="#FFFFFF" d="M105.7,37.2c-2,1.6-10.2,13.3-10.6,27.7s3.2,21.1,3.2,21.1s10.9-29.1,16.9-35.5c6-6.4,5.6-11.5,5.6-11.5
			s-3.8-2.6-7.9-2.9S105.7,37.2,105.7,37.2z"/>
		<path opacity="0.2" d="M105.4,47.1l2.3,6.4l6.4-4.3l-6.8,6l-2.1-7.8l-1-0.2l-3.8,4.3c0,0,0-4.1,0-3.8c0,0.3,0.3,1.9,0.3,1.9
			l3.5-3.4L105.4,47.1z"/>
		<path fill="#CC291F" d="M102.6,51.8l-0.1-3.8l1.5-1.6l1.5,0.7l1,2.7l-2.3,2.3c0,0-2.1,18.1-2.3,20.4s-3.1,13-3.1,13
			S94.2,73,94.3,72.7C94.5,72.5,102.6,51.8,102.6,51.8z"/>
		<path fill="#FBD7C7" d="M138.7,120.4c-0.3,1-0.2,2-2,3.2c-1.7,1.3-3.1,3.6-3.5,5.2c-0.4,1.6-1.7,3.5-1.9,4.7
			c-0.1,1.2,0.8,2,1.8,1.1c1-0.8,2.9-4.5,3.9-4.8c1-0.3,1.3,2.9,1.4,4c0.1,1-1.5,3-2.2,4c-0.8,1-0.1,1.9,1,1.6s5.9-2.9,7.1-7.9
			c1.3-5,0.7-12,0.7-12L138.7,120.4z"/>
		<path fill="#FFFFFF" d="M136.5,119.6l-0.1,2c0,0,3.8,0.9,6.9,0.6c3.1-0.3,3.8-1,3.8-1l-0.3-3L136.5,119.6z"/>
		<path fill="#656565" d="M109.4,36.3c-2.1,0.3-9.2-2-13.2,4.1s-4.7,12.6-4.9,18.3s-1.2,43-1.2,49.5c0,6.6,0.1,9.5,3,10.4
			c3.4,1.1,5.9-1.9,6-3.8c0.1-2-0.3-30.7-0.3-30.7s-5.1-12-1.8-25.8s8.5-18.4,8.5-18.4l4.1-3.5L109.4,36.3z"/>
		<path fill="#656565" d="M119.6,37.9c0,0,4,3.3,6.2,5.1c2.2,1.8,11.9,10.5,12.9,11.7c1,1.2,2.2,2.4,2.2,5.7
			c-0.1,3.2,0.4,8.4,1.7,11.9c4.1,10.6,4.3,15.2,4.6,19.8s0.9,26.6,0.9,26.6s-1.3,1.2-6.4,1.8c-5.2,0.6-6.4-0.1-6.4-0.1
			s-1.5-14.2-2.3-19.3c-1.3-7.8-5-16.1-5-16.1s-0.6,3.5-0.3,5.6c0.3,2.1,4.1,19.3,4.9,22.1c0.8,2.7,1.7,6.1,1.7,6.1
			s-4.2,6.6-15.6,6.1s-18.2-4-19.6-11c-1.4-7-1.7-24.5,0.1-34.3S109,54,114.3,48.2S119.6,37.9,119.6,37.9z"/>
		<path opacity="0.2" d="M99.6,84.2c0,0,3.5-8.9,8.9-16.5c3.8-5.2,7.8-8.6,7.8-8.6l-0.3-3.4l4.1-1.5l2.5-13.7l0.5,0.5l-1.7,14.1
			l-4.6,1l1,3.5c0,0-5.4,4.7-9,9.2C105,73.6,99.6,84.2,99.6,84.2z"/>
		<path fill="#FBD7C7" d="M103.9,16.3c-3.8,2.8-4,10.3-3.9,15.4c0.1,5.1,0.7,9.3,1.5,9.7c0.8,0.4,2.4,0.6,2.4,0.6s-0.1,4.9,1.1,5.1
			c1.2,0.3,7.8-2.8,10.9-6c3.1-3.1,3.5-3.8,3.5-3.8s4.3-7.9,3.6-14.1C122.1,17,114.5,8.5,103.9,16.3z"/>
		<path fill="#762C07" d="M100.6,19.3c-0.6,1,1.5,0.8,4.5,5.4c3.1,4.6,6.6,2.6,7.6,2.6c0.3,2.5,2.4,2.1,4.3,4.3c0,0,0.7-2.5,2.1-2.6
			c1.4-0.1,0.9,4.2,0.9,4.2s0.2,1.7,1.2,2c1,0.3,4.7-8.8,2.8-14.7C121.1,11.2,107.5,7.9,100.6,19.3z"/>
		<path fill="#FFFFFF" d="M81.5,92.5c0.5-0.5,3.6-0.4,5.3,1.3c1.7,1.7,2.2,3.6,1.9,4.1c-0.2,0.4-2.4,0.2-4.9-1.5
			C81.4,94.7,81,93.2,81.5,92.5z"/>
		<path fill="#FBD7C7" d="M82.1,92.9c1.2-0.4,3.1,0.1,4.3,1.3c1.2,1.1,1.7,2.2,1.6,3s-1,2.7-1.2,3.6c-0.2,0.8-2.7,4.2-3.5,5.3
			c-0.7,1.2-1.6,1.7-1.8,3.5c-0.2,1.8-0.8,2.7-2.1,2.8c-1.3,0.1-6.1-2.9-5.2-7.2c0.9-4.2,2.6-6.7,3.6-8.1c0.5-0.7,2.6-1.8,3.3-2.3
			C81.9,94.2,81.6,93.1,82.1,92.9z"/>
	</g>
	<g>
		<path fill="#FBD7C7" d="M72.6,101.7l0.1,8.8c0,0,4.1,1.1,7.1-0.5c3-1.6,5.2-4.7,5.2-5.8c0-1.1-0.3-2.4-1.3-2.4
			c-1.1,0-2,1.6-3.2,0.3c-1.3-1.3-0.4-2.2,0.6-2.9c0.9-0.7,1.3-2.5-0.8-2.3c-1,0.1-1.9,0.8-2.5,1.3c-0.9,0.8-1.8,1.8-3,2.8
			C73.5,102.2,72.6,101.7,72.6,101.7z"/>
		<path opacity="0.2" d="M71.3,226.8c15.7-10.6-0.4-14.3-14.6-20c-13.6-5.6-21.3-12.4-37,0c-12.7,10,10.3,17.4,17.2,20.8
			C47.2,232.6,56.7,236.7,71.3,226.8z"/>
		<path fill="#3399CC" d="M22,56.1c-3.5,1.9-3.7,7.9-4.8,15.4c-1.1,7.4-2.2,15.6-2,19c0.2,3.3,5,8.7,7.6,12.1
			c2.6,3.4,6.9,7.1,6.9,7.1l3.8-6.7c0,0-8.7-12.8-8.9-13.5s3.8-17.7,3.9-19.2C28.7,68.9,22,56.1,22,56.1z"/>
		<path fill="#2D3134" d="M18.5,210.3c0,0-1.9,4.1,0.5,4.9s5.3,0,9.5-2.2s12-4.2,13.8-7.3c1.7-3-2.8-6-9.4-4.2s-5.4,1.4-5.4,1.4
			L18.5,210.3z"/>
		<path opacity="0.4" d="M42.3,203.2c0,0.4-0.1,0.8-0.4,1.1c-1.8,3.1-9.5,5.1-13.8,7.3c-4.2,2.1-7.1,3-9.5,2.2
			c-0.4-0.1-0.7-0.3-0.9-0.6c0,0.9,0.3,1.7,1.2,2c2.4,0.8,5.3,0,9.5-2.2s12-4.2,13.8-7.3C42.8,204.9,42.7,204,42.3,203.2z"/>
		<path fill="#2D3134" d="M53.2,222.5c0,0-3.2,7,1.4,8c4.6,0.9,8.5-3.2,10.8-4.7c2.4-1.5,7.9-4.9,9.4-6.8c1.1-1.3,0.8-6.5-5.7-5.7
			s-10.2,4.4-10.2,4.4L53.2,222.5z"/>
		<path opacity="0.4" d="M74.2,214.5c0.5,1.2,0.3,2.6-0.2,3.1c-1.5,1.9-7,5.3-9.4,6.8c-2.4,1.5-6.3,5.6-10.8,4.7
			c-0.6-0.1-1.1-0.4-1.4-0.7c0.3,1,1,1.7,2.3,2c4.6,0.9,8.5-3.2,10.8-4.7c2.4-1.5,7.9-4.9,9.4-6.8C75.5,218.2,75.6,215.9,74.2,214.5
			z"/>
		<path fill="#06547A" d="M31.8,100.4c0.5,0.3,21,3.7,21,3.7s-6.5,37.8-10.6,48.1c-4.1,10.3-7.4,28.1-8.3,34.2
			c-1.2,7.5-1.8,14.3-2.1,16.5c-0.4,2.8-3.5,8.8-8.5,10c-5,1.2-6.4-0.4-6.3-1.4c0.3-5.6,0.9-23.5,3.2-33.9c1.6-7.3,2.8-17.9,3-22
			c0.3-4.1-0.6-27.2,2.7-39.4S31.8,100.4,31.8,100.4z"/>
		<path opacity="0.2" d="M31.8,100.4c0.5,0.3,21,3.7,21,3.7s-6.5,37.8-10.6,48.1c-4.1,10.3-7.4,28.1-8.3,34.2
			c-1.2,7.5-1.8,14.3-2.1,16.5c-0.4,2.8-3.5,8.8-8.5,10c-5,1.2-6.4-0.4-6.3-1.4c0.3-5.6,0.9-23.5,3.2-33.9c1.6-7.3,2.8-17.9,3-22
			c0.3-4.1-0.6-27.2,2.7-39.4S31.8,100.4,31.8,100.4z"/>
		<path fill="#06547A" d="M38.5,103c0,0-2.6,11.1-1.7,17.3c0.9,6.2,2.4,13.3,5.1,23.3c2.7,10.3,7.1,20.4,6.3,29.9
			c-0.8,9.5-0.1,24.2,0.3,33.8c0.4,11.3,0.9,20.3,3.6,21.1c4.2,1.2,10.4-3.2,11.6-6.2c1.2-3,1.8-4.4,1.2-7.5
			c-0.3-1.6-1.4-17.9-1.1-26.8c0.4-8.9,1.8-22,3-32.4c1.2-10.4,0.8-20.5-1.2-31.5c-1.9-10.9-2.3-19.8-2.3-19.8L38.5,103z"/>
		<path fill="#FBD7C7" d="M32.7,54c0,0,4.2,4.8,7.6,5.7c3.8,1,11,0.1,11,0.1s2.2-8.2,2.8-9.4c0.6-1.2,2.8-1.1,3.2-3.8
			s1.8-15.5,0-17.7c-1.8-2.2-11.2-7.7-16.7-1.2s-2,17.3-2.4,19.9S32.7,54,32.7,54z"/>
		<path fill="#762C07" d="M37.8,49.2c0,0,6.3,2.3,9.9,1.6s6-4.4,6-4.4s0.1-5,1.2-6.8c1.1-1.8,1.6-0.8,1.6-0.8s2.3-4,2.1-6.8
			c-0.2-3.7-3.8-9.6-13.7-7.1c-7.7,1.9-8.8,10-8.7,13.5S37.8,49.2,37.8,49.2z"/>
		<path fill="#99CC33" d="M34.3,52.5c0,0-11.1-2.2-13.7,3.2s2.3,23.4,3.2,30.1c0.9,6.7,2.4,12.2,1.2,22.8
			c-0.9,7.1-2.1,11.8-0.8,12.3c2.6,1,17.5,4.5,28,4.3c6.8-0.2,13-1.5,13.5-2c0.5-0.5-2.4-32.7-2.1-38.8s1.7-15.1-2.2-18.8
			c-3.8-3.7-10-6-10-6s-6.2,0.5-12-1.7C33.8,55.8,34.3,52.5,34.3,52.5z"/>
		<g>
			<path fill="#FFCC00" d="M57.7,37.4c2.9-1,6.6-5.5,5.7-8.5c-1-3-5.5-4.6-8.5-4.5S57.7,37.4,57.7,37.4z"/>
			<path opacity="0.2" d="M57.7,37.4c2.9-1,6.6-5.5,5.7-8.5c-1-3-5.5-4.6-8.5-4.5S57.7,37.4,57.7,37.4z"/>
			<path fill="#FFCC00" d="M34.3,40c2.1,2.4,11.6,4.5,18.6,0.8c7.1-3.7,9.3-9,7.3-13.6c-2.7-6.3-15-9.4-21.7-3.6S32.9,38.3,34.3,40z
				"/>
			<path fill="#FFCC00" d="M35.5,40.4c-1.5-1.6-2.5-10.6,4.2-16.4c3.9-3.4,9.8-3.8,14.5-2.2c-4.9-2.1-11.5-2-15.7,1.7
				c-6.7,5.8-5.7,14.8-4.2,16.4c0.6,0.7,1.7,1.3,3.2,1.8C36.7,41.3,36,40.9,35.5,40.4z"/>
			<path opacity="0.2" d="M55.1,22.5c-4.9-2.1-11.3-2.3-15.6,1.4c-2.9,2.5-4.6,6-5.2,8.8c0.4,0.2,0.8,0.3,1.2,0.4
				c0.6-2.9,2.2-6.3,5.2-8.8C44.6,21,50.3,21,55.1,22.5z"/>
			<path opacity="0.2" d="M41.6,24.9c-2.7,2.6-4,5.9-4.5,8.8c0.4,0.1,0.7,0.1,1.1,0.2c0.5-2.9,1.8-6,4.4-8.5
				c3.5-3.4,8.7-3.7,12.9-2.2C51.3,21.1,45.4,21.2,41.6,24.9z"/>
		</g>
		<path fill="#3399CC" d="M53.9,66.1c-4.2,2.3-4.9,9.6-4.5,14s4.3,24.7,6.4,29c0.9,1.9,5,2.2,8.1,2.1c3.9-0.1,9.1-0.4,9.1-0.4
			l0.3-9.1l-8.9-1.4c0,0-1.7-12.8-1.2-20.3C63.6,72.4,62.9,61.2,53.9,66.1z"/>
	</g>
</g>
</svg>
