<?xml version="1.0" encoding="utf-8"?>
<!-- Generator: Adobe Illustrator 18.1.0, SVG Export Plug-In . SVG Version: 6.00 Build 0)  -->
<svg version="1.1" id="Layer_1" xmlns="http://www.w3.org/2000/svg" xmlns:xlink="http://www.w3.org/1999/xlink" x="0px" y="0px"
	 viewBox="0 0 64 64" enable-background="new 0 0 64 64" xml:space="preserve">
<g>
	<g>
		<polygon fill="#3366CC" points="22.8,8 22.8,32 24,32.6 25.2,32 25.2,8 24,7.4 		"/>
		<polygon opacity="0.11" points="24,32.6 22.8,32 22.8,8 24,8.6 		"/>
		<polygon opacity="0.29" points="24,32.6 25.2,32 25.2,8 24,8.6 		"/>
	</g>
	<g>
		<polygon fill="#3366CC" points="54.8,24 54.8,48 56,48.6 57.2,48 57.2,24 56,23.4 		"/>
		<polygon opacity="0.11" points="56,48.6 54.8,48 54.8,24 56,24.6 		"/>
		<polygon opacity="0.29" points="56,48.6 57.2,48 57.2,24 56,24.6 		"/>
	</g>
	<g>
		<polygon fill="#3366CC" points="14.8,12 14.8,36 16,36.6 17.2,36 17.2,12 16,11.4 		"/>
		<polygon opacity="0.11" points="16,36.6 14.8,36 14.8,12 16,12.6 		"/>
		<polygon opacity="0.29" points="16,36.6 17.2,36 17.2,12 16,12.6 		"/>
	</g>
	<g>
		<polygon fill="#999999" points="16,35.6 16,36.2 48,52.2 56,48.2 56,47.6 24,31.6 		"/>
		<polygon opacity="0.11" points="48,52.2 16,36.2 16,35.6 48,51.6 		"/>
		<polygon opacity="0.29" points="48,52.2 56,48.2 56,47.6 48,51.6 		"/>
	</g>
	<g>
		<polygon fill="#FFCC00" points="55.4,40.2 55.4,47.6 48,51.3 40.6,47.6 40.6,40.2 48,36.5 		"/>
		<polygon opacity="0.29" points="48,51.3 55.4,47.6 55.4,40.2 48,43.9 		"/>
		<polygon opacity="0.3" points="50.8,37.9 52.6,38.8 45.2,42.5 45.2,46.1 43.4,45.2 43.4,41.6 		"/>
		<polygon opacity="0.11" points="48,51.3 40.6,47.6 40.6,40.2 48,43.9 		"/>
	</g>
	<g>
		<polygon fill="#999999" points="16,27.6 16,28.2 48,44.2 56,40.2 56,39.6 24,23.6 		"/>
		<polygon opacity="0.11" points="48,44.2 16,28.2 16,27.6 48,43.6 		"/>
		<polygon opacity="0.29" points="48,44.2 56,40.2 56,39.6 48,43.6 		"/>
	</g>
	<g>
		<polygon fill="#FFCC00" points="55.4,32.2 55.4,39.6 48,43.3 40.6,39.6 40.6,32.2 48,28.5 		"/>
		<polygon opacity="0.29" points="48,43.3 55.4,39.6 55.4,32.2 48,35.9 		"/>
		<polygon opacity="0.3" points="50.8,29.9 52.6,30.8 45.2,34.5 45.2,38.1 43.4,37.2 43.4,33.6 		"/>
		<polygon opacity="0.11" points="48,43.3 40.6,39.6 40.6,32.2 48,35.9 		"/>
	</g>
	<g>
		<polygon fill="#3366CC" points="49.1,42.9 56,33.6 56,33 55.4,32.7 49.1,41.4 		"/>
		<polygon opacity="0.29" points="49.1,42.9 56,33.6 56,33 49.1,42.3 		"/>
	</g>
	<g>
		<polygon fill="#3366CC" points="49.1,50.9 56,41.6 56,41 55.4,40.7 49.1,49.4 		"/>
		<polygon opacity="0.29" points="49.1,50.9 56,41.6 56,41 49.1,50.3 		"/>
	</g>
	<g>
		<polygon fill="#999999" points="16,19.6 16,20.2 48,36.2 56,32.2 56,31.6 24,15.6 		"/>
		<polygon opacity="0.11" points="48,36.2 16,20.2 16,19.6 48,35.6 		"/>
		<polygon opacity="0.29" points="48,36.2 56,32.2 56,31.6 48,35.6 		"/>
	</g>
	<g>
		<polygon fill="#FFCC00" points="31.4,12.2 31.4,19.6 24,23.3 16.6,19.6 16.6,12.2 24,8.5 		"/>
		<polygon opacity="0.29" points="24,23.3 31.4,19.6 31.4,12.2 24,15.9 		"/>
		<polygon opacity="0.3" points="26.8,9.9 28.6,10.8 21.2,14.5 21.2,18.1 19.4,17.2 19.4,13.6 		"/>
		<polygon opacity="0.11" points="24,23.3 16.6,19.6 16.6,12.2 24,15.9 		"/>
	</g>
	<g>
		<polygon fill="#FFCC00" points="39.4,16.2 39.4,23.6 32,27.3 24.6,23.6 24.6,16.2 32,12.5 		"/>
		<polygon opacity="0.29" points="32,27.3 39.4,23.6 39.4,16.2 32,19.9 		"/>
		<polygon opacity="0.3" points="34.8,13.9 36.6,14.8 29.2,18.5 29.2,22.1 27.4,21.2 27.4,17.6 		"/>
		<polygon opacity="0.11" points="32,27.3 24.6,23.6 24.6,16.2 32,19.9 		"/>
	</g>
	<g>
		<polygon fill="#FFCC00" points="47.4,20.2 47.4,27.6 40,31.3 32.6,27.6 32.6,20.2 40,16.5 		"/>
		<polygon opacity="0.29" points="40,31.3 47.4,27.6 47.4,20.2 40,23.9 		"/>
		<polygon opacity="0.3" points="42.8,17.9 44.6,18.8 37.2,22.5 37.2,26.1 35.4,25.2 35.4,21.6 		"/>
		<polygon opacity="0.11" points="40,31.3 32.6,27.6 32.6,20.2 40,23.9 		"/>
	</g>
	<g>
		<polygon fill="#FFCC00" points="55.4,24.2 55.4,31.6 48,35.3 40.6,31.6 40.6,24.2 48,20.5 		"/>
		<polygon opacity="0.29" points="48,35.3 55.4,31.6 55.4,24.2 48,27.9 		"/>
		<polygon opacity="0.3" points="50.8,21.9 52.6,22.8 45.2,26.5 45.2,30.1 43.4,29.2 43.4,25.6 		"/>
		<polygon opacity="0.11" points="48,35.3 40.6,31.6 40.6,24.2 48,27.9 		"/>
	</g>
	<g>
		<polygon fill="#3366CC" points="49.1,35 56,25.7 56,25.1 55.4,24.8 49.1,33.5 		"/>
		<polygon opacity="0.29" points="49.1,35 56,25.7 56,25.1 49.1,34.4 		"/>
	</g>
	<g>
		<polygon fill="#3366CC" points="46.8,28 46.8,52 48,52.6 49.2,52 49.2,28 48,27.4 		"/>
		<polygon opacity="0.11" points="48,52.6 46.8,52 46.8,28 48,28.6 		"/>
		<polygon opacity="0.29" points="48,52.6 49.2,52 49.2,28 48,28.6 		"/>
	</g>
</g>
<g>
	<g>
		<polygon fill="#3366CC" points="14.8,12 14.8,36 16,36.6 17.2,36 17.2,12 16,11.4 		"/>
		<polygon opacity="0.11" points="16,36.6 14.8,36 14.8,12 16,12.6 		"/>
		<polygon opacity="0.29" points="16,36.6 17.2,36 17.2,12 16,12.6 		"/>
	</g>
	<g>
		<polygon fill="#3366CC" points="46.8,28 46.8,52 48,52.6 49.2,52 49.2,28 48,27.4 		"/>
		<polygon opacity="0.11" points="48,52.6 46.8,52 46.8,28 48,28.6 		"/>
		<polygon opacity="0.29" points="48,52.6 49.2,52 49.2,28 48,28.6 		"/>
	</g>
	<g>
		<polygon fill="#3366CC" points="6.8,16 6.8,40 8,40.6 9.2,40 9.2,16 8,15.4 		"/>
		<polygon opacity="0.11" points="8,40.6 6.8,40 6.8,16 8,16.6 		"/>
		<polygon opacity="0.29" points="8,40.6 9.2,40 9.2,16 8,16.6 		"/>
	</g>
	<g>
		<polygon fill="#999999" points="8,39.6 8,40.2 40,56.2 48,52.2 48,51.6 16,35.6 		"/>
		<polygon opacity="0.11" points="40,56.2 8,40.2 8,39.6 40,55.6 		"/>
		<polygon opacity="0.29" points="40,56.2 48,52.2 48,51.6 40,55.6 		"/>
	</g>
	<g>
		<polygon fill="#FFCC00" points="23.4,32.2 23.4,39.6 16,43.3 8.6,39.6 8.6,32.2 16,28.5 		"/>
		<polygon opacity="0.29" points="16,43.3 23.4,39.6 23.4,32.2 16,35.9 		"/>
		<polygon opacity="0.3" points="18.8,29.9 20.6,30.8 13.2,34.5 13.2,38.1 11.4,37.2 11.4,33.6 		"/>
		<polygon opacity="0.11" points="16,43.3 8.6,39.6 8.6,32.2 16,35.9 		"/>
	</g>
	<g>
		<polygon fill="#FFCC00" points="31.4,36.2 31.4,43.6 24,47.3 16.6,43.6 16.6,36.2 24,32.5 		"/>
		<polygon opacity="0.29" points="24,47.3 31.4,43.6 31.4,36.2 24,39.9 		"/>
		<polygon opacity="0.3" points="26.8,33.9 28.6,34.8 21.2,38.5 21.2,42.1 19.4,41.2 19.4,37.6 		"/>
		<polygon opacity="0.11" points="24,47.3 16.6,43.6 16.6,36.2 24,39.9 		"/>
	</g>
	<g>
		<polygon fill="#FFCC00" points="39.4,40.2 39.4,47.6 32,51.3 24.6,47.6 24.6,40.2 32,36.5 		"/>
		<polygon opacity="0.29" points="32,51.3 39.4,47.6 39.4,40.2 32,43.9 		"/>
		<polygon opacity="0.3" points="34.8,37.9 36.6,38.8 29.2,42.5 29.2,46.1 27.4,45.2 27.4,41.6 		"/>
		<polygon opacity="0.11" points="32,51.3 24.6,47.6 24.6,40.2 32,43.9 		"/>
	</g>
	<g>
		<polygon fill="#FFCC00" points="47.4,44.2 47.4,51.6 40,55.3 32.6,51.6 32.6,44.2 40,40.5 		"/>
		<polygon opacity="0.29" points="40,55.3 47.4,51.6 47.4,44.2 40,47.9 		"/>
		<polygon opacity="0.3" points="42.8,41.9 44.6,42.8 37.2,46.5 37.2,50.1 35.4,49.2 35.4,45.6 		"/>
		<polygon opacity="0.11" points="40,55.3 32.6,51.6 32.6,44.2 40,47.9 		"/>
	</g>
	<g>
		<polygon fill="#999999" points="8,31.6 8,32.2 40,48.2 48,44.2 48,43.6 16,27.6 		"/>
		<polygon opacity="0.11" points="40,48.2 8,32.2 8,31.6 40,47.6 		"/>
		<polygon opacity="0.29" points="40,48.2 48,44.2 48,43.6 40,47.6 		"/>
	</g>
	<g>
		<polygon fill="#FFCC00" points="23.4,24.2 23.4,31.6 16,35.3 8.6,31.6 8.6,24.2 16,20.5 		"/>
		<polygon opacity="0.29" points="16,35.3 23.4,31.6 23.4,24.2 16,27.9 		"/>
		<polygon opacity="0.3" points="18.8,21.9 20.6,22.8 13.2,26.5 13.2,30.1 11.4,29.2 11.4,25.6 		"/>
		<polygon opacity="0.11" points="16,35.3 8.6,31.6 8.6,24.2 16,27.9 		"/>
	</g>
	<g>
		<polygon fill="#FFCC00" points="31.4,28.2 31.4,35.6 24,39.3 16.6,35.6 16.6,28.2 24,24.5 		"/>
		<polygon opacity="0.29" points="24,39.3 31.4,35.6 31.4,28.2 24,31.9 		"/>
		<polygon opacity="0.3" points="26.8,25.9 28.6,26.8 21.2,30.5 21.2,34.1 19.4,33.2 19.4,29.6 		"/>
		<polygon opacity="0.11" points="24,39.3 16.6,35.6 16.6,28.2 24,31.9 		"/>
	</g>
	<g>
		<polygon fill="#FFCC00" points="39.4,32.2 39.4,39.6 32,43.3 24.6,39.6 24.6,32.2 32,28.5 		"/>
		<polygon opacity="0.29" points="32,43.3 39.4,39.6 39.4,32.2 32,35.9 		"/>
		<polygon opacity="0.3" points="34.8,29.9 36.6,30.8 29.2,34.5 29.2,38.1 27.4,37.2 27.4,33.6 		"/>
		<polygon opacity="0.11" points="32,43.3 24.6,39.6 24.6,32.2 32,35.9 		"/>
	</g>
	<g>
		<polygon fill="#FFCC00" points="47.4,36.2 47.4,43.6 40,47.3 32.6,43.6 32.6,36.2 40,32.5 		"/>
		<polygon opacity="0.29" points="40,47.3 47.4,43.6 47.4,36.2 40,39.9 		"/>
		<polygon opacity="0.3" points="42.8,33.9 44.6,34.8 37.2,38.5 37.2,42.1 35.4,41.2 35.4,37.6 		"/>
		<polygon opacity="0.11" points="40,47.3 32.6,43.6 32.6,36.2 40,39.9 		"/>
	</g>
	<g>
		<polygon fill="#3366CC" points="41.1,46.9 48,37.6 48,37 47.4,36.7 41.1,45.4 		"/>
		<polygon opacity="0.29" points="41.1,46.9 48,37.6 48,37 41.1,46.3 		"/>
	</g>
	<g>
		<polygon fill="#3366CC" points="41.1,54.9 48,45.6 48,45 47.4,44.7 41.1,53.4 		"/>
		<polygon opacity="0.29" points="41.1,54.9 48,45.6 48,45 41.1,54.3 		"/>
	</g>
	<g>
		<polygon fill="#999999" points="8,23.6 8,24.2 40,40.2 48,36.2 48,35.6 16,19.6 		"/>
		<polygon opacity="0.11" points="40,40.2 8,24.2 8,23.6 40,39.6 		"/>
		<polygon opacity="0.29" points="40,40.2 48,36.2 48,35.6 40,39.6 		"/>
	</g>
	<g>
		<polygon fill="#FFCC00" points="23.4,16.2 23.4,23.6 16,27.3 8.6,23.6 8.6,16.2 16,12.5 		"/>
		<polygon opacity="0.29" points="16,27.3 23.4,23.6 23.4,16.2 16,19.9 		"/>
		<polygon opacity="0.3" points="18.8,13.9 20.6,14.8 13.2,18.5 13.2,22.1 11.4,21.2 11.4,17.6 		"/>
		<polygon opacity="0.11" points="16,27.3 8.6,23.6 8.6,16.2 16,19.9 		"/>
	</g>
	<g>
		<polygon fill="#FFCC00" points="31.4,20.2 31.4,27.6 24,31.3 16.6,27.6 16.6,20.2 24,16.5 		"/>
		<polygon opacity="0.29" points="24,31.3 31.4,27.6 31.4,20.2 24,23.9 		"/>
		<polygon opacity="0.3" points="26.8,17.9 28.6,18.8 21.2,22.5 21.2,26.1 19.4,25.2 19.4,21.6 		"/>
		<polygon opacity="0.11" points="24,31.3 16.6,27.6 16.6,20.2 24,23.9 		"/>
	</g>
	<g>
		<polygon fill="#FFCC00" points="39.4,24.2 39.4,31.6 32,35.3 24.6,31.6 24.6,24.2 32,20.5 		"/>
		<polygon opacity="0.29" points="32,35.3 39.4,31.6 39.4,24.2 32,27.9 		"/>
		<polygon opacity="0.3" points="34.8,21.9 36.6,22.8 29.2,26.5 29.2,30.1 27.4,29.2 27.4,25.6 		"/>
		<polygon opacity="0.11" points="32,35.3 24.6,31.6 24.6,24.2 32,27.9 		"/>
	</g>
	<g>
		<polygon fill="#FFCC00" points="47.4,28.2 47.4,35.6 40,39.3 32.6,35.6 32.6,28.2 40,24.5 		"/>
		<polygon opacity="0.29" points="40,39.3 47.4,35.6 47.4,28.2 40,31.9 		"/>
		<polygon opacity="0.3" points="42.8,25.9 44.6,26.8 37.2,30.5 37.2,34.1 35.4,33.2 35.4,29.6 		"/>
		<polygon opacity="0.11" points="40,39.3 32.6,35.6 32.6,28.2 40,31.9 		"/>
	</g>
	<g>
		<polygon fill="#3366CC" points="41.1,39 48,29.7 48,29.1 47.4,28.8 41.1,37.5 		"/>
		<polygon opacity="0.29" points="41.1,39 48,29.7 48,29.1 41.1,38.4 		"/>
	</g>
	<g>
		<polygon fill="#3366CC" points="38.8,32 38.8,56 40,56.6 41.2,56 41.2,32 40,31.4 		"/>
		<polygon opacity="0.11" points="40,56.6 38.8,56 38.8,32 40,32.6 		"/>
		<polygon opacity="0.29" points="40,56.6 41.2,56 41.2,32 40,32.6 		"/>
	</g>
</g>
</svg>
