<?xml version="1.0" encoding="utf-8"?>
<!-- Generator: Adobe Illustrator 18.1.0, SVG Export Plug-In . SVG Version: 6.00 Build 0)  -->
<svg version="1.1" id="Layer_1" xmlns="http://www.w3.org/2000/svg" xmlns:xlink="http://www.w3.org/1999/xlink" x="0px" y="0px"
	 viewBox="0 0 64 64" enable-background="new 0 0 64 64" xml:space="preserve">
<g>
	<g>
		<polygon fill="#3366CC" points="14.8,12 14.8,36 16,36.6 17.2,36 17.2,12 16,11.4 		"/>
		<polygon opacity="0.11" points="16,36.6 14.8,36 14.8,12 16,12.6 		"/>
		<polygon opacity="0.29" points="16,36.6 17.2,36 17.2,12 16,12.6 		"/>
	</g>
	<g>
		<polygon fill="#3366CC" points="9.1,30.9 16,21.6 16,21 15.4,20.7 9.1,29.4 		"/>
		<polygon opacity="0.29" points="9.1,30.9 16,21.6 16,21 9.1,30.3 		"/>
	</g>
	<g>
		<polygon fill="#3366CC" points="9.1,38.9 16,29.6 16,29 15.4,28.7 9.1,37.4 		"/>
		<polygon opacity="0.29" points="9.1,38.9 16,29.6 16,29 9.1,38.3 		"/>
	</g>
	<g>
		<polygon fill="#3366CC" points="9.1,23 16,13.7 16,13.1 15.4,12.8 9.1,21.5 		"/>
		<polygon opacity="0.29" points="9.1,23 16,13.7 16,13.1 9.1,22.4 		"/>
	</g>
	<g>
		<polygon fill="#3366CC" points="46.8,28 46.8,52 48,52.6 49.2,52 49.2,28 48,27.4 		"/>
		<polygon opacity="0.11" points="48,52.6 46.8,52 46.8,28 48,28.6 		"/>
		<polygon opacity="0.29" points="48,52.6 49.2,52 49.2,28 48,28.6 		"/>
	</g>
	<g>
		<polygon fill="#3366CC" points="6.8,16 6.8,40 8,40.6 9.2,40 9.2,16 8,15.4 		"/>
		<polygon opacity="0.11" points="8,40.6 6.8,40 6.8,16 8,16.6 		"/>
		<polygon opacity="0.29" points="8,40.6 9.2,40 9.2,16 8,16.6 		"/>
	</g>
	<g>
		<polygon fill="#999999" points="8,39.6 8,40.2 40,56.2 48,52.2 48,51.6 16,35.6 		"/>
		<polygon opacity="0.11" points="40,56.2 8,40.2 8,39.6 40,55.6 		"/>
		<polygon opacity="0.29" points="40,56.2 48,52.2 48,51.6 40,55.6 		"/>
	</g>
	<g>
		<polygon fill="#999999" points="8,31.6 8,32.2 40,48.2 48,44.2 48,43.6 16,27.6 		"/>
		<polygon opacity="0.11" points="40,48.2 8,32.2 8,31.6 40,47.6 		"/>
		<polygon opacity="0.29" points="40,48.2 48,44.2 48,43.6 40,47.6 		"/>
	</g>
	<g>
		<polygon fill="#3366CC" points="41.1,46.9 48,37.6 48,37 47.4,36.7 41.1,45.4 		"/>
		<polygon opacity="0.29" points="41.1,46.9 48,37.6 48,37 41.1,46.3 		"/>
	</g>
	<g>
		<polygon fill="#3366CC" points="41.1,54.9 48,45.6 48,45 47.4,44.7 41.1,53.4 		"/>
		<polygon opacity="0.29" points="41.1,54.9 48,45.6 48,45 41.1,54.3 		"/>
	</g>
	<g>
		<polygon fill="#999999" points="8,23.6 8,24.2 40,40.2 48,36.2 48,35.6 16,19.6 		"/>
		<polygon opacity="0.11" points="40,40.2 8,24.2 8,23.6 40,39.6 		"/>
		<polygon opacity="0.29" points="40,40.2 48,36.2 48,35.6 40,39.6 		"/>
	</g>
	<g>
		<polygon fill="#3366CC" points="41.1,39 48,29.7 48,29.1 47.4,28.8 41.1,37.5 		"/>
		<polygon opacity="0.29" points="41.1,39 48,29.7 48,29.1 41.1,38.4 		"/>
	</g>
	<g>
		<polygon fill="#3366CC" points="38.8,32 38.8,56 40,56.6 41.2,56 41.2,32 40,31.4 		"/>
		<polygon opacity="0.11" points="40,56.6 38.8,56 38.8,32 40,32.6 		"/>
		<polygon opacity="0.29" points="40,56.6 41.2,56 41.2,32 40,32.6 		"/>
	</g>
</g>
</svg>
